<?xml version="1.0" encoding="UTF-8"?>
<svg xmlns="http://www.w3.org/2000/svg" xmlns:xlink="http://www.w3.org/1999/xlink" width="40px" height="40px" viewBox="0 0 40 40" version="1.1">
<defs>
<linearGradient id="linear0" gradientUnits="userSpaceOnUse" x1="364.950012" y1="1733.089966" x2="4852.620117" y2="2931.330078" gradientTransform="matrix(0.416667,0,0,0.416667,0,0)">
<stop offset="0" style="stop-color:rgb(19.215686%,36.078431%,33.333333%);stop-opacity:1;"/>
<stop offset="1" style="stop-color:rgb(3.529412%,16.078431%,24.705882%);stop-opacity:1;"/>
</linearGradient>
<linearGradient id="linear1" gradientUnits="userSpaceOnUse" x1="1759.390015" y1="1538.939941" x2="1341.73999" y2="5605.290039" gradientTransform="matrix(0.416667,0,0,0.416667,0,0)">
<stop offset="0" style="stop-color:rgb(30.980392%,70.196078%,55.294118%);stop-opacity:1;"/>
<stop offset="1" style="stop-color:rgb(19.215686%,36.078431%,33.333333%);stop-opacity:1;"/>
</linearGradient>
<linearGradient id="linear2" gradientUnits="userSpaceOnUse" x1="860.359985" y1="1420.140015" x2="4172.52002" y2="2027.280029" gradientTransform="matrix(0.416667,0,0,0.416667,0,0)">
<stop offset="0" style="stop-color:rgb(30.980392%,70.196078%,55.294118%);stop-opacity:1;"/>
<stop offset="1" style="stop-color:rgb(59.215686%,87.058824%,75.294118%);stop-opacity:1;"/>
</linearGradient>
<linearGradient id="linear3" gradientUnits="userSpaceOnUse" x1="1589.930054" y1="1983.819946" x2="-216.115005" y2="5365.350098" gradientTransform="matrix(0.416667,0,0,0.416667,0,0)">
<stop offset="0" style="stop-color:rgb(59.215686%,87.058824%,75.294118%);stop-opacity:1;"/>
<stop offset="1" style="stop-color:rgb(100%,100%,94.117647%);stop-opacity:0;"/>
</linearGradient>
</defs>
<g id="surface1">
<path style=" stroke:none;fill-rule:nonzero;fill:url(#linear0);" d="M 22.089844 34.679688 L 21.425781 36.289062 C 21.292969 36.609375 20.992188 36.824219 20.652344 36.839844 C 20.429688 36.847656 20.203125 36.851562 19.976562 36.851562 C 12.167969 36.847656 5.261719 31.328125 3.550781 23.722656 L 0.894531 24.324219 C 1.855469 28.589844 4.265625 32.460938 7.679688 35.230469 C 11.136719 38.03125 15.492188 39.574219 19.945312 39.582031 L 19.984375 39.582031 C 20.246094 39.582031 20.507812 39.578125 20.765625 39.566406 C 22.164062 39.507812 23.414062 38.628906 23.945312 37.328125 L 24.8125 35.222656 Z M 22.089844 34.679688 "/>
<path style=" stroke:none;fill-rule:nonzero;fill:url(#linear1);" d="M 1.113281 25.1875 C 0.652344 23.507812 0.417969 21.761719 0.417969 20 C 0.417969 11.96875 5.445312 4.628906 12.929688 1.730469 L 13.910156 4.277344 C 7.46875 6.773438 3.140625 13.089844 3.140625 20 C 3.140625 21.515625 3.339844 23.019531 3.738281 24.464844 Z M 1.113281 25.1875 "/>
<path style=" stroke:none;fill-rule:nonzero;fill:url(#linear2);" d="M 34.945312 12.242188 C 32.035156 6.632812 26.300781 3.148438 19.988281 3.148438 C 17.75 3.148438 15.578125 3.582031 13.53125 4.429688 L 12.488281 1.90625 C 14.867188 0.917969 17.390625 0.417969 19.988281 0.417969 C 27.320312 0.417969 33.980469 4.464844 37.363281 10.980469 Z M 34.945312 12.242188 "/>
<path style=" stroke:none;fill-rule:nonzero;fill:rgb(3.529412%,16.078432%,24.705882%);fill-opacity:1;" d="M 14.144531 15.960938 C 15.722656 15.960938 17.011719 16.804688 17.671875 18.28125 L 17.722656 18.394531 L 20.378906 17.492188 L 20.320312 17.355469 C 19.292969 14.84375 16.925781 13.285156 14.144531 13.285156 C 12.1875 13.285156 10.597656 13.914062 9.285156 15.207031 C 7.976562 16.488281 7.316406 18.101562 7.316406 20.003906 C 7.316406 21.890625 7.976562 23.496094 9.285156 24.78125 C 10.597656 26.070312 12.1875 26.699219 14.144531 26.699219 C 16.925781 26.699219 19.292969 25.140625 20.320312 22.632812 L 20.378906 22.496094 L 17.71875 21.589844 L 17.671875 21.710938 C 17.078125 23.160156 15.761719 24.023438 14.144531 24.023438 C 13.042969 24.023438 12.113281 23.640625 11.378906 22.878906 C 10.632812 22.109375 10.257812 21.144531 10.257812 20.007812 C 10.257812 18.863281 10.625 17.914062 11.378906 17.109375 C 12.113281 16.347656 13.042969 15.960938 14.144531 15.960938 Z M 14.144531 15.960938 "/>
<path style=" stroke:none;fill-rule:nonzero;fill:rgb(3.529412%,16.078432%,24.705882%);fill-opacity:1;" d="M 30.761719 13.53125 L 26.980469 23.128906 L 23.175781 13.53125 L 20.0625 13.53125 L 25.398438 26.632812 L 21.601562 35.871094 L 24.324219 36.414062 L 33.703125 13.53125 Z M 30.761719 13.53125 "/>
<path style=" stroke:none;fill-rule:nonzero;fill:url(#linear3);" d="M 37.363281 10.980469 C 38.742188 13.664062 39.582031 16.816406 39.582031 20.042969 C 39.582031 27.570312 35.351562 34.105469 29.140625 37.382812 L 27.800781 35.003906 C 33.183594 32.195312 36.859375 26.550781 36.859375 20.042969 C 36.859375 17.21875 36.171875 14.582031 34.945312 12.242188 Z M 37.363281 10.980469 "/>
</g>
</svg>
