<?xml version="1.0" encoding="UTF-8"?>
<svg xmlns="http://www.w3.org/2000/svg" xmlns:xlink="http://www.w3.org/1999/xlink" width="40px" height="40px" viewBox="0 0 40 40" version="1.1">
<g id="surface1">
<path style=" stroke:none;fill-rule:nonzero;fill:rgb(3.529412%,60.784316%,92.54902%);fill-opacity:1;" d="M 30 12.5 C 31.351562 13.164062 32.433594 14.296875 32.980469 15.703125 C 33.078125 16.007812 33.125 16.238281 33.125 16.5625 C 33.214844 16.550781 33.300781 16.539062 33.394531 16.523438 C 35.035156 16.320312 36.605469 16.515625 37.96875 17.5 C 37.84375 18.59375 37.03125 19.578125 36.199219 20.242188 C 35.042969 21.035156 33.714844 21.210938 32.34375 21.171875 C 32.332031 21.25 32.332031 21.25 32.320312 21.328125 C 32.25 21.628906 32.128906 21.894531 31.996094 22.167969 C 31.96875 22.226562 31.941406 22.285156 31.914062 22.34375 C 31.167969 23.882812 30.199219 25.289062 29.0625 26.5625 C 29.023438 26.605469 28.984375 26.648438 28.945312 26.695312 C 28.488281 27.203125 28.03125 27.695312 27.5 28.125 C 27.417969 28.195312 27.335938 28.265625 27.253906 28.332031 C 25.671875 29.652344 23.878906 30.617188 21.953125 31.328125 C 21.867188 31.359375 21.867188 31.359375 21.78125 31.394531 C 19.683594 32.167969 17.394531 32.578125 15.164062 32.597656 C 15.085938 32.597656 15.007812 32.597656 14.925781 32.597656 C 11.65625 32.625 11.65625 32.625 10.234375 32.265625 C 10.132812 32.242188 10.132812 32.242188 10.027344 32.214844 C 7.386719 31.558594 5.085938 29.96875 3.644531 27.644531 C 3.050781 26.640625 2.660156 25.574219 2.34375 24.453125 C 2.324219 24.386719 2.304688 24.320312 2.285156 24.253906 C 1.90625 22.84375 1.855469 21.125 2.109375 19.6875 C 2.164062 19.6875 2.214844 19.6875 2.269531 19.6875 C 5.441406 19.683594 8.609375 19.679688 11.777344 19.671875 C 12.160156 19.671875 12.542969 19.671875 12.921875 19.671875 C 12.996094 19.671875 13.074219 19.671875 13.152344 19.671875 C 14.378906 19.667969 15.605469 19.667969 16.832031 19.667969 C 18.089844 19.664062 19.347656 19.664062 20.609375 19.660156 C 21.386719 19.65625 22.160156 19.65625 22.9375 19.65625 C 23.472656 19.65625 24.003906 19.65625 24.539062 19.652344 C 24.84375 19.652344 25.152344 19.652344 25.457031 19.652344 C 27.40625 19.757812 27.40625 19.757812 29.140625 19.0625 C 29.113281 19.007812 29.085938 18.953125 29.0625 18.898438 C 29.027344 18.824219 28.992188 18.75 28.953125 18.671875 C 28.921875 18.597656 28.886719 18.527344 28.851562 18.453125 C 28.308594 17.109375 28.425781 15.457031 28.984375 14.140625 C 29.265625 13.550781 29.582031 13.003906 30 12.5 Z M 30 12.5 "/>
<path style=" stroke:none;fill-rule:nonzero;fill:rgb(3.137255%,61.176473%,92.54902%);fill-opacity:1;" d="M 17.96875 7.34375 C 19.207031 7.34375 20.445312 7.34375 21.71875 7.34375 C 21.71875 8.503906 21.71875 9.664062 21.71875 10.859375 C 20.480469 10.859375 19.242188 10.859375 17.96875 10.859375 C 17.96875 9.699219 17.96875 8.539062 17.96875 7.34375 Z M 17.96875 7.34375 "/>
<path style=" stroke:none;fill-rule:nonzero;fill:rgb(3.137255%,60.784316%,92.156863%);fill-opacity:1;" d="M 13.515625 11.484375 C 14.777344 11.484375 16.042969 11.484375 17.34375 11.484375 C 17.34375 12.617188 17.34375 13.753906 17.34375 14.921875 C 16.082031 14.921875 14.816406 14.921875 13.515625 14.921875 C 13.515625 13.789062 13.515625 12.652344 13.515625 11.484375 Z M 13.515625 11.484375 "/>
<path style=" stroke:none;fill-rule:nonzero;fill:rgb(3.137255%,60.784316%,92.156863%);fill-opacity:1;" d="M 9.140625 11.484375 C 10.402344 11.484375 11.667969 11.484375 12.96875 11.484375 C 12.96875 12.617188 12.96875 13.753906 12.96875 14.921875 C 11.707031 14.921875 10.441406 14.921875 9.140625 14.921875 C 9.140625 13.789062 9.140625 12.652344 9.140625 11.484375 Z M 9.140625 11.484375 "/>
<path style=" stroke:none;fill-rule:nonzero;fill:rgb(3.137255%,60.784316%,92.156863%);fill-opacity:1;" d="M 17.96875 11.484375 C 19.207031 11.484375 20.445312 11.484375 21.71875 11.484375 C 21.71875 12.617188 21.71875 13.753906 21.71875 14.921875 C 20.480469 14.921875 19.242188 14.921875 17.96875 14.921875 C 17.96875 13.789062 17.96875 12.652344 17.96875 11.484375 Z M 17.96875 11.484375 "/>
<path style=" stroke:none;fill-rule:nonzero;fill:rgb(3.137255%,61.176473%,92.156863%);fill-opacity:1;" d="M 13.515625 15.546875 C 14.777344 15.546875 16.042969 15.546875 17.34375 15.546875 C 17.34375 16.65625 17.34375 17.765625 17.34375 18.90625 C 16.082031 18.90625 14.816406 18.90625 13.515625 18.90625 C 13.515625 17.796875 13.515625 16.6875 13.515625 15.546875 Z M 13.515625 15.546875 "/>
<path style=" stroke:none;fill-rule:nonzero;fill:rgb(3.137255%,60.784316%,92.156863%);fill-opacity:1;" d="M 9.140625 15.546875 C 10.402344 15.546875 11.667969 15.546875 12.96875 15.546875 C 12.96875 16.65625 12.96875 17.765625 12.96875 18.90625 C 11.707031 18.90625 10.441406 18.90625 9.140625 18.90625 C 9.140625 17.796875 9.140625 16.6875 9.140625 15.546875 Z M 9.140625 15.546875 "/>
<path style=" stroke:none;fill-rule:nonzero;fill:rgb(3.529412%,60.784316%,92.156863%);fill-opacity:1;" d="M 4.765625 15.546875 C 6.027344 15.546875 7.292969 15.546875 8.59375 15.546875 C 8.59375 16.65625 8.59375 17.765625 8.59375 18.90625 C 7.332031 18.90625 6.066406 18.90625 4.765625 18.90625 C 4.765625 17.796875 4.765625 16.6875 4.765625 15.546875 Z M 4.765625 15.546875 "/>
<path style=" stroke:none;fill-rule:nonzero;fill:rgb(3.137255%,60.784316%,92.156863%);fill-opacity:1;" d="M 22.34375 15.546875 C 23.582031 15.546875 24.820312 15.546875 26.09375 15.546875 C 26.09375 16.65625 26.09375 17.765625 26.09375 18.90625 C 24.855469 18.90625 23.617188 18.90625 22.34375 18.90625 C 22.34375 17.796875 22.34375 16.6875 22.34375 15.546875 Z M 22.34375 15.546875 "/>
<path style=" stroke:none;fill-rule:nonzero;fill:rgb(3.137255%,60.784316%,92.156863%);fill-opacity:1;" d="M 17.96875 15.546875 C 19.207031 15.546875 20.445312 15.546875 21.71875 15.546875 C 21.71875 16.65625 21.71875 17.765625 21.71875 18.90625 C 20.480469 18.90625 19.242188 18.90625 17.96875 18.90625 C 17.96875 17.796875 17.96875 16.6875 17.96875 15.546875 Z M 17.96875 15.546875 "/>
</g>
</svg>
