<?xml version="1.0" encoding="UTF-8"?>
<svg xmlns="http://www.w3.org/2000/svg" xmlns:xlink="http://www.w3.org/1999/xlink" width="40px" height="40px" viewBox="0 0 40 21" version="1.1">
<g id="surface1">
<path style=" stroke:none;fill-rule:nonzero;fill:rgb(22.352941%,22.352941%,22.352941%);fill-opacity:1;" d="M 25.933594 2.269531 C 25.960938 2.289062 25.960938 2.289062 25.992188 2.308594 C 26.261719 2.5 26.515625 2.707031 26.765625 2.917969 C 26.792969 2.9375 26.820312 2.960938 26.847656 2.984375 C 27.273438 3.347656 27.683594 3.742188 28.035156 4.179688 C 28.082031 4.238281 28.128906 4.292969 28.179688 4.347656 C 28.367188 4.574219 28.535156 4.8125 28.699219 5.054688 C 28.714844 5.074219 28.726562 5.097656 28.742188 5.117188 C 29.761719 6.621094 30.28125 8.382812 30.332031 10.175781 C 30.335938 10.199219 30.335938 10.222656 30.335938 10.246094 C 30.386719 12.195312 29.898438 14.21875 28.765625 15.847656 C 28.734375 15.894531 28.734375 15.894531 28.703125 15.945312 C 28.449219 16.328125 28.160156 16.699219 27.839844 17.035156 C 27.777344 17.097656 27.722656 17.164062 27.664062 17.230469 C 27.511719 17.394531 27.351562 17.550781 27.191406 17.707031 C 27.164062 17.738281 27.132812 17.765625 27.101562 17.796875 C 26.902344 17.992188 26.691406 18.167969 26.464844 18.34375 C 26.425781 18.375 26.386719 18.410156 26.34375 18.441406 C 24.664062 19.792969 22.5 20.488281 20.332031 20.546875 C 20.308594 20.546875 20.285156 20.546875 20.261719 20.546875 C 19.136719 20.578125 18.011719 20.4375 16.933594 20.125 C 16.90625 20.117188 16.878906 20.109375 16.855469 20.101562 C 15.667969 19.753906 14.535156 19.15625 13.585938 18.382812 C 13.535156 18.34375 13.480469 18.300781 13.429688 18.261719 C 13.15625 18.042969 12.90625 17.804688 12.65625 17.5625 C 12.640625 17.546875 12.621094 17.53125 12.605469 17.511719 C 12.402344 17.316406 12.210938 17.117188 12.03125 16.898438 C 11.964844 16.816406 11.890625 16.734375 11.820312 16.652344 C 11.632812 16.425781 11.464844 16.1875 11.300781 15.945312 C 11.285156 15.925781 11.273438 15.902344 11.257812 15.882812 C 10.238281 14.378906 9.71875 12.617188 9.667969 10.824219 C 9.664062 10.800781 9.664062 10.777344 9.664062 10.753906 C 9.613281 8.804688 10.101562 6.78125 11.234375 5.152344 C 11.265625 5.105469 11.265625 5.105469 11.296875 5.054688 C 11.550781 4.671875 11.839844 4.300781 12.160156 3.964844 C 12.222656 3.902344 12.28125 3.835938 12.339844 3.769531 C 12.6875 3.378906 13.074219 3.003906 13.5 2.691406 C 13.546875 2.652344 13.546875 2.652344 13.597656 2.613281 C 16.355469 0.414062 20.296875 -0.136719 25.933594 2.269531 Z M 25.933594 2.269531 "/>
<path style=" stroke:none;fill-rule:nonzero;fill:rgb(99.215686%,99.215686%,99.215686%);fill-opacity:1;" d="M 18.113281 7.265625 C 18.757812 7.773438 19.1875 8.484375 19.367188 9.269531 C 19.378906 9.316406 19.390625 9.363281 19.402344 9.410156 C 19.519531 9.894531 19.5 10.261719 19.5 10.792969 C 17.609375 10.792969 15.714844 10.792969 13.765625 10.792969 C 13.84375 11.589844 13.980469 12.285156 14.601562 12.832031 C 15.050781 13.179688 15.582031 13.300781 16.144531 13.296875 C 16.199219 13.296875 16.199219 13.296875 16.25 13.296875 C 16.816406 13.300781 17.328125 13.113281 17.738281 12.734375 C 17.953125 12.519531 18.074219 12.285156 18.132812 11.992188 C 18.539062 11.992188 18.949219 11.992188 19.367188 11.992188 C 19.296875 12.679688 18.9375 13.230469 18.414062 13.683594 C 17.601562 14.316406 16.570312 14.457031 15.558594 14.378906 C 14.714844 14.285156 13.9375 13.914062 13.378906 13.285156 C 12.574219 12.292969 12.363281 11.003906 12.480469 9.769531 C 12.570312 9.046875 12.894531 8.371094 13.367188 7.808594 C 13.390625 7.78125 13.414062 7.753906 13.4375 7.726562 C 13.878906 7.222656 14.472656 6.871094 15.132812 6.707031 C 15.164062 6.699219 15.195312 6.6875 15.226562 6.679688 C 16.191406 6.40625 17.339844 6.671875 18.113281 7.265625 Z M 18.113281 7.265625 "/>
<path style=" stroke:none;fill-rule:nonzero;fill:rgb(99.215686%,99.215686%,99.215686%);fill-opacity:1;" d="M 20.066406 6.609375 C 21.558594 6.480469 21.558594 6.480469 21.859375 6.679688 C 22.039062 6.855469 22.136719 7.066406 22.226562 7.292969 C 22.28125 7.421875 22.347656 7.507812 22.433594 7.617188 C 22.609375 7.851562 22.773438 8.09375 22.9375 8.332031 C 23.085938 8.554688 23.238281 8.769531 23.398438 8.984375 C 23.601562 9.253906 23.601562 9.253906 23.601562 9.332031 C 23.621094 9.332031 23.644531 9.332031 23.667969 9.332031 C 23.675781 9.3125 23.679688 9.289062 23.6875 9.265625 C 23.746094 9.144531 23.824219 9.046875 23.910156 8.941406 C 24.0625 8.746094 24.210938 8.546875 24.351562 8.34375 C 24.5 8.128906 24.65625 7.917969 24.820312 7.707031 C 24.953125 7.539062 25.074219 7.367188 25.195312 7.191406 C 25.226562 7.152344 25.253906 7.113281 25.285156 7.070312 C 25.335938 6.996094 25.335938 6.996094 25.382812 6.898438 C 25.449219 6.78125 25.511719 6.679688 25.632812 6.609375 C 25.890625 6.546875 26.171875 6.574219 26.433594 6.585938 C 26.507812 6.589844 26.582031 6.589844 26.65625 6.59375 C 26.839844 6.597656 27.019531 6.601562 27.199219 6.609375 C 27.199219 6.632812 27.199219 6.652344 27.199219 6.675781 C 27.183594 6.691406 27.164062 6.710938 27.144531 6.726562 C 27.035156 6.835938 26.949219 6.957031 26.859375 7.078125 C 26.6875 7.308594 26.511719 7.535156 26.332031 7.761719 C 26.164062 7.976562 25.996094 8.191406 25.832031 8.410156 C 25.648438 8.65625 25.457031 8.898438 25.265625 9.144531 C 25.054688 9.410156 24.851562 9.679688 24.644531 9.953125 C 24.601562 10.015625 24.601562 10.015625 24.542969 10.078125 C 24.492188 10.140625 24.492188 10.140625 24.503906 10.210938 C 24.535156 10.273438 24.566406 10.328125 24.609375 10.386719 C 24.625 10.40625 24.640625 10.429688 24.65625 10.449219 C 24.671875 10.472656 24.691406 10.496094 24.707031 10.519531 C 24.726562 10.542969 24.742188 10.570312 24.761719 10.59375 C 24.820312 10.671875 24.875 10.746094 24.933594 10.824219 C 24.96875 10.871094 25.007812 10.921875 25.042969 10.96875 C 25.097656 11.042969 25.152344 11.117188 25.203125 11.1875 C 25.328125 11.351562 25.445312 11.515625 25.566406 11.683594 C 25.773438 11.972656 25.988281 12.257812 26.199219 12.542969 C 26.429688 12.847656 26.65625 13.15625 26.882812 13.46875 C 26.972656 13.589844 27.0625 13.714844 27.152344 13.835938 C 27.171875 13.863281 27.191406 13.886719 27.210938 13.914062 C 27.25 13.964844 27.289062 14.019531 27.328125 14.070312 C 27.34375 14.089844 27.363281 14.113281 27.378906 14.136719 C 27.394531 14.160156 27.410156 14.179688 27.425781 14.199219 C 27.46875 14.261719 27.5 14.324219 27.535156 14.390625 C 27.296875 14.402344 27.0625 14.410156 26.824219 14.417969 C 26.746094 14.421875 26.664062 14.421875 26.585938 14.429688 C 25.941406 14.464844 25.941406 14.464844 25.769531 14.34375 C 25.660156 14.226562 25.597656 14.085938 25.535156 13.941406 C 25.480469 13.824219 25.402344 13.726562 25.328125 13.621094 C 25.296875 13.578125 25.265625 13.535156 25.234375 13.492188 C 25.210938 13.457031 25.210938 13.457031 25.183594 13.425781 C 25.089844 13.289062 24.992188 13.152344 24.898438 13.011719 C 24.878906 12.984375 24.855469 12.953125 24.835938 12.925781 C 24.792969 12.863281 24.753906 12.804688 24.710938 12.742188 C 24.648438 12.652344 24.585938 12.5625 24.523438 12.472656 C 24.132812 11.910156 24.132812 11.910156 23.941406 11.628906 C 23.878906 11.535156 23.808594 11.441406 23.742188 11.347656 C 23.667969 11.246094 23.667969 11.246094 23.667969 11.179688 C 23.644531 11.179688 23.621094 11.179688 23.601562 11.179688 C 23.59375 11.203125 23.585938 11.222656 23.578125 11.246094 C 23.515625 11.378906 23.429688 11.496094 23.34375 11.617188 C 23.304688 11.671875 23.265625 11.726562 23.226562 11.78125 C 23.203125 11.8125 23.183594 11.839844 23.164062 11.871094 C 23.058594 12.015625 22.957031 12.164062 22.855469 12.308594 C 22.835938 12.339844 22.816406 12.367188 22.792969 12.398438 C 22.753906 12.457031 22.710938 12.519531 22.667969 12.578125 C 22.605469 12.671875 22.542969 12.761719 22.480469 12.851562 C 22.292969 13.121094 22.105469 13.390625 21.921875 13.660156 C 21.867188 13.742188 21.8125 13.820312 21.753906 13.902344 C 21.738281 13.929688 21.71875 13.953125 21.703125 13.980469 C 21.667969 14.03125 21.632812 14.078125 21.597656 14.128906 C 21.574219 14.167969 21.574219 14.167969 21.546875 14.203125 C 21.53125 14.226562 21.519531 14.246094 21.503906 14.269531 C 21.464844 14.324219 21.464844 14.324219 21.433594 14.390625 C 20.90625 14.390625 20.378906 14.390625 19.832031 14.390625 C 19.878906 14.300781 19.921875 14.226562 19.980469 14.148438 C 19.996094 14.125 20.011719 14.105469 20.027344 14.082031 C 20.042969 14.058594 20.058594 14.035156 20.078125 14.011719 C 20.105469 13.976562 20.105469 13.976562 20.128906 13.9375 C 20.277344 13.738281 20.421875 13.542969 20.570312 13.34375 C 20.691406 13.179688 20.8125 13.015625 20.933594 12.847656 C 21.089844 12.632812 21.246094 12.421875 21.40625 12.207031 C 21.542969 12.023438 21.679688 11.835938 21.816406 11.648438 C 21.917969 11.503906 22.023438 11.363281 22.128906 11.21875 C 22.203125 11.125 22.273438 11.027344 22.347656 10.929688 C 22.382812 10.878906 22.417969 10.832031 22.457031 10.78125 C 22.507812 10.710938 22.558594 10.640625 22.613281 10.570312 C 22.636719 10.535156 22.636719 10.535156 22.660156 10.503906 C 22.742188 10.398438 22.742188 10.398438 22.757812 10.273438 C 22.730469 10.199219 22.691406 10.144531 22.644531 10.082031 C 22.625 10.058594 22.605469 10.03125 22.585938 10.007812 C 22.566406 9.980469 22.546875 9.957031 22.523438 9.929688 C 22.480469 9.875 22.4375 9.816406 22.398438 9.761719 C 22.375 9.734375 22.351562 9.707031 22.332031 9.675781 C 22.234375 9.550781 22.140625 9.421875 22.046875 9.292969 C 21.910156 9.113281 21.773438 8.929688 21.632812 8.75 C 21.492188 8.570312 21.355469 8.386719 21.222656 8.207031 C 21.070312 8 20.917969 7.796875 20.765625 7.59375 C 20.746094 7.570312 20.726562 7.542969 20.707031 7.519531 C 20.609375 7.394531 20.515625 7.265625 20.417969 7.144531 C 20.398438 7.121094 20.378906 7.097656 20.363281 7.070312 C 20.328125 7.027344 20.292969 6.984375 20.257812 6.941406 C 20.242188 6.921875 20.226562 6.902344 20.210938 6.878906 C 20.199219 6.863281 20.183594 6.847656 20.171875 6.828125 C 20.125 6.761719 20.097656 6.6875 20.066406 6.609375 Z M 20.066406 6.609375 "/>
<path style=" stroke:none;fill-rule:nonzero;fill:rgb(22.745098%,22.745098%,22.745098%);fill-opacity:1;" d="M 17.34375 8.121094 C 17.765625 8.476562 18.039062 8.898438 18.167969 9.429688 C 18.167969 9.546875 18.167969 9.664062 18.167969 9.785156 C 16.726562 9.785156 15.285156 9.785156 13.800781 9.785156 C 13.800781 9.410156 13.800781 9.410156 13.871094 9.207031 C 13.878906 9.183594 13.886719 9.160156 13.894531 9.136719 C 14.085938 8.589844 14.453125 8.148438 14.984375 7.878906 C 15.738281 7.546875 16.683594 7.597656 17.34375 8.121094 Z M 17.34375 8.121094 "/>
<path style=" stroke:none;fill-rule:nonzero;fill:rgb(32.156864%,32.156864%,32.156864%);fill-opacity:1;" d="M 14.667969 8.070312 C 14.6875 8.082031 14.710938 8.089844 14.734375 8.101562 C 14.578125 8.25 14.425781 8.402344 14.265625 8.554688 C 14.265625 8.40625 14.363281 8.335938 14.464844 8.230469 C 14.53125 8.175781 14.597656 8.121094 14.667969 8.070312 Z M 14.667969 8.070312 "/>
</g>
</svg>
