<?xml version="1.0" encoding="UTF-8"?>
<svg xmlns="http://www.w3.org/2000/svg" xmlns:xlink="http://www.w3.org/1999/xlink" width="40px" height="40px" viewBox="0 0 40 40" version="1.1">
<g id="surface1">
<path style=" stroke:none;fill-rule:nonzero;fill:rgb(0%,49.411765%,100%);fill-opacity:1;" d="M 6.488281 7.953125 C 6.78125 8.070312 7.054688 8.242188 7.328125 8.40625 C 7.464844 8.488281 7.605469 8.570312 7.746094 8.652344 C 7.945312 8.769531 8.140625 8.882812 8.335938 9 C 8.621094 9.164062 8.90625 9.328125 9.195312 9.488281 C 9.578125 9.703125 9.957031 9.921875 10.335938 10.144531 C 10.734375 10.375 11.132812 10.605469 11.535156 10.828125 C 11.984375 11.078125 12.425781 11.332031 12.867188 11.589844 C 13.308594 11.847656 13.75 12.101562 14.195312 12.355469 C 14.445312 12.496094 14.695312 12.640625 14.9375 12.789062 C 14.976562 12.8125 15.011719 12.835938 15.050781 12.859375 C 15.117188 12.898438 15.183594 12.941406 15.25 12.984375 C 15.472656 13.121094 15.683594 13.1875 15.953125 13.171875 C 16.109375 13.125 16.246094 13.054688 16.390625 12.976562 C 16.4375 12.949219 16.484375 12.925781 16.53125 12.898438 C 16.691406 12.808594 16.855469 12.714844 17.015625 12.621094 C 17.074219 12.585938 17.136719 12.550781 17.195312 12.519531 C 17.320312 12.445312 17.445312 12.375 17.570312 12.300781 C 17.746094 12.199219 17.925781 12.097656 18.105469 11.996094 C 18.132812 11.980469 18.160156 11.964844 18.191406 11.945312 C 18.246094 11.914062 18.304688 11.882812 18.359375 11.851562 C 18.878906 11.554688 19.394531 11.257812 19.914062 10.957031 C 20.328125 10.71875 20.746094 10.480469 21.164062 10.242188 C 21.5625 10.011719 21.960938 9.785156 22.355469 9.550781 C 22.824219 9.277344 23.296875 9.007812 23.773438 8.742188 C 24.101562 8.554688 24.429688 8.367188 24.757812 8.179688 C 24.796875 8.15625 24.835938 8.132812 24.878906 8.109375 C 24.914062 8.089844 24.949219 8.070312 24.984375 8.050781 C 25.21875 7.917969 25.441406 7.929688 25.707031 7.953125 C 25.941406 8.03125 26.058594 8.136719 26.195312 8.339844 C 26.273438 8.511719 26.304688 8.644531 26.304688 8.828125 C 26.304688 8.878906 26.304688 8.925781 26.304688 8.976562 C 26.304688 9.027344 26.304688 9.082031 26.304688 9.136719 C 26.304688 9.191406 26.304688 9.246094 26.304688 9.304688 C 26.304688 9.460938 26.304688 9.617188 26.304688 9.773438 C 26.304688 9.941406 26.304688 10.109375 26.308594 10.277344 C 26.308594 10.605469 26.308594 10.933594 26.308594 11.265625 C 26.308594 11.53125 26.308594 11.796875 26.308594 12.066406 C 26.308594 12.105469 26.308594 12.140625 26.308594 12.179688 C 26.308594 12.257812 26.308594 12.335938 26.308594 12.414062 C 26.308594 13.136719 26.308594 13.863281 26.308594 14.589844 C 26.308594 15.253906 26.308594 15.914062 26.308594 16.578125 C 26.308594 17.261719 26.3125 17.941406 26.308594 18.621094 C 26.308594 19.003906 26.308594 19.386719 26.3125 19.769531 C 26.3125 20.097656 26.3125 20.421875 26.3125 20.746094 C 26.3125 20.914062 26.3125 21.078125 26.3125 21.246094 C 26.3125 21.425781 26.3125 21.605469 26.3125 21.785156 C 26.3125 21.839844 26.3125 21.890625 26.3125 21.945312 C 26.308594 22.25 26.28125 22.472656 26.078125 22.714844 C 25.820312 22.929688 25.539062 23.085938 25.246094 23.242188 C 25.136719 23.304688 25.027344 23.363281 24.917969 23.425781 C 24.863281 23.457031 24.804688 23.488281 24.75 23.519531 C 24.5 23.65625 24.253906 23.800781 24.007812 23.945312 C 23.605469 24.179688 23.203125 24.414062 22.800781 24.644531 C 22.710938 24.695312 22.625 24.746094 22.535156 24.796875 C 22.507812 24.8125 22.480469 24.828125 22.449219 24.84375 C 22.421875 24.859375 22.394531 24.875 22.367188 24.890625 C 22.171875 25.003906 21.980469 25.113281 21.785156 25.21875 C 21.710938 25.261719 21.636719 25.304688 21.5625 25.347656 C 21.53125 25.367188 21.5 25.382812 21.464844 25.402344 C 21.226562 25.539062 21.050781 25.703125 20.925781 25.953125 C 20.902344 26.183594 20.902344 26.382812 20.996094 26.597656 C 21.285156 26.90625 21.683594 27.097656 22.050781 27.292969 C 22.515625 27.539062 22.96875 27.800781 23.417969 28.070312 C 23.464844 28.097656 23.511719 28.125 23.558594 28.15625 C 23.597656 28.179688 23.640625 28.203125 23.679688 28.226562 C 23.953125 28.371094 24.1875 28.429688 24.488281 28.339844 C 24.6875 28.25 24.878906 28.140625 25.070312 28.027344 C 25.125 27.996094 25.179688 27.964844 25.234375 27.933594 C 25.394531 27.84375 25.550781 27.75 25.707031 27.660156 C 25.746094 27.636719 25.785156 27.613281 25.824219 27.589844 C 25.953125 27.515625 26.082031 27.441406 26.207031 27.363281 C 26.535156 27.171875 26.863281 26.984375 27.191406 26.796875 C 27.703125 26.503906 28.214844 26.210938 28.722656 25.917969 C 28.964844 25.777344 29.207031 25.636719 29.449219 25.503906 C 29.492188 25.476562 29.535156 25.453125 29.578125 25.429688 C 29.65625 25.382812 29.738281 25.339844 29.816406 25.296875 C 30.0625 25.15625 30.230469 25.023438 30.34375 24.753906 C 30.402344 24.53125 30.402344 24.324219 30.402344 24.097656 C 30.402344 24.046875 30.402344 24 30.402344 23.949219 C 30.402344 23.84375 30.402344 23.742188 30.402344 23.636719 C 30.402344 23.46875 30.402344 23.304688 30.402344 23.136719 C 30.40625 22.664062 30.40625 22.191406 30.40625 21.722656 C 30.40625 21.433594 30.40625 21.144531 30.40625 20.855469 C 30.40625 20.742188 30.40625 20.632812 30.40625 20.523438 C 30.40625 20.371094 30.40625 20.214844 30.410156 20.0625 C 30.40625 20.015625 30.40625 19.972656 30.40625 19.925781 C 30.410156 19.617188 30.484375 19.410156 30.683594 19.171875 C 30.808594 19.070312 30.808594 19.070312 30.941406 19 C 30.988281 18.96875 31.039062 18.941406 31.089844 18.914062 C 31.144531 18.882812 31.199219 18.855469 31.253906 18.828125 C 31.335938 18.777344 31.421875 18.730469 31.507812 18.683594 C 31.59375 18.636719 31.683594 18.585938 31.773438 18.539062 C 32.066406 18.375 32.359375 18.207031 32.648438 18.035156 C 32.753906 17.976562 32.859375 17.917969 32.960938 17.855469 C 33.09375 17.78125 33.222656 17.707031 33.351562 17.625 C 33.5625 17.5 33.753906 17.492188 34 17.511719 C 34.296875 17.613281 34.492188 17.765625 34.632812 18.046875 C 34.640625 18.167969 34.640625 18.285156 34.640625 18.40625 C 34.640625 18.441406 34.640625 18.480469 34.640625 18.515625 C 34.640625 18.640625 34.644531 18.765625 34.644531 18.890625 C 34.644531 18.980469 34.644531 19.070312 34.644531 19.160156 C 34.644531 19.402344 34.644531 19.644531 34.644531 19.890625 C 34.644531 20.042969 34.644531 20.191406 34.644531 20.34375 C 34.648438 20.820312 34.648438 21.296875 34.648438 21.769531 C 34.648438 22.320312 34.648438 22.867188 34.652344 23.417969 C 34.652344 23.839844 34.65625 24.265625 34.65625 24.6875 C 34.65625 24.941406 34.65625 25.195312 34.65625 25.449219 C 34.65625 25.6875 34.65625 25.925781 34.65625 26.164062 C 34.65625 26.25 34.65625 26.339844 34.65625 26.425781 C 34.660156 26.546875 34.660156 26.664062 34.65625 26.785156 C 34.660156 26.835938 34.660156 26.835938 34.660156 26.886719 C 34.65625 27.152344 34.582031 27.296875 34.4375 27.511719 C 34.34375 27.597656 34.34375 27.597656 34.242188 27.660156 C 34.203125 27.683594 34.164062 27.707031 34.125 27.730469 C 34.0625 27.769531 34.0625 27.769531 34 27.804688 C 33.933594 27.84375 33.933594 27.84375 33.867188 27.878906 C 33.726562 27.960938 33.582031 28.042969 33.4375 28.121094 C 33.023438 28.351562 32.613281 28.585938 32.203125 28.824219 C 31.785156 29.070312 31.363281 29.3125 30.9375 29.554688 C 30.894531 29.578125 30.894531 29.578125 30.851562 29.605469 C 30.621094 29.738281 30.386719 29.867188 30.15625 30 C 29.953125 30.117188 29.75 30.230469 29.546875 30.347656 C 29.519531 30.363281 29.492188 30.378906 29.460938 30.398438 C 29.066406 30.621094 28.675781 30.847656 28.285156 31.078125 C 27.832031 31.34375 27.378906 31.601562 26.921875 31.855469 C 26.632812 32.015625 26.347656 32.175781 26.066406 32.34375 C 25.730469 32.542969 25.394531 32.738281 25.054688 32.929688 C 25.003906 32.957031 24.957031 32.984375 24.90625 33.015625 C 24.859375 33.039062 24.8125 33.066406 24.765625 33.09375 C 24.707031 33.128906 24.707031 33.128906 24.644531 33.164062 C 24.433594 33.273438 24.234375 33.292969 24 33.269531 C 23.875 33.222656 23.773438 33.179688 23.660156 33.117188 C 23.625 33.097656 23.59375 33.082031 23.558594 33.0625 C 23.152344 32.847656 22.753906 32.609375 22.359375 32.375 C 22.054688 32.199219 21.746094 32.023438 21.4375 31.855469 C 20.988281 31.601562 20.542969 31.347656 20.097656 31.085938 C 19.75 30.882812 19.402344 30.683594 19.046875 30.488281 C 18.597656 30.234375 18.148438 29.980469 17.703125 29.71875 C 17.457031 29.570312 17.207031 29.429688 16.957031 29.292969 C 16.878906 29.25 16.878906 29.25 16.800781 29.207031 C 16.707031 29.152344 16.609375 29.101562 16.511719 29.050781 C 16.199219 28.878906 15.921875 28.695312 15.804688 28.339844 C 15.792969 28.199219 15.785156 28.058594 15.78125 27.914062 C 15.777344 27.871094 15.777344 27.828125 15.773438 27.78125 C 15.757812 27.378906 15.75 26.976562 15.738281 26.570312 C 15.734375 26.300781 15.726562 26.03125 15.714844 25.757812 C 15.632812 24.015625 15.632812 24.015625 15.914062 23.59375 C 16.183594 23.347656 16.488281 23.226562 16.832031 23.121094 C 17.023438 23.058594 17.171875 22.96875 17.339844 22.863281 C 17.441406 22.804688 17.542969 22.746094 17.644531 22.6875 C 17.703125 22.65625 17.761719 22.625 17.816406 22.59375 C 18.019531 22.476562 18.226562 22.359375 18.429688 22.242188 C 18.632812 22.128906 18.835938 22.011719 19.035156 21.894531 C 19.066406 21.878906 19.09375 21.863281 19.121094 21.847656 C 19.5625 21.597656 19.996094 21.34375 20.433594 21.089844 C 20.953125 20.785156 21.476562 20.492188 22 20.195312 C 22.003906 19.621094 22.007812 19.050781 22.011719 18.476562 C 22.011719 18.210938 22.011719 17.945312 22.015625 17.679688 C 22.015625 17.421875 22.019531 17.164062 22.019531 16.90625 C 22.019531 16.808594 22.019531 16.710938 22.019531 16.613281 C 22.023438 16.476562 22.023438 16.339844 22.023438 16.203125 C 22.023438 16.160156 22.023438 16.121094 22.023438 16.082031 C 22.023438 15.804688 21.960938 15.644531 21.804688 15.414062 C 21.648438 15.265625 21.488281 15.222656 21.277344 15.191406 C 20.847656 15.214844 20.417969 15.558594 20.054688 15.769531 C 19.617188 16.027344 19.179688 16.28125 18.738281 16.535156 C 18.625 16.597656 18.507812 16.664062 18.394531 16.730469 C 18.367188 16.746094 18.335938 16.761719 18.308594 16.777344 C 17.992188 16.957031 17.679688 17.140625 17.367188 17.320312 C 17.316406 17.347656 17.265625 17.378906 17.214844 17.40625 C 17.164062 17.4375 17.117188 17.464844 17.066406 17.492188 C 17.019531 17.519531 16.972656 17.546875 16.925781 17.574219 C 16.824219 17.632812 16.722656 17.695312 16.617188 17.753906 C 16.566406 17.785156 16.515625 17.816406 16.460938 17.847656 C 16.414062 17.875 16.367188 17.902344 16.316406 17.933594 C 16.085938 18.058594 15.867188 18.089844 15.609375 18.046875 C 15.21875 17.886719 14.851562 17.660156 14.488281 17.445312 C 14.386719 17.382812 14.28125 17.324219 14.179688 17.265625 C 14.125 17.234375 14.074219 17.203125 14.019531 17.167969 C 13.738281 17.007812 13.457031 16.847656 13.175781 16.6875 C 13.0625 16.621094 12.949219 16.554688 12.832031 16.488281 C 12.804688 16.472656 12.777344 16.457031 12.746094 16.441406 C 12.429688 16.261719 12.113281 16.078125 11.796875 15.894531 C 11.746094 15.867188 11.695312 15.835938 11.644531 15.808594 C 11.371094 15.648438 11.101562 15.488281 10.832031 15.324219 C 10.625 15.207031 10.425781 15.195312 10.195312 15.21875 C 9.933594 15.316406 9.78125 15.460938 9.660156 15.707031 C 9.652344 15.8125 9.652344 15.914062 9.652344 16.019531 C 9.652344 16.070312 9.652344 16.070312 9.652344 16.117188 C 9.652344 16.226562 9.652344 16.335938 9.652344 16.445312 C 9.652344 16.523438 9.648438 16.601562 9.648438 16.679688 C 9.648438 16.851562 9.648438 17.019531 9.648438 17.1875 C 9.648438 17.453125 9.648438 17.722656 9.644531 17.988281 C 9.644531 18.746094 9.640625 19.507812 9.640625 20.265625 C 9.636719 20.683594 9.636719 21.101562 9.632812 21.523438 C 9.632812 21.742188 9.632812 21.964844 9.632812 22.1875 C 9.632812 22.394531 9.632812 22.605469 9.628906 22.8125 C 9.628906 22.890625 9.628906 22.964844 9.628906 23.042969 C 9.632812 23.902344 9.632812 23.902344 9.398438 24.171875 C 9.21875 24.335938 9.03125 24.4375 8.785156 24.441406 C 8.460938 24.414062 8.226562 24.296875 7.949219 24.136719 C 7.902344 24.113281 7.855469 24.085938 7.808594 24.058594 C 7.660156 23.976562 7.511719 23.890625 7.367188 23.804688 C 7.289062 23.761719 7.289062 23.761719 7.210938 23.714844 C 6.914062 23.546875 6.617188 23.371094 6.320312 23.195312 C 6.210938 23.132812 6.097656 23.066406 5.988281 23.003906 C 5.929688 22.972656 5.875 22.9375 5.816406 22.90625 C 5.769531 22.878906 5.726562 22.851562 5.675781 22.828125 C 5.488281 22.675781 5.382812 22.507812 5.347656 22.269531 C 5.339844 22.121094 5.339844 21.972656 5.339844 21.824219 C 5.339844 21.769531 5.339844 21.710938 5.339844 21.652344 C 5.339844 21.496094 5.339844 21.339844 5.339844 21.183594 C 5.339844 21.015625 5.339844 20.847656 5.339844 20.675781 C 5.339844 20.347656 5.339844 20.015625 5.339844 19.683594 C 5.339844 19.414062 5.339844 19.148438 5.339844 18.878906 C 5.339844 18.839844 5.339844 18.800781 5.339844 18.761719 C 5.339844 18.683594 5.339844 18.605469 5.339844 18.527344 C 5.339844 17.796875 5.339844 17.070312 5.339844 16.339844 C 5.339844 15.714844 5.339844 15.089844 5.339844 14.460938 C 5.339844 13.734375 5.339844 13.007812 5.339844 12.28125 C 5.339844 12.203125 5.339844 12.125 5.339844 12.050781 C 5.339844 12.011719 5.339844 11.972656 5.339844 11.933594 C 5.339844 11.664062 5.339844 11.398438 5.339844 11.128906 C 5.339844 10.800781 5.339844 10.472656 5.339844 10.144531 C 5.339844 9.980469 5.339844 9.8125 5.339844 9.644531 C 5.339844 9.464844 5.339844 9.28125 5.339844 9.101562 C 5.339844 9.046875 5.339844 8.996094 5.339844 8.941406 C 5.34375 8.632812 5.378906 8.445312 5.5625 8.195312 C 5.855469 7.929688 6.097656 7.878906 6.488281 7.953125 Z M 6.488281 7.953125 "/>
<path style=" stroke:none;fill-rule:nonzero;fill:rgb(0%,49.411765%,100%);fill-opacity:1;" d="M 34.144531 8 C 34.386719 8.121094 34.503906 8.257812 34.632812 8.488281 C 34.660156 8.65625 34.660156 8.65625 34.660156 8.84375 C 34.660156 8.875 34.660156 8.910156 34.660156 8.945312 C 34.660156 9.058594 34.660156 9.171875 34.660156 9.285156 C 34.660156 9.363281 34.660156 9.441406 34.660156 9.519531 C 34.660156 9.683594 34.660156 9.847656 34.660156 10.011719 C 34.660156 10.222656 34.660156 10.433594 34.660156 10.644531 C 34.660156 10.804688 34.660156 10.96875 34.660156 11.128906 C 34.660156 11.207031 34.660156 11.285156 34.660156 11.363281 C 34.660156 11.472656 34.660156 11.578125 34.660156 11.6875 C 34.660156 11.75 34.660156 11.8125 34.660156 11.875 C 34.621094 12.144531 34.515625 12.328125 34.296875 12.503906 C 34.246094 12.535156 34.191406 12.566406 34.136719 12.601562 C 34.105469 12.621094 34.074219 12.636719 34.042969 12.65625 C 33.949219 12.714844 33.851562 12.773438 33.757812 12.828125 C 33.691406 12.867188 33.625 12.90625 33.5625 12.945312 C 33.363281 13.066406 33.164062 13.183594 32.964844 13.300781 C 32.863281 13.363281 32.761719 13.421875 32.660156 13.480469 C 32.59375 13.519531 32.527344 13.558594 32.464844 13.597656 C 32.242188 13.726562 32.023438 13.859375 31.808594 13.996094 C 31.5625 14.125 31.320312 14.125 31.0625 14.046875 C 30.824219 13.941406 30.695312 13.78125 30.578125 13.546875 C 30.527344 13.390625 30.523438 13.253906 30.523438 13.089844 C 30.523438 13.058594 30.523438 13.023438 30.519531 12.992188 C 30.519531 12.886719 30.519531 12.785156 30.519531 12.679688 C 30.519531 12.605469 30.519531 12.53125 30.519531 12.460938 C 30.519531 12.304688 30.519531 12.152344 30.519531 12 C 30.519531 11.804688 30.515625 11.609375 30.515625 11.414062 C 30.515625 11.261719 30.515625 11.113281 30.515625 10.960938 C 30.515625 10.890625 30.515625 10.816406 30.511719 10.746094 C 30.507812 10.355469 30.507812 10.039062 30.730469 9.707031 C 31.058594 9.394531 31.492188 9.1875 31.882812 8.960938 C 31.980469 8.902344 32.082031 8.839844 32.183594 8.78125 C 32.25 8.742188 32.316406 8.703125 32.382812 8.664062 C 32.550781 8.566406 32.71875 8.464844 32.886719 8.363281 C 32.921875 8.34375 32.953125 8.324219 32.988281 8.304688 C 33.050781 8.265625 33.113281 8.226562 33.171875 8.1875 C 33.519531 7.980469 33.75 7.914062 34.144531 8 Z M 34.144531 8 "/>
</g>
</svg>
