<?xml version="1.0" encoding="UTF-8"?>
<svg version="1.1" xmlns="http://www.w3.org/2000/svg" width="3000" height="3000">
<path d="M0 0 C990 0 1980 0 3000 0 C3000 990 3000 1980 3000 3000 C2010 3000 1020 3000 0 3000 C0 2010 0 1020 0 0 Z " fill="#DF5E14" transform="translate(0,0)"/>
<path d="M0 0 C122.1 0 244.2 0 370 0 C370 39.27 370 78.54 370 119 C295.42 119 220.84 119 144 119 C144 563.84 144 1008.68 144 1467 C219.24 1467 294.48 1467 372 1467 C372 1507.26 372 1547.52 372 1589 C249.24 1589 126.48 1589 0 1589 C0 1064.63 0 540.26 0 0 Z " fill="#FEFEFE" transform="translate(2069,703)"/>
<path d="M0 0 C122.1 0 244.2 0 370 0 C370 524.37 370 1048.74 370 1589 C247.24 1589 124.48 1589 -2 1589 C-2 1548.74 -2 1508.48 -2 1467 C73.24 1467 148.48 1467 226 1467 C226 1022.16 226 577.32 226 119 C151.42 119 76.84 119 0 119 C0 79.73 0 40.46 0 0 Z " fill="#FEFEFE" transform="translate(563,703)"/>
<path d="M0 0 C54.78 0 109.56 0 166 0 C167.78161331 5.34483994 169.44177237 10.39957015 170.796875 15.81640625 C171.11213135 17.06276855 171.4273877 18.30913086 171.75219727 19.59326172 C171.99596603 20.56389557 171.99596603 20.56389557 172.24465942 21.55413818 C175.58270604 34.82044943 179.25206209 47.95837698 183.14111328 61.07421875 C184.63495898 66.16297568 186.07037441 71.26788732 187.5 76.375 C187.78955566 77.40874756 188.07911133 78.44249512 188.37744141 79.50756836 C190.15572814 85.8881008 191.87763242 92.28188487 193.57421875 98.68457031 C196.49248946 109.68090485 199.64407093 120.5736596 203.0324707 131.43432617 C205.138886 138.18622482 207.17073037 144.95261973 209.125 151.75 C213.23408818 166.00456911 217.60062887 180.18179563 221.93798828 194.36816406 C222.52386311 196.28577671 223.10963903 198.20341959 223.6953125 200.12109375 C223.98429916 201.06667145 224.27328583 202.01224915 224.57102966 202.98648071 C226.00649406 207.69515314 227.41748998 212.40893124 228.78178406 217.13868713 C232.450856 229.8404928 236.58201255 242.39845414 240.65647125 254.97456741 C241.32139252 257.02745489 241.9856097 259.08056887 242.64959717 261.13375854 C245.13018972 268.80423164 247.61398284 276.47366072 250.10087204 284.14209461 C251.47076112 288.36649272 252.83883699 292.59147277 254.20556641 296.81689453 C270.28533857 346.51588914 287.16240953 395.90390538 305 445 C305.74969212 447.06672537 306.49936684 449.13345705 307.24902344 451.20019531 C333.63113221 523.86791581 362.11550385 595.70570017 392 667 C396.50835473 658.45996186 400.19446353 649.60349195 403.875 640.6875 C404.53791457 639.08769058 405.20092113 637.48791926 405.86401367 635.88818359 C407.91707966 630.92863039 409.96005952 625.96496418 412 621 C412.46947052 619.85806183 412.46947052 619.85806183 412.94842529 618.6930542 C447.77625173 533.93205042 479.66970447 447.94948962 508.84545898 361.08569336 C509.23439835 359.93077393 509.62333771 358.77585449 510.02406311 357.5859375 C510.75097773 355.42670898 511.47553671 353.26668537 512.19725037 351.10571289 C513.93180061 345.95701624 515.81315334 340.97193599 518 336 C518.74457849 333.5733263 519.45014342 331.13447997 520.125 328.6875 C522.29669482 321.02065408 524.85722596 313.51606673 527.5 306 C530.26949894 298.11167187 532.91496537 290.23509327 535.18969727 282.19042969 C536.76899699 276.64973667 538.58330737 271.20421274 540.4375 265.75 C543.13947654 257.78482112 545.54101404 249.77298892 547.79833984 241.67163086 C549.39396819 235.99125772 551.1533163 230.39483354 553.0625 224.8125 C555.31312559 218.22153752 557.28631655 211.59751337 559.11010742 204.87670898 C560.61306145 199.3488143 562.21503448 193.85771897 563.875 188.375 C566.41763679 179.9737077 568.88326005 171.55195557 571.32592773 163.12109375 C573.02407778 157.28135216 574.77439214 151.46146699 576.57666016 145.65307617 C580.0311192 134.50495097 583.11391077 123.27681977 586.08520508 111.99169922 C588.02325525 104.63794093 590.01276933 97.30564369 592.125 90 C594.93443851 80.28068282 597.60550572 70.52706483 600.25 60.76171875 C600.99539765 58.01694721 601.74666689 55.27385334 602.5 52.53125 C605.35988996 42.10949096 608.15848702 31.67581144 610.8203125 21.20141602 C612.6617113 14.03918552 614.81734804 7.09361886 617 0 C669.14 0 721.28 0 775 0 C773.68 5.28 772.36 10.56 771 16 C770.36683845 18.72728476 769.73980298 21.45601817 769.125 24.1875 C767.4488193 31.46229439 765.43850873 38.61852736 763.34985352 45.78442383 C761.46342985 52.28550184 759.73550493 58.81608552 758.0625 65.375 C755.28620632 76.20898046 752.05454578 86.87786009 748.74902344 97.56005859 C746.47823528 104.95714361 744.43509918 112.42007519 742.37890625 119.87890625 C739.50877367 130.25897122 736.60692632 140.57463022 733.10546875 150.76171875 C731.69683962 154.88805639 730.43242253 159.05150478 729.1640625 163.22265625 C727.642772 168.15919287 726.07094586 173.07907918 724.5 178 C721.4939479 187.42810832 718.51037118 196.86032602 715.71582031 206.35375977 C712.34478865 217.77129904 708.70005274 229.06143511 704.8125 240.3125 C704.21020765 242.06355625 703.60816579 243.81469868 703.00634766 245.56591797 C701.70291125 249.35640286 700.3968247 253.14596303 699.08935547 256.93505859 C697.28543208 262.16614879 695.49267202 267.40100314 693.70222473 272.63671875 C657.47416274 378.54139371 617.04502392 482.94345437 565.90130615 605.85028076 C564.99774789 608.00537153 564.09559095 610.16104376 563.19384766 612.31689453 C545.251633 655.20363292 526.91876449 697.92725896 508.12695312 740.44854736 C506.53796324 744.04606384 504.95195161 747.64489095 503.36578369 751.24365234 C488.08560825 785.90948398 472.54691423 820.45130171 457 855 C410.8 855 364.6 855 317 855 C292.50957893 800.86327973 268.25210835 746.67601029 245 692 C244.61650391 691.09830078 244.23300781 690.19660156 243.83789062 689.26757812 C237.85485016 675.19394872 231.90982157 661.10453069 226 647 C225.6282666 646.11298401 225.2565332 645.22596802 224.87353516 644.31207275 C188.7637893 558.08593049 154.86982645 470.87783865 123 383 C122.62077393 381.9547113 122.24154785 380.90942261 121.85083008 379.8324585 C109.65367156 346.1931655 97.80776676 312.43829429 86.22583008 278.5824585 C84.97795442 274.93557234 83.72830786 271.28929615 82.47851562 267.64306641 C71.28528228 234.96615441 60.41516621 202.2049417 50.0291748 169.26257324 C48.94589998 165.82849825 47.86039769 162.39513335 46.77441406 158.96191406 C44.4922947 151.74643478 42.21371646 144.52984351 39.9375 137.3125 C39.58732819 136.2024057 39.23715637 135.0923114 38.87637329 133.94857788 C31.8685092 111.71654013 25.08877177 89.42215786 18.5 67.0625 C17.92972757 65.12978961 17.35941462 63.19709117 16.7890625 61.2644043 C13.57263354 50.36046853 10.36093773 39.45512146 7.19506836 28.53637695 C5.97509872 24.32887024 4.74139286 20.1266829 3.47265625 15.93359375 C3.23353516 15.13848389 2.99441406 14.34337402 2.74804688 13.52416992 C2.31001732 12.07109112 1.86772803 10.61928515 1.41992188 9.16918945 C0.43961117 5.90831806 0 3.45373546 0 0 Z " fill="#FEFEFE" transform="translate(1113,1137)"/>
<path d="M0 0 C0.33 0 0.66 0 1 0 C1.14695313 1.22589844 1.29390625 2.45179688 1.4453125 3.71484375 C4.3777671 26.80394557 10.06693849 48.50296873 19 70 C19.31662598 70.76715332 19.63325195 71.53430664 19.95947266 72.32470703 C29.38297105 94.72015244 43.24912678 114.8174571 59.734375 132.546875 C61.71885286 134.69558551 63.61595786 136.88880045 65.5 139.125 C100.37435877 179.00447507 156.34823378 201.93187263 208 207 C208 207.33 208 207.66 208 208 C139.36 208 70.72 208 0 208 C0 139.36 0 70.72 0 0 Z " fill="#000000" transform="translate(0,2792)"/>
<path d="M0 0 C68.64 0 137.28 0 208 0 C208 68.64 208 137.28 208 208 C207.67 208 207.34 208 207 208 C206.85304688 206.77410156 206.70609375 205.54820312 206.5546875 204.28515625 C200.46723141 156.38239372 181.93687926 111.90513666 149.03125 76.21875 C147.21041875 74.22984201 145.47912594 72.19317024 143.75 70.125 C129.83864776 54.32094678 112.09623662 41.17589509 93.75048828 30.9765625 C92.0286845 30.01600251 90.32463694 29.0238347 88.62109375 28.03125 C61.63931166 12.62999229 30.76773878 4.14528504 0 1 C0 0.67 0 0.34 0 0 Z " fill="#000000" transform="translate(2792,0)"/>
<path d="M0 0 C0.33 0 0.66 0 1 0 C1 68.97 1 137.94 1 209 C-67.97 209 -136.94 209 -208 209 C-208 208.67 -208 208.34 -208 208 C-206.95380493 207.86537354 -206.95380493 207.86537354 -205.88647461 207.72802734 C-160.63777441 201.78272647 -118.25841163 186.72788385 -83 157 C-82.40606445 156.50612793 -81.81212891 156.01225586 -81.20019531 155.50341797 C-69.99457821 146.17724272 -60.09984081 136.43187886 -51 125 C-50.34257812 124.20980469 -49.68515625 123.41960938 -49.0078125 122.60546875 C-20.41202845 87.98045313 -4.32091426 44.40307946 0 0 Z " fill="#000000" transform="translate(2999,2791)"/>
<path d="M0 0 C68.97 0 137.94 0 209 0 C209 0.33 209 0.66 209 1 C207.05287109 1.22042969 207.05287109 1.22042969 205.06640625 1.4453125 C160.63185782 6.79652538 118.42491046 22.97487685 84 52 C83.10909668 52.74080811 83.10909668 52.74080811 82.20019531 53.49658203 C70.99457821 62.82275728 61.09984081 72.56812114 52 84 C51.34257813 84.79019531 50.68515625 85.58039063 50.0078125 86.39453125 C21.41202845 121.01954687 5.32091426 164.59692054 1 209 C0.67 209 0.34 209 0 209 C0 140.03 0 71.06 0 0 Z " fill="#000000" transform="translate(0,0)"/>
</svg>
