<?xml version="1.0" encoding="UTF-8"?>
<svg xmlns="http://www.w3.org/2000/svg" xmlns:xlink="http://www.w3.org/1999/xlink" width="40px" height="40px" viewBox="0 0 40 40" version="1.1">
<g id="surface1">
<path style=" stroke:none;fill-rule:nonzero;fill:rgb(87.450981%,36.862746%,7.843138%);fill-opacity:1;" d="M 0 0 C 13.199219 0 26.398438 0 40 0 C 40 13.199219 40 26.398438 40 40 C 26.800781 40 13.601562 40 0 40 C 0 26.800781 0 13.601562 0 0 Z M 0 0 "/>
<path style=" stroke:none;fill-rule:nonzero;fill:rgb(99.607843%,99.607843%,99.607843%);fill-opacity:1;" d="M 27.585938 9.375 C 29.214844 9.375 30.84375 9.375 32.519531 9.375 C 32.519531 9.898438 32.519531 10.421875 32.519531 10.960938 C 31.527344 10.960938 30.53125 10.960938 29.507812 10.960938 C 29.507812 16.890625 29.507812 22.824219 29.507812 28.933594 C 30.511719 28.933594 31.511719 28.933594 32.546875 28.933594 C 32.546875 29.46875 32.546875 30.007812 32.546875 30.558594 C 30.910156 30.558594 29.273438 30.558594 27.585938 30.558594 C 27.585938 23.570312 27.585938 16.578125 27.585938 9.375 Z M 27.585938 9.375 "/>
<path style=" stroke:none;fill-rule:nonzero;fill:rgb(99.607843%,99.607843%,99.607843%);fill-opacity:1;" d="M 7.507812 9.375 C 9.132812 9.375 10.761719 9.375 12.441406 9.375 C 12.441406 16.363281 12.441406 23.355469 12.441406 30.558594 C 10.804688 30.558594 9.167969 30.558594 7.480469 30.558594 C 7.480469 30.023438 7.480469 29.488281 7.480469 28.933594 C 8.484375 28.933594 9.488281 28.933594 10.519531 28.933594 C 10.519531 23.003906 10.519531 17.070312 10.519531 10.960938 C 9.527344 10.960938 8.53125 10.960938 7.507812 10.960938 C 7.507812 10.4375 7.507812 9.914062 7.507812 9.375 Z M 7.507812 9.375 "/>
<path style=" stroke:none;fill-rule:nonzero;fill:rgb(99.607843%,99.607843%,99.607843%);fill-opacity:1;" d="M 14.839844 15.160156 C 15.570312 15.160156 16.300781 15.160156 17.054688 15.160156 C 17.078125 15.230469 17.097656 15.296875 17.117188 15.371094 C 17.121094 15.386719 17.125 15.402344 17.128906 15.421875 C 17.132812 15.433594 17.132812 15.433594 17.136719 15.449219 C 17.179688 15.625 17.230469 15.800781 17.28125 15.972656 C 17.300781 16.042969 17.320312 16.109375 17.339844 16.179688 C 17.34375 16.191406 17.347656 16.207031 17.351562 16.21875 C 17.375 16.304688 17.398438 16.390625 17.421875 16.476562 C 17.460938 16.621094 17.5 16.769531 17.546875 16.914062 C 17.574219 17.003906 17.601562 17.09375 17.628906 17.183594 C 17.683594 17.375 17.742188 17.5625 17.800781 17.75 C 17.808594 17.777344 17.816406 17.800781 17.824219 17.828125 C 17.828125 17.839844 17.832031 17.851562 17.835938 17.867188 C 17.851562 17.929688 17.871094 17.992188 17.890625 18.054688 C 17.9375 18.222656 17.996094 18.390625 18.046875 18.558594 C 18.058594 18.585938 18.066406 18.613281 18.074219 18.640625 C 18.109375 18.742188 18.140625 18.847656 18.175781 18.949219 C 18.191406 19.003906 18.210938 19.0625 18.230469 19.117188 C 18.445312 19.78125 18.667969 20.4375 18.90625 21.09375 C 18.917969 21.121094 18.925781 21.148438 18.9375 21.175781 C 19.289062 22.144531 19.667969 23.101562 20.066406 24.054688 C 20.125 23.941406 20.175781 23.820312 20.226562 23.703125 C 20.234375 23.679688 20.242188 23.660156 20.25 23.636719 C 20.277344 23.574219 20.304688 23.507812 20.332031 23.441406 C 20.339844 23.425781 20.339844 23.425781 20.347656 23.410156 C 20.808594 22.277344 21.234375 21.132812 21.625 19.972656 C 21.628906 19.960938 21.636719 19.945312 21.640625 19.929688 C 21.648438 19.898438 21.660156 19.871094 21.667969 19.839844 C 21.691406 19.773438 21.71875 19.707031 21.746094 19.640625 C 21.757812 19.609375 21.765625 19.574219 21.773438 19.542969 C 21.804688 19.441406 21.839844 19.339844 21.875 19.238281 C 21.910156 19.136719 21.945312 19.03125 21.976562 18.921875 C 21.996094 18.847656 22.019531 18.777344 22.046875 18.703125 C 22.082031 18.597656 22.113281 18.492188 22.144531 18.382812 C 22.164062 18.304688 22.1875 18.230469 22.214844 18.15625 C 22.246094 18.070312 22.269531 17.980469 22.292969 17.890625 C 22.316406 17.816406 22.335938 17.746094 22.359375 17.671875 C 22.390625 17.558594 22.425781 17.449219 22.457031 17.335938 C 22.480469 17.257812 22.503906 17.179688 22.527344 17.101562 C 22.574219 16.953125 22.613281 16.804688 22.65625 16.652344 C 22.679688 16.554688 22.707031 16.457031 22.734375 16.359375 C 22.773438 16.230469 22.808594 16.101562 22.84375 15.96875 C 22.851562 15.933594 22.863281 15.898438 22.875 15.859375 C 22.910156 15.722656 22.949219 15.582031 22.984375 15.441406 C 23.007812 15.347656 23.039062 15.253906 23.066406 15.160156 C 23.761719 15.160156 24.457031 15.160156 25.171875 15.160156 C 25.15625 15.230469 25.136719 15.300781 25.121094 15.375 C 25.113281 15.410156 25.101562 15.445312 25.09375 15.484375 C 25.074219 15.578125 25.046875 15.675781 25.019531 15.769531 C 24.992188 15.855469 24.96875 15.945312 24.949219 16.03125 C 24.910156 16.175781 24.867188 16.320312 24.824219 16.460938 C 24.792969 16.558594 24.765625 16.660156 24.738281 16.757812 C 24.699219 16.898438 24.660156 17.035156 24.613281 17.171875 C 24.597656 17.226562 24.578125 17.28125 24.5625 17.335938 C 24.542969 17.402344 24.519531 17.46875 24.5 17.535156 C 24.460938 17.660156 24.421875 17.785156 24.382812 17.910156 C 24.339844 18.0625 24.289062 18.214844 24.238281 18.363281 C 24.230469 18.386719 24.222656 18.410156 24.214844 18.433594 C 24.195312 18.484375 24.179688 18.535156 24.160156 18.585938 C 24.136719 18.65625 24.113281 18.726562 24.089844 18.796875 C 23.605469 20.207031 23.066406 21.597656 22.386719 23.238281 C 22.375 23.265625 22.359375 23.296875 22.347656 23.324219 C 22.109375 23.894531 21.867188 24.464844 21.613281 25.03125 C 21.59375 25.082031 21.574219 25.128906 21.550781 25.175781 C 21.347656 25.640625 21.140625 26.097656 20.933594 26.558594 C 20.316406 26.558594 19.703125 26.558594 19.066406 26.558594 C 18.738281 25.839844 18.417969 25.117188 18.105469 24.386719 C 18.101562 24.375 18.097656 24.363281 18.089844 24.351562 C 18.011719 24.164062 17.933594 23.976562 17.851562 23.785156 C 17.847656 23.773438 17.84375 23.761719 17.839844 23.75 C 17.355469 22.601562 16.90625 21.4375 16.480469 20.265625 C 16.476562 20.253906 16.46875 20.238281 16.464844 20.222656 C 16.300781 19.777344 16.144531 19.324219 15.988281 18.875 C 15.972656 18.824219 15.957031 18.777344 15.941406 18.730469 C 15.789062 18.292969 15.644531 17.855469 15.507812 17.417969 C 15.492188 17.371094 15.476562 17.324219 15.464844 17.28125 C 15.433594 17.183594 15.402344 17.085938 15.371094 16.992188 C 15.367188 16.976562 15.363281 16.960938 15.359375 16.945312 C 15.265625 16.648438 15.175781 16.351562 15.085938 16.054688 C 15.078125 16.027344 15.070312 16.003906 15.0625 15.976562 C 15.019531 15.832031 14.976562 15.6875 14.9375 15.539062 C 14.917969 15.484375 14.902344 15.429688 14.886719 15.371094 C 14.882812 15.363281 14.878906 15.351562 14.875 15.339844 C 14.871094 15.320312 14.863281 15.300781 14.859375 15.28125 C 14.847656 15.238281 14.839844 15.207031 14.839844 15.160156 Z M 14.839844 15.160156 "/>
<path style=" stroke:none;fill-rule:nonzero;fill:rgb(0%,0%,0%);fill-opacity:1;" d="M 0 37.226562 C 0.00390625 37.226562 0.0078125 37.226562 0.0117188 37.226562 C 0.015625 37.242188 0.015625 37.257812 0.0195312 37.277344 C 0.0585938 37.585938 0.132812 37.875 0.253906 38.160156 C 0.257812 38.171875 0.261719 38.179688 0.265625 38.191406 C 0.390625 38.488281 0.578125 38.757812 0.796875 38.992188 C 0.824219 39.023438 0.847656 39.050781 0.875 39.082031 C 1.339844 39.613281 2.085938 39.917969 2.773438 39.988281 C 2.773438 39.992188 2.773438 39.996094 2.773438 40 C 1.859375 40 0.941406 40 0 40 C 0 39.085938 0 38.167969 0 37.226562 Z M 0 37.226562 "/>
<path style=" stroke:none;fill-rule:nonzero;fill:rgb(0%,0%,0%);fill-opacity:1;" d="M 37.226562 0 C 38.140625 0 39.058594 0 40 0 C 40 0.914062 40 1.832031 40 2.773438 C 39.996094 2.773438 39.992188 2.773438 39.988281 2.773438 C 39.984375 2.757812 39.984375 2.742188 39.980469 2.722656 C 39.898438 2.085938 39.652344 1.492188 39.214844 1.015625 C 39.191406 0.988281 39.167969 0.960938 39.144531 0.933594 C 38.957031 0.722656 38.722656 0.550781 38.476562 0.414062 C 38.453125 0.398438 38.429688 0.386719 38.410156 0.375 C 38.046875 0.167969 37.636719 0.0546875 37.226562 0.0117188 C 37.226562 0.0078125 37.226562 0.00390625 37.226562 0 Z M 37.226562 0 "/>
<path style=" stroke:none;fill-rule:nonzero;fill:rgb(0%,0%,0%);fill-opacity:1;" d="M 39.988281 37.214844 C 39.992188 37.214844 39.996094 37.214844 40 37.214844 C 40 38.132812 40 39.050781 40 40 C 39.082031 40 38.160156 40 37.214844 40 C 37.214844 39.996094 37.214844 39.992188 37.214844 39.988281 C 37.226562 39.984375 37.226562 39.984375 37.242188 39.984375 C 37.84375 39.902344 38.410156 39.703125 38.878906 39.308594 C 38.886719 39.300781 38.894531 39.292969 38.902344 39.285156 C 39.054688 39.164062 39.183594 39.03125 39.308594 38.878906 C 39.316406 38.871094 39.324219 38.859375 39.332031 38.847656 C 39.714844 38.386719 39.929688 37.804688 39.988281 37.214844 Z M 39.988281 37.214844 "/>
<path style=" stroke:none;fill-rule:nonzero;fill:rgb(0%,0%,0%);fill-opacity:1;" d="M 0 0 C 0.917969 0 1.839844 0 2.785156 0 C 2.785156 0.00390625 2.785156 0.0078125 2.785156 0.0117188 C 2.761719 0.015625 2.761719 0.015625 2.734375 0.0195312 C 2.140625 0.0898438 1.578125 0.304688 1.121094 0.691406 C 1.109375 0.703125 1.109375 0.703125 1.097656 0.714844 C 0.945312 0.835938 0.816406 0.96875 0.691406 1.121094 C 0.683594 1.128906 0.675781 1.140625 0.667969 1.152344 C 0.285156 1.613281 0.0703125 2.195312 0.0117188 2.785156 C 0.0078125 2.785156 0.00390625 2.785156 0 2.785156 C 0 1.867188 0 0.949219 0 0 Z M 0 0 "/>
</g>
</svg>
