<?xml version="1.0" encoding="UTF-8"?>
<svg xmlns="http://www.w3.org/2000/svg" xmlns:xlink="http://www.w3.org/1999/xlink" width="40px" height="40px" viewBox="0 0 40 40" version="1.1">
<g id="surface1">
<path style=" stroke:none;fill-rule:nonzero;fill:rgb(7.450981%,66.666669%,32.156864%);fill-opacity:1;" d="M 40 20 C 40 8.953125 31.046875 0 20 0 C 8.953125 0 0 8.953125 0 20 C 0 31.046875 8.953125 40 20 40 C 31.046875 40 40 31.046875 40 20 Z M 40 20 "/>
<path style=" stroke:none;fill-rule:nonzero;fill:rgb(100%,100%,100%);fill-opacity:1;" d="M 25.347656 17.554688 C 24.082031 11.980469 21.097656 10.148438 20.777344 9.445312 C 20.425781 8.953125 20.066406 8.074219 20.066406 8.074219 C 20.0625 8.058594 20.050781 8.03125 20.042969 8.007812 C 20.003906 8.5 19.988281 8.691406 19.519531 9.191406 C 18.796875 9.757812 15.085938 12.871094 14.78125 19.207031 C 14.5 25.113281 19.050781 28.632812 19.664062 29.082031 L 19.734375 29.132812 L 19.734375 29.128906 C 19.738281 29.15625 19.929688 30.535156 20.066406 31.992188 L 20.546875 31.992188 C 20.660156 30.960938 20.828125 29.9375 21.054688 28.925781 L 21.09375 28.898438 C 21.367188 28.703125 21.632812 28.488281 21.878906 28.257812 L 21.90625 28.230469 C 23.214844 27.023438 25.566406 24.230469 25.542969 19.773438 C 25.539062 19.03125 25.472656 18.289062 25.347656 17.554688 Z M 20.011719 25.746094 C 20.011719 25.746094 20.011719 17.460938 20.285156 17.460938 C 20.5 17.460938 20.777344 28.148438 20.777344 28.148438 C 20.398438 28.105469 20.011719 26.390625 20.011719 25.746094 Z M 20.011719 25.746094 "/>
</g>
</svg>
