<?xml version="1.0" encoding="UTF-8"?>
<svg xmlns="http://www.w3.org/2000/svg" xmlns:xlink="http://www.w3.org/1999/xlink" width="40px" height="40px" viewBox="0 0 40 39" version="1.1">
<g id="surface1">
<path style=" stroke:none;fill-rule:nonzero;fill:rgb(87.843138%,13.333334%,30.19608%);fill-opacity:1;" d="M 26.835938 0.621094 C 27.097656 0.636719 27.308594 0.726562 27.542969 0.835938 C 27.601562 0.863281 27.601562 0.863281 27.660156 0.894531 C 28.039062 1.078125 28.382812 1.300781 28.726562 1.546875 C 28.816406 1.609375 28.90625 1.675781 28.996094 1.738281 C 30.433594 2.746094 31.390625 4.3125 31.679688 6.015625 C 31.960938 7.804688 31.566406 9.609375 30.503906 11.097656 C 30.15625 11.558594 29.777344 12.003906 29.324219 12.367188 C 29.304688 12.382812 29.285156 12.398438 29.261719 12.417969 C 28.132812 13.332031 26.871094 13.765625 25.441406 14.019531 C 25.570312 14.046875 25.695312 14.074219 25.820312 14.101562 C 25.855469 14.109375 25.890625 14.117188 25.925781 14.125 C 27.710938 14.496094 29.617188 14.09375 31.140625 13.136719 C 31.347656 13.003906 31.542969 12.855469 31.730469 12.695312 C 31.777344 12.65625 31.824219 12.621094 31.875 12.582031 C 33.402344 11.335938 34.101562 9.628906 34.304688 7.734375 C 34.386719 7.734375 34.386719 7.734375 34.445312 7.789062 C 34.46875 7.816406 34.492188 7.84375 34.515625 7.871094 C 34.632812 8.007812 34.757812 8.144531 34.882812 8.277344 C 35.128906 8.539062 35.351562 8.816406 35.570312 9.097656 C 35.605469 9.144531 35.605469 9.144531 35.640625 9.1875 C 36.476562 10.273438 37.183594 11.4375 37.804688 12.65625 C 37.835938 12.714844 37.835938 12.714844 37.871094 12.777344 C 39.226562 15.429688 40.011719 18.40625 40.007812 21.378906 C 40.007812 21.425781 40.007812 21.425781 40.007812 21.472656 C 40 24.941406 38.847656 28.613281 36.625 31.347656 C 36.609375 31.347656 36.597656 31.347656 36.582031 31.347656 C 36.585938 31.300781 36.589844 31.253906 36.589844 31.203125 C 36.679688 29.699219 36.585938 28.242188 36.328125 26.757812 C 36.265625 26.996094 36.207031 27.234375 36.152344 27.476562 C 35.902344 28.59375 35.523438 29.695312 35.019531 30.730469 C 35.007812 30.757812 34.992188 30.789062 34.976562 30.820312 C 34.894531 30.984375 34.8125 31.148438 34.726562 31.3125 C 34.683594 31.394531 34.640625 31.476562 34.597656 31.558594 C 34.246094 32.226562 33.832031 32.855469 33.375 33.457031 C 33.359375 33.480469 33.339844 33.503906 33.324219 33.527344 C 32.816406 34.195312 32.25 34.816406 31.652344 35.40625 C 31.613281 35.441406 31.574219 35.480469 31.535156 35.519531 C 31.273438 35.773438 31.003906 36.003906 30.71875 36.230469 C 30.675781 36.265625 30.628906 36.300781 30.589844 36.335938 C 30.339844 36.546875 30.082031 36.742188 29.816406 36.929688 C 29.785156 36.953125 29.75 36.976562 29.71875 37 C 29.550781 37.117188 29.386719 37.21875 29.199219 37.304688 C 29.265625 37.101562 29.386719 36.941406 29.507812 36.765625 C 30.695312 35.046875 31.519531 33.058594 31.898438 31.019531 C 31.875 31.058594 31.851562 31.101562 31.828125 31.144531 C 31.417969 31.84375 30.945312 32.503906 30.421875 33.128906 C 30.402344 33.148438 30.386719 33.171875 30.367188 33.195312 C 29.796875 33.875 29.171875 34.542969 28.480469 35.113281 C 28.441406 35.148438 28.398438 35.183594 28.355469 35.21875 C 28.054688 35.472656 27.746094 35.710938 27.425781 35.941406 C 27.398438 35.960938 27.367188 35.980469 27.339844 36.003906 C 26.769531 36.40625 26.183594 36.761719 25.570312 37.097656 C 25.535156 37.117188 25.5 37.136719 25.460938 37.15625 C 23.734375 38.09375 21.804688 38.683594 19.851562 38.933594 C 19.796875 38.941406 19.746094 38.945312 19.691406 38.953125 C 19.371094 38.992188 19.058594 39.007812 18.734375 39 C 18.84375 38.917969 18.945312 38.851562 19.070312 38.792969 C 19.105469 38.777344 19.136719 38.761719 19.171875 38.746094 C 19.207031 38.730469 19.242188 38.710938 19.277344 38.695312 C 20.257812 38.222656 21.171875 37.640625 22.023438 36.972656 C 22.085938 36.925781 22.085938 36.925781 22.148438 36.878906 C 22.375 36.699219 22.59375 36.511719 22.808594 36.320312 C 22.875 36.261719 22.941406 36.203125 23.011719 36.144531 C 23.441406 35.773438 23.851562 35.378906 24.21875 34.945312 C 24.257812 34.90625 24.292969 34.863281 24.328125 34.820312 C 24.554688 34.566406 24.769531 34.304688 24.980469 34.039062 C 24.847656 34.039062 24.78125 34.058594 24.660156 34.105469 C 24.621094 34.121094 24.582031 34.136719 24.542969 34.152344 C 24.5 34.167969 24.457031 34.183594 24.414062 34.199219 C 21.488281 35.292969 21.488281 35.292969 20.085938 35.238281 C 20.085938 35.195312 20.085938 35.15625 20.085938 35.113281 C 20.140625 35.0625 20.140625 35.0625 20.21875 35.011719 C 20.25 34.992188 20.277344 34.972656 20.308594 34.953125 C 20.339844 34.933594 20.371094 34.910156 20.402344 34.890625 C 21.207031 34.351562 21.941406 33.679688 22.519531 32.90625 C 22.574219 32.839844 22.628906 32.769531 22.679688 32.699219 C 22.964844 32.324219 23.199219 31.929688 23.417969 31.515625 C 23.433594 31.480469 23.453125 31.449219 23.472656 31.414062 C 23.945312 30.519531 24.246094 29.566406 24.429688 28.578125 C 24.441406 28.527344 24.449219 28.472656 24.460938 28.421875 C 24.628906 27.375 24.578125 26.304688 24.386719 25.269531 C 24.375 25.269531 24.359375 25.269531 24.347656 25.269531 C 24.335938 25.308594 24.335938 25.308594 24.328125 25.351562 C 23.933594 27.078125 23.21875 28.664062 21.984375 29.972656 C 21.910156 30.054688 21.835938 30.140625 21.765625 30.222656 C 20.296875 31.863281 18.046875 32.867188 15.863281 33.128906 C 15.832031 33.132812 15.804688 33.136719 15.769531 33.140625 C 14.472656 33.285156 13.183594 33.125 11.941406 32.753906 C 11.894531 32.742188 11.847656 32.726562 11.796875 32.710938 C 10.238281 32.25 10.238281 32.25 9.703125 31.804688 C 9.703125 31.777344 9.703125 31.75 9.703125 31.722656 C 9.996094 31.597656 10.285156 31.511719 10.597656 31.441406 C 10.65625 31.429688 10.65625 31.429688 10.71875 31.414062 C 10.816406 31.390625 10.914062 31.371094 11.011719 31.347656 C 10.960938 31.304688 10.960938 31.304688 10.90625 31.257812 C 9.964844 30.441406 9.347656 29.316406 9.199219 28.082031 C 9.148438 27.160156 9.285156 26.328125 9.929688 25.617188 C 10.367188 25.164062 10.894531 24.890625 11.535156 24.847656 C 12.015625 24.835938 12.519531 24.882812 12.910156 25.1875 C 13.105469 25.425781 13.0625 25.726562 13.039062 26.015625 C 13.011719 26.132812 12.964844 26.234375 12.910156 26.34375 C 12.734375 26.738281 12.660156 27.125 12.796875 27.546875 C 13.085938 28.15625 13.699219 28.511719 14.316406 28.734375 C 14.535156 28.804688 14.75 28.84375 14.980469 28.867188 C 15.027344 28.878906 15.027344 28.878906 15.078125 28.890625 C 15.195312 28.914062 15.25 28.914062 15.359375 28.867188 C 15.53125 28.691406 15.652344 28.496094 15.78125 28.289062 C 15.796875 28.261719 15.816406 28.234375 15.832031 28.207031 C 16.195312 27.617188 16.425781 27 16.625 26.34375 C 16.652344 26.359375 16.679688 26.371094 16.707031 26.386719 C 16.734375 26.484375 16.734375 26.484375 16.753906 26.609375 C 16.761719 26.648438 16.765625 26.6875 16.773438 26.730469 C 16.820312 27.101562 16.839844 27.46875 16.839844 27.839844 C 16.835938 27.882812 16.835938 27.929688 16.835938 27.972656 C 16.835938 28.078125 16.835938 28.183594 16.835938 28.289062 C 17.574219 27.679688 18.027344 26.902344 18.4375 26.054688 C 19.011719 26.011719 19.480469 26.152344 19.9375 26.503906 C 20.152344 26.6875 20.339844 26.878906 20.464844 27.128906 C 20.101562 24.78125 19.117188 22.625 17.476562 20.863281 C 17.417969 20.796875 17.355469 20.726562 17.292969 20.660156 C 15.371094 18.503906 12.375 17.289062 9.507812 17.089844 C 8.503906 17.035156 7.519531 17.097656 6.53125 17.261719 C 6.480469 17.269531 6.429688 17.277344 6.378906 17.285156 C 6.328125 17.292969 6.28125 17.304688 6.230469 17.3125 C 6.191406 17.320312 6.148438 17.324219 6.105469 17.332031 C 5.871094 17.410156 5.765625 17.613281 5.644531 17.808594 C 5.480469 18.0625 5.304688 18.300781 5.105469 18.527344 C 5.078125 18.558594 5.054688 18.589844 5.027344 18.621094 C 4.957031 18.695312 4.894531 18.757812 4.808594 18.816406 C 4.6875 18.816406 4.6875 18.816406 4.597656 18.777344 C 4.546875 18.617188 4.550781 18.453125 4.554688 18.285156 C 4.554688 18.257812 4.554688 18.226562 4.554688 18.191406 C 4.554688 18.09375 4.554688 17.996094 4.554688 17.898438 C 4.554688 17.832031 4.554688 17.761719 4.554688 17.695312 C 4.554688 17.53125 4.554688 17.367188 4.558594 17.203125 C 4.542969 17.226562 4.527344 17.246094 4.515625 17.265625 C 4.449219 17.355469 4.382812 17.449219 4.320312 17.539062 C 4.296875 17.570312 4.277344 17.605469 4.253906 17.636719 C 4.117188 17.828125 3.976562 18 3.796875 18.15625 C 3.675781 18.152344 3.675781 18.152344 3.585938 18.113281 C 3.542969 17.898438 3.539062 17.691406 3.539062 17.472656 C 3.539062 17.4375 3.539062 17.402344 3.539062 17.367188 C 3.539062 17.195312 3.542969 17.039062 3.585938 16.875 C 3.542969 16.871094 3.5 16.867188 3.457031 16.863281 C 2.960938 16.789062 2.472656 16.414062 2.152344 16.046875 C 1.890625 15.703125 1.71875 15.339844 1.613281 14.925781 C 1.546875 14.773438 1.492188 14.75 1.34375 14.679688 C 0.78125 14.378906 0.308594 13.960938 0.0625 13.371094 C -0.0546875 12.730469 0.164062 12.027344 0.507812 11.488281 C 0.648438 11.296875 0.800781 11.125 0.96875 10.960938 C 0.992188 10.9375 1.015625 10.914062 1.039062 10.890625 C 1.433594 10.519531 1.984375 10.363281 2.507812 10.273438 C 3.515625 10.101562 4.453125 9.804688 5.332031 9.289062 C 5.359375 9.273438 5.386719 9.257812 5.417969 9.238281 C 6.082031 8.832031 6.609375 8.296875 7.15625 7.75 C 7.710938 7.191406 8.246094 6.664062 8.9375 6.261719 C 8.96875 6.242188 9 6.222656 9.035156 6.203125 C 9.316406 6.039062 9.609375 5.890625 9.90625 5.75 C 10.011719 5.703125 10.113281 5.652344 10.214844 5.601562 C 10.65625 5.390625 11.085938 5.203125 11.5625 5.085938 C 11.597656 5.078125 11.636719 5.066406 11.675781 5.058594 C 15.019531 4.234375 18.824219 4.3125 23.152344 5.84375 C 23.351562 5.921875 23.554688 6 23.757812 6.078125 C 23.792969 6.089844 23.824219 6.101562 23.859375 6.113281 C 23.9375 6.144531 24.015625 6.175781 24.09375 6.203125 C 24.078125 6.152344 24.078125 6.152344 24.066406 6.097656 C 23.871094 5.363281 23.875 4.707031 24.21875 4.011719 C 24.539062 3.5 24.945312 3.179688 25.453125 2.859375 C 26.082031 2.460938 26.480469 2.035156 26.707031 1.324219 C 26.722656 1.28125 26.738281 1.242188 26.75 1.199219 C 26.765625 1.058594 26.773438 0.917969 26.78125 0.777344 C 26.792969 0.660156 26.792969 0.660156 26.835938 0.621094 Z M 26.835938 0.621094 "/>
<path style=" stroke:none;fill-rule:nonzero;fill:rgb(87.843138%,13.333334%,30.19608%);fill-opacity:1;" d="M 24.429688 0.164062 C 24.480469 0.183594 24.480469 0.183594 24.53125 0.203125 C 25.050781 0.425781 25.523438 0.855469 25.753906 1.363281 C 25.828125 1.558594 25.867188 1.734375 25.824219 1.945312 C 25.675781 2.175781 25.445312 2.335938 25.222656 2.496094 C 24.945312 2.699219 24.683594 2.910156 24.429688 3.144531 C 24.402344 3.167969 24.378906 3.1875 24.351562 3.210938 C 23.910156 3.609375 23.691406 4.183594 23.628906 4.757812 C 23.625 4.90625 23.625 5.058594 23.625 5.207031 C 23.625 5.25 23.625 5.289062 23.625 5.328125 C 23.628906 5.429688 23.628906 5.527344 23.628906 5.625 C 23.503906 5.507812 23.445312 5.394531 23.371094 5.242188 C 23.351562 5.195312 23.332031 5.152344 23.308594 5.105469 C 23.09375 4.589844 23.082031 3.972656 23.273438 3.445312 C 23.386719 3.1875 23.507812 2.933594 23.636719 2.679688 C 23.800781 2.308594 23.765625 1.757812 23.640625 1.378906 C 23.609375 1.304688 23.578125 1.230469 23.542969 1.15625 C 23.523438 1.109375 23.523438 1.109375 23.5 1.058594 C 23.320312 0.710938 23.027344 0.433594 22.742188 0.164062 C 23.230469 -0.046875 23.941406 -0.0507812 24.429688 0.164062 Z M 24.429688 0.164062 "/>
</g>
</svg>
