<?xml version="1.0" encoding="UTF-8"?>
<svg xmlns="http://www.w3.org/2000/svg" xmlns:xlink="http://www.w3.org/1999/xlink" width="40px" height="40px" viewBox="0 0 40 40" version="1.1">
<g id="surface1">
<path style=" stroke:none;fill-rule:nonzero;fill:rgb(32.156864%,61.960787%,25.882354%);fill-opacity:1;" d="M 19.988281 2.027344 C 20.003906 2.027344 20.003906 2.027344 20.019531 2.027344 C 20.621094 2.027344 21.128906 2.222656 21.640625 2.523438 C 21.699219 2.558594 21.761719 2.59375 21.824219 2.632812 C 21.835938 2.636719 21.847656 2.644531 21.855469 2.648438 C 21.878906 2.660156 21.898438 2.675781 21.921875 2.6875 C 21.972656 2.71875 22.027344 2.746094 22.078125 2.777344 C 22.101562 2.789062 22.121094 2.804688 22.144531 2.816406 C 22.441406 2.984375 22.734375 3.15625 23.03125 3.328125 C 23.042969 3.332031 23.054688 3.339844 23.0625 3.347656 C 23.085938 3.359375 23.105469 3.371094 23.128906 3.382812 C 23.179688 3.414062 23.234375 3.445312 23.285156 3.472656 C 23.398438 3.539062 23.511719 3.605469 23.621094 3.667969 C 23.726562 3.730469 23.828125 3.789062 23.933594 3.847656 C 23.984375 3.878906 24.039062 3.910156 24.09375 3.941406 C 24.113281 3.953125 24.132812 3.964844 24.15625 3.976562 C 24.601562 4.234375 24.601562 4.234375 25.042969 4.488281 C 25.054688 4.496094 25.066406 4.5 25.074219 4.507812 C 25.097656 4.519531 25.117188 4.53125 25.140625 4.542969 C 25.191406 4.574219 25.246094 4.605469 25.296875 4.636719 C 25.410156 4.703125 25.523438 4.765625 25.632812 4.832031 C 25.738281 4.890625 25.839844 4.953125 25.945312 5.011719 C 25.996094 5.042969 26.050781 5.070312 26.101562 5.101562 C 26.125 5.113281 26.144531 5.128906 26.167969 5.140625 C 26.464844 5.308594 26.757812 5.480469 27.054688 5.652344 C 27.066406 5.65625 27.078125 5.664062 27.085938 5.671875 C 27.109375 5.683594 27.128906 5.695312 27.152344 5.707031 C 27.203125 5.738281 27.257812 5.769531 27.308594 5.796875 C 27.421875 5.863281 27.535156 5.929688 27.644531 5.992188 C 27.75 6.054688 27.851562 6.113281 27.957031 6.171875 C 28.007812 6.203125 28.0625 6.234375 28.117188 6.265625 C 28.136719 6.277344 28.15625 6.289062 28.179688 6.300781 C 28.476562 6.472656 28.769531 6.644531 29.066406 6.8125 C 29.078125 6.820312 29.089844 6.824219 29.097656 6.832031 C 29.121094 6.84375 29.140625 6.855469 29.164062 6.867188 C 29.214844 6.898438 29.269531 6.929688 29.320312 6.960938 C 29.433594 7.027344 29.546875 7.089844 29.65625 7.15625 C 29.761719 7.214844 29.863281 7.277344 29.96875 7.335938 C 30.019531 7.367188 30.074219 7.394531 30.125 7.425781 C 30.148438 7.4375 30.167969 7.453125 30.191406 7.464844 C 30.402344 7.585938 30.613281 7.707031 30.824219 7.828125 C 30.835938 7.835938 30.847656 7.839844 30.855469 7.847656 C 30.878906 7.859375 30.898438 7.871094 30.921875 7.882812 C 30.972656 7.914062 31.027344 7.945312 31.078125 7.976562 C 31.183594 8.035156 31.285156 8.09375 31.386719 8.152344 C 31.46875 8.203125 31.554688 8.253906 31.640625 8.300781 C 31.734375 8.355469 31.832031 8.410156 31.925781 8.464844 C 32.027344 8.523438 32.128906 8.585938 32.234375 8.644531 C 32.285156 8.675781 32.339844 8.703125 32.390625 8.734375 C 32.414062 8.746094 32.433594 8.761719 32.457031 8.773438 C 32.582031 8.84375 32.710938 8.917969 32.835938 8.992188 C 32.847656 8.996094 32.859375 9.003906 32.867188 9.011719 C 32.890625 9.023438 32.910156 9.035156 32.933594 9.046875 C 32.984375 9.078125 33.039062 9.109375 33.089844 9.136719 C 33.195312 9.199219 33.296875 9.257812 33.398438 9.316406 C 33.480469 9.367188 33.566406 9.414062 33.652344 9.460938 C 33.746094 9.515625 33.84375 9.570312 33.9375 9.625 C 34.007812 9.667969 34.078125 9.710938 34.148438 9.75 C 34.160156 9.757812 34.171875 9.761719 34.179688 9.769531 C 34.234375 9.800781 34.289062 9.832031 34.34375 9.863281 C 34.40625 9.898438 34.46875 9.933594 34.53125 9.96875 C 34.539062 9.976562 34.546875 9.980469 34.554688 9.984375 C 34.863281 10.164062 35.152344 10.40625 35.359375 10.695312 C 35.371094 10.703125 35.378906 10.714844 35.386719 10.726562 C 35.785156 11.25 35.9375 11.875 35.9375 12.523438 C 35.9375 12.550781 35.9375 12.574219 35.9375 12.601562 C 35.9375 12.660156 35.9375 12.71875 35.9375 12.777344 C 35.9375 12.863281 35.9375 12.949219 35.9375 13.035156 C 35.9375 13.179688 35.9375 13.328125 35.9375 13.476562 C 35.9375 13.625 35.9375 13.773438 35.9375 13.921875 C 35.9375 13.929688 35.9375 13.941406 35.9375 13.949219 C 35.9375 13.988281 35.9375 14.027344 35.9375 14.066406 C 35.9375 14.464844 35.9375 14.863281 35.9375 15.265625 C 35.9375 15.308594 35.9375 15.351562 35.9375 15.394531 C 35.9375 15.40625 35.9375 15.414062 35.9375 15.425781 C 35.9375 15.664062 35.9375 15.898438 35.9375 16.136719 C 35.9375 16.234375 35.9375 16.332031 35.9375 16.429688 C 35.9375 16.445312 35.9375 16.445312 35.9375 16.460938 C 35.9375 17.078125 35.9375 17.695312 35.9375 18.3125 C 35.9375 18.335938 35.9375 18.359375 35.9375 18.382812 C 35.9375 18.484375 35.9375 18.589844 35.9375 18.695312 C 35.9375 18.742188 35.9375 18.785156 35.9375 18.832031 C 35.9375 18.855469 35.9375 18.878906 35.9375 18.902344 C 35.9375 19.640625 35.9375 20.375 35.941406 21.109375 C 35.941406 21.296875 35.941406 21.480469 35.941406 21.667969 C 35.941406 21.683594 35.941406 21.683594 35.941406 21.699219 C 35.941406 22.054688 35.941406 22.40625 35.941406 22.757812 C 35.941406 22.765625 35.941406 22.777344 35.941406 22.789062 C 35.941406 23.03125 35.941406 23.273438 35.941406 23.515625 C 35.941406 23.605469 35.941406 23.691406 35.941406 23.777344 C 35.941406 23.800781 35.941406 23.820312 35.941406 23.84375 C 35.941406 24.1875 35.941406 24.53125 35.941406 24.875 C 35.941406 25.21875 35.941406 25.566406 35.941406 25.914062 C 35.941406 25.960938 35.941406 26.007812 35.941406 26.058594 C 35.941406 26.070312 35.941406 26.070312 35.941406 26.085938 C 35.941406 26.234375 35.941406 26.382812 35.941406 26.53125 C 35.941406 26.675781 35.941406 26.824219 35.941406 26.96875 C 35.941406 27.054688 35.941406 27.140625 35.941406 27.226562 C 35.941406 27.28125 35.941406 27.339844 35.941406 27.398438 C 35.941406 27.429688 35.941406 27.460938 35.941406 27.492188 C 35.941406 27.691406 35.933594 27.886719 35.898438 28.082031 C 35.894531 28.09375 35.894531 28.105469 35.890625 28.117188 C 35.796875 28.609375 35.570312 29.070312 35.234375 29.445312 C 35.230469 29.449219 35.226562 29.453125 35.21875 29.460938 C 35.140625 29.550781 35.054688 29.636719 34.960938 29.71875 C 34.957031 29.722656 34.953125 29.726562 34.945312 29.730469 C 34.78125 29.871094 34.59375 29.980469 34.40625 30.089844 C 34.375 30.109375 34.34375 30.125 34.3125 30.144531 C 34.257812 30.175781 34.207031 30.203125 34.152344 30.234375 C 34.101562 30.265625 34.046875 30.296875 33.992188 30.328125 C 33.972656 30.339844 33.953125 30.351562 33.929688 30.363281 C 33.921875 30.371094 33.910156 30.375 33.898438 30.382812 C 31.265625 31.902344 31.265625 31.902344 31.234375 31.921875 C 31.210938 31.933594 31.191406 31.945312 31.167969 31.957031 C 31.117188 31.988281 31.0625 32.019531 31.011719 32.046875 C 30.90625 32.109375 30.804688 32.167969 30.703125 32.226562 C 30.613281 32.277344 30.523438 32.332031 30.433594 32.382812 C 30.351562 32.429688 30.273438 32.472656 30.195312 32.519531 C 30.105469 32.574219 30.015625 32.625 29.925781 32.675781 C 29.84375 32.722656 29.765625 32.765625 29.6875 32.8125 C 29.601562 32.863281 29.519531 32.910156 29.433594 32.960938 C 29.339844 33.011719 29.242188 33.066406 29.148438 33.121094 C 29.046875 33.183594 28.945312 33.242188 28.839844 33.300781 C 28.789062 33.332031 28.734375 33.363281 28.679688 33.394531 C 28.660156 33.40625 28.640625 33.417969 28.617188 33.429688 C 28.609375 33.4375 28.597656 33.441406 28.585938 33.449219 C 27.539062 34.054688 26.492188 34.65625 24.398438 35.867188 C 24.375 35.878906 24.355469 35.890625 24.332031 35.902344 C 24.28125 35.933594 24.226562 35.964844 24.175781 35.992188 C 24.070312 36.054688 23.96875 36.113281 23.867188 36.171875 C 23.777344 36.222656 23.6875 36.277344 23.597656 36.328125 C 23.515625 36.375 23.4375 36.417969 23.359375 36.464844 C 23.269531 36.519531 23.179688 36.570312 23.089844 36.621094 C 23.007812 36.667969 22.929688 36.710938 22.851562 36.757812 C 22.765625 36.808594 22.683594 36.855469 22.597656 36.90625 C 22.503906 36.957031 22.40625 37.011719 22.3125 37.066406 C 22.210938 37.128906 22.109375 37.1875 22.003906 37.246094 C 21.960938 37.273438 21.917969 37.296875 21.878906 37.320312 C 21.855469 37.332031 21.835938 37.34375 21.8125 37.355469 C 21.761719 37.386719 21.707031 37.417969 21.652344 37.449219 C 21.597656 37.480469 21.546875 37.511719 21.492188 37.542969 C 21.476562 37.550781 21.457031 37.5625 21.441406 37.574219 C 21.253906 37.679688 21.058594 37.777344 20.851562 37.84375 C 20.839844 37.84375 20.832031 37.847656 20.824219 37.847656 C 20.722656 37.882812 20.621094 37.90625 20.515625 37.925781 C 20.507812 37.929688 20.496094 37.929688 20.484375 37.933594 C 20.320312 37.964844 20.160156 37.972656 19.992188 37.972656 C 19.984375 37.972656 19.972656 37.972656 19.964844 37.972656 C 19.816406 37.972656 19.675781 37.96875 19.53125 37.941406 C 19.519531 37.9375 19.511719 37.933594 19.5 37.933594 C 19.085938 37.851562 18.726562 37.6875 18.371094 37.46875 C 18.324219 37.441406 18.277344 37.414062 18.230469 37.386719 C 18.222656 37.382812 18.214844 37.375 18.203125 37.371094 C 18.1875 37.359375 18.167969 37.351562 18.152344 37.339844 C 18.109375 37.3125 18.0625 37.289062 18.019531 37.261719 C 18.011719 37.257812 18.003906 37.253906 17.996094 37.246094 C 17.917969 37.199219 17.839844 37.15625 17.761719 37.109375 C 17.652344 37.042969 17.542969 36.980469 17.429688 36.914062 C 17.308594 36.84375 17.1875 36.769531 17.066406 36.699219 C 16.957031 36.632812 16.847656 36.570312 16.738281 36.503906 C 16.617188 36.433594 16.496094 36.359375 16.375 36.289062 C 16.265625 36.222656 16.15625 36.160156 16.046875 36.09375 C 15.921875 36.023438 15.800781 35.949219 15.679688 35.878906 C 15.570312 35.8125 15.460938 35.75 15.351562 35.683594 C 15.230469 35.613281 15.109375 35.539062 14.988281 35.46875 C 14.878906 35.402344 14.769531 35.339844 14.65625 35.273438 C 14.605469 35.242188 14.554688 35.210938 14.5 35.179688 C 14.464844 35.160156 14.429688 35.136719 14.394531 35.117188 C 13.863281 34.804688 13.863281 34.804688 13.820312 34.679688 C 13.808594 34.632812 13.808594 34.597656 13.828125 34.558594 C 13.898438 34.46875 14.015625 34.4375 14.117188 34.402344 C 14.136719 34.394531 14.136719 34.394531 14.152344 34.390625 C 14.175781 34.382812 14.195312 34.375 14.21875 34.367188 C 14.277344 34.347656 14.335938 34.324219 14.398438 34.304688 C 14.414062 34.300781 14.414062 34.300781 14.433594 34.292969 C 14.90625 34.128906 15.355469 33.917969 15.789062 33.667969 C 15.84375 33.636719 15.898438 33.609375 15.953125 33.578125 C 15.960938 33.570312 15.972656 33.566406 15.984375 33.558594 C 16.101562 33.496094 16.191406 33.460938 16.328125 33.496094 C 16.378906 33.519531 16.425781 33.546875 16.476562 33.574219 C 16.484375 33.582031 16.496094 33.585938 16.507812 33.59375 C 16.53125 33.605469 16.554688 33.621094 16.578125 33.636719 C 16.632812 33.667969 16.6875 33.703125 16.746094 33.734375 C 16.757812 33.742188 16.769531 33.75 16.78125 33.757812 C 16.804688 33.769531 16.828125 33.785156 16.851562 33.796875 C 16.90625 33.832031 16.960938 33.863281 17.015625 33.898438 C 17.039062 33.910156 17.058594 33.921875 17.082031 33.9375 C 17.125 33.960938 17.171875 33.988281 17.214844 34.015625 C 17.226562 34.019531 17.234375 34.027344 17.246094 34.03125 C 17.269531 34.046875 17.292969 34.058594 17.3125 34.074219 C 17.367188 34.105469 17.421875 34.136719 17.476562 34.167969 C 17.601562 34.242188 17.726562 34.316406 17.851562 34.390625 C 17.972656 34.464844 18.097656 34.539062 18.21875 34.609375 C 18.273438 34.640625 18.328125 34.675781 18.382812 34.707031 C 18.40625 34.71875 18.425781 34.734375 18.449219 34.746094 C 19.109375 35.136719 19.109375 35.136719 19.140625 35.15625 C 19.164062 35.167969 19.1875 35.183594 19.207031 35.195312 C 19.269531 35.230469 19.328125 35.269531 19.390625 35.304688 C 19.417969 35.320312 19.445312 35.335938 19.472656 35.351562 C 19.527344 35.382812 19.578125 35.414062 19.632812 35.445312 C 19.640625 35.453125 19.652344 35.457031 19.660156 35.464844 C 19.679688 35.476562 19.695312 35.484375 19.714844 35.496094 C 19.804688 35.550781 19.882812 35.585938 19.992188 35.589844 C 19.996094 35.589844 20.003906 35.589844 20.011719 35.589844 C 20.125 35.59375 20.226562 35.519531 20.324219 35.464844 C 20.335938 35.457031 20.347656 35.453125 20.359375 35.445312 C 20.382812 35.429688 20.410156 35.414062 20.433594 35.402344 C 20.476562 35.375 20.519531 35.351562 20.566406 35.324219 C 20.609375 35.300781 20.648438 35.277344 20.691406 35.253906 C 20.742188 35.222656 20.796875 35.191406 20.851562 35.160156 C 20.871094 35.148438 20.890625 35.136719 20.914062 35.125 C 21.039062 35.050781 21.039062 35.050781 21.070312 35.03125 C 21.09375 35.019531 21.113281 35.007812 21.136719 34.996094 C 21.1875 34.964844 21.242188 34.933594 21.292969 34.90625 C 21.398438 34.84375 21.5 34.785156 21.601562 34.726562 C 21.691406 34.675781 21.78125 34.621094 21.871094 34.570312 C 21.953125 34.523438 22.03125 34.480469 22.109375 34.433594 C 22.199219 34.378906 22.289062 34.328125 22.378906 34.277344 C 22.460938 34.230469 22.539062 34.1875 22.617188 34.140625 C 22.703125 34.089844 22.785156 34.042969 22.871094 33.992188 C 22.964844 33.941406 23.0625 33.886719 23.15625 33.832031 C 23.257812 33.769531 23.359375 33.710938 23.464844 33.652344 C 23.515625 33.621094 23.570312 33.589844 23.625 33.558594 C 23.644531 33.546875 23.664062 33.535156 23.6875 33.523438 C 23.695312 33.515625 23.707031 33.511719 23.71875 33.503906 C 25.8125 32.296875 25.8125 32.296875 27.652344 31.234375 C 27.675781 31.222656 27.695312 31.210938 27.71875 31.199219 C 27.769531 31.167969 27.824219 31.136719 27.875 31.105469 C 27.980469 31.046875 28.082031 30.988281 28.183594 30.929688 C 28.273438 30.875 28.363281 30.824219 28.453125 30.769531 C 28.542969 30.71875 28.632812 30.667969 28.722656 30.617188 C 28.824219 30.558594 28.925781 30.496094 29.03125 30.4375 C 29.082031 30.40625 29.136719 30.378906 29.1875 30.347656 C 29.210938 30.335938 29.230469 30.320312 29.253906 30.308594 C 29.261719 30.304688 29.273438 30.296875 29.285156 30.292969 C 31.378906 29.082031 31.378906 29.082031 32.964844 28.167969 C 32.988281 28.15625 33.007812 28.144531 33.03125 28.132812 C 33.078125 28.101562 33.128906 28.074219 33.175781 28.046875 C 33.195312 28.035156 33.210938 28.027344 33.230469 28.015625 C 33.25 28.003906 33.273438 27.992188 33.296875 27.980469 C 33.371094 27.9375 33.4375 27.894531 33.484375 27.820312 C 33.488281 27.8125 33.496094 27.804688 33.5 27.792969 C 33.539062 27.714844 33.550781 27.640625 33.546875 27.554688 C 33.546875 27.542969 33.546875 27.535156 33.546875 27.523438 C 33.550781 27.488281 33.546875 27.449219 33.546875 27.414062 C 33.546875 27.386719 33.546875 27.363281 33.546875 27.335938 C 33.550781 27.277344 33.550781 27.222656 33.550781 27.164062 C 33.546875 27.078125 33.546875 26.992188 33.550781 26.90625 C 33.550781 26.761719 33.550781 26.613281 33.550781 26.46875 C 33.550781 26.320312 33.550781 26.171875 33.550781 26.023438 C 33.550781 26.011719 33.550781 26.003906 33.550781 25.996094 C 33.550781 25.957031 33.550781 25.917969 33.550781 25.878906 C 33.550781 25.492188 33.550781 25.105469 33.550781 24.71875 C 33.550781 24.664062 33.550781 24.613281 33.550781 24.558594 C 33.550781 24.542969 33.550781 24.542969 33.550781 24.527344 C 33.550781 24.289062 33.550781 24.054688 33.550781 23.820312 C 33.550781 23.765625 33.550781 23.710938 33.550781 23.660156 C 33.550781 23.636719 33.550781 23.617188 33.550781 23.59375 C 33.550781 23.578125 33.550781 23.578125 33.550781 23.5625 C 33.550781 23.539062 33.550781 23.519531 33.550781 23.496094 C 33.550781 22.882812 33.550781 22.269531 33.550781 21.65625 C 33.550781 21.644531 33.550781 21.632812 33.550781 21.621094 C 33.550781 21.496094 33.550781 21.367188 33.550781 21.242188 C 33.550781 21.207031 33.550781 21.171875 33.550781 21.136719 C 33.550781 21.113281 33.550781 21.089844 33.550781 21.066406 C 33.550781 20.335938 33.550781 19.605469 33.550781 18.871094 C 33.550781 18.6875 33.550781 18.503906 33.550781 18.320312 C 33.550781 18.308594 33.550781 18.296875 33.550781 18.285156 C 33.550781 17.933594 33.550781 17.585938 33.550781 17.234375 C 33.550781 17.222656 33.550781 17.210938 33.550781 17.199219 C 33.550781 16.960938 33.550781 16.71875 33.550781 16.476562 C 33.550781 16.390625 33.550781 16.304688 33.550781 16.21875 C 33.550781 16.199219 33.550781 16.175781 33.550781 16.15625 C 33.550781 15.8125 33.550781 15.46875 33.550781 15.128906 C 33.550781 14.785156 33.550781 14.4375 33.550781 14.09375 C 33.550781 14.046875 33.550781 14 33.550781 13.953125 C 33.550781 13.941406 33.550781 13.933594 33.550781 13.921875 C 33.550781 13.777344 33.550781 13.628906 33.550781 13.480469 C 33.550781 13.335938 33.550781 13.1875 33.550781 13.042969 C 33.550781 12.957031 33.550781 12.875 33.550781 12.789062 C 33.550781 12.730469 33.550781 12.675781 33.550781 12.617188 C 33.550781 12.585938 33.550781 12.554688 33.550781 12.523438 C 33.550781 12.300781 33.550781 12.300781 33.445312 12.109375 C 33.382812 12.046875 33.296875 12.003906 33.21875 11.957031 C 33.203125 11.949219 33.183594 11.9375 33.167969 11.929688 C 33.148438 11.917969 33.128906 11.90625 33.113281 11.894531 C 33.050781 11.863281 32.988281 11.828125 32.929688 11.792969 C 32.917969 11.785156 32.90625 11.78125 32.898438 11.773438 C 32.875 11.761719 32.855469 11.75 32.835938 11.738281 C 32.78125 11.707031 32.730469 11.675781 32.675781 11.644531 C 32.65625 11.632812 32.632812 11.621094 32.613281 11.609375 C 32.601562 11.601562 32.589844 11.597656 32.582031 11.589844 C 31.53125 10.984375 30.484375 10.382812 20.773438 4.777344 C 20.753906 4.765625 20.730469 4.753906 20.710938 4.742188 C 20.644531 4.707031 20.582031 4.667969 20.515625 4.632812 C 20.484375 4.613281 20.453125 4.59375 20.421875 4.574219 C 20.382812 4.554688 20.34375 4.53125 20.304688 4.507812 C 20.285156 4.496094 20.265625 4.484375 20.25 4.476562 C 20.242188 4.46875 20.230469 4.464844 20.222656 4.460938 C 20.148438 4.417969 20.078125 4.390625 19.992188 4.390625 C 19.980469 4.390625 19.964844 4.390625 19.953125 4.390625 C 19.863281 4.394531 19.777344 4.445312 19.699219 4.492188 C 19.691406 4.496094 19.679688 4.503906 19.671875 4.507812 C 19.640625 4.523438 19.609375 4.542969 19.578125 4.5625 C 19.570312 4.566406 19.5625 4.570312 19.550781 4.578125 C 19.503906 4.605469 19.453125 4.632812 19.40625 4.664062 C 19.3125 4.71875 19.21875 4.769531 19.125 4.824219 C 19.070312 4.855469 19.019531 4.886719 18.964844 4.917969 C 18.945312 4.929688 18.921875 4.941406 18.902344 4.953125 C 18.890625 4.960938 18.878906 4.964844 18.871094 4.972656 C 18.519531 5.171875 18.519531 5.171875 18.488281 5.191406 C 18.46875 5.203125 18.445312 5.214844 18.425781 5.226562 C 18.371094 5.257812 18.320312 5.289062 18.265625 5.320312 C 18.164062 5.378906 18.0625 5.4375 17.960938 5.5 C 17.847656 5.5625 17.734375 5.628906 17.621094 5.695312 C 17.566406 5.726562 17.515625 5.753906 17.460938 5.785156 C 17.441406 5.796875 17.417969 5.8125 17.398438 5.824219 C 17.386719 5.828125 17.375 5.835938 17.367188 5.839844 C 16.761719 6.1875 16.761719 6.1875 16.730469 6.207031 C 16.710938 6.21875 16.6875 6.230469 16.667969 6.242188 C 16.613281 6.273438 16.5625 6.304688 16.507812 6.335938 C 16.40625 6.394531 16.304688 6.453125 16.203125 6.515625 C 16.089844 6.578125 15.976562 6.644531 15.863281 6.710938 C 15.808594 6.742188 15.757812 6.769531 15.703125 6.800781 C 15.683594 6.8125 15.660156 6.828125 15.640625 6.839844 C 15.628906 6.84375 15.617188 6.851562 15.609375 6.855469 C 15.003906 7.203125 15.003906 7.203125 14.972656 7.222656 C 14.953125 7.234375 14.929688 7.246094 14.910156 7.257812 C 14.855469 7.289062 14.804688 7.320312 14.75 7.351562 C 14.648438 7.410156 14.546875 7.46875 14.445312 7.53125 C 14.332031 7.59375 14.21875 7.660156 14.105469 7.726562 C 14.050781 7.757812 14 7.785156 13.945312 7.816406 C 13.925781 7.828125 13.902344 7.84375 13.882812 7.855469 C 13.867188 7.863281 13.867188 7.863281 13.851562 7.871094 C 13.246094 8.21875 13.246094 8.21875 13.214844 8.238281 C 13.195312 8.25 13.171875 8.261719 13.152344 8.273438 C 13.097656 8.304688 13.046875 8.335938 12.992188 8.367188 C 12.890625 8.425781 12.789062 8.484375 12.6875 8.546875 C 12.574219 8.609375 12.460938 8.675781 12.347656 8.742188 C 12.292969 8.773438 12.242188 8.800781 12.1875 8.832031 C 12.167969 8.84375 12.144531 8.859375 12.125 8.871094 C 12.109375 8.878906 12.109375 8.878906 12.09375 8.886719 C 11.488281 9.234375 11.488281 9.234375 11.457031 9.253906 C 11.4375 9.265625 11.414062 9.277344 11.394531 9.289062 C 11.339844 9.320312 11.289062 9.351562 11.234375 9.382812 C 11.132812 9.441406 11.03125 9.5 10.929688 9.5625 C 10.816406 9.625 10.703125 9.691406 10.589844 9.757812 C 10.535156 9.789062 10.484375 9.816406 10.429688 9.847656 C 10.410156 9.859375 10.386719 9.875 10.367188 9.886719 C 10.351562 9.894531 10.351562 9.894531 10.335938 9.902344 C 9.730469 10.25 9.730469 10.25 9.699219 10.269531 C 9.679688 10.28125 9.65625 10.292969 9.636719 10.304688 C 9.582031 10.335938 9.53125 10.367188 9.476562 10.398438 C 9.375 10.457031 9.273438 10.515625 9.171875 10.578125 C 9.058594 10.640625 8.945312 10.707031 8.832031 10.773438 C 8.777344 10.804688 8.726562 10.832031 8.671875 10.863281 C 8.652344 10.875 8.628906 10.890625 8.609375 10.902344 C 8.59375 10.910156 8.59375 10.910156 8.578125 10.917969 C 7.972656 11.265625 7.972656 11.265625 7.941406 11.285156 C 7.921875 11.296875 7.898438 11.308594 7.878906 11.320312 C 7.824219 11.351562 7.773438 11.382812 7.71875 11.414062 C 7.617188 11.472656 7.515625 11.53125 7.414062 11.59375 C 7.300781 11.65625 7.1875 11.722656 7.074219 11.789062 C 7.039062 11.808594 7.007812 11.824219 6.976562 11.84375 C 6.964844 11.851562 6.953125 11.855469 6.941406 11.863281 C 6.921875 11.875 6.898438 11.886719 6.878906 11.902344 C 6.828125 11.929688 6.78125 11.957031 6.730469 11.984375 C 6.722656 11.988281 6.714844 11.992188 6.707031 12 C 6.691406 12.007812 6.675781 12.015625 6.660156 12.023438 C 6.546875 12.089844 6.480469 12.175781 6.445312 12.300781 C 6.421875 12.398438 6.429688 12.5 6.429688 12.597656 C 6.429688 12.625 6.429688 12.652344 6.429688 12.675781 C 6.429688 12.734375 6.429688 12.789062 6.429688 12.847656 C 6.429688 12.933594 6.429688 13.019531 6.429688 13.105469 C 6.429688 13.25 6.429688 13.394531 6.429688 13.542969 C 6.429688 13.6875 6.429688 13.835938 6.429688 13.984375 C 6.429688 13.992188 6.429688 14.003906 6.429688 14.011719 C 6.429688 14.050781 6.429688 14.089844 6.429688 14.125 C 6.429688 14.480469 6.429688 14.832031 6.429688 15.1875 C 6.429688 15.199219 6.429688 15.207031 6.429688 15.21875 C 6.429688 15.230469 6.429688 15.238281 6.429688 15.25 C 6.429688 15.570312 6.429688 15.890625 6.429688 16.210938 C 6.429688 16.230469 6.429688 16.253906 6.429688 16.273438 C 6.429688 16.359375 6.429688 16.445312 6.429688 16.53125 C 6.429688 16.773438 6.429688 17.011719 6.429688 17.253906 C 6.429688 17.265625 6.429688 17.273438 6.429688 17.285156 C 6.429688 17.636719 6.429688 17.984375 6.429688 18.332031 C 6.429688 18.351562 6.429688 18.351562 6.429688 18.367188 C 6.429688 18.550781 6.429688 18.734375 6.429688 18.917969 C 6.429688 19.648438 6.429688 20.375 6.429688 21.105469 C 6.429688 21.289062 6.429688 21.472656 6.429688 21.65625 C 6.429688 21.667969 6.429688 21.679688 6.429688 21.691406 C 6.429688 22.039062 6.429688 22.386719 6.429688 22.738281 C 6.429688 22.746094 6.429688 22.757812 6.429688 22.769531 C 6.429688 23.011719 6.429688 23.25 6.429688 23.492188 C 6.429688 23.578125 6.429688 23.664062 6.429688 23.75 C 6.429688 23.769531 6.429688 23.789062 6.429688 23.8125 C 6.429688 24.132812 6.429688 24.453125 6.429688 24.769531 C 6.429688 24.78125 6.429688 24.792969 6.429688 24.804688 C 6.429688 24.8125 6.429688 24.824219 6.429688 24.835938 C 6.429688 25.1875 6.429688 25.539062 6.429688 25.894531 C 6.429688 25.929688 6.429688 25.96875 6.429688 26.007812 C 6.429688 26.015625 6.429688 26.023438 6.429688 26.035156 C 6.429688 26.179688 6.429688 26.328125 6.429688 26.476562 C 6.429688 26.621094 6.429688 26.765625 6.429688 26.910156 C 6.429688 26.996094 6.429688 27.078125 6.429688 27.164062 C 6.429688 27.222656 6.429688 27.277344 6.429688 27.332031 C 6.429688 27.367188 6.429688 27.398438 6.429688 27.429688 C 6.429688 27.667969 6.429688 27.667969 6.542969 27.871094 C 6.609375 27.921875 6.679688 27.964844 6.753906 28.003906 C 6.835938 28.050781 6.917969 28.09375 7 28.144531 C 7.085938 28.191406 7.171875 28.242188 7.257812 28.292969 C 7.351562 28.34375 7.445312 28.398438 7.539062 28.453125 C 7.613281 28.496094 7.6875 28.542969 7.765625 28.585938 C 7.859375 28.636719 7.953125 28.691406 8.046875 28.746094 C 8.121094 28.789062 8.195312 28.835938 8.273438 28.878906 C 8.367188 28.929688 8.460938 28.984375 8.554688 29.039062 C 8.65625 29.101562 8.761719 29.160156 8.863281 29.21875 C 8.917969 29.25 8.96875 29.28125 9.023438 29.3125 C 9.042969 29.324219 9.066406 29.335938 9.085938 29.347656 C 9.722656 29.714844 9.722656 29.714844 9.753906 29.734375 C 9.773438 29.746094 9.796875 29.757812 9.816406 29.769531 C 9.871094 29.800781 9.925781 29.832031 9.976562 29.863281 C 10.039062 29.898438 10.101562 29.933594 10.164062 29.972656 C 10.179688 29.976562 10.179688 29.976562 10.191406 29.984375 C 10.785156 30.320312 11.515625 30.484375 12.183594 30.304688 C 12.28125 30.277344 12.371094 30.238281 12.460938 30.195312 C 12.46875 30.191406 12.472656 30.1875 12.480469 30.1875 C 12.863281 29.996094 13.152344 29.652344 13.289062 29.25 C 13.300781 29.214844 13.3125 29.179688 13.324219 29.144531 C 13.324219 29.136719 13.328125 29.128906 13.332031 29.125 C 13.378906 28.945312 13.382812 28.769531 13.382812 28.585938 C 13.382812 28.558594 13.382812 28.535156 13.382812 28.507812 C 13.382812 28.453125 13.382812 28.394531 13.382812 28.339844 C 13.382812 28.253906 13.382812 28.167969 13.382812 28.082031 C 13.382812 27.9375 13.382812 27.792969 13.382812 27.648438 C 13.382812 27.503906 13.382812 27.355469 13.382812 27.210938 C 13.382812 27.199219 13.382812 27.191406 13.382812 27.179688 C 13.382812 27.132812 13.382812 27.085938 13.382812 27.039062 C 13.382812 26.707031 13.382812 26.378906 13.382812 26.046875 C 13.382812 25.695312 13.382812 25.347656 13.382812 25 C 13.382812 24.988281 13.382812 24.976562 13.382812 24.96875 C 13.382812 24.847656 13.382812 24.730469 13.382812 24.613281 C 13.382812 24.398438 13.382812 24.179688 13.382812 23.960938 C 13.382812 23.953125 13.382812 23.941406 13.382812 23.929688 C 13.382812 23.410156 13.382812 22.894531 13.382812 22.375 C 13.382812 22.34375 13.382812 22.308594 13.382812 22.273438 C 13.382812 21.917969 13.382812 21.5625 13.382812 21.203125 C 13.382812 20.859375 13.382812 20.515625 13.382812 20.171875 C 13.382812 20.136719 13.382812 20.101562 13.382812 20.066406 C 13.382812 19.550781 13.382812 19.035156 13.382812 18.515625 C 13.382812 18.503906 13.382812 18.496094 13.382812 18.484375 C 13.382812 18.265625 13.382812 18.050781 13.382812 17.832031 C 13.382812 17.714844 13.382812 17.597656 13.382812 17.480469 C 13.382812 17.46875 13.382812 17.457031 13.382812 17.449219 C 13.382812 17.097656 13.382812 16.75 13.382812 16.402344 C 13.382812 16.070312 13.382812 15.742188 13.386719 15.410156 C 13.386719 15.363281 13.386719 15.316406 13.386719 15.269531 C 13.386719 15.261719 13.386719 15.25 13.386719 15.242188 C 13.386719 15.09375 13.386719 14.949219 13.386719 14.800781 C 13.382812 14.660156 13.382812 14.515625 13.386719 14.371094 C 13.386719 14.289062 13.386719 14.203125 13.386719 14.117188 C 13.382812 14.0625 13.386719 14.007812 13.386719 13.949219 C 13.386719 13.917969 13.386719 13.886719 13.386719 13.855469 C 13.386719 13.820312 13.386719 13.789062 13.386719 13.753906 C 13.386719 13.742188 13.386719 13.734375 13.386719 13.722656 C 13.386719 13.605469 13.417969 13.503906 13.496094 13.414062 C 13.589844 13.324219 13.703125 13.300781 13.832031 13.300781 C 13.839844 13.300781 13.847656 13.300781 13.855469 13.300781 C 13.878906 13.300781 13.902344 13.300781 13.925781 13.300781 C 13.941406 13.300781 13.957031 13.300781 13.976562 13.300781 C 14.019531 13.300781 14.066406 13.300781 14.113281 13.300781 C 14.140625 13.300781 14.167969 13.300781 14.195312 13.300781 C 14.296875 13.300781 14.394531 13.300781 14.496094 13.300781 C 14.585938 13.300781 14.679688 13.300781 14.773438 13.296875 C 14.851562 13.296875 14.929688 13.296875 15.011719 13.296875 C 15.058594 13.296875 15.105469 13.296875 15.152344 13.296875 C 15.195312 13.296875 15.242188 13.296875 15.285156 13.296875 C 15.300781 13.296875 15.320312 13.296875 15.335938 13.296875 C 15.484375 13.296875 15.621094 13.308594 15.738281 13.414062 C 15.820312 13.507812 15.84375 13.609375 15.84375 13.730469 C 15.84375 13.746094 15.84375 13.746094 15.84375 13.761719 C 15.84375 13.796875 15.84375 13.835938 15.84375 13.871094 C 15.84375 13.894531 15.84375 13.921875 15.84375 13.949219 C 15.84375 14.003906 15.84375 14.0625 15.84375 14.121094 C 15.84375 14.207031 15.84375 14.292969 15.84375 14.375 C 15.84375 14.523438 15.84375 14.667969 15.84375 14.8125 C 15.84375 14.960938 15.84375 15.109375 15.84375 15.257812 C 15.84375 15.265625 15.84375 15.277344 15.84375 15.285156 C 15.84375 15.324219 15.84375 15.363281 15.84375 15.398438 C 15.84375 15.753906 15.84375 16.109375 15.84375 16.460938 C 15.84375 16.472656 15.84375 16.484375 15.84375 16.492188 C 15.84375 16.503906 15.84375 16.515625 15.84375 16.527344 C 15.84375 16.847656 15.84375 17.167969 15.84375 17.484375 C 15.84375 17.507812 15.84375 17.527344 15.84375 17.550781 C 15.84375 17.636719 15.84375 17.722656 15.84375 17.808594 C 15.84375 18.050781 15.84375 18.289062 15.84375 18.53125 C 15.84375 18.542969 15.84375 18.554688 15.84375 18.566406 C 15.84375 18.914062 15.84375 19.265625 15.84375 19.613281 C 15.84375 19.628906 15.84375 19.628906 15.84375 19.648438 C 15.84375 19.832031 15.84375 20.015625 15.84375 20.199219 C 15.84375 20.929688 15.84375 21.660156 15.84375 22.390625 C 15.84375 22.574219 15.84375 22.757812 15.84375 22.941406 C 15.84375 22.957031 15.84375 22.957031 15.84375 22.976562 C 15.84375 23.324219 15.84375 23.675781 15.84375 24.023438 C 15.84375 24.039062 15.84375 24.039062 15.84375 24.054688 C 15.84375 24.296875 15.84375 24.539062 15.84375 24.777344 C 15.84375 24.863281 15.84375 24.949219 15.84375 25.035156 C 15.84375 25.058594 15.84375 25.078125 15.84375 25.101562 C 15.84375 25.421875 15.84375 25.742188 15.84375 26.0625 C 15.84375 26.078125 15.84375 26.078125 15.84375 26.09375 C 15.84375 26.101562 15.84375 26.113281 15.84375 26.125 C 15.84375 26.476562 15.84375 26.832031 15.84375 27.183594 C 15.84375 27.222656 15.84375 27.261719 15.84375 27.296875 C 15.84375 27.308594 15.84375 27.316406 15.84375 27.328125 C 15.84375 27.472656 15.84375 27.621094 15.84375 27.769531 C 15.84375 27.914062 15.84375 28.058594 15.84375 28.203125 C 15.84375 28.28125 15.84375 28.359375 15.84375 28.4375 C 15.84375 29.03125 15.84375 29.03125 15.820312 29.277344 C 15.820312 29.285156 15.820312 29.292969 15.816406 29.304688 C 15.8125 29.351562 15.808594 29.394531 15.804688 29.441406 C 15.800781 29.453125 15.800781 29.453125 15.800781 29.460938 C 15.707031 30.242188 15.449219 31.003906 14.796875 31.761719 C 14.792969 31.769531 14.785156 31.773438 14.78125 31.78125 C 14.742188 31.820312 14.707031 31.855469 14.664062 31.890625 C 14.644531 31.90625 14.625 31.925781 14.605469 31.945312 C 14.390625 32.136719 14.144531 32.289062 13.886719 32.414062 C 13.867188 32.421875 13.851562 32.429688 13.832031 32.4375 C 13.226562 32.734375 12.535156 32.816406 11.871094 32.8125 C 11.859375 32.8125 11.847656 32.8125 11.835938 32.8125 C 10.96875 32.8125 10.1875 32.585938 9.40625 32.226562 C 9.394531 32.222656 9.382812 32.214844 9.371094 32.210938 C 9.300781 32.179688 9.234375 32.148438 9.164062 32.113281 C 9.132812 32.101562 9.101562 32.085938 9.066406 32.070312 C 8.933594 32.007812 8.808594 31.9375 8.683594 31.863281 C 8.632812 31.835938 8.582031 31.804688 8.53125 31.777344 C 8.441406 31.726562 8.351562 31.675781 8.261719 31.621094 C 8.179688 31.570312 8.09375 31.523438 8.007812 31.476562 C 7.886719 31.40625 7.769531 31.335938 7.648438 31.269531 C 7.597656 31.238281 7.542969 31.207031 7.492188 31.175781 C 7.46875 31.164062 7.449219 31.152344 7.425781 31.140625 C 7.410156 31.132812 7.410156 31.132812 7.394531 31.121094 C 6.941406 30.859375 6.484375 30.597656 6.03125 30.335938 C 6.015625 30.324219 6.015625 30.324219 6 30.316406 C 5.976562 30.304688 5.957031 30.292969 5.933594 30.28125 C 5.882812 30.25 5.828125 30.21875 5.777344 30.1875 C 5.722656 30.15625 5.671875 30.125 5.617188 30.097656 C 5.585938 30.078125 5.554688 30.058594 5.523438 30.042969 C 5.324219 29.925781 5.136719 29.800781 4.96875 29.644531 C 4.941406 29.621094 4.917969 29.597656 4.890625 29.574219 C 4.84375 29.53125 4.796875 29.484375 4.757812 29.433594 C 4.746094 29.425781 4.738281 29.414062 4.730469 29.40625 C 4.503906 29.148438 4.332031 28.835938 4.21875 28.515625 C 4.214844 28.507812 4.214844 28.5 4.210938 28.492188 C 4.136719 28.285156 4.09375 28.070312 4.070312 27.851562 C 4.070312 27.84375 4.070312 27.835938 4.070312 27.824219 C 4.058594 27.703125 4.0625 27.582031 4.0625 27.457031 C 4.0625 27.429688 4.0625 27.40625 4.0625 27.378906 C 4.0625 27.320312 4.0625 27.261719 4.0625 27.207031 C 4.0625 27.121094 4.0625 27.03125 4.0625 26.945312 C 4.0625 26.800781 4.0625 26.652344 4.0625 26.507812 C 4.0625 26.359375 4.0625 26.207031 4.0625 26.058594 C 4.0625 26.050781 4.0625 26.042969 4.0625 26.03125 C 4.0625 25.992188 4.0625 25.953125 4.0625 25.917969 C 4.0625 25.515625 4.0625 25.117188 4.0625 24.71875 C 4.0625 24.675781 4.0625 24.632812 4.0625 24.589844 C 4.0625 24.578125 4.0625 24.566406 4.0625 24.558594 C 4.0625 24.320312 4.0625 24.082031 4.0625 23.847656 C 4.0625 23.75 4.0625 23.652344 4.0625 23.554688 C 4.0625 23.542969 4.0625 23.535156 4.0625 23.523438 C 4.0625 22.90625 4.0625 22.289062 4.0625 21.671875 C 4.0625 21.648438 4.0625 21.625 4.0625 21.605469 C 4.0625 21.5 4.0625 21.394531 4.0625 21.292969 C 4.0625 21.246094 4.0625 21.199219 4.0625 21.152344 C 4.0625 21.128906 4.0625 21.105469 4.0625 21.082031 C 4.0625 20.347656 4.0625 19.613281 4.058594 18.875 C 4.058594 18.691406 4.058594 18.507812 4.058594 18.320312 C 4.058594 18.308594 4.058594 18.296875 4.058594 18.285156 C 4.058594 17.933594 4.058594 17.582031 4.058594 17.230469 C 4.058594 17.21875 4.058594 17.210938 4.058594 17.199219 C 4.058594 16.957031 4.058594 16.714844 4.058594 16.472656 C 4.058594 16.382812 4.058594 16.296875 4.058594 16.210938 C 4.058594 16.1875 4.058594 16.167969 4.058594 16.144531 C 4.058594 15.800781 4.058594 15.460938 4.058594 15.117188 C 4.058594 14.769531 4.058594 14.421875 4.058594 14.078125 C 4.058594 14.027344 4.058594 13.980469 4.058594 13.933594 C 4.058594 13.925781 4.058594 13.914062 4.058594 13.90625 C 4.058594 13.757812 4.058594 13.609375 4.058594 13.460938 C 4.058594 13.3125 4.058594 13.167969 4.058594 13.023438 C 4.058594 12.9375 4.058594 12.851562 4.058594 12.765625 C 4.058594 12.707031 4.058594 12.652344 4.058594 12.59375 C 4.058594 12.5625 4.058594 12.53125 4.058594 12.5 C 4.058594 12.296875 4.066406 12.09375 4.101562 11.898438 C 4.105469 11.886719 4.105469 11.875 4.109375 11.863281 C 4.203125 11.371094 4.429688 10.890625 4.773438 10.527344 C 4.785156 10.515625 4.796875 10.503906 4.808594 10.488281 C 4.890625 10.394531 4.984375 10.304688 5.085938 10.226562 C 5.101562 10.214844 5.113281 10.207031 5.125 10.195312 C 5.296875 10.058594 5.488281 9.953125 5.679688 9.84375 C 5.734375 9.8125 5.785156 9.78125 5.839844 9.75 C 5.859375 9.738281 5.882812 9.726562 5.902344 9.714844 C 5.917969 9.707031 5.917969 9.707031 5.933594 9.695312 C 6.285156 9.496094 6.285156 9.496094 6.316406 9.476562 C 6.335938 9.464844 6.359375 9.453125 6.378906 9.441406 C 6.433594 9.410156 6.484375 9.378906 6.539062 9.347656 C 6.640625 9.289062 6.742188 9.230469 6.84375 9.171875 C 6.957031 9.105469 7.070312 9.039062 7.183594 8.972656 C 7.238281 8.941406 7.289062 8.914062 7.34375 8.882812 C 7.363281 8.871094 7.386719 8.855469 7.40625 8.84375 C 7.421875 8.835938 7.421875 8.835938 7.4375 8.828125 C 8.042969 8.480469 8.042969 8.480469 8.074219 8.460938 C 8.09375 8.449219 8.117188 8.4375 8.136719 8.425781 C 8.191406 8.394531 8.242188 8.363281 8.296875 8.332031 C 8.398438 8.273438 8.5 8.214844 8.601562 8.15625 C 8.714844 8.089844 8.828125 8.023438 8.941406 7.957031 C 8.996094 7.925781 9.046875 7.898438 9.101562 7.867188 C 9.121094 7.855469 9.144531 7.839844 9.164062 7.828125 C 9.179688 7.820312 9.179688 7.820312 9.195312 7.8125 C 9.800781 7.464844 9.800781 7.464844 9.832031 7.445312 C 9.851562 7.433594 9.875 7.421875 9.894531 7.410156 C 9.949219 7.378906 10 7.347656 10.054688 7.316406 C 10.15625 7.257812 10.257812 7.199219 10.359375 7.140625 C 10.472656 7.074219 10.585938 7.007812 10.699219 6.941406 C 10.753906 6.910156 10.804688 6.882812 10.859375 6.851562 C 10.878906 6.839844 10.902344 6.824219 10.921875 6.8125 C 10.933594 6.808594 10.945312 6.800781 10.953125 6.796875 C 11.558594 6.449219 11.558594 6.449219 11.589844 6.429688 C 11.609375 6.417969 11.632812 6.40625 11.652344 6.394531 C 11.707031 6.363281 11.757812 6.332031 11.8125 6.300781 C 11.914062 6.242188 12.015625 6.183594 12.117188 6.125 C 12.230469 6.058594 12.34375 5.992188 12.457031 5.925781 C 12.511719 5.894531 12.5625 5.867188 12.617188 5.835938 C 12.636719 5.824219 12.660156 5.808594 12.679688 5.796875 C 12.691406 5.792969 12.703125 5.785156 12.710938 5.78125 C 13.316406 5.433594 13.316406 5.433594 13.347656 5.414062 C 13.367188 5.402344 13.390625 5.390625 13.410156 5.378906 C 13.464844 5.347656 13.515625 5.316406 13.570312 5.285156 C 13.671875 5.226562 13.773438 5.167969 13.875 5.109375 C 13.988281 5.042969 14.101562 4.976562 14.214844 4.910156 C 14.269531 4.878906 14.320312 4.851562 14.375 4.820312 C 14.394531 4.808594 14.417969 4.792969 14.4375 4.78125 C 14.449219 4.777344 14.460938 4.769531 14.46875 4.765625 C 15.074219 4.417969 15.074219 4.417969 15.105469 4.398438 C 15.125 4.386719 15.148438 4.375 15.167969 4.363281 C 15.222656 4.332031 15.273438 4.300781 15.328125 4.269531 C 15.429688 4.210938 15.53125 4.152344 15.632812 4.09375 C 15.746094 4.027344 15.859375 3.960938 15.972656 3.894531 C 16.027344 3.863281 16.078125 3.835938 16.132812 3.804688 C 16.152344 3.792969 16.175781 3.777344 16.195312 3.765625 C 16.207031 3.761719 16.21875 3.753906 16.226562 3.75 C 16.832031 3.402344 16.832031 3.402344 16.863281 3.382812 C 16.882812 3.371094 16.90625 3.359375 16.925781 3.347656 C 16.980469 3.316406 17.03125 3.285156 17.085938 3.253906 C 17.1875 3.195312 17.289062 3.136719 17.390625 3.078125 C 17.503906 3.011719 17.617188 2.945312 17.730469 2.878906 C 17.785156 2.847656 17.835938 2.820312 17.890625 2.789062 C 17.910156 2.777344 17.933594 2.761719 17.953125 2.75 C 17.964844 2.746094 17.976562 2.738281 17.984375 2.734375 C 18.015625 2.714844 18.050781 2.695312 18.082031 2.679688 C 18.089844 2.671875 18.101562 2.667969 18.113281 2.660156 C 18.132812 2.648438 18.15625 2.636719 18.175781 2.625 C 18.230469 2.59375 18.285156 2.5625 18.335938 2.53125 C 18.398438 2.492188 18.460938 2.457031 18.523438 2.421875 C 18.535156 2.417969 18.542969 2.414062 18.550781 2.40625 C 18.871094 2.222656 19.210938 2.101562 19.578125 2.050781 C 19.59375 2.050781 19.605469 2.046875 19.617188 2.046875 C 19.742188 2.03125 19.863281 2.027344 19.988281 2.027344 Z M 19.988281 2.027344 "/>
<path style=" stroke:none;fill-rule:nonzero;fill:rgb(32.156864%,61.960787%,25.882354%);fill-opacity:1;" d="M 27.441406 13.554688 C 27.449219 13.558594 27.460938 13.5625 27.46875 13.566406 C 27.925781 13.769531 28.347656 14.027344 28.71875 14.363281 C 28.734375 14.378906 28.75 14.390625 28.765625 14.40625 C 28.84375 14.476562 28.917969 14.546875 28.984375 14.625 C 29 14.644531 29.015625 14.660156 29.03125 14.679688 C 29.265625 14.941406 29.449219 15.242188 29.609375 15.554688 C 29.613281 15.5625 29.617188 15.570312 29.621094 15.582031 C 29.894531 16.121094 30.222656 17.054688 30.101562 17.671875 C 30.066406 17.765625 30 17.855469 29.910156 17.902344 C 29.847656 17.929688 29.796875 17.941406 29.730469 17.941406 C 29.71875 17.941406 29.71875 17.941406 29.707031 17.941406 C 29.679688 17.941406 29.65625 17.941406 29.628906 17.941406 C 29.613281 17.941406 29.59375 17.941406 29.574219 17.941406 C 29.515625 17.941406 29.457031 17.941406 29.398438 17.941406 C 29.375 17.941406 29.355469 17.941406 29.335938 17.941406 C 29.238281 17.941406 29.140625 17.941406 29.042969 17.941406 C 28.933594 17.941406 28.820312 17.941406 28.710938 17.941406 C 28.621094 17.941406 28.535156 17.945312 28.449219 17.945312 C 28.398438 17.945312 28.347656 17.945312 28.296875 17.945312 C 28.246094 17.945312 28.199219 17.945312 28.148438 17.945312 C 28.132812 17.945312 28.113281 17.945312 28.097656 17.945312 C 27.964844 17.945312 27.855469 17.933594 27.753906 17.84375 C 27.683594 17.773438 27.648438 17.699219 27.625 17.605469 C 27.621094 17.589844 27.617188 17.574219 27.613281 17.5625 C 27.613281 17.550781 27.609375 17.542969 27.609375 17.535156 C 27.488281 17.035156 27.296875 16.539062 26.9375 16.160156 C 26.921875 16.140625 26.90625 16.121094 26.886719 16.101562 C 26.859375 16.066406 26.824219 16.035156 26.789062 16.007812 C 26.777344 16 26.769531 15.992188 26.761719 15.984375 C 26.558594 15.808594 26.316406 15.675781 26.0625 15.578125 C 26.058594 15.574219 26.050781 15.570312 26.042969 15.566406 C 25.546875 15.367188 24.992188 15.304688 24.460938 15.265625 C 24.453125 15.265625 24.445312 15.265625 24.4375 15.265625 C 24.375 15.261719 24.316406 15.257812 24.257812 15.253906 C 24.246094 15.253906 24.246094 15.253906 24.230469 15.253906 C 24.015625 15.242188 23.796875 15.242188 23.578125 15.242188 C 23.570312 15.242188 23.558594 15.242188 23.550781 15.242188 C 23.242188 15.242188 22.933594 15.246094 22.625 15.273438 C 22.609375 15.273438 22.59375 15.277344 22.578125 15.277344 C 21.945312 15.332031 21.210938 15.457031 20.703125 15.867188 C 20.699219 15.875 20.691406 15.878906 20.6875 15.882812 C 20.445312 16.074219 20.28125 16.332031 20.207031 16.632812 C 20.207031 16.640625 20.203125 16.648438 20.203125 16.65625 C 20.167969 16.796875 20.164062 16.9375 20.164062 17.078125 C 20.164062 17.085938 20.164062 17.09375 20.164062 17.101562 C 20.164062 17.359375 20.203125 17.613281 20.394531 17.804688 C 20.40625 17.820312 20.40625 17.820312 20.421875 17.832031 C 20.425781 17.839844 20.433594 17.847656 20.441406 17.855469 C 21.039062 18.417969 22.28125 18.488281 24.6875 18.84375 C 25.574219 18.964844 26.464844 19.097656 28.859375 19.875 C 28.871094 19.878906 28.871094 19.878906 28.886719 19.886719 C 29.085938 19.988281 29.277344 20.105469 29.453125 20.242188 C 29.464844 20.253906 29.464844 20.253906 29.480469 20.265625 C 29.503906 20.285156 29.527344 20.304688 29.550781 20.320312 C 29.5625 20.332031 29.570312 20.339844 29.582031 20.347656 C 29.71875 20.460938 29.851562 20.589844 29.960938 20.734375 C 29.96875 20.742188 29.976562 20.75 29.984375 20.761719 C 30.089844 20.894531 30.175781 21.035156 30.253906 21.179688 C 30.257812 21.1875 30.261719 21.195312 30.265625 21.199219 C 30.710938 22.035156 30.722656 23.152344 30.457031 24.253906 C 30.269531 24.878906 29.929688 25.414062 29.46875 25.871094 C 29.464844 25.878906 29.457031 25.886719 29.449219 25.894531 C 29.402344 25.941406 29.355469 25.984375 29.304688 26.023438 C 29.300781 26.03125 29.292969 26.035156 29.289062 26.042969 C 28.644531 26.585938 27.867188 26.933594 24.78125 27.5 C 24.765625 27.5 24.746094 27.5 24.730469 27.5 C 24.523438 27.511719 24.316406 27.511719 24.109375 27.511719 C 24.066406 27.511719 24.027344 27.511719 23.984375 27.511719 C 23.601562 27.511719 23.21875 27.503906 22.835938 27.472656 C 22.820312 27.472656 22.820312 27.472656 22.804688 27.472656 C 22.40625 27.441406 22.011719 27.390625 21.621094 27.324219 C 21.613281 27.324219 21.605469 27.320312 21.597656 27.320312 C 21 27.21875 20.402344 27.058594 19.84375 26.816406 C 19.835938 26.8125 19.828125 26.808594 19.816406 26.804688 C 19.761719 26.78125 19.703125 26.753906 19.648438 26.726562 C 19.640625 26.722656 19.632812 26.71875 19.621094 26.714844 C 19.476562 26.648438 19.335938 26.574219 19.199219 26.492188 C 19.1875 26.488281 19.1875 26.488281 19.171875 26.480469 C 18.828125 26.277344 18.519531 26.027344 18.234375 25.746094 C 18.222656 25.734375 18.222656 25.734375 18.207031 25.722656 C 18.152344 25.664062 18.097656 25.601562 18.046875 25.539062 C 18.03125 25.519531 18.015625 25.5 18 25.484375 C 17.585938 24.984375 17.316406 24.363281 17.1875 23.730469 C 17.183594 23.71875 17.183594 23.710938 17.179688 23.699219 C 17.152344 23.558594 17.132812 23.417969 17.117188 23.277344 C 17.117188 23.269531 17.113281 23.265625 17.113281 23.257812 C 17.097656 23.101562 17.085938 22.945312 17.085938 22.789062 C 17.085938 22.769531 17.085938 22.753906 17.085938 22.734375 C 17.085938 22.601562 17.085938 22.488281 17.175781 22.382812 C 17.265625 22.292969 17.363281 22.261719 17.488281 22.261719 C 17.511719 22.261719 17.539062 22.261719 17.5625 22.261719 C 17.582031 22.261719 17.601562 22.261719 17.617188 22.261719 C 17.667969 22.261719 17.71875 22.261719 17.765625 22.261719 C 17.808594 22.261719 17.851562 22.261719 17.890625 22.261719 C 17.988281 22.261719 18.085938 22.261719 18.183594 22.261719 C 18.285156 22.261719 18.386719 22.261719 18.488281 22.261719 C 18.574219 22.261719 18.660156 22.261719 18.746094 22.261719 C 18.796875 22.261719 18.851562 22.261719 18.902344 22.261719 C 18.949219 22.261719 19 22.261719 19.046875 22.261719 C 19.066406 22.261719 19.082031 22.261719 19.101562 22.261719 C 19.242188 22.261719 19.355469 22.277344 19.460938 22.378906 C 19.515625 22.441406 19.542969 22.511719 19.558594 22.59375 C 19.5625 22.601562 19.5625 22.609375 19.5625 22.617188 C 19.570312 22.660156 19.578125 22.699219 19.585938 22.738281 C 19.648438 23.078125 19.730469 23.410156 19.882812 23.71875 C 19.886719 23.726562 19.890625 23.734375 19.894531 23.742188 C 20.097656 24.160156 20.441406 24.464844 20.851562 24.679688 C 20.855469 24.679688 20.863281 24.683594 20.871094 24.6875 C 21.65625 25.089844 22.617188 25.148438 25.273438 25.136719 C 25.28125 25.136719 25.289062 25.136719 25.296875 25.132812 C 25.730469 25.09375 26.164062 25.027344 26.582031 24.890625 C 26.589844 24.890625 26.597656 24.886719 26.605469 24.882812 C 27.105469 24.726562 27.574219 24.441406 27.824219 23.964844 C 27.910156 23.785156 27.960938 23.589844 27.988281 23.390625 C 27.988281 23.378906 27.988281 23.378906 27.992188 23.367188 C 28 23.28125 28 23.195312 28 23.113281 C 28 23.101562 28 23.09375 28 23.085938 C 28 22.8125 27.957031 22.546875 27.765625 22.335938 C 27.757812 22.328125 27.753906 22.324219 27.75 22.320312 C 27.226562 21.746094 26.226562 21.613281 23.324219 21.203125 C 22.449219 21.109375 21.574219 21 20.148438 20.605469 C 20.132812 20.601562 20.121094 20.597656 20.109375 20.59375 C 19.550781 20.402344 19.019531 20.144531 18.574219 19.757812 C 18.566406 19.75 18.558594 19.742188 18.550781 19.734375 C 18.429688 19.628906 18.3125 19.515625 18.210938 19.382812 C 18.207031 19.375 18.199219 19.367188 18.1875 19.355469 C 18.128906 19.277344 18.070312 19.195312 18.015625 19.109375 C 18.015625 19.105469 18.011719 19.097656 18.003906 19.09375 C 17.738281 18.667969 17.601562 18.171875 17.546875 17.675781 C 17.546875 17.667969 17.546875 17.660156 17.546875 17.648438 C 17.507812 17.304688 17.511719 16.9375 17.558594 16.59375 C 17.558594 16.578125 17.5625 16.566406 17.5625 16.554688 C 17.621094 16.136719 17.746094 15.734375 17.941406 15.359375 C 17.949219 15.339844 17.957031 15.324219 17.96875 15.304688 C 18.085938 15.066406 18.25 14.847656 18.429688 14.648438 C 18.433594 14.644531 18.4375 14.636719 18.441406 14.632812 C 18.503906 14.566406 18.566406 14.5 18.628906 14.433594 C 18.636719 14.429688 18.644531 14.421875 18.652344 14.414062 C 18.695312 14.371094 18.742188 14.328125 18.789062 14.289062 C 18.796875 14.277344 18.808594 14.269531 18.816406 14.261719 C 19.507812 13.664062 20.40625 13.320312 27.441406 13.554688 Z M 27.441406 13.554688 "/>
</g>
</svg>
