<?xml version="1.0" encoding="UTF-8"?>
<svg version="1.1" xmlns="http://www.w3.org/2000/svg" width="4096" height="4096">
<path d="M0 0 C1.61081955 0.00081573 1.61081955 0.00081573 3.25418091 0.00164795 C64.73908424 0.14427125 116.71919452 19.95421489 169.1171875 50.7421875 C175.4550545 54.46525694 181.818328 58.14330309 188.1875 61.8125 C189.26741211 62.43487549 190.34732422 63.05725098 191.45996094 63.69848633 C193.64996549 64.96045935 195.84006984 66.22225919 198.03027344 67.48388672 C203.45909942 70.61180148 208.88569281 73.74358448 214.3125 76.875 C216.47915583 78.12501879 218.6458225 79.37501878 220.8125 80.625 C251.14583333 98.125 281.47916667 115.625 311.8125 133.125 C312.88516113 133.74383057 313.95782227 134.36266113 315.06298828 135.00024414 C317.22807071 136.24935518 319.39310982 137.49854129 321.55810547 138.74780273 C326.99865706 141.88702309 332.43997216 145.02490563 337.8828125 148.16015625 C349.3669882 154.77722892 360.83446894 161.42133977 372.27832031 168.10791016 C382.83870282 174.27419054 393.43376766 180.3799595 404.03027344 186.48388672 C409.45909942 189.61180148 414.88569281 192.74358448 420.3125 195.875 C422.47915583 197.12501879 424.6458225 198.37501878 426.8125 199.625 C472.3125 225.875 472.3125 225.875 517.8125 252.125 C518.88516113 252.74383057 519.95782227 253.36266113 521.06298828 254.00024414 C523.22807071 255.24935518 525.39310982 256.49854129 527.55810547 257.74780273 C532.99865706 260.88702309 538.43997216 264.02490563 543.8828125 267.16015625 C555.3669882 273.77722892 566.83446894 280.42133977 578.27832031 287.10791016 C588.83870282 293.27419054 599.43376766 299.3799595 610.03027344 305.48388672 C615.45909942 308.61180148 620.88569281 311.74358448 626.3125 314.875 C628.47915583 316.12501879 630.6458225 317.37501878 632.8125 318.625 C663.14583333 336.125 693.47916667 353.625 723.8125 371.125 C724.88516113 371.74383057 725.95782227 372.36266113 727.06298828 373.00024414 C729.22807071 374.24935518 731.39310982 375.49854129 733.55810547 376.74780273 C738.99865706 379.88702309 744.43997216 383.02490563 749.8828125 386.16015625 C761.3669882 392.77722892 772.83446894 399.42133977 784.27832031 406.10791016 C794.83870282 412.27419054 805.43376766 418.3799595 816.03027344 424.48388672 C821.45909942 427.61180148 826.88569281 430.74358448 832.3125 433.875 C834.47915583 435.12501879 836.6458225 436.37501878 838.8125 437.625 C869.14583333 455.125 899.47916667 472.625 929.8125 490.125 C930.88516113 490.74383057 931.95782227 491.36266113 933.06298828 492.00024414 C935.22807071 493.24935518 937.39310982 494.49854129 939.55810547 495.74780273 C944.99865706 498.88702309 950.43997216 502.02490563 955.8828125 505.16015625 C967.3669882 511.77722892 978.83446894 518.42133977 990.27832031 525.10791016 C1000.83870282 531.27419054 1011.43376766 537.3799595 1022.03027344 543.48388672 C1027.45909942 546.61180148 1032.88569281 549.74358448 1038.3125 552.875 C1040.47915583 554.12501879 1042.6458225 555.37501878 1044.8125 556.625 C1066.47916667 569.125 1088.14583333 581.625 1109.8125 594.125 C1110.88516113 594.74383057 1111.95782227 595.36266113 1113.06298828 596.00024414 C1115.22807071 597.24935518 1117.39310982 598.49854129 1119.55810547 599.74780273 C1124.99865706 602.88702309 1130.43997216 606.02490563 1135.8828125 609.16015625 C1146.33456199 615.18247329 1156.77549548 621.22169337 1167.1875 627.3125 C1175.86512241 632.38775123 1184.57855568 637.39758767 1193.3125 642.375 C1203.03365617 647.9150173 1212.72144658 653.50874809 1222.37939453 659.15844727 C1232.90334625 665.31266742 1243.46630137 671.39869996 1254.03027344 677.48388672 C1259.45909942 680.61180148 1264.88569281 683.74358448 1270.3125 686.875 C1272.47915583 688.12501879 1274.6458225 689.37501878 1276.8125 690.625 C1289.8125 698.125 1302.8125 705.625 1315.8125 713.125 C1316.88516113 713.74383057 1317.95782227 714.36266113 1319.06298828 715.00024414 C1321.22807071 716.24935518 1323.39310982 717.49854129 1325.55810547 718.74780273 C1330.99865706 721.88702309 1336.43997216 725.02490563 1341.8828125 728.16015625 C1352.33456199 734.18247329 1362.77549548 740.22169337 1373.1875 746.3125 C1381.86512241 751.38775123 1390.57855568 756.39758767 1399.3125 761.375 C1409.03365617 766.9150173 1418.72144658 772.50874809 1428.37939453 778.15844727 C1435.6346184 782.4011734 1442.90613228 786.61480728 1450.1875 790.8125 C1451.26209473 791.43229736 1452.33668945 792.05209473 1453.44384766 792.69067383 C1458.99288759 795.88981021 1464.54527405 799.08300062 1470.1015625 802.26953125 C1476.51683444 805.95145254 1482.92063308 809.65259525 1489.3125 813.375 C1490.16312012 813.8695166 1491.01374023 814.3640332 1491.89013672 814.87353516 C1523.1982648 833.18197005 1553.01209909 857.78316786 1574.3125 887.375 C1575.21054454 888.55956983 1576.11170006 889.74178629 1577.015625 890.921875 C1617.78683778 944.57008499 1633.49803071 1008.37533257 1633.44113445 1074.75572109 C1633.44248186 1077.46477145 1633.44422528 1080.17381898 1633.44644669 1082.8828685 C1633.45048585 1088.78099513 1633.45083286 1094.67911295 1633.44874074 1100.57724046 C1633.44562594 1109.40709761 1633.44828447 1118.23694671 1633.45203945 1127.06680328 C1633.45826868 1142.11774079 1633.45974623 1157.16867542 1633.45862198 1172.21961403 C1633.45749717 1187.47015856 1633.45853285 1202.72070065 1633.46219444 1217.97124481 C1633.4624241 1218.9348718 1633.46265375 1219.89849879 1633.46289036 1220.8913266 C1633.46383201 1224.81611659 1633.4647877 1228.74090659 1633.46576155 1232.66569657 C1633.47590401 1273.60158075 1633.47896747 1314.53746356 1633.47955366 1355.47334885 C1633.47961841 1359.87918003 1633.47968635 1364.28501121 1633.47975707 1368.69084239 C1633.47977408 1369.78416991 1633.47979108 1370.87749743 1633.4798086 1372.00395609 C1633.48021712 1396.23571768 1633.48240723 1420.467479 1633.48491292 1444.69924045 C1633.48594128 1454.67815671 1633.48693131 1464.65707298 1633.48792917 1474.63598925 C1633.48809505 1476.2898869 1633.48809505 1476.2898869 1633.48826428 1477.97719663 C1633.49458821 1541.16008781 1633.49871342 1604.34297881 1633.49825573 1667.52587032 C1633.49823995 1669.89027794 1633.49822422 1672.25468556 1633.49820852 1674.61909318 C1633.49813514 1685.29411389 1633.49804697 1695.9691346 1633.49795464 1706.64415532 C1633.49791351 1711.40438268 1633.49787337 1716.16461004 1633.49783332 1720.9248374 C1633.49781293 1723.3074168 1633.49779191 1725.68999619 1633.49777026 1728.07257559 C1633.49709006 1803.40784211 1633.50440669 1878.74310393 1633.51831055 1954.07836914 C1633.5218116 1973.05845863 1633.52528108 1992.03854813 1633.52857494 2011.01863766 C1633.52887925 2012.77168596 1633.52887925 2012.77168596 1633.52918971 2014.56014938 C1633.53540539 2050.58469113 1633.53917041 2086.60923249 1633.54043293 2122.63377476 C1633.54047288 2123.76492675 1633.54051283 2124.89607874 1633.54055399 2126.06150807 C1633.5414073 2150.8939586 1633.54166845 2175.72640911 1633.54138362 2200.55885966 C1633.54128713 2209.44455869 1633.54123509 2218.33025771 1633.54120489 2227.21595674 C1633.54119697 2229.4264705 1633.54118677 2231.63698425 1633.54117426 2233.84749801 C1633.540998 2269.05810593 1633.54669356 2304.26870983 1633.55532808 2339.4793166 C1633.5639815 2374.94731889 1633.56616629 2410.4153156 1633.55956676 2445.8833185 C1633.5586545 2450.7875942 1633.55781121 2455.69186991 1633.55700874 2460.59614563 C1633.55676861 2462.0381607 1633.55676861 2462.0381607 1633.55652363 2463.50930739 C1633.55417335 2478.71301123 1633.5585219 2493.91670542 1633.56567993 2509.12040744 C1633.57258274 2524.08119478 1633.57231279 2539.04196789 1633.56448779 2554.00275492 C1633.56011665 2562.76600939 1633.56115345 2571.5292219 1633.57035458 2580.29247287 C1633.57592608 2586.12468421 1633.57414153 2591.95686448 1633.5665718 2597.78907347 C1633.562491 2601.08731562 1633.56247606 2604.38540941 1633.56932249 2607.68365652 C1633.60853951 2627.94218944 1632.87825463 2648.0969639 1629.1875 2668.0625 C1628.97504639 2669.21983643 1628.76259277 2670.37717285 1628.54370117 2671.56958008 C1618.8318519 2722.05007616 1595.66667413 2769.15612592 1561.3125 2807.375 C1560.83538574 2807.90851074 1560.35827148 2808.44202148 1559.86669922 2808.99169922 C1551.51435618 2818.30591345 1542.9307914 2827.35186037 1533.3125 2835.375 C1532.8263623 2835.78556641 1532.34022461 2836.19613281 1531.83935547 2836.61914062 C1514.72474403 2851.00220452 1495.81434601 2862.51310382 1476.44677734 2873.58203125 C1473.26814773 2875.40037179 1470.09608057 2877.22967824 1466.92578125 2879.0625 C1461.48492439 2882.20788625 1456.04046738 2885.34696533 1450.59472656 2888.48388672 C1445.16590058 2891.61180148 1439.73930719 2894.74358448 1434.3125 2897.875 C1432.14584417 2899.12501879 1429.9791775 2900.37501878 1427.8125 2901.625 C1426.74 2902.24375 1425.6675 2902.8625 1424.5625 2903.5 C1154.81250004 3059.12499998 1154.81250004 3059.12499998 1151.56201172 3061.00024414 C1149.39692929 3062.24935518 1147.23189018 3063.49854129 1145.06689453 3064.74780273 C1139.62634294 3067.88702309 1134.18502784 3071.02490563 1128.7421875 3074.16015625 C1118.29043801 3080.18247329 1107.84950452 3086.22169337 1097.4375 3092.3125 C1088.16686069 3097.73458699 1078.85313301 3103.07824012 1069.52203369 3108.39523315 C1061.42542157 3113.00984029 1053.35461199 3117.66584886 1045.3125 3122.375 C1036.08449471 3127.7785646 1026.8125533 3133.10152361 1017.52148438 3138.39550781 C1009.42505867 3143.01002804 1001.35443491 3147.66595255 993.3125 3152.375 C984.67752443 3157.43130923 976.00643681 3162.42107122 967.3125 3167.375 C957.59125494 3172.91485933 947.90355132 3178.50874932 938.24560547 3184.15844727 C927.72165375 3190.31266742 917.15869863 3196.39869996 906.59472656 3202.48388672 C901.16590058 3205.61180148 895.73930719 3208.74358448 890.3125 3211.875 C888.14584417 3213.12501879 885.9791775 3214.37501878 883.8125 3215.625 C882.74 3216.24375 881.6675 3216.8625 880.5625 3217.5 C773.3125 3279.375 666.0625 3341.25 451.56201172 3465.00024414 C449.39692929 3466.24935518 447.23189018 3467.49854129 445.06689453 3468.74780273 C439.62634294 3471.88702309 434.18502784 3475.02490563 428.7421875 3478.16015625 C418.29043801 3484.18247329 407.84950452 3490.22169337 397.4375 3496.3125 C388.16686069 3501.73458699 378.85313301 3507.07824012 369.52203369 3512.39523315 C361.42542157 3517.00984029 353.35461199 3521.66584886 345.3125 3526.375 C336.08449471 3531.7785646 326.8125533 3537.10152361 317.52148438 3542.39550781 C309.42505867 3547.01002804 301.35443491 3551.66595255 293.3125 3556.375 C284.67752443 3561.43130923 276.00643681 3566.42107122 267.3125 3571.375 C257.59125494 3576.91485933 247.90355132 3582.50874932 238.24560547 3588.15844727 C227.72165375 3594.31266742 217.15869863 3600.39869996 206.59472656 3606.48388672 C202.24750638 3608.98861504 197.90174529 3611.49586779 193.55615234 3614.00341797 C191.39777531 3615.24879795 189.2392472 3616.49391614 187.08056641 3617.73876953 C181.56153244 3620.9216428 176.04462721 3624.10811807 170.53125 3627.30078125 C165.08892925 3630.45122559 159.64139479 3633.59241627 154.18798828 3636.72363281 C152.40137889 3637.7496666 150.61571689 3638.77735419 148.83154297 3639.80761719 C129.52360391 3650.93197649 109.63236306 3660.77172909 88.3125 3667.375 C87.49426758 3667.63474609 86.67603516 3667.89449219 85.83300781 3668.16210938 C75.38851662 3671.45011477 64.87034992 3674.02124647 54.125 3676.125 C53.11743652 3676.32367676 52.10987305 3676.52235352 51.07177734 3676.72705078 C34.28605246 3679.86077993 17.7383507 3680.75281354 0.6875 3680.6875 C-0.32696198 3680.68534485 -1.34142395 3680.6831897 -2.3866272 3680.68096924 C-17.35172958 3680.62997881 -31.95999076 3680.27435822 -46.6875 3677.375 C-47.76402832 3677.16568848 -48.84055664 3676.95637695 -49.94970703 3676.74072266 C-92.24818115 3668.30728906 -128.96243021 3651.58945452 -165.65917969 3629.21240234 C-170.37423647 3626.35158992 -175.12298497 3623.54885271 -179.875 3620.75 C-180.77460449 3620.21938965 -181.67420898 3619.6887793 -182.60107422 3619.14208984 C-184.40313962 3618.0792834 -186.20538465 3617.01678148 -188.0078125 3615.95458984 C-192.46537638 3613.32699889 -196.92022347 3610.69481298 -201.375 3608.0625 C-202.26985107 3607.53382324 -203.16470215 3607.00514648 -204.08666992 3606.46044922 C-212.03517399 3601.76325547 -219.97773568 3597.0560515 -227.91986084 3592.3480835 C-239.16944095 3585.67970844 -250.4270233 3579.02495323 -261.6875 3572.375 C-274.10401655 3565.04233936 -286.51545802 3557.70122014 -298.91986084 3550.3480835 C-310.16944095 3543.67970844 -321.4270233 3537.02495323 -332.6875 3530.375 C-345.10401655 3523.04233936 -357.51545802 3515.70122014 -369.91986084 3508.3480835 C-381.16944095 3501.67970844 -392.4270233 3495.02495323 -403.6875 3488.375 C-416.10401655 3481.04233936 -428.51545802 3473.70122014 -440.91986084 3466.3480835 C-452.16944095 3459.67970844 -463.4270233 3453.02495323 -474.6875 3446.375 C-487.10401655 3439.04233936 -499.51545802 3431.70122014 -511.91986084 3424.3480835 C-523.16944095 3417.67970844 -534.4270233 3411.02495323 -545.6875 3404.375 C-551.06971171 3401.19649725 -556.45158819 3398.01743344 -561.83203125 3394.8359375 C-565.47210259 3392.68353661 -569.11374871 3390.53383661 -572.75671387 3388.38633728 C-627.2355824 3356.26485445 -627.2355824 3356.26485445 -631.6875 3343.375 C-632.58713337 3338.9493842 -632.65834596 3335.23441685 -630.53515625 3331.16796875 C-623.5013751 3322.17367158 -611.33174096 3318.63205861 -600.8984375 3315.08984375 C-599.2635009 3314.52276451 -599.2635009 3314.52276451 -597.59553528 3313.94422913 C-595.27992338 3313.14131912 -592.96317018 3312.34169397 -590.64535522 3311.54516602 C-584.57270731 3309.45589747 -578.5109738 3307.33547114 -572.44921875 3305.21484375 C-570.65690575 3304.58828384 -570.65690575 3304.58828384 -568.8283844 3303.94906616 C-520.40243144 3286.9762193 -474.24569733 3265.56059366 -429.6953125 3240.09130859 C-424.20382293 3236.95777193 -418.69735176 3233.85110512 -413.1875 3230.75 C-412.14271484 3230.15775635 -411.09792969 3229.5655127 -410.02148438 3228.95532227 C-397.96924895 3222.17643185 -388.60406403 3218.58508605 -374.6875 3222.375 C-369.45638324 3224.67131464 -364.58589246 3227.44602442 -359.6875 3230.375 C-358.58664062 3231.02339844 -357.48578125 3231.67179687 -356.3515625 3232.33984375 C-353.95677816 3233.76739826 -351.56939353 3235.20369275 -349.1875 3236.65234375 C-343.46498792 3240.12691532 -337.6989461 3243.52803147 -331.9375 3246.9375 C-330.7665767 3247.63081738 -329.59567847 3248.32417712 -328.42480469 3249.01757812 C-326.03526161 3250.43263246 -323.64560159 3251.84748903 -321.25585938 3253.26220703 C-315.56528219 3256.63124078 -309.87650966 3260.00332025 -304.1875 3263.375 C-301.93750794 3264.70834673 -299.68750792 3266.04168004 -297.4375 3267.375 C-292.9375 3270.04166667 -288.4375 3272.70833333 -283.9375 3275.375 C-282.82415283 3276.0347583 -281.71080566 3276.6945166 -280.5637207 3277.37426758 C-278.30964112 3278.71002448 -276.05557214 3280.04579927 -273.80151367 3281.3815918 C-268.23901728 3284.67799001 -262.67634788 3287.97409547 -257.11328125 3291.26953125 C-244.28544727 3298.86895896 -231.46220028 3306.47604434 -218.64263916 3314.0894165 C-206.09371182 3321.54190214 -193.53910571 3328.984753 -180.98193359 3336.42333984 C-175.38343152 3339.73995653 -169.78549831 3343.05753312 -164.1875 3346.375 C-161.93750264 3347.70833779 -159.68750264 3349.04167113 -157.4375 3350.375 C-89.93749993 3390.37500004 -89.93749993 3390.37500004 -86.5612793 3392.37573242 C-84.31535889 3393.7066422 -82.06942793 3395.03753418 -79.82348633 3396.3684082 C-73.55879713 3400.08069883 -67.29425634 3403.79323929 -61.03039551 3407.50692749 C-58.18770056 3409.19217057 -55.34445842 3410.87647989 -52.50048828 3412.55957031 C-47.13210356 3415.73692241 -41.76882382 3418.92210732 -36.41796875 3422.12890625 C-35.42837158 3422.71969971 -34.43877441 3423.31049316 -33.41918945 3423.91918945 C-31.58586415 3425.01392015 -29.75476565 3426.11239365 -27.92651367 3427.21557617 C-18.62404475 3432.75776285 -10.62101881 3436.53561728 0.3125 3436.75 C1.00472656 3436.78738281 1.69695312 3436.82476563 2.41015625 3436.86328125 C14.14646412 3437.05498138 24.65637869 3429.71873913 34.4375 3424 C35.66220513 3423.29106951 36.8873115 3422.58283177 38.11279297 3421.87524414 C40.62428562 3420.42370315 43.13344583 3418.96825582 45.640625 3417.50927734 C50.16362434 3414.8780409 54.69906423 3412.26850726 59.23388672 3409.65771484 C63.52318339 3407.18716887 67.80887494 3404.71040268 72.09472656 3402.23388672 C77.49920645 3399.11175395 82.90597412 3395.99358796 88.3125 3392.875 C90.4791775 3391.62501878 92.64584417 3390.37501879 94.8125 3389.125 C107.81249995 3381.62500003 107.81249995 3381.62500003 111.06298828 3379.74975586 C113.22807071 3378.50064482 115.39310982 3377.25145871 117.55810547 3376.00219727 C122.99865706 3372.86297691 128.43997216 3369.72509437 133.8828125 3366.58984375 C144.33456199 3360.56752671 154.77549548 3354.52830663 165.1875 3348.4375 C174.45813931 3343.01541301 183.77186699 3337.67175988 193.10296631 3332.35476685 C201.19957843 3327.74015971 209.27038801 3323.08415114 217.3125 3318.375 C226.54050529 3312.9714354 235.8124467 3307.64847639 245.10351562 3302.35449219 C253.19994133 3297.73997196 261.27056509 3293.08404745 269.3125 3288.375 C277.94747557 3283.31869077 286.61856319 3278.32892878 295.3125 3273.375 C305.03374506 3267.83514067 314.72144868 3262.24125068 324.37939453 3256.59155273 C334.90334625 3250.43733258 345.46630137 3244.35130004 356.03027344 3238.26611328 C361.45909942 3235.13819852 366.88569281 3232.00641552 372.3125 3228.875 C374.47915583 3227.62498121 376.6458225 3226.37498122 378.8125 3225.125 C379.885 3224.50625 380.9575 3223.8875 382.0625 3223.25 C596.56250291 3099.49999832 596.56250291 3099.49999832 785.06298828 2990.74975586 C787.22807071 2989.50064482 789.39310982 2988.25145871 791.55810547 2987.00219727 C796.99865706 2983.86297691 802.43997216 2980.72509437 807.8828125 2977.58984375 C818.33456199 2971.56752671 828.77549548 2965.52830663 839.1875 2959.4375 C848.45749777 2954.01578822 857.77081752 2948.67295085 867.10095215 2943.35577393 C876.2253284 2938.15454871 885.31382774 2932.89472122 894.37939453 2927.59155273 C904.90334625 2921.43733258 915.46630137 2915.35130004 926.03027344 2909.26611328 C931.45909942 2906.13819852 936.88569281 2903.00641552 942.3125 2899.875 C944.47915583 2898.62498121 946.6458225 2897.37498122 948.8125 2896.125 C949.885 2895.50625 950.9575 2894.8875 952.0625 2894.25 C1166.56250021 2770.49999988 1166.56250021 2770.49999988 1329.06713867 2676.74780273 C1331.21889695 2675.50608621 1333.37010792 2674.26342077 1335.52075195 2673.01977539 C1340.56197465 2670.1061254 1345.60790829 2667.20191061 1350.67428589 2664.33224487 C1352.46455322 2663.31761385 1354.2530342 2662.29990298 1356.04101562 2661.28125 C1358.28231772 2660.00556817 1360.52692042 2658.73566098 1362.77539062 2657.47265625 C1370.51930918 2653.05317197 1377.2398274 2648.79534595 1382.0625 2641.125 C1382.61421875 2640.27421875 1383.1659375 2639.4234375 1383.734375 2638.546875 C1387.72599155 2630.52412094 1388.7517833 2622.93835368 1388.69084883 2614.06185168 C1388.69530424 2612.95835164 1388.69975965 2611.8548516 1388.70435008 2610.71791217 C1388.71563191 2607.01672144 1388.70556019 2603.31590088 1388.69561005 2599.61471081 C1388.69934633 2596.92434068 1388.70427184 2594.23399633 1388.71063888 2591.54363355 C1388.7221248 2585.67408158 1388.72246748 2579.80461063 1388.71554345 2573.93505272 C1388.70523077 2565.1480707 1388.71220559 2556.36116 1388.72252351 2547.57418101 C1388.73959549 2532.5982405 1388.74238487 2517.62232752 1388.73740768 2502.64637947 C1388.73240885 2487.46833407 1388.73389248 2472.29031009 1388.74328995 2457.11226654 C1388.74387843 2456.15384892 1388.74446691 2455.19543131 1388.74507322 2454.20797073 C1388.74748974 2450.30452331 1388.74994982 2446.40107593 1388.75246587 2442.49762857 C1388.77798131 2402.86129624 1388.78395254 2363.2249775 1388.78205473 2323.58863807 C1388.78179511 2318.11066159 1388.78155643 2312.63268511 1388.78133965 2307.15470862 C1388.78127359 2305.52265665 1388.78127359 2305.52265665 1388.78120619 2303.85763393 C1388.78034306 2279.75320659 1388.78513287 2255.64878137 1388.79102156 2231.54435485 C1388.79236252 2226.0416997 1388.79366241 2220.53904454 1388.7949672 2215.03638938 C1388.79549173 2212.82798033 1388.79601632 2210.61957127 1388.79654097 2208.41116221 C1388.79693064 2206.76916867 1388.79693064 2206.76916867 1388.79732819 2205.09400354 C1388.79785437 2202.87982423 1388.79838204 2200.66564491 1388.7989112 2198.45146559 C1388.8139101 2135.61632635 1388.82267622 2072.7811888 1388.81795502 2009.94604778 C1388.81786915 2008.78228545 1388.81778329 2007.61852311 1388.81769482 2006.41949525 C1388.81673541 1993.44204364 1388.8156972 1980.46459204 1388.81463593 1967.48714044 C1388.81434641 1963.93513765 1388.81405693 1960.38313486 1388.81376753 1956.83113207 C1388.81357353 1954.46118027 1388.81337803 1952.09122848 1388.81318104 1949.72127668 C1388.80696439 1874.76900531 1388.82182706 1799.81676623 1388.85449219 1724.86450195 C1388.86271526 1705.97826234 1388.87086516 1687.09202271 1388.87859344 1668.20578289 C1388.87906964 1667.04291939 1388.87954584 1665.88005588 1388.88003646 1664.68195409 C1388.89461984 1628.84892484 1388.90306758 1593.01589826 1388.905159 1557.1828661 C1388.90522531 1556.05806961 1388.90529163 1554.93327313 1388.90535996 1553.7743919 C1388.90675393 1529.08398864 1388.90664284 1504.39358557 1388.90514987 1479.70318231 C1388.90462775 1470.86883329 1388.90421058 1462.03448426 1388.9038417 1453.20013523 C1388.90374848 1451.00233426 1388.90364934 1448.8045333 1388.90354425 1446.60673233 C1388.90191841 1411.57039204 1388.914751 1376.53407578 1388.93470203 1341.49774172 C1388.95467481 1306.21604976 1388.95842036 1270.93439366 1388.94007629 1235.65269974 C1388.93754242 1230.77911211 1388.93517998 1225.90552441 1388.93291855 1221.03193665 C1388.93246817 1220.07656822 1388.93201779 1219.12119979 1388.93155376 1218.1368808 C1388.92487128 1202.99993423 1388.93497164 1187.86304718 1388.95202993 1172.7261107 C1388.96844552 1157.84751538 1388.96705475 1142.96901045 1388.94663157 1128.09041912 C1388.93518687 1119.36425346 1388.93742891 1110.63834998 1388.95984673 1101.91220414 C1388.97336873 1096.1172402 1388.96876516 1090.32247367 1388.94941431 1084.52752671 C1388.93895051 1081.24214699 1388.93895539 1077.95738499 1388.95573221 1074.67201644 C1389.06497473 1051.93195199 1389.06497473 1051.93195199 1378.29614258 1032.33837891 C1371.69956925 1025.80919211 1363.10793813 1021.37606989 1355.08001709 1016.86764526 C1353.25403172 1015.84216396 1351.43155801 1014.81067031 1349.60986328 1013.77758789 C1347.71138576 1012.70096789 1345.8127564 1011.624632 1343.91311646 1010.55006409 C1337.65048715 1007.00678341 1331.41683734 1003.41395449 1325.1875 999.8125 C1324.12402344 999.19826172 1323.06054688 998.58402344 1321.96484375 997.95117188 C1319.81986666 996.71228511 1317.67500948 995.47319072 1315.53027344 994.23388672 C1310.12579355 991.11175395 1304.71902588 987.99358796 1299.3125 984.875 C1297.1458225 983.62501878 1294.97915583 982.37501879 1292.8125 981.125 C1291.74 980.50625 1290.6675 979.8875 1289.5625 979.25 C1182.3125 917.375 1075.0625 855.5 80.5612793 281.74926758 C78.39871417 280.5016526 76.23611661 279.25409384 74.07348633 278.0065918 C67.48267063 274.20459907 60.89308353 270.40048809 54.30444336 266.59472656 C51.05331514 264.71827192 47.8001956 262.84530659 44.546875 260.97265625 C40.46433203 258.62158286 36.39240756 256.25358103 32.328125 253.87109375 C30.46877161 252.78902536 28.60939771 251.70699222 26.75 250.625 C25.92395264 250.13555908 25.09790527 249.64611816 24.24682617 249.1418457 C16.49784736 244.6529963 9.44712432 241.94656401 0.4375 241.9375 C-0.83867188 241.91816406 -2.11484375 241.89882813 -3.4296875 241.87890625 C-12.88740663 242.53186636 -21.36599369 247.57460199 -29.375 252.25 C-30.36266357 252.81734863 -31.35032715 253.38469727 -32.36791992 253.96923828 C-35.48035007 255.76117651 -38.58478335 257.56630273 -41.6875 259.375 C-42.67008789 259.94605469 -43.65267578 260.51710938 -44.66503906 261.10546875 C-49.62385093 263.98807704 -54.57728282 266.87973738 -59.52734375 269.77734375 C-69.12692238 275.39178675 -78.76885951 280.9330032 -88.40527344 286.48388672 C-93.83409942 289.61180148 -99.26069281 292.74358448 -104.6875 295.875 C-106.85415583 297.12501879 -109.0208225 298.37501878 -111.1875 299.625 C-112.26 300.24375 -113.3325 300.8625 -114.4375 301.5 C-150.18750001 322.125 -150.18750001 322.125 -153.43798828 324.00024414 C-155.60307071 325.24935518 -157.76810982 326.49854129 -159.93310547 327.74780273 C-165.37365706 330.88702309 -170.81497216 334.02490563 -176.2578125 337.16015625 C-186.74982094 343.20555159 -197.23231676 349.26610219 -207.6875 355.375 C-219.23479516 362.12201194 -230.81652027 368.80839318 -242.40527344 375.48388672 C-247.83409942 378.61180148 -253.26069281 381.74358448 -258.6875 384.875 C-260.85415583 386.12501879 -263.0208225 387.37501878 -265.1875 388.625 C-266.26 389.24375 -267.3325 389.8625 -268.4375 390.5 C-330.18749999 426.12499999 -330.18749999 426.12499999 -333.43798828 428.00024414 C-335.60307071 429.24935518 -337.76810982 430.49854129 -339.93310547 431.74780273 C-345.37365706 434.88702309 -350.81497216 438.02490563 -356.2578125 441.16015625 C-366.74982094 447.20555159 -377.23231676 453.26610219 -387.6875 459.375 C-399.23479516 466.12201194 -410.81652027 472.80839318 -422.40527344 479.48388672 C-427.83409942 482.61180148 -433.26069281 485.74358448 -438.6875 488.875 C-440.85415583 490.12501879 -443.0208225 491.37501878 -445.1875 492.625 C-446.26 493.24375 -447.3325 493.8625 -448.4375 494.5 C-510.18750001 530.125 -510.18750001 530.125 -513.43798828 532.00024414 C-515.60307071 533.24935518 -517.76810982 534.49854129 -519.93310547 535.74780273 C-525.37365706 538.88702309 -530.81497216 542.02490563 -536.2578125 545.16015625 C-546.74982094 551.20555159 -557.23231676 557.26610219 -567.6875 563.375 C-579.23479516 570.12201194 -590.81652027 576.80839318 -602.40527344 583.48388672 C-607.83409942 586.61180148 -613.26069281 589.74358448 -618.6875 592.875 C-620.85415583 594.12501879 -623.0208225 595.37501878 -625.1875 596.625 C-626.79625 597.553125 -626.79625 597.553125 -628.4375 598.5 C-690.1875 634.125 -690.1875 634.125 -693.43798828 636.00024414 C-695.60307071 637.24935518 -697.76810982 638.49854129 -699.93310547 639.74780273 C-705.37365706 642.88702309 -710.81497216 646.02490563 -716.2578125 649.16015625 C-726.74982094 655.20555159 -737.23231676 661.26610219 -747.6875 667.375 C-759.23479516 674.12201194 -770.81652027 680.80839318 -782.40527344 687.48388672 C-787.83409942 690.61180148 -793.26069281 693.74358448 -798.6875 696.875 C-800.85415583 698.12501879 -803.0208225 699.37501878 -805.1875 700.625 C-806.79625 701.553125 -806.79625 701.553125 -808.4375 702.5 C-870.1875 738.125 -870.1875 738.125 -873.43798828 740.00024414 C-875.60307071 741.24935518 -877.76810982 742.49854129 -879.93310547 743.74780273 C-885.37365706 746.88702309 -890.81497216 750.02490563 -896.2578125 753.16015625 C-906.74982094 759.20555159 -917.23231676 765.26610219 -927.6875 771.375 C-939.23479516 778.12201194 -950.81652027 784.80839318 -962.40527344 791.48388672 C-967.83409942 794.61180148 -973.26069281 797.74358448 -978.6875 800.875 C-980.85415583 802.12501879 -983.0208225 803.37501878 -985.1875 804.625 C-986.79625 805.553125 -986.79625 805.553125 -988.4375 806.5 C-1050.18749999 842.12499999 -1050.18749999 842.12499999 -1053.43798828 844.00024414 C-1055.60307071 845.24935518 -1057.76810982 846.49854129 -1059.93310547 847.74780273 C-1065.37365706 850.88702309 -1070.81497216 854.02490563 -1076.2578125 857.16015625 C-1086.74982094 863.20555159 -1097.23231676 869.26610219 -1107.6875 875.375 C-1119.23479516 882.12201194 -1130.81652027 888.80839318 -1142.40527344 895.48388672 C-1147.83409942 898.61180148 -1153.26069281 901.74358448 -1158.6875 904.875 C-1160.85415583 906.12501879 -1163.0208225 907.37501878 -1165.1875 908.625 C-1166.79625 909.553125 -1166.79625 909.553125 -1168.4375 910.5 C-1230.18749999 946.12499999 -1230.18749999 946.12499999 -1233.43798828 948.00024414 C-1235.60307071 949.24935518 -1237.76810982 950.49854129 -1239.93310547 951.74780273 C-1245.37365706 954.88702309 -1250.81497216 958.02490563 -1256.2578125 961.16015625 C-1266.74982094 967.20555159 -1277.23231676 973.26610219 -1287.6875 979.375 C-1299.22459687 986.11605315 -1310.79601729 992.79666894 -1322.37451172 999.46630859 C-1325.73064081 1001.39985445 -1329.08615548 1003.33446169 -1332.44140625 1005.26953125 C-1333.55040283 1005.90906738 -1334.65939941 1006.54860352 -1335.80200195 1007.20751953 C-1337.99768399 1008.47450115 -1340.19284374 1009.74238837 -1342.38745117 1011.01123047 C-1347.34634125 1013.87751371 -1352.31018134 1016.73310384 -1357.296875 1019.55078125 C-1358.15998291 1020.0415918 -1359.02309082 1020.53240234 -1359.91235352 1021.03808594 C-1361.48484951 1021.93166649 -1363.06056296 1022.81962432 -1364.64038086 1023.70019531 C-1376.40018415 1030.40770885 -1383.00581773 1039.01278589 -1386.86234325 1052.07913905 C-1389.05979506 1061.89322193 -1388.22999779 1072.4224176 -1388.19086456 1082.41072845 C-1388.19503914 1085.09437061 -1388.20080091 1087.77796737 -1388.20848203 1090.4615975 C-1388.22201831 1096.30706968 -1388.22075521 1102.15239254 -1388.20974785 1107.99786788 C-1388.19334402 1116.74873387 -1388.20009334 1125.49947924 -1388.21127842 1134.25034803 C-1388.22966561 1149.16591007 -1388.22908465 1164.08141753 -1388.21815491 1178.99698448 C-1388.20714731 1194.11088352 -1388.20483059 1209.22474664 -1388.21310425 1224.33864784 C-1388.21362094 1225.29349189 -1388.21413763 1226.24833594 -1388.21466998 1227.23211466 C-1388.21680308 1231.12108754 -1388.21899791 1235.01006038 -1388.22127108 1238.89903319 C-1388.24242643 1275.11741346 -1388.24386411 1311.33576966 -1388.23268127 1347.55415344 C-1388.23235009 1348.62727955 -1388.23201891 1349.70040566 -1388.23167769 1350.80605073 C-1388.23134597 1351.88089286 -1388.23101426 1352.95573499 -1388.23067249 1354.0631481 C-1388.22058271 1386.79923767 -1388.21797281 1419.53531728 -1388.22276306 1452.27140808 C-1388.22307298 1454.46294865 -1388.2233816 1456.65448923 -1388.22368894 1458.8460298 C-1388.22493079 1467.65276302 -1388.22620546 1476.45949623 -1388.227528 1485.26622944 C-1388.23119616 1509.88520664 -1388.23347847 1534.50418387 -1388.23467255 1559.12316132 C-1388.23472713 1560.24428249 -1388.23478171 1561.36540366 -1388.23483795 1562.52049819 C-1388.23647523 1598.24814625 -1388.2319666 1633.97579084 -1388.22327423 1669.70343781 C-1388.22285274 1671.44181344 -1388.22285274 1671.44181344 -1388.22242273 1673.21530777 C-1388.21784285 1692.03576906 -1388.21296504 1710.85623028 -1388.20806203 1729.67669148 C-1388.18863646 1804.32239377 -1388.18953808 1878.96806737 -1388.20898438 1953.61376953 C-1388.21386907 1972.42470039 -1388.21871325 1991.23563125 -1388.22327423 2010.04656219 C-1388.22355602 2011.20479525 -1388.22383782 2012.3630283 -1388.22412815 2013.55635932 C-1388.23275194 2049.24651957 -1388.23641016 2084.93667743 -1388.23467255 2120.62683868 C-1388.23461821 2121.74713821 -1388.23456387 2122.86743773 -1388.23450789 2124.02168573 C-1388.23325801 2148.61323983 -1388.23072354 2173.20479367 -1388.22703053 2197.79634752 C-1388.22571395 2206.59524173 -1388.22446163 2215.39413595 -1388.22322769 2224.19303018 C-1388.22291814 2226.38199714 -1388.22260322 2228.5709641 -1388.22228291 2230.75993106 C-1388.21750707 2263.48794133 -1388.22157716 2296.21594039 -1388.23167769 2328.94394927 C-1388.23200888 2330.01707537 -1388.23234006 2331.09020148 -1388.23268127 2332.19584656 C-1388.233012 2333.26699595 -1388.23334273 2334.33814535 -1388.23368348 2335.44175382 C-1388.24471189 2371.55491906 -1388.24066705 2407.6680554 -1388.2195583 2443.7812165 C-1388.21734885 2447.65792836 -1388.21520204 2451.53464024 -1388.21310425 2455.41135216 C-1388.21258342 2456.36277313 -1388.21206259 2457.31419411 -1388.21152598 2458.29444603 C-1388.20363179 2473.36863851 -1388.2091343 2488.44279511 -1388.22018027 2503.51698436 C-1388.23075306 2518.33389104 -1388.2270624 2533.1507371 -1388.20812392 2547.96763608 C-1388.1974409 2556.65746831 -1388.19768688 2565.34713441 -1388.21405031 2574.03695875 C-1388.22382392 2579.80783513 -1388.21910032 2585.57858213 -1388.20258289 2591.34944286 C-1388.19362347 2594.62105098 -1388.19303113 2597.89226418 -1388.20584896 2601.16386909 C-1388.47665295 2625.58302037 -1388.47665295 2625.58302037 -1376.6875 2646.375 C-1370.05274411 2651.76404969 -1362.5382651 2655.8531275 -1355.0625 2659.9375 C-1346.60845768 2664.61324487 -1338.20620872 2669.35860765 -1329.875 2674.25 C-1321.17918527 2679.35119004 -1312.44743648 2684.38508517 -1303.6875 2689.375 C-1294.0125039 2694.88731175 -1284.37467423 2700.45924824 -1274.765625 2706.0859375 C-1267.1017623 2710.56666146 -1259.40071165 2714.98006752 -1251.6875 2719.375 C-1242.01268781 2724.88763835 -1232.37467863 2730.45924567 -1222.765625 2736.0859375 C-1215.10176026 2740.56666265 -1207.40064165 2744.97994224 -1199.6875 2749.375 C-1189.96625494 2754.91485933 -1180.27855132 2760.50874932 -1170.62060547 2766.15844727 C-1160.09665375 2772.31266742 -1149.53369863 2778.39869996 -1138.96972656 2784.48388672 C-1133.54090058 2787.61180148 -1128.11430719 2790.74358448 -1122.6875 2793.875 C-1120.52084417 2795.12501879 -1118.3541775 2796.37501878 -1116.1875 2797.625 C-1051.18750001 2835.125 -1051.18750001 2835.125 -1047.9362793 2837.00097656 C-1045.77399599 2838.24826646 -1043.61139923 2839.49501313 -1041.44848633 2840.74121094 C-1035.96202954 2843.90324809 -1030.48168911 2847.07514163 -1025.01171875 2850.265625 C-1018.5912824 2854.00593204 -1012.15049568 2857.7087265 -1005.6875 2861.375 C-1004.36951416 2862.12475098 -1004.36951416 2862.12475098 -1003.02490234 2862.88964844 C-942.15018992 2897.16493824 -867.5811431 2913.98737736 -799.16064453 2895.71679688 C-789.24352687 2892.91960195 -779.943124 2888.86775501 -770.6875 2884.375 C-770.01944336 2884.05128418 -769.35138672 2883.72756836 -768.66308594 2883.39404297 C-729.34842893 2864.05138906 -699.82015792 2828.59525225 -685.6875 2787.375 C-684.52168744 2783.89193893 -683.42337785 2780.39514423 -682.375 2776.875 C-682.14449951 2776.11848145 -681.91399902 2775.36196289 -681.67651367 2774.58251953 C-676.59936535 2756.53002226 -676.25481312 2738.24423457 -676.31111908 2719.62852383 C-676.30809728 2716.95318067 -676.30388382 2714.27786292 -676.29823691 2711.6025264 C-676.28835363 2705.79703645 -676.28944751 2699.9916315 -676.29793197 2694.18614053 C-676.31056856 2685.49525435 -676.30567142 2676.8044361 -676.29748189 2668.11354769 C-676.28401281 2653.29749395 -676.28459013 2638.48147101 -676.29288292 2623.66541481 C-676.30121638 2608.65927882 -676.3029454 2593.65316329 -676.29665565 2578.64702606 C-676.29626108 2577.69787962 -676.2958665 2576.74873317 -676.29545997 2575.77082471 C-676.29341448 2570.93076389 -676.29125582 2566.09070313 -676.28905214 2561.25064238 C-676.27378748 2527.32323421 -676.27124134 2493.39583601 -676.27632694 2459.46842529 C-676.28168162 2423.7317436 -676.27987574 2387.9950744 -676.26750183 2352.25839424 C-676.26713049 2351.18118233 -676.26675915 2350.10397042 -676.26637656 2348.99411572 C-676.26220853 2336.9575121 -676.25780396 2324.92090857 -676.25330251 2312.88430507 C-676.24498591 2290.62357964 -676.23766347 2268.36285388 -676.23058319 2246.10212803 C-676.23022758 2244.9884107 -676.22987197 2243.87469338 -676.22950558 2242.72722704 C-676.21263561 2189.73905057 -676.20482502 2136.75087368 -676.19910999 2083.76269498 C-676.19873037 2080.24741487 -676.19834622 2076.73213476 -676.19796105 2073.21685466 C-676.193974 2036.73612645 -676.19053135 2000.25539819 -676.18717445 1963.77466992 C-676.18392389 1928.46499821 -676.18052027 1893.15532652 -676.17665367 1857.84565487 C-676.17626963 1854.32928606 -676.17589012 1850.81291724 -676.17551108 1847.29654843 C-676.16977091 1794.33660869 -676.16132891 1741.3766712 -676.14441681 1688.41673374 C-676.14406284 1687.30395632 -676.14370887 1686.1911789 -676.14334417 1685.04468095 C-676.13625994 1662.81363981 -676.12878084 1640.58259884 -676.12046412 1618.35155814 C-676.11596983 1606.33012677 -676.11164356 1594.30869536 -676.10749817 1582.28726387 C-676.10712566 1581.2117855 -676.10675315 1580.13630713 -676.10636935 1579.0282385 C-676.09410202 1543.29693737 -676.09380285 1507.56564659 -676.09915514 1471.83434413 C-676.10416335 1438.01490311 -676.10003567 1404.19547489 -676.08461732 1370.37603673 C-676.08242669 1365.55747932 -676.08034996 1360.73892187 -676.07834435 1355.92036438 C-676.07794794 1354.9757829 -676.07755153 1354.03120142 -676.07714311 1353.05799626 C-676.07114666 1338.08694022 -676.07528574 1323.11590461 -676.08365138 1308.14485042 C-676.09167231 1293.4327632 -676.08910694 1278.72070983 -676.07520339 1264.00862663 C-676.06737467 1255.37832706 -676.0678138 1246.74812246 -676.08037281 1238.11782794 C-676.08789659 1232.38899154 -676.08459156 1226.660228 -676.07242104 1220.93139974 C-676.06582497 1217.68212869 -676.06554719 1214.43308253 -676.07528801 1211.18381388 C-676.0850383 1207.68959879 -676.0763442 1204.19589223 -676.06305552 1200.70169967 C-676.0702773 1199.70520267 -676.07749908 1198.70870566 -676.08493971 1197.68201178 C-675.99170033 1185.72311269 -672.70754618 1175.18338556 -664.71875 1166.1484375 C-654.90115067 1156.65097727 -643.35283836 1154.25865763 -630.1111145 1154.24128723 C-629.39262955 1154.23902167 -628.67414459 1154.23675612 -627.93388736 1154.23442191 C-625.54982087 1154.22814118 -623.16581208 1154.22890742 -620.78173828 1154.22973633 C-619.06281461 1154.22674117 -617.34389161 1154.22333782 -615.62496948 1154.21955872 C-610.97202399 1154.21075173 -606.31909691 1154.20838202 -601.66614389 1154.20774293 C-598.75537202 1154.20703065 -595.84460479 1154.20489299 -592.93383408 1154.20224571 C-582.76854914 1154.19300383 -572.60327728 1154.18890945 -562.43798828 1154.18969727 C-552.97904053 1154.19029803 -543.5201498 1154.17974349 -534.06121647 1154.1639536 C-525.92508239 1154.15085832 -517.78896691 1154.14551419 -509.65282238 1154.14615268 C-504.80011479 1154.14640704 -499.94745794 1154.14358977 -495.09476089 1154.13297462 C-490.52943676 1154.12325992 -485.96421154 1154.12323751 -481.39888382 1154.13049126 C-479.72924148 1154.13153285 -478.05959287 1154.12919963 -476.38996124 1154.1231308 C-461.103251 1154.07119107 -447.04590385 1155.15103295 -435.25 1166.125 C-426.71620314 1175.40395168 -424.37931762 1186.08619543 -424.43680167 1198.28086609 C-424.43259472 1199.9247409 -424.43259472 1199.9247409 -424.42830278 1201.6018253 C-424.4213116 1205.2952189 -424.42863262 1208.98844674 -424.43581772 1212.68183804 C-424.43373243 1215.35954477 -424.43085343 1218.03724003 -424.42700899 1220.71494374 C-424.42021796 1226.56613838 -424.42088858 1232.41729579 -424.42637607 1238.26849126 C-424.43455433 1247.02832433 -424.43121351 1255.78812714 -424.42561079 1264.54796089 C-424.41640213 1279.47716022 -424.41671503 1294.40634593 -424.42217255 1309.33554649 C-424.4276713 1324.46971157 -424.42883875 1339.60386768 -424.42469788 1354.73803329 C-424.42443953 1355.69323583 -424.42418119 1356.64843836 -424.42391501 1357.63258642 C-424.42284849 1361.52290402 -424.42175107 1365.41322162 -424.42061446 1369.30353921 C-424.41002844 1405.56230012 -424.40932186 1441.82105503 -424.41490936 1478.07981682 C-424.41507495 1479.15489727 -424.41524054 1480.22997772 -424.41541115 1481.33763637 C-424.41557701 1482.41444254 -424.41574287 1483.49124872 -424.41591376 1484.60068538 C-424.42095772 1517.39080455 -424.42226405 1550.18092124 -424.41986847 1582.97104073 C-424.41971351 1585.16581408 -424.4195592 1587.36058744 -424.41940553 1589.55536079 C-424.4187846 1598.37525617 -424.41814726 1607.19515155 -424.417486 1616.01504693 C-424.41565174 1640.67361088 -424.41451071 1665.33217485 -424.41391373 1689.99073887 C-424.41388644 1691.11377346 -424.41385914 1692.23680805 -424.41383103 1693.393874 C-424.41301215 1729.19285769 -424.4152677 1764.99184052 -424.41961288 1800.79082394 C-424.41982363 1802.53306138 -424.41982363 1802.53306138 -424.42003864 1804.31049555 C-424.42232858 1823.17273182 -424.42476749 1842.03496808 -424.42721898 1860.89720434 C-424.43692355 1935.64542053 -424.43648854 2010.39362955 -424.42675781 2085.1418457 C-424.42431536 2103.9647595 -424.42189322 2122.7876733 -424.41961288 2141.61058712 C-424.41940154 2143.34916488 -424.41940154 2143.34916488 -424.41918593 2145.12286542 C-424.41487125 2180.8617213 -424.41304548 2216.60057658 -424.41391373 2252.33943272 C-424.41395448 2254.02325593 -424.41395448 2254.02325593 -424.41399606 2255.74109577 C-424.41462113 2280.3875469 -424.41588862 2305.03399796 -424.41773473 2329.68044902 C-424.418393 2338.50038748 -424.41901916 2347.32032595 -424.41963615 2356.14026441 C-424.41979093 2358.33440777 -424.41994839 2360.52855114 -424.42010855 2362.7226945 C-424.42249337 2395.4855484 -424.42046731 2428.2483995 -424.41541115 2461.01125305 C-424.41516277 2462.6207689 -424.41516277 2462.6207689 -424.41490936 2464.26280022 C-424.414744 2465.33382841 -424.41457863 2466.4048566 -424.41440826 2467.50834018 C-424.40888308 2503.68965964 -424.41093842 2539.87097189 -424.42147085 2576.05229031 C-424.42257549 2579.94384025 -424.42364891 2583.8353902 -424.42469788 2587.72694016 C-424.42495829 2588.6819618 -424.4252187 2589.63698345 -424.42548701 2590.62094514 C-424.42942071 2605.69910874 -424.42669713 2620.77726333 -424.42115986 2635.85542611 C-424.41584879 2650.70834468 -424.41776359 2665.56124816 -424.42718804 2680.41416482 C-424.43203151 2688.34860718 -424.43381571 2696.28301847 -424.42637607 2704.21745967 C-424.37229005 2765.30281009 -424.37229005 2765.30281009 -426.6875 2790.375 C-426.76712784 2791.27070331 -426.84675569 2792.16640663 -426.9287965 2793.08925246 C-427.35352117 2797.82111012 -427.85417848 2802.53429949 -428.4375 2807.25 C-428.56155212 2808.27139069 -428.56155212 2808.27139069 -428.68811035 2809.31341553 C-438.43762382 2889.03737141 -464.7119372 2967.26423247 -531.4375 3044.8125 C-532.03908936 3045.46259033 -532.64067871 3046.11268066 -533.26049805 3046.7824707 C-536.94860275 3050.70747703 -540.80115621 3054.32035449 -544.88818359 3057.82739258 C-547.02127054 3059.6620789 -549.06882724 3061.57986892 -551.125 3063.5 C-572.90786945 3083.08795436 -598.4670402 3098.84008063 -624.81835938 3111.47509766 C-626.60981488 3112.33759831 -628.39112249 3113.22108157 -630.171875 3114.10546875 C-692.17104269 3144.20950906 -763.1099133 3152.63182438 -831.25 3152.5625 C-832.35701263 3152.56189575 -833.46402527 3152.5612915 -834.60458374 3152.56066895 C-923.58367022 3152.42976687 -1003.38183457 3129.1882586 -1083.6875 3092.375 C-1084.82977051 3091.85196289 -1085.97204102 3091.32892578 -1087.14892578 3090.79003906 C-1094.21339536 3087.54749134 -1101.26054063 3084.26956379 -1108.29589844 3080.96435547 C-1111.58042909 3079.42517504 -1114.87183015 3077.90152606 -1118.1640625 3076.37890625 C-1131.74607892 3070.04350464 -1144.65324953 3062.93440094 -1157.51416016 3055.25195312 C-1162.60851743 3052.23876504 -1167.75409122 3049.31622097 -1172.89950562 3046.39147949 C-1182.19435034 3041.10733592 -1191.46086683 3035.77762923 -1200.6875 3030.375 C-1209.2826729 3025.3431021 -1217.91062222 3020.37110876 -1226.5625 3015.4375 C-1238.88775196 3008.40896493 -1251.18472067 3001.33259566 -1263.46972656 2994.23388672 C-1268.87420645 2991.11175395 -1274.28097412 2987.99358796 -1279.6875 2984.875 C-1281.8541775 2983.62501878 -1284.02084417 2982.37501879 -1286.1875 2981.125 C-1287.79625 2980.196875 -1287.79625 2980.196875 -1289.4375 2979.25 C-1336.02083333 2952.375 -1382.60416667 2925.5 -1429.1875 2898.625 C-1430.7964917 2897.69675415 -1430.7964917 2897.69675415 -1432.43798828 2896.74975586 C-1434.60307071 2895.50064482 -1436.76810982 2894.25145871 -1438.93310547 2893.00219727 C-1444.37365706 2889.86297691 -1449.81497216 2886.72509437 -1455.2578125 2883.58984375 C-1460.67085233 2880.47161084 -1466.08003581 2877.34675381 -1471.48828125 2874.22021484 C-1474.68626296 2872.37571349 -1477.88968341 2870.54093778 -1481.09375 2868.70703125 C-1501.53266751 2856.96451066 -1520.65914343 2844.15822388 -1537.87890625 2827.99609375 C-1540.50186811 2825.54823922 -1543.17751001 2823.17747967 -1545.875 2820.8125 C-1550.87080491 2816.3178666 -1555.30080017 2811.45858358 -1559.6875 2806.375 C-1560.54085937 2805.40949219 -1561.39421875 2804.44398438 -1562.2734375 2803.44921875 C-1585.39257626 2777.02674853 -1602.98588992 2745.36980265 -1614.6875 2712.375 C-1614.97318848 2711.57175293 -1615.25887695 2710.76850586 -1615.55322266 2709.94091797 C-1622.95057742 2688.75657049 -1627.51946468 2666.68728013 -1629.6875 2644.375 C-1629.77569316 2643.49347644 -1629.86388631 2642.61195288 -1629.95475199 2641.70371648 C-1631.02763943 2629.16042511 -1630.8269241 2616.59134321 -1630.81613445 2604.01268959 C-1630.81748186 2601.30564728 -1630.81922528 2598.59860781 -1630.82144669 2595.89156634 C-1630.82548583 2589.99783929 -1630.82583287 2584.10412107 -1630.82374074 2578.21039315 C-1630.82062592 2569.38710753 -1630.82328449 2560.56382997 -1630.82703945 2551.74054494 C-1630.83326867 2536.70076924 -1630.83474623 2521.66099643 -1630.83362198 2506.62121964 C-1630.83249717 2491.38196216 -1630.83353286 2476.14270712 -1630.83719444 2460.90345001 C-1630.8374241 2459.94053344 -1630.83765375 2458.97761687 -1630.83789036 2457.98552102 C-1630.83883201 2454.06362198 -1630.8397877 2450.14172294 -1630.84076155 2446.21982391 C-1630.85090406 2405.313868 -1630.85396747 2364.40791345 -1630.85455366 2323.50195642 C-1630.85461841 2319.09931037 -1630.85468635 2314.69666432 -1630.85475707 2310.29401827 C-1630.85477408 2309.20147938 -1630.85479108 2308.10894049 -1630.8548086 2306.98329436 C-1630.85521712 2282.76871679 -1630.85740726 2258.55413948 -1630.85991292 2234.33956204 C-1630.86094128 2224.36761271 -1630.86193131 2214.39566338 -1630.86292917 2204.42371404 C-1630.86303975 2203.32188313 -1630.86315034 2202.22005222 -1630.86326428 2201.0848325 C-1630.86958825 2137.94558614 -1630.87371342 2074.80633996 -1630.87325573 2011.66709328 C-1630.87323995 2009.30430998 -1630.87322422 2006.94152668 -1630.87320852 2004.57874339 C-1630.87313514 1993.91106775 -1630.87304697 1983.24339212 -1630.87295464 1972.57571649 C-1630.87291351 1967.81877001 -1630.87287337 1963.06182353 -1630.87283332 1958.30487705 C-1630.87281293 1955.92393965 -1630.87279191 1953.54300225 -1630.87277026 1951.16206485 C-1630.87209008 1875.88131596 -1630.87940627 1800.60057178 -1630.89331055 1725.31982422 C-1630.89681161 1706.35399693 -1630.90028109 1687.38816963 -1630.90357494 1668.4223423 C-1630.90377782 1667.25451661 -1630.90398069 1666.08669092 -1630.90418971 1664.88347658 C-1630.9104056 1628.88462029 -1630.91417045 1592.88576438 -1630.91543293 1556.88690758 C-1630.91547288 1555.75652505 -1630.91551283 1554.62614253 -1630.91555399 1553.46150599 C-1630.91640731 1528.6456686 -1630.91666845 1503.82983124 -1630.91638362 1479.01399384 C-1630.91628713 1470.13417416 -1630.91623509 1461.25435448 -1630.91620489 1452.3745348 C-1630.91619697 1450.16548828 -1630.91618677 1447.95644175 -1630.91617426 1445.74739522 C-1630.91599801 1410.56287782 -1630.92169302 1375.37836444 -1630.93032808 1340.19384819 C-1630.93898237 1304.75076506 -1630.94116554 1269.30768752 -1630.93456676 1233.86460379 C-1630.9336545 1228.96325607 -1630.93281122 1224.06190834 -1630.93200874 1219.16056061 C-1630.93184866 1218.19979509 -1630.93168857 1217.23902958 -1630.93152363 1216.24914996 C-1630.92917378 1201.05742948 -1630.93352091 1185.86571867 -1630.94067993 1170.67400001 C-1630.94758445 1155.72329398 -1630.94731082 1140.77260217 -1630.93948779 1125.82189645 C-1630.93511825 1117.06566933 -1630.93614958 1108.30948421 -1630.94535458 1099.55326061 C-1630.9509294 1093.72442954 -1630.94913737 1087.89562955 -1630.9415718 1082.06680084 C-1630.93749414 1078.77129957 -1630.93746979 1075.47594664 -1630.94432249 1072.18044046 C-1630.9842965 1051.5654203 -1630.34893485 1030.94218288 -1626.5625 1010.625 C-1626.35004639 1009.47217529 -1626.13759277 1008.31935059 -1625.91870117 1007.1315918 C-1616.20772365 956.84637216 -1593.1300143 907.6897054 -1557.6875 870.375 C-1556.59759629 869.1097971 -1555.5138944 867.83921593 -1554.4375 866.5625 C-1545.73337747 856.58560483 -1536.15385111 847.47315203 -1525.6875 839.375 C-1524.44606818 838.38219327 -1523.20522343 837.38865217 -1521.96484375 836.39453125 C-1504.26173455 822.36095622 -1484.58387639 811.47166512 -1465.01806641 800.28222656 C-1459.56650025 797.16042369 -1454.12757506 794.01676944 -1448.6875 790.875 C-1446.52089568 789.62489194 -1444.35422896 788.37489201 -1442.1875 787.125 C-1440.57875 786.196875 -1440.57875 786.196875 -1438.9375 785.25 C-1403.18749999 764.625 -1403.18749999 764.625 -1399.93701172 762.74975586 C-1397.77192929 761.50064482 -1395.60689018 760.25145871 -1393.44189453 759.00219727 C-1388.00134294 755.86297691 -1382.56002784 752.72509437 -1377.1171875 749.58984375 C-1366.62517906 743.54444841 -1356.14268324 737.48389781 -1345.6875 731.375 C-1334.14020484 724.62798806 -1322.55847973 717.94160682 -1310.96972656 711.26611328 C-1305.54090058 708.13819852 -1300.11430719 705.00641552 -1294.6875 701.875 C-1292.52084417 700.62498121 -1290.3541775 699.37498122 -1288.1875 698.125 C-1286.57875 697.196875 -1286.57875 697.196875 -1284.9375 696.25 C-1223.18749999 660.625 -1223.18749999 660.625 -1219.93701172 658.74975586 C-1217.77192929 657.50064482 -1215.60689018 656.25145871 -1213.44189453 655.00219727 C-1208.00134294 651.86297691 -1202.56002784 648.72509437 -1197.1171875 645.58984375 C-1186.62517906 639.54444841 -1176.14268324 633.48389781 -1165.6875 627.375 C-1154.14020484 620.62798806 -1142.55847973 613.94160682 -1130.96972656 607.26611328 C-1125.54090058 604.13819852 -1120.11430719 601.00641552 -1114.6875 597.875 C-1112.52084417 596.62498121 -1110.3541775 595.37498122 -1108.1875 594.125 C-1106.57875 593.196875 -1106.57875 593.196875 -1104.9375 592.25 C-1043.18750001 556.62500001 -1043.18750001 556.62500001 -1039.93701172 554.74975586 C-1037.77192929 553.50064482 -1035.60689018 552.25145871 -1033.44189453 551.00219727 C-1028.00134294 547.86297691 -1022.56002784 544.72509437 -1017.1171875 541.58984375 C-1006.62517906 535.54444841 -996.14268324 529.48389781 -985.6875 523.375 C-974.14020484 516.62798806 -962.55847973 509.94160682 -950.96972656 503.26611328 C-945.54090058 500.13819852 -940.11430719 497.00641552 -934.6875 493.875 C-932.52084417 492.62498121 -930.3541775 491.37498122 -928.1875 490.125 C-927.115 489.50625 -926.0425 488.8875 -924.9375 488.25 C-863.18749999 452.625 -863.18749999 452.625 -859.93701172 450.74975586 C-857.77192929 449.50064482 -855.60689018 448.25145871 -853.44189453 447.00219727 C-848.00134294 443.86297691 -842.56002784 440.72509437 -837.1171875 437.58984375 C-826.62517906 431.54444841 -816.14268324 425.48389781 -805.6875 419.375 C-794.14020484 412.62798806 -782.55847973 405.94160682 -770.96972656 399.26611328 C-765.54090058 396.13819852 -760.11430719 393.00641552 -754.6875 389.875 C-752.52084417 388.62498121 -750.3541775 387.37498122 -748.1875 386.125 C-747.115 385.50625 -746.0425 384.8875 -744.9375 384.25 C-683.18750001 348.625 -683.18750001 348.625 -679.93701172 346.74975586 C-677.77192929 345.50064482 -675.60689018 344.25145871 -673.44189453 343.00219727 C-668.00134294 339.86297691 -662.56002784 336.72509437 -657.1171875 333.58984375 C-646.62517906 327.54444841 -636.14268324 321.48389781 -625.6875 315.375 C-614.14020484 308.62798806 -602.55847973 301.94160682 -590.96972656 295.26611328 C-585.54090058 292.13819852 -580.11430719 289.00641552 -574.6875 285.875 C-572.52084417 284.62498121 -570.3541775 283.37498122 -568.1875 282.125 C-567.115 281.50625 -566.0425 280.8875 -564.9375 280.25 C-503.18750001 244.62500001 -503.18750001 244.62500001 -499.93701172 242.74975586 C-497.77192929 241.50064482 -495.60689018 240.25145871 -493.44189453 239.00219727 C-488.00134294 235.86297691 -482.56002784 232.72509437 -477.1171875 229.58984375 C-466.62517906 223.54444841 -456.14268324 217.48389781 -445.6875 211.375 C-434.14020484 204.62798806 -422.55847973 197.94160682 -410.96972656 191.26611328 C-405.54090058 188.13819852 -400.11430719 185.00641552 -394.6875 181.875 C-392.52084417 180.62498121 -390.3541775 179.37498122 -388.1875 178.125 C-387.115 177.50625 -386.0425 176.8875 -384.9375 176.25 C-323.18750001 140.62500001 -323.18750001 140.62500001 -319.93701172 138.74975586 C-317.77192929 137.50064482 -315.60689018 136.25145871 -313.44189453 135.00219727 C-308.00134294 131.86297691 -302.56002784 128.72509437 -297.1171875 125.58984375 C-286.62517906 119.54444841 -276.14268324 113.48389781 -265.6875 107.375 C-254.14020484 100.62798806 -242.55847973 93.94160682 -230.96972656 87.26611328 C-225.54090058 84.13819852 -220.11430719 81.00641552 -214.6875 77.875 C-212.52084417 76.62498121 -210.3541775 75.37498122 -208.1875 74.125 C-207.115 73.50625 -206.0425 72.8875 -204.9375 72.25 C-201.6875 70.375 -198.4375 68.5 -195.1875 66.625 C-194.11435547 66.00584717 -193.04121094 65.38669434 -191.93554688 64.7487793 C-189.77549907 63.50266031 -187.61534333 62.25672839 -185.45507812 61.01098633 C-179.93622921 57.82815591 -174.41946998 54.64179089 -168.90625 51.44921875 C-162.50722922 47.74517997 -156.10101014 44.05389215 -149.6875 40.375 C-148.83687988 39.88628418 -147.98625977 39.39756836 -147.10986328 38.89404297 C-114.25792667 20.08599008 -79.31582509 7.49346182 -41.6875 2.375 C-40.41414795 2.19839844 -39.1407959 2.02179688 -37.82885742 1.83984375 C-25.22803229 0.20496528 -12.69400653 -0.02427926 0 0 Z " fill="#529E42" transform="translate(2046.6875,207.625)"/>
<path d="M0 0 C0.95374512 0.41926758 1.90749023 0.83853516 2.89013672 1.27050781 C49.70551362 21.89996209 92.71570009 48.36228054 130.60546875 82.82421875 C132.22415471 84.29503127 133.85205971 85.75575155 135.48828125 87.20703125 C143.42712352 94.25692073 151.09234717 101.56690122 157.98828125 109.65234375 C159.57023903 111.49847312 161.17198426 113.31747088 162.79296875 115.12890625 C186.85892161 142.19278495 205.78376463 172.71864829 222 205 C222.4031543 205.79696289 222.80630859 206.59392578 223.22167969 207.41503906 C251.05415006 262.81897625 284.81870826 358.23110394 272.31640625 421.45703125 C268.9712842 431.38135601 261.8858579 440.25645287 252.62890625 445.2890625 C246.3852845 448.13918868 241.21818654 449.14892199 234.34190369 449.14717102 C233.17848122 449.15268605 233.17848122 449.15268605 231.99155527 449.1583125 C229.39011543 449.16933371 226.78871554 449.17319056 224.18725586 449.17700195 C222.32276279 449.18326789 220.45827097 449.18991481 218.59378052 449.19691467 C212.46747709 449.21794571 206.34117345 449.22831763 200.21484375 449.23828125 C198.10391286 449.24232946 195.99298209 449.2464464 193.88205147 449.25063133 C183.96204842 449.26968257 174.04205279 449.28391255 164.12203497 449.2922433 C152.68238513 449.30200943 141.2429291 449.32831302 129.80334753 449.36874419 C120.95475889 449.39894125 112.10622569 449.41371567 103.25758654 449.41702431 C97.97603381 449.41937111 92.69468815 449.42828308 87.41319084 449.45348549 C82.43992221 449.47683335 77.46699599 449.48097245 72.49368668 449.47072411 C70.67448981 449.47023023 68.8552757 449.4765066 67.03613091 449.49028015 C53.60633403 449.5862226 42.34640144 448.51342844 32 439 C24.90955827 431.99673583 21.05011741 424.58240809 18.84375 414.91796875 C18.46443302 413.34780558 18.08435428 411.77782629 17.70361328 410.20800781 C17.50834045 409.39029907 17.31306763 408.57259033 17.11187744 407.73010254 C4.76420536 356.42044435 -14.77591294 305.71066263 -51.45703125 266.75390625 C-53.24526272 264.81734222 -54.93634356 262.89049156 -56.6015625 260.85546875 C-59.74720699 257.11040992 -63.27138067 254.1448456 -67 251 C-67.80695312 250.28199219 -68.61390625 249.56398438 -69.4453125 248.82421875 C-90.35663402 230.62362409 -115.26071311 217.01492254 -141 207 C-141.72622559 206.70818848 -142.45245117 206.41637695 -143.20068359 206.11572266 C-194.11503997 185.67947106 -250.72918134 179.1249533 -305.125 175.3125 C-305.98750366 175.25165222 -306.85000732 175.19080444 -307.73864746 175.12811279 C-313.82331746 174.70529557 -319.9099407 174.33592965 -326 174 C-327.30138412 173.92631195 -327.30138412 173.92631195 -328.62905884 173.85113525 C-350.87656511 172.64041769 -373.16436167 172.75589195 -395.4375 172.75 C-396.45796417 172.74941086 -397.47842834 172.74882172 -398.52981567 172.74821472 C-430.12060402 172.73535543 -461.51853138 173.11789923 -493 176 C-494.61210835 176.14100945 -496.22424993 176.2816395 -497.83642578 176.421875 C-562.7979155 182.1806346 -638.05826249 194.69841876 -690 237 C-690.51723633 237.41185547 -691.03447266 237.82371094 -691.56738281 238.24804688 C-716.50197444 258.14187223 -733.04053146 284.21429234 -740.6875 315.25 C-740.89012451 316.05848389 -741.09274902 316.86696777 -741.30151367 317.69995117 C-744.62912406 331.93357207 -745.38328149 346.31476294 -745.3125 360.875 C-745.31067719 361.65926361 -745.30885437 362.44352722 -745.30697632 363.2515564 C-745.20347267 389.76096526 -741.10617045 415.57028303 -721.74609375 435.2890625 C-720.38677734 436.63097656 -720.38677734 436.63097656 -719 438 C-718.26910156 438.72960938 -717.53820313 439.45921875 -716.78515625 440.2109375 C-655.46918364 497.98725434 -528.38161985 505.05487874 -282.12322807 541.69279861 C-191.12644063 554.00026132 -100.16195039 567.74774998 145 647 C146.44560303 647.71687988 146.44560303 647.71687988 147.92041016 648.44824219 C168.48612962 658.68870977 187.97580314 670.7427941 206 685 C207.33804688 686.03833984 207.33804688 686.03833984 208.703125 687.09765625 C211.16507633 689.03147931 213.58673596 691.00578336 216 693 C217.00675781 693.82113281 218.01351562 694.64226563 219.05078125 695.48828125 C233.2467148 707.24275629 246.8481616 720.29379079 258 735 C258.79148437 735.99773438 259.58296875 736.99546875 260.3984375 738.0234375 C271.06797754 751.51368427 279.9318321 765.82529705 288 781 C288.34772461 781.64485352 288.69544922 782.28970703 289.05371094 782.95410156 C334.82042 868.28110743 336.19459927 982.93523756 308.93017578 1095.71240234 C289.43754275 1159.58930946 254.68467136 1214.23837636 207.75 1261.375 C207.00548584 1262.12418701 206.26097168 1262.87337402 205.49389648 1263.64526367 C200.82477111 1268.30089896 196.02472999 1272.73142478 191 1277 C190.36852051 1277.53818359 189.73704102 1278.07636719 189.08642578 1278.63085938 C123.24142539 1334.33683578 43.57351893 1370.00599285 -272.30987549 1427.85897827 C-274.0723911 1427.95137288 -275.83473415 1428.0471349 -277.59686279 1428.14663696 C-298.77039606 1429.32004766 -319.97570814 1429.18737075 -341.17431641 1429.18530273 C-345.43542804 1429.18522226 -349.69643034 1429.19205128 -353.95751953 1429.20581055 C-393.26224694 1429.33053695 -432.48905146 1428.26502302 -471.6875 1425.25 C-473.3259639 1425.12644638 -473.3259639 1425.12644638 -474.99752808 1425.00039673 C-515.5683222 1421.91092344 -555.89702466 1416.85835179 -596 1410 C-596.81090088 1409.8616272 -597.62180176 1409.72325439 -598.45727539 1409.58068848 C-659.77282702 1399.0620558 -720.85565825 1382.82782405 -778 1358 C-778.88800293 1357.61537598 -779.77600586 1357.23075195 -780.69091797 1356.83447266 C-786.49853695 1354.30289021 -792.25544722 1351.6710554 -798 1349 C-798.89605957 1348.58814453 -799.79211914 1348.17628906 -800.71533203 1347.75195312 C-815.59097713 1340.90014084 -829.86450441 1333.26413754 -844 1325 C-845.30130859 1324.24783203 -845.30130859 1324.24783203 -846.62890625 1323.48046875 C-882.03858624 1302.99150888 -913.75578916 1277.18333386 -942.75 1248.4375 C-944.06291016 1247.14416748 -944.06291016 1247.14416748 -945.40234375 1245.82470703 C-951.37091931 1239.86403239 -956.73951156 1233.58789521 -962 1227 C-963.55925805 1225.16390858 -965.12103933 1223.32995036 -966.6875 1221.5 C-1009.28336905 1170.31891703 -1036.77334547 1106.96449613 -1050 1042 C-1050.22139648 1040.91493164 -1050.44279297 1039.82986328 -1050.67089844 1038.71191406 C-1053.52056532 1024.44684154 -1055.60113674 1010.13346203 -1057.25 995.6875 C-1057.33308411 994.96168732 -1057.41616821 994.23587463 -1057.50177002 993.48806763 C-1059.30887657 977.50500727 -1060.22547045 961.61235109 -1060.29516602 945.52832031 C-1060.30676717 943.66886841 -1060.32734472 941.80945184 -1060.35668945 939.95019531 C-1060.57035193 926.32831698 -1060.20837521 914.99363967 -1051.046875 904.0703125 C-1041.82127981 894.73908073 -1032.15279198 891.7104989 -1019.31324172 891.58987129 C-1016.71801737 891.58200327 -1014.12305534 891.58881457 -1011.52783203 891.59594727 C-1009.65274652 891.59023894 -1007.77766449 891.58327289 -1005.90258789 891.57514954 C-1000.82811354 891.55725338 -995.75381244 891.55837995 -990.67931604 891.56409192 C-986.43494807 891.56718915 -982.19061311 891.56108532 -977.94624984 891.55505317 C-967.92881944 891.54102094 -957.91147434 891.54255818 -947.89404297 891.55395508 C-937.57785177 891.56543291 -927.26192064 891.55136321 -916.94576371 891.5245586 C-908.07157985 891.50236851 -899.19747743 891.49577175 -890.32326782 891.50163502 C-885.03063532 891.50499812 -879.73816948 891.5026326 -874.44556046 891.48538399 C-869.4664478 891.46986436 -864.48771898 891.47392598 -859.50862122 891.49268913 C-857.68781988 891.49636125 -855.8669898 891.49330698 -854.04621506 891.48280334 C-839.53772176 891.4055373 -828.08229038 893.04414522 -817.31640625 903.66015625 C-811.44966456 910.08284852 -808.61018897 917.0769779 -807.125 925.5625 C-806.96483398 926.4076416 -806.80466797 927.2527832 -806.63964844 928.12353516 C-805.86212035 932.23571409 -805.11761987 936.35381788 -804.36816406 940.47119141 C-798.00939853 975.18599045 -789.51350174 1009.11671009 -774 1041 C-773.63793457 1041.74475586 -773.27586914 1042.48951172 -772.90283203 1043.25683594 C-751.85190829 1085.96419313 -716.84944347 1117.30598702 -675 1139 C-674.27296875 1139.37721191 -673.5459375 1139.75442383 -672.796875 1140.14306641 C-592.54210161 1181.17758817 -493.83258345 1187.39665229 -222 1186 C-221.23846619 1185.92952454 -220.47693237 1185.85904907 -219.69232178 1185.78643799 C-175.21922651 1181.61726969 -130.61099346 1174.7205647 -88 1161 C-87.16227051 1160.73396973 -86.32454102 1160.46793945 -85.46142578 1160.19384766 C-34.499943 1143.82658313 13.66810284 1114.80354528 39.00292969 1066.02832031 C48.15428467 1047.41190082 53.29039691 1027.49547525 56 1007 C56.14356934 1005.95875977 56.14356934 1005.95875977 56.29003906 1004.89648438 C57.33401704 996.17795859 57.24373903 987.39300595 57.25 978.625 C57.25067474 977.7775119 57.25134949 976.9300238 57.25204468 976.05685425 C57.21630088 947.80956486 52.73612208 920.61575275 33 899 C32.55591797 898.50822266 32.11183594 898.01644531 31.65429688 897.50976562 C-21.90164026 838.90818165 -124.34603822 825.31118563 -421.55615234 783 C-511.0966798 773.6344839 -600.87947031 762.31030963 -747 722 C-748.3038468 721.55737519 -749.60772091 721.11483082 -750.91162109 720.67236328 C-807.82254962 701.29978061 -862.45368686 674.76941094 -908 635 C-908.79019531 634.32195313 -909.58039063 633.64390625 -910.39453125 632.9453125 C-922.86942505 622.02181094 -934.94501501 610.20331688 -945 597 C-945.79277344 596.00097656 -946.58554688 595.00195312 -947.40234375 593.97265625 C-953.74021734 585.95573747 -959.52564666 577.62756357 -965 569 C-965.39654785 568.37738281 -965.7930957 567.75476562 -966.20166016 567.11328125 C-993.71233958 523.42051164 -1007.46514233 472.96097596 -1013 422 C-1013.10441406 421.1126416 -1013.20882813 420.2252832 -1013.31640625 419.31103516 C-1017.37681292 383.81460027 -1016.77069788 346.39989305 -1012 311 C-1011.83371094 309.75814941 -1011.66742187 308.51629883 -1011.49609375 307.23681641 C-1005.53614239 264.51831318 -992.93421661 223.18542985 -972.97998047 184.89941406 C-971.98572722 182.97233627 -971.02459631 181.03116429 -970.06640625 179.0859375 C-957.86677099 154.72490113 -941.10123253 132.29586495 -923 112 C-922.53158691 111.47374023 -922.06317383 110.94748047 -921.58056641 110.40527344 C-915.34592991 103.44033715 -908.84413477 96.74928103 -902.25 90.125 C-901.55302002 89.42334717 -900.85604004 88.72169434 -900.13793945 87.9987793 C-895.58777339 83.46263532 -890.87595137 79.18196199 -886 75 C-885.02417969 74.14277344 -884.04835938 73.28554687 -883.04296875 72.40234375 C-812.2214566 11.26913695 -720.5414972 -24.11779268 0 0 Z " fill="#529E42" transform="translate(2810,1388)"/>
</svg>
