<?xml version="1.0" encoding="UTF-8"?>
<svg xmlns="http://www.w3.org/2000/svg" xmlns:xlink="http://www.w3.org/1999/xlink" width="40px" height="40px" viewBox="0 0 40 41" version="1.1">
<g id="surface1">
<path style="fill-rule:nonzero;fill:rgb(0%,0%,0%);fill-opacity:1;stroke-width:37.395302;stroke-linecap:butt;stroke-linejoin:miter;stroke:rgb(0%,0%,0%);stroke-opacity:1;stroke-miterlimit:4;" d="M 323.198438 324.223247 C 326.025 300.618674 325.18125 297.179878 342.773438 301.000762 L 347.245313 301.382851 C 360.745313 301.97721 378.421875 299.217683 388.8 294.377896 C 411.159375 284.019055 424.448438 266.697713 402.384375 271.24032 C 352.096875 281.599162 348.6375 264.575 348.6375 264.575 C 401.751563 185.779878 423.942188 85.757622 404.789062 61.261509 C 352.51875 -5.519055 262.026563 26.066921 260.507812 26.873552 L 260.04375 26.95846 C 250.0875 24.878201 238.992188 23.647027 226.504688 23.47721 C 203.723438 23.095122 186.46875 29.420808 173.348438 39.355107 C 173.348438 39.355107 11.939063 -27.128277 19.448438 122.990015 C 21.051563 154.915625 65.221875 364.63971 117.914063 301.297942 C 137.19375 278.160366 155.798438 258.546494 155.798438 258.546494 C 165.0375 264.702363 176.090625 267.843979 187.692188 266.697713 L 188.620313 265.933537 C 188.325 268.820427 188.451563 271.622409 188.957813 274.976296 C 175.373438 290.13247 179.38125 292.807088 152.254688 298.368598 C 124.790625 304.015015 140.90625 314.119131 151.453125 316.751296 C 164.19375 319.935366 193.767188 324.435518 213.721875 296.50061 L 212.920313 299.68468 C 218.235938 303.972561 217.898438 330.336662 218.615625 349.143902 C 219.375 367.993598 220.640625 385.569665 224.479688 395.928506 C 228.31875 406.287348 232.875 432.991082 268.523438 425.349314 C 298.35 418.93872 321.13125 409.768598 323.198438 324.223247 " transform="matrix(0.0925926,0,0,0.0920108,0,0)"/>
<path style=" stroke:none;fill-rule:nonzero;fill:rgb(20%,40.392157%,56.862748%);fill-opacity:1;" d="M 37.257812 24.957031 C 32.601562 25.910156 32.28125 24.34375 32.28125 24.34375 C 37.199219 17.09375 39.253906 7.886719 37.480469 5.636719 C 32.640625 -0.507812 24.261719 2.398438 24.121094 2.472656 L 24.078125 2.480469 C 23.15625 2.289062 22.128906 2.175781 20.96875 2.160156 C 18.863281 2.125 17.265625 2.707031 16.050781 3.621094 C 16.050781 3.621094 1.105469 -2.496094 1.800781 11.316406 C 1.949219 14.253906 6.039062 33.550781 10.917969 27.722656 C 12.703125 25.59375 14.425781 23.789062 14.425781 23.789062 C 15.28125 24.355469 16.304688 24.644531 17.378906 24.539062 L 17.460938 24.46875 C 17.4375 24.734375 17.449219 24.992188 17.496094 25.300781 C 16.238281 26.695312 16.609375 26.941406 14.097656 27.453125 C 11.554688 27.972656 13.046875 28.902344 14.023438 29.144531 C 15.203125 29.4375 17.941406 29.851562 19.789062 27.28125 L 19.714844 27.574219 C 20.207031 27.96875 20.550781 30.125 20.496094 32.082031 C 20.4375 34.039062 20.398438 35.378906 20.785156 36.429688 C 21.171875 37.476562 21.558594 39.839844 24.863281 39.136719 C 27.625 38.546875 29.054688 37.023438 29.253906 34.484375 C 29.394531 32.675781 29.714844 32.945312 29.734375 31.328125 L 29.988281 30.566406 C 30.285156 28.117188 30.039062 27.328125 31.738281 27.695312 L 32.152344 27.730469 C 33.402344 27.785156 35.039062 27.53125 36 27.085938 C 38.070312 26.132812 39.300781 24.539062 37.257812 24.957031 Z M 37.257812 24.957031 "/>
<path style="fill:none;stroke-width:12.4651;stroke-linecap:round;stroke-linejoin:round;stroke:rgb(100%,100%,100%);stroke-opacity:1;stroke-miterlimit:4;" d="M 215.873438 286.481402 C 214.48125 335.983079 216.210938 385.866845 221.0625 397.966311 C 225.914063 410.108232 236.292188 433.670351 271.940625 426.028582 C 301.767188 419.617988 312.609375 407.263796 317.334375 379.965701 C 320.79375 359.884832 327.459375 304.099924 328.303125 292.679726 " transform="matrix(0.0925926,0,0,0.0920108,0,0)"/>
<path style="fill:none;stroke-width:12.4651;stroke-linecap:round;stroke-linejoin:round;stroke:rgb(100%,100%,100%);stroke-opacity:1;stroke-miterlimit:4;" d="M 173.095313 38.251296 C 173.095313 38.251296 11.601562 -27.765091 19.110938 122.353201 C 20.671875 154.321265 64.884375 364.045351 117.576563 300.661128 C 136.814063 277.523552 154.2375 259.353125 154.2375 259.353125 " transform="matrix(0.0925926,0,0,0.0920108,0,0)"/>
<path style="fill:none;stroke-width:12.4651;stroke-linecap:round;stroke-linejoin:round;stroke:rgb(100%,100%,100%);stroke-opacity:1;stroke-miterlimit:4;" d="M 260.339063 26.194284 C 254.770313 27.977363 350.198438 -8.703125 404.451563 60.624695 C 423.604688 85.120808 401.414062 185.143064 348.3 263.938186 " transform="matrix(0.0925926,0,0,0.0920108,0,0)"/>
<path style="fill:none;stroke-width:12.4651;stroke-linecap:round;stroke-linejoin:bevel;stroke:rgb(100%,100%,100%);stroke-opacity:1;stroke-miterlimit:4;" d="M 348.3 263.938186 C 348.3 263.938186 351.759375 281.004802 402.046875 270.603506 C 424.06875 266.060899 410.821875 283.382241 388.4625 293.741082 C 370.110938 302.27439 328.978125 304.439558 328.303125 292.679726 C 326.573438 262.324924 349.9875 271.579954 348.3 263.938186 C 346.739063 257.103049 336.31875 250.395274 329.4 233.625838 C 323.367188 218.979116 246.585938 106.772485 350.6625 123.414558 C 354.501563 122.650381 323.535938 24.411204 226.125 22.840396 C 128.75625 21.227134 131.920313 142.603887 131.920313 142.603887 " transform="matrix(0.0925926,0,0,0.0920108,0,0)"/>
<path style="fill:none;stroke-width:12.4651;stroke-linecap:round;stroke-linejoin:round;stroke:rgb(100%,100%,100%);stroke-opacity:1;stroke-miterlimit:4;" d="M 188.620313 274.339482 C 175.035938 289.495655 179.001563 292.170274 151.875 297.731784 C 124.410938 303.420655 140.56875 313.482317 151.073438 316.114482 C 163.85625 319.298552 193.3875 323.841159 213.342188 295.90625 C 219.417188 287.372942 213.3 273.787576 204.946875 270.34878 C 200.939063 268.65061 195.539062 266.570351 188.620313 274.339482 Z M 188.620313 274.339482 " transform="matrix(0.0925926,0,0,0.0920108,0,0)"/>
<path style="fill:none;stroke-width:12.4651;stroke-linecap:round;stroke-linejoin:round;stroke:rgb(100%,100%,100%);stroke-opacity:1;stroke-miterlimit:4;" d="M 187.734375 274.084756 C 186.342188 265.16936 190.645313 254.555793 195.24375 242.116692 C 202.1625 223.521723 218.151563 204.884299 205.36875 145.787957 C 195.834375 101.762881 131.9625 136.617835 131.920313 142.603887 C 131.878125 148.547485 134.83125 172.87378 130.865625 201.148323 C 125.71875 238.041082 154.364063 269.287424 187.354688 266.060899 " transform="matrix(0.0925926,0,0,0.0920108,0,0)"/>
<path style="fill-rule:nonzero;fill:rgb(100%,100%,100%);fill-opacity:1;stroke-width:4.155;stroke-linecap:butt;stroke-linejoin:miter;stroke:rgb(100%,100%,100%);stroke-opacity:1;stroke-miterlimit:4;" d="M 172.504688 141.712348 C 172.209375 143.750152 176.259375 149.184299 181.490625 149.906021 C 186.721875 150.627744 191.19375 146.382317 191.489063 144.344512 C 191.784375 142.306707 187.776563 140.056631 182.503125 139.334909 C 177.271875 138.613186 172.8 139.674543 172.504688 141.712348 Z M 172.504688 141.712348 " transform="matrix(0.0925926,0,0,0.0920108,0,0)"/>
<path style="fill-rule:nonzero;fill:rgb(100%,100%,100%);fill-opacity:1;stroke-width:2.0775;stroke-linecap:butt;stroke-linejoin:miter;stroke:rgb(100%,100%,100%);stroke-opacity:1;stroke-miterlimit:4;" d="M 331.93125 137.551829 C 332.226562 139.589634 328.21875 145.02378 322.945312 145.745503 C 317.714063 146.467226 313.242188 142.221799 312.946875 140.183994 C 312.69375 138.146189 316.701563 135.896113 321.932813 135.17439 C 327.164062 134.452668 331.635938 135.514024 331.93125 137.551829 Z M 331.93125 137.551829 " transform="matrix(0.0925926,0,0,0.0920108,0,0)"/>
<path style="fill:none;stroke-width:12.4651;stroke-linecap:round;stroke-linejoin:round;stroke:rgb(100%,100%,100%);stroke-opacity:1;stroke-miterlimit:4;" d="M 350.6625 123.414558 C 351.548438 139.419817 347.245313 150.330564 346.696875 167.354726 C 345.895313 192.105564 358.467188 220.422561 339.482813 248.782012 " transform="matrix(0.0925926,0,0,0.0920108,0,0)"/>
</g>
</svg>
