<?xml version="1.0" encoding="UTF-8"?>
<svg version="1.1" xmlns="http://www.w3.org/2000/svg" width="416" height="550">
<path d="M0 0 C0 181.17 0 362.34 0 549 C-11.03301807 549 -21.9053942 548.93579976 -32.89784241 548.36134338 C-34.29700191 548.29155279 -35.69618119 548.22215803 -37.09537786 548.15311664 C-40.87987552 547.96525175 -44.66407206 547.77185883 -48.4482373 547.57742822 C-52.55226068 547.3675717 -56.65654838 547.16300367 -60.76080322 546.95773315 C-68.77468418 546.55609961 -76.78831453 546.14966468 -84.8018663 545.74152131 C-94.14519653 545.26581852 -103.48876216 544.79481956 -112.83233731 544.32395636 C-129.50356936 543.48364852 -146.1745743 542.63891666 -162.84545898 541.79174805 C-179.00608931 540.97051143 -195.16688944 540.15272305 -211.32788086 539.33862305 C-228.95908464 538.45045595 -246.59020209 537.56061169 -264.22116369 536.66764873 C-265.15364779 536.62042085 -266.08613188 536.57319297 -267.04687307 536.52453394 C-268.91940789 536.42969436 -270.79194253 536.33485113 -272.66447698 536.2400042 C-279.17213312 535.91047589 -285.67984558 535.5820747 -292.1875782 535.25406075 C-300.11481258 534.85443975 -308.04194145 534.45279375 -315.9689448 534.04861493 C-320.0105248 533.84258607 -324.052143 533.63740745 -328.09388542 533.43458748 C-331.79645681 533.24875883 -335.49889058 533.06039823 -339.20123237 532.8700515 C-341.16801244 532.76957388 -343.1349273 532.67174507 -345.10184628 532.57402426 C-351.43703653 532.24560754 -357.70416975 531.78197773 -364 531 C-364.75008528 525.46950944 -365.2303375 520.00309428 -365.48224735 514.42951107 C-365.52223379 513.60013951 -365.56222023 512.77076794 -365.60341838 511.91626391 C-365.73635946 509.14319537 -365.86488444 506.36994023 -365.99342346 503.59666443 C-366.08889312 501.58595851 -366.18463446 499.57526548 -366.28062385 497.56458431 C-366.5433944 492.04373644 -366.80229203 486.52271271 -367.06055439 481.00165236 C-367.33983019 475.0458057 -367.62268416 469.09012883 -367.90509033 463.13442993 C-368.39388043 452.81561782 -368.88038657 442.49669992 -369.36523628 432.17770195 C-369.87389196 421.35204513 -370.38369168 410.52644327 -370.8950634 399.70091438 C-370.92688064 399.02732929 -370.95869787 398.3537442 -370.99147927 397.65974744 C-371.12063935 394.92543291 -371.24980689 392.19111873 -371.37898468 389.45680503 C-372.59061717 363.80992391 -373.79886635 338.16288442 -375.00542838 312.5157643 C-376.0774156 289.72955787 -377.15175392 266.94346355 -378.22827148 244.1574707 C-378.29740098 242.69423107 -378.36653045 241.23099144 -378.43565989 239.76775181 C-378.46983629 239.04435378 -378.50401269 238.32095575 -378.53922474 237.57563656 C-378.71126349 233.93414718 -378.88329851 230.29265763 -379.05532932 226.65116787 C-379.0892687 225.93275752 -379.12320808 225.21434717 -379.15817593 224.4741668 C-380.05767004 205.43360541 -380.95555995 186.39296839 -381.85291237 167.35230595 C-381.88483287 166.67499819 -381.91675338 165.99769044 -381.94964118 165.29985821 C-382.21230079 159.72657121 -382.21230079 159.72657121 -382.33470982 157.12905676 C-382.78124543 147.65376658 -383.22833865 138.17850286 -383.67579751 128.70325623 C-384.25238468 116.49347418 -384.82782544 104.28363885 -385.4014184 92.07371574 C-385.67806595 86.18530404 -385.9552354 80.29691817 -386.23382378 74.40859795 C-386.48871329 69.0208023 -386.74208348 63.63293744 -386.99422788 58.24501265 C-387.08581788 56.29356536 -387.17796471 54.34214412 -387.27071781 52.39075177 C-387.39652734 49.74211908 -387.52031549 47.09339933 -387.64359379 44.44464779 C-387.68020789 43.68400743 -387.71682198 42.92336708 -387.7545456 42.13967702 C-387.95616806 37.75277748 -388.03289954 33.38979182 -388 29 C-372.31119723 27.32118215 -356.60522053 26.09851649 -340.8684082 24.96875 C-338.19714472 24.77491715 -335.5258988 24.58085627 -332.85467529 24.38647461 C-327.14584788 23.97139861 -321.43689693 23.55806069 -315.72786903 23.14575195 C-306.70695038 22.49406898 -297.68647381 21.8363823 -288.6660614 21.17773438 C-285.57033791 20.95176069 -282.47461221 20.72581743 -279.37888622 20.49987793 C-278.60581502 20.44345328 -277.83274382 20.38702863 -277.03624621 20.32889414 C-268.27837847 19.68973898 -259.52043669 19.05160184 -250.76245117 18.4140625 C-249.96356691 18.35590583 -249.16468265 18.29774916 -248.34158977 18.23783016 C-235.33640258 17.29126138 -222.33084224 16.34990158 -209.32517705 15.40992641 C-195.9458093 14.44276775 -182.56698513 13.46832523 -169.18861264 12.48749542 C-160.94686249 11.88352326 -152.70472087 11.28554723 -144.46198215 10.69521713 C-138.83125088 10.29144718 -133.20104972 9.88078541 -127.57122401 9.46458054 C-124.32073144 9.22449705 -121.07002584 8.98865255 -117.81877708 8.75900269 C-114.30310226 8.51020404 -110.78848016 8.24981009 -107.27388 7.98632812 C-106.23598825 7.91569908 -105.1980965 7.84507004 -104.12875348 7.77230072 C-103.19509621 7.69988411 -102.26143894 7.6274675 -101.29948902 7.55285645 C-100.48747652 7.49394478 -99.67546402 7.43503311 -98.83884507 7.37433624 C-97.92861676 7.1890398 -97.92861676 7.1890398 -97 7 C-96.67 6.34 -96.34 5.68 -96 5 C-94.09112549 4.63887024 -94.09112549 4.63887024 -91.55957031 4.48168945 C-90.61478821 4.41855057 -89.6700061 4.35541168 -88.69659424 4.2903595 C-87.15295197 4.20270576 -87.15295197 4.20270576 -85.578125 4.11328125 C-84.52598816 4.04715134 -83.47385132 3.98102142 -82.38983154 3.91288757 C-80.15730474 3.77477832 -77.92447842 3.6414425 -75.69140625 3.51245117 C-72.27778115 3.31411413 -68.86555482 3.09870029 -65.453125 2.88085938 C-63.28652046 2.74897535 -61.11985524 2.61808379 -58.953125 2.48828125 C-57.93212708 2.42377274 -56.91112915 2.35926422 -55.85919189 2.2928009 C-54.90180115 2.2391185 -53.9444104 2.1854361 -52.95800781 2.13012695 C-52.11941223 2.08064407 -51.28081665 2.03116119 -50.41680908 1.98017883 C-47.82504356 2.00143488 -45.53520159 2.48651875 -43 3 C-40.85167808 3.03524384 -40.85167808 3.03524384 -38.70043945 2.83813477 C-37.88642166 2.77799698 -37.07240387 2.71785919 -36.23371887 2.65589905 C-34.93660225 2.54972511 -34.93660225 2.54972511 -33.61328125 2.44140625 C-32.26595161 2.33940163 -32.26595161 2.33940163 -30.8914032 2.2353363 C-28.03123323 2.01746612 -25.17190077 1.79022286 -22.3125 1.5625 C-19.442255 1.34045629 -16.57187047 1.12029182 -13.70146179 0.90037537 C-11.91732368 0.76296108 -10.13331156 0.62389915 -8.34944153 0.48304749 C-2.20879309 0 -2.20879309 0 0 0 Z " fill="#F1618C" transform="translate(416,1)"/>
<path d="M0 0 C19.55258671 17.33844362 30.67180428 39.30550412 33.0546875 65.55078125 C33.45357034 74.01596155 33.32270459 82.5160943 33.2421875 90.98828125 C26.55215756 91.74553708 19.9253378 92.17446109 13.1953125 92.3046875 C12.26281677 92.3254686 11.33032104 92.34624969 10.36956787 92.36766052 C8.4031567 92.41062645 6.43670339 92.45170166 4.47021484 92.4909668 C1.54121802 92.54979646 -1.38757332 92.61519974 -4.31640625 92.68164062 C-17.46503146 92.9673541 -30.60638048 93.03891314 -43.7578125 92.98828125 C-43.80341309 91.8065332 -43.84901367 90.62478516 -43.89599609 89.40722656 C-44.40319626 76.89391961 -45.11558464 64.84125601 -53.7578125 54.98828125 C-59.85805089 49.68372613 -66.24779065 49.5592178 -74.01171875 49.7109375 C-80.34220836 50.17961817 -84.37740603 52.21657303 -88.6328125 56.86328125 C-93.47886143 63.98982379 -93.76478983 71.61165567 -92.7578125 79.98828125 C-85.7506776 101.03462239 -65.33482802 110.42149531 -47.23828125 120.3984375 C-12.76314728 139.41866885 21.46973371 160.60909073 34.23828125 200.06640625 C37.04431002 209.89421992 37.45211642 219.37773458 37.4921875 229.55078125 C37.523125 231.47374023 37.523125 231.47374023 37.5546875 233.43554688 C37.64600434 256.04788061 30.03278511 275.89939362 14.25 292.1328125 C-6.91037978 312.84282402 -38.13665596 319.59688839 -66.73339844 319.32446289 C-69.38767759 319.30073776 -72.04095284 319.30395007 -74.6953125 319.31054688 C-104.16153805 319.26317462 -134.17441823 313.49851147 -155.7578125 291.98828125 C-156.80582031 290.97507812 -156.80582031 290.97507812 -157.875 289.94140625 C-179.59949931 267.45612681 -179.7578125 235.10616674 -179.7578125 205.98828125 C-153.0278125 205.98828125 -126.2978125 205.98828125 -98.7578125 205.98828125 C-98.2628125 213.90828125 -98.2628125 213.90828125 -97.7578125 221.98828125 C-95.38127253 238.75459684 -95.38127253 238.75459684 -85.7578125 251.98828125 C-80.79307251 255.01125627 -76.96201383 255.4530696 -71.3203125 255.36328125 C-70.59521484 255.37488281 -69.87011719 255.38648438 -69.12304688 255.3984375 C-63.38956503 255.36752924 -58.57707137 254.3494912 -54.05078125 250.55859375 C-47.61040035 242.13830777 -47.64810217 233.21886605 -48.7578125 222.98828125 C-53.89478297 203.51267961 -77.05670739 191.91658704 -93.10986328 182.53808594 C-144.47801517 152.47308242 -144.47801517 152.47308242 -161.7578125 127.98828125 C-162.32242188 127.20195312 -162.88703125 126.415625 -163.46875 125.60546875 C-166.99944533 120.2440425 -169.26454034 114.47150055 -171.5078125 108.48828125 C-171.94903442 107.31338135 -171.94903442 107.31338135 -172.39916992 106.11474609 C-175.91817678 96.32511972 -177.10107083 87.18673073 -177.0078125 76.80078125 C-176.99657349 75.14876709 -176.99657349 75.14876709 -176.98510742 73.46337891 C-176.65629254 48.46242617 -169.61235152 24.42602442 -151.31640625 6.58251953 C-113.68084672 -28.75496075 -40.50978071 -33.46137564 0 0 Z " fill="#FEFEFE" transform="translate(300.7578125,119.01171875)"/>
<path d="M0 0 C5.94 0 11.88 0 18 0 C18.80513429 4.83080577 19.26357662 9.45077463 19.48224735 14.31880665 C19.52223379 15.14527133 19.56222023 15.97173601 19.60341838 16.82324508 C19.73681328 19.59846907 19.86510172 22.37390544 19.99342346 25.14936829 C20.08885298 27.15692463 20.18459527 29.16446613 20.28062385 31.17199391 C20.54382292 36.69347979 20.8025501 42.21516758 21.06055439 47.7368983 C21.33949474 53.69010765 21.62254926 59.64312155 21.90509033 65.59616089 C22.42608582 76.58646882 22.94384993 87.57692648 23.45999561 98.56746311 C23.93690872 108.72219515 24.41527199 118.87685764 24.8950634 129.03145409 C24.94278925 130.04160257 24.94278925 130.04160257 24.99147927 131.07215809 C25.12063854 133.80583282 25.24980594 136.53950716 25.37898468 139.27318097 C26.59106581 164.92343903 27.79921206 190.57388104 29.00542838 216.2244155 C30.07695579 239.01033646 31.15131743 261.79612199 32.22827148 284.58178711 C32.29740101 286.04441527 32.36653048 287.50704342 32.43565989 288.96967158 C32.46983629 289.69276833 32.50401269 290.41586507 32.53922474 291.16087383 C32.71126536 294.80089728 32.8833004 298.44092101 33.05532932 302.08094501 C33.0892687 302.79907463 33.12320808 303.51720425 33.15817593 304.25709537 C34.05799961 323.29738128 34.95578828 342.33776312 35.85291237 361.37817639 C35.88483287 362.05564334 35.91675338 362.73311029 35.94964118 363.43110655 C35.98150328 364.10733475 36.01336539 364.78356296 36.04619301 365.48028293 C36.07799675 366.15527063 36.10980048 366.83025833 36.14256797 367.5257002 C36.20661698 368.88506371 36.27066427 370.2444273 36.33470982 371.60379097 C36.78107609 381.07761119 37.22818701 390.55139601 37.67579751 400.02515752 C38.2527586 412.23677449 38.82826716 424.44845868 39.4014184 436.66025511 C39.67783044 442.54891207 39.95491234 448.43753544 40.23382378 454.3260746 C40.48911976 459.71650336 40.74245649 465.1070205 40.99422788 470.497615 C41.08565468 472.44781944 41.17779408 474.39799062 41.27071781 476.3481243 C41.39696509 478.99988542 41.52060015 481.65175619 41.64359379 484.30366993 C41.68020789 485.05962795 41.71682198 485.81558597 41.7545456 486.59445181 C41.98968526 491.74660932 42 496.82894391 42 502 C33.75 502 25.5 502 17 502 C13.70158739 412.95604468 10.46348556 323.91000185 6.89603996 223.64263725 C6.76265371 219.89074542 6.62925656 216.13885398 6.49584961 212.38696289 C6.44624191 210.99173699 6.44624191 210.99173699 6.39563204 209.5683247 C5.84940101 194.20832599 5.29921941 178.84847109 4.74765756 163.48866298 C4.16986359 147.39636756 3.5957161 131.30394513 3.02504379 115.21139556 C2.70895831 106.30059302 2.39136851 97.38985036 2.06952477 88.47925377 C1.79887708 80.98602242 1.53154793 73.49268165 1.26839652 65.99918314 C1.1350758 62.20552714 1.00032485 58.41193867 0.86121368 54.61849022 C0.19454695 36.40645193 -0.13701605 18.22568673 0 0 Z " fill="#B47DE4" transform="translate(1,30)"/>
<path d="M0 0 C0.20254517 2.9359436 0.20254517 2.9359436 0.13525391 6.74462891 C0.12579239 7.43742447 0.11633087 8.13022003 0.10658264 8.8440094 C0.07285123 11.1384592 0.02475175 13.43237452 -0.0234375 15.7265625 C-0.04959915 17.31552729 -0.07486659 18.90450704 -0.09927368 20.49349976 C-0.16597859 24.67926938 -0.2448594 28.86472521 -0.32623291 33.05023193 C-0.40710061 37.3198236 -0.47651326 41.58959956 -0.546875 45.859375 C-0.68667275 54.23980706 -0.83932732 62.6199423 -1 71 C-3.97816718 69.57567584 -5.97931682 68.22096735 -8.25 65.8125 C-11.41903896 62.54101366 -14.7440911 59.53905802 -18.203125 56.578125 C-19.87340058 55.11118731 -21.44788672 53.59043707 -23 52 C-27.69564348 53.52696677 -30.97941386 56.12026231 -34.75 59.1875 C-35.98820216 60.1771823 -37.22648351 61.16676552 -38.46484375 62.15625 C-39.06538574 62.63964844 -39.66592773 63.12304688 -40.28466797 63.62109375 C-42.61402752 65.49359912 -44.95971197 67.34454565 -47.3125 69.1875 C-48.35857422 70.01314453 -48.35857422 70.01314453 -49.42578125 70.85546875 C-51 72 -51 72 -52 72 C-51.24675341 48.32172396 -50.13299274 24.66256169 -49 1 C-42.34408019 0.52134087 -35.68716852 0.05909108 -29.02929688 -0.39160156 C-26.76308206 -0.54697315 -24.49712433 -0.70614213 -22.23144531 -0.86914062 C-18.98041435 -1.10237294 -15.72871246 -1.32206782 -12.4765625 -1.5390625 C-11.45881744 -1.61500641 -10.44107239 -1.69095032 -9.39248657 -1.76919556 C-8.45166229 -1.82940887 -7.51083801 -1.88962219 -6.54150391 -1.95166016 C-5.71099518 -2.00939606 -4.88048645 -2.06713196 -4.02481079 -2.12661743 C-2 -2 -2 -2 0 0 Z " fill="#FEFDFE" transform="translate(369,5)"/>
</svg>
