<?xml version="1.0" encoding="UTF-8"?>
<svg xmlns="http://www.w3.org/2000/svg" xmlns:xlink="http://www.w3.org/1999/xlink" width="40px" height="40px" viewBox="0 0 40 52" version="1.1">
<g id="surface1">
<path style=" stroke:none;fill-rule:nonzero;fill:rgb(94.509804%,38.039216%,54.901963%);fill-opacity:1;" d="M 40 0.09375 C 40 17.222656 40 34.351562 40 52 C 38.9375 52 37.894531 51.992188 36.835938 51.941406 C 36.703125 51.933594 36.566406 51.925781 36.433594 51.921875 C 36.070312 51.902344 35.707031 51.882812 35.339844 51.867188 C 34.945312 51.84375 34.550781 51.828125 34.15625 51.808594 C 33.386719 51.769531 32.617188 51.730469 31.847656 51.691406 C 30.949219 51.648438 30.050781 51.601562 29.152344 51.558594 C 27.546875 51.476562 25.945312 51.398438 24.339844 51.320312 C 22.789062 51.242188 21.234375 51.164062 19.679688 51.085938 C 17.984375 51.003906 16.289062 50.917969 14.59375 50.835938 C 14.503906 50.828125 14.414062 50.824219 14.324219 50.820312 C 14.140625 50.8125 13.960938 50.800781 13.78125 50.792969 C 13.15625 50.761719 12.53125 50.730469 11.90625 50.699219 C 11.144531 50.664062 10.378906 50.625 9.617188 50.585938 C 9.230469 50.566406 8.839844 50.546875 8.453125 50.527344 C 8.097656 50.511719 7.742188 50.492188 7.382812 50.476562 C 7.195312 50.464844 7.007812 50.457031 6.816406 50.445312 C 6.207031 50.414062 5.605469 50.371094 5 50.296875 C 4.929688 49.773438 4.882812 49.257812 4.859375 48.730469 C 4.855469 48.652344 4.851562 48.574219 4.847656 48.492188 C 4.832031 48.230469 4.820312 47.96875 4.808594 47.707031 C 4.800781 47.515625 4.789062 47.328125 4.78125 47.136719 C 4.753906 46.613281 4.730469 46.09375 4.707031 45.570312 C 4.679688 45.007812 4.652344 44.445312 4.625 43.882812 C 4.578125 42.90625 4.53125 41.929688 4.484375 40.953125 C 4.433594 39.929688 4.386719 38.90625 4.335938 37.882812 C 4.332031 37.820312 4.332031 37.757812 4.328125 37.691406 C 4.316406 37.433594 4.304688 37.175781 4.289062 36.914062 C 4.175781 34.492188 4.058594 32.066406 3.941406 29.640625 C 3.839844 27.488281 3.734375 25.332031 3.632812 23.179688 C 3.625 23.039062 3.617188 22.902344 3.613281 22.761719 C 3.609375 22.695312 3.605469 22.625 3.601562 22.554688 C 3.585938 22.210938 3.570312 21.867188 3.550781 21.523438 C 3.550781 21.457031 3.546875 21.386719 3.542969 21.316406 C 3.457031 19.515625 3.371094 17.71875 3.285156 15.917969 C 3.28125 15.851562 3.277344 15.789062 3.273438 15.722656 C 3.25 15.195312 3.25 15.195312 3.238281 14.949219 C 3.195312 14.054688 3.152344 13.160156 3.109375 12.261719 C 3.050781 11.109375 2.996094 9.953125 2.941406 8.800781 C 2.914062 8.242188 2.890625 7.6875 2.863281 7.128906 C 2.835938 6.621094 2.8125 6.109375 2.789062 5.601562 C 2.78125 5.417969 2.769531 5.230469 2.761719 5.046875 C 2.75 4.796875 2.738281 4.546875 2.726562 4.296875 C 2.722656 4.226562 2.71875 4.152344 2.714844 4.078125 C 2.695312 3.664062 2.6875 3.25 2.691406 2.835938 C 4.199219 2.675781 5.710938 2.5625 7.222656 2.457031 C 7.480469 2.4375 7.738281 2.417969 7.996094 2.398438 C 8.542969 2.359375 9.09375 2.320312 9.640625 2.28125 C 10.507812 2.222656 11.375 2.160156 12.242188 2.097656 C 12.542969 2.074219 12.839844 2.054688 13.136719 2.03125 C 13.210938 2.027344 13.285156 2.023438 13.363281 2.015625 C 14.203125 1.957031 15.046875 1.894531 15.886719 1.835938 C 15.964844 1.828125 16.042969 1.824219 16.121094 1.820312 C 17.371094 1.730469 18.621094 1.640625 19.871094 1.550781 C 21.160156 1.460938 22.445312 1.367188 23.730469 1.273438 C 24.523438 1.21875 25.316406 1.160156 26.109375 1.105469 C 26.652344 1.066406 27.191406 1.027344 27.734375 0.988281 C 28.046875 0.964844 28.359375 0.945312 28.671875 0.921875 C 29.007812 0.898438 29.347656 0.875 29.683594 0.851562 C 29.785156 0.84375 29.886719 0.835938 29.988281 0.828125 C 30.078125 0.824219 30.167969 0.816406 30.257812 0.808594 C 30.335938 0.804688 30.414062 0.796875 30.496094 0.792969 C 30.582031 0.773438 30.582031 0.773438 30.671875 0.757812 C 30.703125 0.695312 30.738281 0.632812 30.769531 0.566406 C 30.953125 0.53125 30.953125 0.53125 31.195312 0.519531 C 31.285156 0.511719 31.378906 0.507812 31.472656 0.5 C 31.621094 0.492188 31.621094 0.492188 31.769531 0.484375 C 31.871094 0.476562 31.972656 0.472656 32.078125 0.464844 C 32.292969 0.453125 32.507812 0.4375 32.722656 0.425781 C 33.050781 0.40625 33.378906 0.386719 33.707031 0.367188 C 33.914062 0.355469 34.125 0.34375 34.332031 0.328125 C 34.429688 0.324219 34.527344 0.316406 34.628906 0.3125 C 34.722656 0.304688 34.8125 0.300781 34.90625 0.296875 C 34.988281 0.292969 35.070312 0.285156 35.152344 0.28125 C 35.402344 0.285156 35.621094 0.328125 35.867188 0.378906 C 36.070312 0.382812 36.070312 0.382812 36.277344 0.363281 C 36.355469 0.355469 36.433594 0.351562 36.515625 0.34375 C 36.640625 0.335938 36.640625 0.335938 36.769531 0.324219 C 36.898438 0.316406 36.898438 0.316406 37.03125 0.304688 C 37.304688 0.285156 37.578125 0.265625 37.855469 0.242188 C 38.128906 0.222656 38.40625 0.199219 38.683594 0.179688 C 38.855469 0.167969 39.027344 0.152344 39.195312 0.140625 C 39.789062 0.09375 39.789062 0.09375 40 0.09375 Z M 40 0.09375 "/>
<path style=" stroke:none;fill-rule:nonzero;fill:rgb(99.607843%,99.607843%,99.607843%);fill-opacity:1;" d="M 28.917969 11.253906 C 30.800781 12.890625 31.867188 14.96875 32.097656 17.449219 C 32.136719 18.25 32.125 19.054688 32.117188 19.855469 C 31.472656 19.925781 30.835938 19.964844 30.1875 19.980469 C 30.097656 19.980469 30.007812 19.984375 29.917969 19.984375 C 29.726562 19.988281 29.539062 19.992188 29.347656 19.996094 C 29.066406 20.003906 28.785156 20.007812 28.503906 20.015625 C 27.238281 20.042969 25.976562 20.046875 24.710938 20.042969 C 24.707031 19.933594 24.703125 19.820312 24.699219 19.703125 C 24.648438 18.523438 24.582031 17.382812 23.75 16.449219 C 23.164062 15.949219 22.550781 15.9375 21.800781 15.953125 C 21.195312 15.996094 20.804688 16.1875 20.398438 16.628906 C 19.929688 17.300781 19.902344 18.023438 20 18.816406 C 20.671875 20.804688 22.636719 21.691406 24.375 22.636719 C 27.691406 24.433594 30.984375 26.4375 32.210938 30.167969 C 32.480469 31.097656 32.519531 31.992188 32.523438 32.953125 C 32.527344 33.136719 32.527344 33.136719 32.53125 33.324219 C 32.539062 35.460938 31.808594 37.335938 30.289062 38.871094 C 28.253906 40.828125 25.253906 41.46875 22.503906 41.441406 C 22.246094 41.441406 21.992188 41.441406 21.738281 41.441406 C 18.902344 41.4375 16.019531 40.890625 13.941406 38.859375 C 13.839844 38.761719 13.839844 38.761719 13.738281 38.664062 C 11.648438 36.539062 11.632812 33.480469 11.632812 30.726562 C 14.203125 30.726562 16.773438 30.726562 19.421875 30.726562 C 19.46875 31.476562 19.46875 31.476562 19.519531 32.238281 C 19.746094 33.824219 19.746094 33.824219 20.671875 35.078125 C 21.152344 35.363281 21.519531 35.402344 22.0625 35.394531 C 22.132812 35.398438 22.199219 35.398438 22.273438 35.398438 C 22.824219 35.394531 23.285156 35.300781 23.722656 34.941406 C 24.339844 34.144531 24.335938 33.300781 24.230469 32.335938 C 23.738281 30.492188 21.507812 29.398438 19.964844 28.511719 C 15.027344 25.667969 15.027344 25.667969 13.367188 23.351562 C 13.3125 23.277344 13.257812 23.203125 13.199219 23.128906 C 12.863281 22.621094 12.644531 22.074219 12.429688 21.507812 C 12.386719 21.398438 12.386719 21.398438 12.34375 21.285156 C 12.003906 20.359375 11.890625 19.496094 11.898438 18.511719 C 11.898438 18.355469 11.898438 18.355469 11.902344 18.199219 C 11.933594 15.832031 12.609375 13.5625 14.371094 11.875 C 17.988281 8.535156 25.023438 8.089844 28.917969 11.253906 Z M 28.917969 11.253906 "/>
<path style=" stroke:none;fill-rule:nonzero;fill:rgb(70.588237%,49.019608%,89.411765%);fill-opacity:1;" d="M 0.0976562 2.835938 C 0.667969 2.835938 1.238281 2.835938 1.828125 2.835938 C 1.90625 3.292969 1.949219 3.730469 1.96875 4.191406 C 1.972656 4.269531 1.976562 4.347656 1.980469 4.425781 C 1.992188 4.6875 2.007812 4.953125 2.019531 5.214844 C 2.027344 5.402344 2.035156 5.59375 2.046875 5.785156 C 2.070312 6.304688 2.097656 6.828125 2.121094 7.351562 C 2.148438 7.914062 2.175781 8.476562 2.203125 9.039062 C 2.253906 10.078125 2.300781 11.117188 2.351562 12.15625 C 2.398438 13.117188 2.445312 14.074219 2.488281 15.035156 C 2.496094 15.132812 2.496094 15.132812 2.5 15.230469 C 2.511719 15.488281 2.523438 15.746094 2.535156 16.003906 C 2.652344 18.429688 2.769531 20.855469 2.886719 23.28125 C 2.988281 25.433594 3.089844 27.589844 3.195312 29.742188 C 3.203125 29.878906 3.207031 30.019531 3.214844 30.15625 C 3.21875 30.226562 3.222656 30.292969 3.226562 30.363281 C 3.242188 30.707031 3.257812 31.050781 3.273438 31.398438 C 3.277344 31.464844 3.28125 31.53125 3.285156 31.601562 C 3.371094 33.402344 3.457031 35.203125 3.542969 37.003906 C 3.546875 37.066406 3.550781 37.132812 3.554688 37.195312 C 3.554688 37.261719 3.558594 37.324219 3.5625 37.390625 C 3.566406 37.453125 3.566406 37.519531 3.570312 37.585938 C 3.578125 37.710938 3.582031 37.839844 3.589844 37.96875 C 3.632812 38.867188 3.675781 39.761719 3.71875 40.65625 C 3.773438 41.8125 3.828125 42.964844 3.882812 44.121094 C 3.910156 44.675781 3.9375 45.234375 3.964844 45.789062 C 3.988281 46.300781 4.015625 46.808594 4.039062 47.320312 C 4.046875 47.503906 4.054688 47.6875 4.066406 47.871094 C 4.078125 48.125 4.089844 48.375 4.101562 48.625 C 4.105469 48.695312 4.105469 48.769531 4.109375 48.839844 C 4.132812 49.328125 4.132812 49.808594 4.132812 50.296875 C 3.339844 50.296875 2.546875 50.296875 1.730469 50.296875 C 1.414062 41.878906 1.101562 33.460938 0.757812 23.980469 C 0.746094 23.625 0.734375 23.269531 0.722656 22.917969 C 0.714844 22.785156 0.714844 22.785156 0.710938 22.648438 C 0.660156 21.199219 0.605469 19.746094 0.550781 18.292969 C 0.496094 16.773438 0.441406 15.25 0.386719 13.730469 C 0.355469 12.886719 0.324219 12.042969 0.296875 11.203125 C 0.269531 10.492188 0.242188 9.785156 0.21875 9.078125 C 0.207031 8.71875 0.191406 8.359375 0.179688 8 C 0.113281 6.277344 0.0820312 4.558594 0.0976562 2.835938 Z M 0.0976562 2.835938 "/>
<path style=" stroke:none;fill-rule:nonzero;fill:rgb(99.607843%,99.215686%,99.607843%);fill-opacity:1;" d="M 35.480469 0.472656 C 35.5 0.75 35.5 0.75 35.492188 1.109375 C 35.492188 1.175781 35.492188 1.242188 35.492188 1.308594 C 35.488281 1.527344 35.484375 1.742188 35.476562 1.960938 C 35.476562 2.109375 35.472656 2.261719 35.472656 2.410156 C 35.464844 2.804688 35.457031 3.203125 35.449219 3.597656 C 35.441406 4 35.433594 4.40625 35.429688 4.808594 C 35.414062 5.601562 35.398438 6.394531 35.382812 7.183594 C 35.097656 7.050781 34.90625 6.921875 34.6875 6.695312 C 34.382812 6.386719 34.0625 6.101562 33.730469 5.820312 C 33.570312 5.683594 33.417969 5.539062 33.269531 5.390625 C 32.816406 5.535156 32.503906 5.777344 32.140625 6.070312 C 32.019531 6.164062 31.902344 6.253906 31.78125 6.347656 C 31.722656 6.394531 31.667969 6.441406 31.605469 6.488281 C 31.382812 6.664062 31.15625 6.839844 30.929688 7.015625 C 30.832031 7.09375 30.832031 7.09375 30.726562 7.171875 C 30.578125 7.28125 30.578125 7.28125 30.480469 7.28125 C 30.554688 5.042969 30.660156 2.804688 30.769531 0.566406 C 31.410156 0.523438 32.050781 0.476562 32.691406 0.4375 C 32.90625 0.421875 33.125 0.40625 33.34375 0.390625 C 33.65625 0.367188 33.96875 0.347656 34.28125 0.328125 C 34.378906 0.320312 34.476562 0.3125 34.578125 0.304688 C 34.667969 0.300781 34.757812 0.292969 34.851562 0.289062 C 34.929688 0.28125 35.011719 0.277344 35.09375 0.273438 C 35.289062 0.285156 35.289062 0.285156 35.480469 0.472656 Z M 35.480469 0.472656 "/>
</g>
</svg>
