<?xml version="1.0" encoding="UTF-8"?>
<svg xmlns="http://www.w3.org/2000/svg" xmlns:xlink="http://www.w3.org/1999/xlink" width="40px" height="27px" viewBox="0 0 40 27" version="1.1">
<g id="surface1">
<path style=" stroke:none;fill-rule:nonzero;fill:rgb(99.607843%,81.176472%,31.37255%);fill-opacity:1;" d="M 23.773438 6.433594 C 24.5625 6.433594 25.351562 6.433594 26.164062 6.433594 C 26.164062 7.265625 26.164062 8.101562 26.164062 8.957031 C 25.914062 9 25.664062 9.042969 25.410156 9.085938 C 25.269531 9.558594 25.128906 10.03125 24.992188 10.503906 C 24.953125 10.636719 24.914062 10.765625 24.875 10.902344 C 24.640625 11.699219 24.433594 12.492188 24.253906 13.300781 C 24.144531 13.644531 24 13.855469 23.773438 14.128906 C 23.65625 14.394531 23.65625 14.394531 23.570312 14.660156 C 23.40625 15.128906 23.40625 15.128906 23.269531 15.265625 C 23.246094 15.515625 23.222656 15.765625 23.199219 16.015625 C 23.058594 16.964844 22.671875 17.492188 22.011719 18.167969 C 21.960938 18.242188 21.90625 18.3125 21.851562 18.386719 C 21.527344 18.792969 21.277344 19.019531 20.761719 19.128906 C 20.304688 19.152344 19.851562 19.152344 19.394531 19.136719 C 19.226562 19.136719 19.058594 19.132812 18.890625 19.132812 C 18.453125 19.128906 18.011719 19.121094 17.574219 19.113281 C 17.125 19.101562 16.675781 19.097656 16.226562 19.09375 C 15.34375 19.085938 14.464844 19.070312 13.585938 19.050781 C 13.265625 15.503906 13.265625 15.503906 13.761719 14.546875 C 14.199219 14.035156 14.746094 13.707031 15.335938 13.390625 C 15.726562 13.175781 16.039062 12.90625 16.375 12.617188 C 16.480469 12.535156 16.582031 12.449219 16.6875 12.363281 C 16.992188 12.109375 16.992188 12.109375 17.285156 11.800781 C 17.625 11.464844 17.976562 11.171875 18.355469 10.882812 C 18.546875 10.734375 18.546875 10.734375 18.738281 10.585938 C 19.140625 10.332031 19.402344 10.238281 19.875 10.21875 C 20 10.304688 20.125 10.386719 20.25 10.472656 C 20.207031 11.1875 20.117188 11.734375 19.75 12.363281 C 20.160156 12.363281 20.371094 12.074219 20.675781 11.8125 C 21.632812 10.996094 21.632812 10.996094 22.28125 10.945312 C 22.640625 10.976562 22.640625 10.976562 22.894531 11.230469 C 22.875 11.832031 22.839844 12.128906 22.5 12.632812 C 22.21875 12.984375 22.21875 12.984375 22.296875 13.421875 C 22.328125 13.53125 22.359375 13.640625 22.390625 13.753906 C 22.792969 13.484375 22.824219 13.429688 22.964844 12.996094 C 23.078125 12.644531 23.132812 12.503906 23.394531 12.238281 C 23.476562 11.964844 23.546875 11.691406 23.613281 11.414062 C 23.632812 11.332031 23.652344 11.25 23.671875 11.167969 C 23.734375 10.910156 23.792969 10.652344 23.851562 10.394531 C 23.894531 10.21875 23.933594 10.042969 23.976562 9.867188 C 24.078125 9.4375 24.175781 9.007812 24.277344 8.578125 C 24.199219 8.542969 24.121094 8.503906 24.039062 8.464844 C 23.753906 8.316406 23.582031 8.210938 23.394531 7.949219 C 23.410156 7.644531 23.410156 7.644531 23.492188 7.308594 C 23.515625 7.199219 23.542969 7.089844 23.566406 6.972656 C 23.648438 6.6875 23.648438 6.6875 23.773438 6.433594 Z M 23.773438 6.433594 "/>
<path style=" stroke:none;fill-rule:nonzero;fill:rgb(0%,0%,0%);fill-opacity:1;" d="M 0 0 C 13.199219 0 26.398438 0 40 0 C 40 8.910156 40 17.820312 40 27 C 26.800781 27 13.601562 27 0 27 C 0 18.089844 0 9.179688 0 0 Z M 0.503906 0.503906 C 0.503906 9.082031 0.503906 17.660156 0.503906 26.496094 C 13.371094 26.496094 26.238281 26.496094 39.496094 26.496094 C 39.496094 17.917969 39.496094 9.339844 39.496094 0.503906 C 26.628906 0.503906 13.761719 0.503906 0.503906 0.503906 Z M 0.503906 0.503906 "/>
<path style=" stroke:none;fill-rule:nonzero;fill:rgb(99.215686%,80.392158%,29.411766%);fill-opacity:1;" d="M 20.125 10.347656 C 20.1875 10.410156 20.1875 10.410156 20.25 10.472656 C 20.246094 11.179688 20.109375 11.75 19.75 12.363281 C 20.160156 12.363281 20.371094 12.074219 20.675781 11.8125 C 21.632812 10.996094 21.632812 10.996094 22.28125 10.945312 C 22.640625 10.976562 22.640625 10.976562 22.894531 11.230469 C 22.878906 12.042969 22.65625 12.617188 22.136719 13.246094 C 21.824219 13.46875 21.824219 13.46875 21.507812 13.625 C 21.296875 13.792969 21.089844 13.960938 20.878906 14.128906 C 20.445312 14.421875 20.261719 14.425781 19.75 14.382812 C 19.371094 14.128906 19.371094 14.128906 19.246094 14.003906 C 19.21875 14.074219 19.195312 14.144531 19.167969 14.21875 C 18.929688 14.613281 18.632812 14.90625 18.238281 15.140625 C 18.101562 15.175781 17.960938 15.210938 17.816406 15.246094 C 17.285156 15.417969 17.03125 15.640625 16.636719 16.03125 C 16.007812 16.644531 16.007812 16.644531 15.597656 16.78125 C 15.539062 16.84375 15.476562 16.90625 15.417969 16.96875 C 15.21875 17.160156 15.21875 17.160156 14.984375 17.210938 C 14.660156 17.300781 14.503906 17.441406 14.261719 17.671875 C 13.863281 18.042969 13.863281 18.042969 13.585938 18.042969 C 13.265625 15.417969 13.265625 15.417969 13.761719 14.597656 C 14.214844 14.101562 14.765625 13.75 15.335938 13.410156 C 15.714844 13.175781 16.039062 12.902344 16.375 12.617188 C 16.480469 12.535156 16.582031 12.449219 16.6875 12.363281 C 16.992188 12.109375 16.992188 12.109375 17.285156 11.800781 C 17.632812 11.460938 17.996094 11.171875 18.386719 10.882812 C 18.519531 10.785156 18.652344 10.683594 18.785156 10.585938 C 19.308594 10.210938 19.5 10.210938 20.125 10.347656 Z M 20.125 10.347656 "/>
<path style=" stroke:none;fill-rule:nonzero;fill:rgb(0%,0%,0%);fill-opacity:1;" d="M 11.320312 8.453125 C 11.484375 8.660156 11.484375 8.660156 11.652344 8.933594 C 11.707031 9.023438 11.761719 9.113281 11.820312 9.203125 C 11.949219 9.460938 11.949219 9.460938 11.949219 9.839844 C 11.664062 10.058594 11.664062 10.058594 11.261719 10.292969 C 11.191406 10.335938 11.121094 10.378906 11.046875 10.425781 C 10.808594 10.566406 10.574219 10.703125 10.339844 10.84375 C 10.097656 10.988281 9.855469 11.132812 9.613281 11.277344 C 9.449219 11.371094 9.289062 11.46875 9.125 11.566406 C 8.414062 11.992188 7.710938 12.429688 7.011719 12.878906 C 6.914062 12.941406 6.8125 13.003906 6.710938 13.070312 C 6.484375 13.214844 6.261719 13.355469 6.039062 13.5 C 6.929688 14.167969 7.871094 14.734375 8.824219 15.300781 C 9.882812 15.933594 10.917969 16.605469 11.949219 17.285156 C 11.773438 17.84375 11.496094 18.152344 11.070312 18.546875 C 9.707031 17.734375 8.34375 16.921875 7.015625 16.058594 C 6.558594 15.765625 6.105469 15.484375 5.621094 15.234375 C 5.539062 15.1875 5.457031 15.140625 5.371094 15.09375 C 5.152344 14.976562 4.925781 14.863281 4.703125 14.75 C 4.261719 14.210938 4.253906 13.742188 4.285156 13.054688 C 4.429688 12.519531 4.578125 12.375 5.023438 12.058594 C 5.304688 11.898438 5.585938 11.746094 5.871094 11.597656 C 6.023438 11.515625 6.171875 11.433594 6.320312 11.347656 C 6.621094 11.175781 6.925781 11.007812 7.230469 10.84375 C 7.886719 10.484375 8.519531 10.082031 9.152344 9.683594 C 9.359375 9.554688 9.570312 9.425781 9.777344 9.296875 C 10.105469 9.089844 10.429688 8.878906 10.75 8.660156 C 11.070312 8.453125 11.070312 8.453125 11.320312 8.453125 Z M 11.320312 8.453125 "/>
<path style=" stroke:none;fill-rule:nonzero;fill:rgb(0%,0%,0%);fill-opacity:1;" d="M 28.554688 8.328125 C 29.640625 8.933594 30.707031 9.566406 31.753906 10.25 C 32.304688 10.605469 32.863281 10.941406 33.445312 11.25 C 35.289062 12.253906 35.289062 12.253906 35.609375 12.925781 C 35.683594 13.351562 35.691406 13.636719 35.507812 14.035156 C 34.914062 14.855469 33.851562 15.316406 32.988281 15.792969 C 32.292969 16.183594 31.621094 16.617188 30.945312 17.046875 C 30.695312 17.203125 30.445312 17.359375 30.195312 17.515625 C 29.726562 17.808594 29.261719 18.109375 28.804688 18.421875 C 28.277344 18.230469 28.0625 17.894531 27.796875 17.410156 C 27.960938 16.925781 28.132812 16.867188 28.566406 16.605469 C 28.703125 16.523438 28.839844 16.441406 28.976562 16.359375 C 29.050781 16.316406 29.121094 16.273438 29.195312 16.226562 C 29.417969 16.09375 29.640625 15.957031 29.863281 15.824219 C 30.164062 15.640625 30.460938 15.457031 30.761719 15.277344 C 31.375 14.90625 31.984375 14.527344 32.59375 14.148438 C 32.695312 14.085938 32.796875 14.023438 32.902344 13.957031 C 33.132812 13.8125 33.359375 13.65625 33.585938 13.5 C 33.585938 13.417969 33.585938 13.332031 33.585938 13.246094 C 33.285156 13.027344 33.285156 13.027344 32.894531 12.800781 C 32.820312 12.757812 32.75 12.714844 32.675781 12.671875 C 32.4375 12.527344 32.203125 12.386719 31.964844 12.246094 C 31.804688 12.148438 31.644531 12.050781 31.480469 11.957031 C 31.160156 11.761719 30.839844 11.566406 30.515625 11.375 C 29.910156 11.011719 29.3125 10.644531 28.710938 10.273438 C 28.53125 10.164062 28.351562 10.054688 28.171875 9.941406 C 28.046875 9.867188 27.925781 9.792969 27.796875 9.714844 C 27.886719 9.316406 28.003906 9.0625 28.246094 8.738281 C 28.304688 8.660156 28.363281 8.582031 28.421875 8.503906 C 28.464844 8.445312 28.507812 8.386719 28.554688 8.328125 Z M 28.554688 8.328125 "/>
<path style=" stroke:none;fill-rule:nonzero;fill:rgb(83.137256%,43.137255%,66.666669%);fill-opacity:1;" d="M 23.773438 6.433594 C 24.5625 6.433594 25.351562 6.433594 26.164062 6.433594 C 26.164062 7.265625 26.164062 8.101562 26.164062 8.957031 C 25.789062 9.019531 25.789062 9.019531 25.410156 9.085938 C 25.269531 9.558594 25.128906 10.03125 24.992188 10.503906 C 24.953125 10.636719 24.914062 10.765625 24.875 10.902344 C 24.640625 11.699219 24.433594 12.492188 24.253906 13.300781 C 24.144531 13.644531 24 13.855469 23.773438 14.128906 C 23.660156 14.375 23.660156 14.375 23.578125 14.628906 C 23.546875 14.714844 23.515625 14.800781 23.480469 14.890625 C 23.410156 15.09375 23.347656 15.296875 23.285156 15.503906 C 23.09375 15.867188 22.890625 15.875 22.515625 16.023438 C 22.328125 16.152344 22.140625 16.289062 21.957031 16.425781 C 21.441406 16.78125 21.441406 16.78125 20.933594 16.765625 C 20.835938 16.726562 20.734375 16.691406 20.628906 16.652344 C 20.628906 16.53125 20.628906 16.40625 20.628906 16.277344 C 20.546875 16.277344 20.464844 16.277344 20.378906 16.277344 C 20.339844 15.933594 20.339844 15.933594 20.378906 15.519531 C 20.640625 15.207031 20.640625 15.207031 20.984375 14.917969 C 21.09375 14.824219 21.207031 14.726562 21.324219 14.628906 C 21.636719 14.382812 21.636719 14.382812 22.011719 14.128906 C 22.105469 13.679688 22.105469 13.679688 22.136719 13.246094 C 22.222656 13.414062 22.304688 13.582031 22.390625 13.753906 C 22.792969 13.484375 22.824219 13.429688 22.964844 12.996094 C 23.078125 12.644531 23.132812 12.503906 23.394531 12.238281 C 23.476562 11.964844 23.546875 11.691406 23.613281 11.414062 C 23.632812 11.332031 23.652344 11.25 23.671875 11.167969 C 23.734375 10.910156 23.792969 10.652344 23.851562 10.394531 C 23.894531 10.21875 23.933594 10.042969 23.976562 9.867188 C 24.078125 9.4375 24.175781 9.007812 24.277344 8.578125 C 24.199219 8.542969 24.121094 8.503906 24.039062 8.464844 C 23.753906 8.316406 23.582031 8.210938 23.394531 7.949219 C 23.410156 7.644531 23.410156 7.644531 23.492188 7.308594 C 23.515625 7.199219 23.542969 7.089844 23.566406 6.972656 C 23.648438 6.6875 23.648438 6.6875 23.773438 6.433594 Z M 23.773438 6.433594 "/>
<path style=" stroke:none;fill-rule:nonzero;fill:rgb(83.92157%,44.313726%,68.627453%);fill-opacity:1;" d="M 20.125 10.347656 C 20.167969 10.386719 20.207031 10.429688 20.25 10.472656 C 20.246094 11.179688 20.109375 11.75 19.75 12.363281 C 20.160156 12.363281 20.371094 12.074219 20.675781 11.8125 C 21.632812 10.996094 21.632812 10.996094 22.28125 10.945312 C 22.640625 10.976562 22.640625 10.976562 22.894531 11.230469 C 22.878906 12.042969 22.65625 12.617188 22.136719 13.246094 C 21.824219 13.46875 21.824219 13.46875 21.507812 13.625 C 21.296875 13.792969 21.089844 13.960938 20.878906 14.128906 C 20.445312 14.421875 20.261719 14.425781 19.75 14.382812 C 19.371094 14.128906 19.371094 14.128906 19.269531 13.6875 C 19.261719 13.542969 19.253906 13.398438 19.246094 13.246094 C 19.328125 13.164062 19.410156 13.082031 19.496094 12.996094 C 19.578125 12.734375 19.578125 12.734375 19.621094 12.492188 C 19.25 12.699219 18.953125 12.90625 18.640625 13.199219 C 18.121094 13.585938 17.875 13.648438 17.234375 13.625 C 16.796875 13.246094 16.699219 12.917969 16.605469 12.363281 C 19.054688 10.117188 19.054688 10.117188 20.125 10.347656 Z M 20.125 10.347656 "/>
<path style=" stroke:none;fill-rule:nonzero;fill:rgb(99.607843%,81.568629%,36.862746%);fill-opacity:1;" d="M 22.640625 15.769531 C 22.808594 15.769531 22.972656 15.769531 23.144531 15.769531 C 23.144531 16.855469 22.738281 17.390625 22.011719 18.167969 C 21.925781 18.285156 21.925781 18.285156 21.835938 18.402344 C 21.515625 18.792969 21.285156 19.019531 20.777344 19.121094 C 20.371094 19.136719 19.972656 19.128906 19.566406 19.105469 C 19.425781 19.101562 19.289062 19.097656 19.144531 19.09375 C 18.800781 19.085938 18.457031 19.070312 18.113281 19.050781 C 18.46875 18.601562 18.839844 18.195312 19.246094 17.789062 C 19.285156 17.707031 19.328125 17.625 19.371094 17.539062 C 19.453125 17.539062 19.535156 17.539062 19.621094 17.539062 C 19.664062 17.414062 19.707031 17.289062 19.75 17.160156 C 19.832031 17.160156 19.914062 17.160156 20 17.160156 C 20 17.074219 20 16.992188 20 16.90625 C 20.082031 16.90625 20.167969 16.90625 20.25 16.90625 C 20.25 16.65625 20.25 16.40625 20.25 16.148438 C 20.375 16.191406 20.5 16.234375 20.628906 16.277344 C 20.628906 16.402344 20.628906 16.527344 20.628906 16.652344 C 21.34375 16.765625 21.722656 16.472656 22.28125 16.074219 C 22.503906 15.914062 22.503906 15.914062 22.640625 15.769531 Z M 22.640625 15.769531 "/>
<path style=" stroke:none;fill-rule:nonzero;fill:rgb(70.588237%,36.862746%,56.078434%);fill-opacity:1;" d="M 23.773438 6.433594 C 24.5625 6.433594 25.351562 6.433594 26.164062 6.433594 C 26.226562 8.113281 26.226562 8.113281 25.941406 8.511719 C 25.660156 8.707031 25.660156 8.707031 25.15625 8.707031 C 25.15625 8.832031 25.15625 8.957031 25.15625 9.085938 C 25.074219 9.085938 24.992188 9.085938 24.90625 9.085938 C 24.894531 9.21875 24.886719 9.355469 24.875 9.496094 C 24.785156 10.230469 24.523438 10.914062 24.277344 11.609375 C 24.195312 11.609375 24.109375 11.609375 24.023438 11.609375 C 24.042969 11.199219 24.0625 10.789062 24.082031 10.378906 C 24.085938 10.203125 24.085938 10.203125 24.09375 10.027344 C 24.101562 9.914062 24.105469 9.800781 24.109375 9.683594 C 24.117188 9.53125 24.117188 9.53125 24.125 9.371094 C 24.148438 9.097656 24.203125 8.847656 24.277344 8.578125 C 24.203125 8.546875 24.125 8.511719 24.046875 8.476562 C 23.761719 8.320312 23.59375 8.210938 23.394531 7.949219 C 23.410156 7.644531 23.410156 7.644531 23.492188 7.308594 C 23.515625 7.199219 23.542969 7.089844 23.566406 6.972656 C 23.648438 6.6875 23.648438 6.6875 23.773438 6.433594 Z M 23.773438 6.433594 "/>
<path style=" stroke:none;fill-rule:nonzero;fill:rgb(84.313726%,44.313726%,67.058825%);fill-opacity:1;" d="M 19.875 10.597656 C 19.789062 11.101562 19.707031 11.609375 19.621094 12.113281 C 19.5 12.113281 19.375 12.113281 19.246094 12.113281 C 19.242188 12.199219 19.238281 12.289062 19.238281 12.378906 C 19.0625 12.921875 18.722656 13.210938 18.238281 13.5 C 17.890625 13.59375 17.597656 13.613281 17.234375 13.625 C 16.933594 12.894531 16.933594 12.894531 17.054688 12.503906 C 17.324219 12.003906 17.648438 11.6875 18.113281 11.355469 C 18.234375 11.246094 18.355469 11.136719 18.484375 11.023438 C 19.359375 10.339844 19.359375 10.339844 19.875 10.597656 Z M 19.875 10.597656 "/>
<path style=" stroke:none;fill-rule:nonzero;fill:rgb(99.215686%,78.039217%,22.352941%);fill-opacity:1;" d="M 20.25 15.644531 C 20.367188 16.023438 20.382812 16.132812 20.25 16.527344 C 20.335938 16.570312 20.417969 16.609375 20.503906 16.652344 C 20.421875 16.652344 20.335938 16.652344 20.25 16.652344 C 20.25 16.738281 20.25 16.820312 20.25 16.90625 C 20.167969 16.90625 20.085938 16.90625 20 16.90625 C 20 16.988281 20 17.074219 20 17.160156 C 19.828125 17.363281 19.828125 17.363281 19.621094 17.539062 C 19.539062 17.539062 19.457031 17.539062 19.371094 17.539062 C 19.351562 17.625 19.328125 17.710938 19.308594 17.796875 C 19.015625 18.367188 18.6875 18.757812 18.113281 19.050781 C 17.472656 19.125 16.867188 19.105469 16.226562 19.050781 C 16.308594 19.011719 16.390625 18.96875 16.476562 18.925781 C 16.476562 18.84375 16.476562 18.757812 16.476562 18.671875 C 16.699219 18.5 16.921875 18.328125 17.148438 18.164062 C 17.558594 17.859375 17.960938 17.546875 18.363281 17.230469 C 18.441406 17.171875 18.515625 17.109375 18.59375 17.046875 C 19.164062 16.597656 19.714844 16.132812 20.25 15.644531 Z M 20.25 15.644531 "/>
<path style=" stroke:none;fill-rule:nonzero;fill:rgb(63.529414%,25.098041%,47.058824%);fill-opacity:1;" d="M 20.125 10.347656 C 20.167969 10.386719 20.207031 10.429688 20.25 10.472656 C 20.246094 11.179688 20.109375 11.75 19.75 12.363281 C 20.160156 12.363281 20.371094 12.074219 20.675781 11.8125 C 21.632812 10.996094 21.632812 10.996094 22.28125 10.945312 C 22.640625 10.976562 22.640625 10.976562 22.894531 11.230469 C 22.898438 11.464844 22.898438 11.464844 22.863281 11.734375 C 22.851562 11.820312 22.839844 11.910156 22.828125 12 C 22.765625 12.238281 22.765625 12.238281 22.515625 12.492188 C 22.558594 12.074219 22.597656 11.65625 22.640625 11.230469 C 22.390625 11.269531 22.144531 11.3125 21.886719 11.355469 C 21.886719 11.4375 21.886719 11.523438 21.886719 11.609375 C 21.796875 11.617188 21.707031 11.625 21.613281 11.632812 C 21.148438 11.765625 20.960938 12.015625 20.628906 12.363281 C 20.378906 12.535156 20.125 12.703125 19.875 12.871094 C 19.832031 12.953125 19.792969 13.035156 19.75 13.121094 C 19.664062 13.078125 19.582031 13.039062 19.496094 12.996094 C 19.539062 12.828125 19.578125 12.664062 19.621094 12.492188 C 19.5 12.492188 19.375 12.492188 19.246094 12.492188 C 19.246094 12.367188 19.246094 12.242188 19.246094 12.113281 C 19.371094 12.113281 19.496094 12.113281 19.621094 12.113281 C 19.621094 12.035156 19.621094 11.957031 19.621094 11.878906 C 19.621094 11.449219 19.621094 11.023438 19.621094 10.597656 C 18.546875 11.019531 17.648438 11.6875 17.105469 12.742188 C 17.019531 13.019531 17.019531 13.019531 16.980469 13.246094 C 16.683594 12.949219 16.667969 12.769531 16.605469 12.363281 C 19.054688 10.117188 19.054688 10.117188 20.125 10.347656 Z M 20.125 10.347656 "/>
<path style=" stroke:none;fill-rule:nonzero;fill:rgb(98.039216%,78.823531%,21.960784%);fill-opacity:1;" d="M 16.730469 12.492188 C 16.769531 12.867188 16.8125 13.238281 16.855469 13.625 C 16.734375 13.65625 16.617188 13.6875 16.492188 13.722656 C 16.035156 13.90625 16.050781 13.964844 15.847656 14.382812 C 15.644531 14.582031 15.644531 14.582031 15.417969 14.761719 C 15.089844 15.03125 14.824219 15.285156 14.589844 15.644531 C 14.507812 15.601562 14.425781 15.5625 14.339844 15.519531 C 14.503906 15.226562 14.671875 14.9375 14.84375 14.636719 C 14.4375 14.949219 14.066406 15.273438 13.710938 15.644531 C 13.667969 15.394531 13.628906 15.144531 13.585938 14.886719 C 13.667969 14.820312 13.667969 14.820312 13.753906 14.75 C 14.015625 14.539062 14.277344 14.328125 14.535156 14.113281 C 14.625 14.042969 14.714844 13.972656 14.804688 13.898438 C 15.3125 13.484375 15.8125 13.066406 16.296875 12.625 C 16.476562 12.492188 16.476562 12.492188 16.730469 12.492188 Z M 16.730469 12.492188 "/>
<path style=" stroke:none;fill-rule:nonzero;fill:rgb(63.137257%,30.980393%,50.588238%);fill-opacity:1;" d="M 26.039062 8.199219 C 26.078125 8.199219 26.121094 8.199219 26.164062 8.199219 C 26.164062 8.449219 26.164062 8.699219 26.164062 8.957031 C 25.914062 9 25.664062 9.042969 25.410156 9.085938 C 25.269531 9.558594 25.128906 10.03125 24.992188 10.503906 C 24.953125 10.636719 24.914062 10.765625 24.875 10.902344 C 24.636719 11.710938 24.425781 12.519531 24.242188 13.339844 C 24.210938 13.433594 24.183594 13.527344 24.152344 13.625 C 24.027344 13.6875 24.027344 13.6875 23.898438 13.753906 C 23.980469 13.335938 24.066406 12.917969 24.152344 12.492188 C 23.777344 12.554688 23.777344 12.554688 23.394531 12.617188 C 23.355469 12.738281 23.320312 12.855469 23.277344 12.980469 C 23.144531 13.375 23.144531 13.375 23.019531 13.625 C 22.9375 13.585938 22.851562 13.542969 22.765625 13.5 C 22.824219 13.335938 22.882812 13.175781 22.941406 13.011719 C 22.972656 12.921875 23.003906 12.828125 23.039062 12.734375 C 23.144531 12.492188 23.144531 12.492188 23.394531 12.238281 C 23.488281 11.972656 23.488281 11.972656 23.558594 11.660156 C 23.585938 11.546875 23.613281 11.4375 23.640625 11.320312 C 23.667969 11.199219 23.699219 11.082031 23.726562 10.960938 C 23.753906 10.839844 23.785156 10.722656 23.8125 10.601562 C 23.886719 10.304688 23.957031 10.011719 24.023438 9.714844 C 24.066406 9.714844 24.109375 9.714844 24.152344 9.714844 C 24.109375 10.339844 24.066406 10.964844 24.023438 11.609375 C 24.109375 11.609375 24.191406 11.609375 24.277344 11.609375 C 24.3125 11.46875 24.347656 11.328125 24.382812 11.183594 C 24.558594 10.484375 24.730469 9.785156 24.90625 9.085938 C 24.988281 9.085938 25.070312 9.085938 25.15625 9.085938 C 25.15625 8.960938 25.15625 8.835938 25.15625 8.707031 C 25.40625 8.664062 25.65625 8.621094 25.910156 8.578125 C 25.953125 8.453125 25.996094 8.328125 26.039062 8.199219 Z M 26.039062 8.199219 "/>
<path style=" stroke:none;fill-rule:nonzero;fill:rgb(95.686275%,71.372551%,17.254902%);fill-opacity:1;" d="M 19.121094 13.246094 C 19.3125 13.632812 19.316406 13.828125 19.246094 14.257812 C 18.839844 14.753906 18.433594 15.089844 17.808594 15.253906 C 17.277344 15.417969 17.027344 15.644531 16.636719 16.03125 C 16.007812 16.644531 16.007812 16.644531 15.597656 16.78125 C 15.539062 16.84375 15.476562 16.90625 15.417969 16.96875 C 15.21875 17.160156 15.21875 17.160156 14.984375 17.210938 C 14.660156 17.300781 14.503906 17.441406 14.261719 17.671875 C 13.863281 18.042969 13.863281 18.042969 13.585938 18.042969 C 13.726562 17.613281 13.808594 17.558594 14.160156 17.300781 C 14.730469 16.871094 15.285156 16.421875 15.839844 15.96875 C 16.40625 15.503906 16.976562 15.042969 17.546875 14.589844 C 18.085938 14.15625 18.605469 13.707031 19.121094 13.246094 Z M 19.121094 13.246094 "/>
<path style=" stroke:none;fill-rule:nonzero;fill:rgb(68.627453%,29.803923%,46.666667%);fill-opacity:1;" d="M 24.152344 12.492188 C 24.195312 13.136719 24.039062 13.636719 23.796875 14.226562 C 23.746094 14.351562 23.746094 14.351562 23.699219 14.480469 C 23.519531 14.925781 23.425781 15.121094 23.019531 15.390625 C 23.019531 15.226562 23.019531 15.058594 23.019531 14.886719 C 22.769531 14.804688 22.519531 14.722656 22.265625 14.636719 C 22.429688 14.386719 22.597656 14.136719 22.765625 13.878906 C 22.671875 13.960938 22.578125 14.042969 22.476562 14.125 C 22.351562 14.230469 22.226562 14.335938 22.097656 14.445312 C 21.976562 14.550781 21.851562 14.65625 21.722656 14.765625 C 21.382812 15.015625 21.382812 15.015625 21.007812 15.015625 C 21.078125 14.960938 21.148438 14.90625 21.222656 14.851562 C 21.867188 14.363281 21.867188 14.363281 22.136719 13.632812 C 22.136719 13.507812 22.136719 13.378906 22.136719 13.246094 C 22.222656 13.414062 22.304688 13.582031 22.390625 13.753906 C 22.597656 13.710938 22.804688 13.667969 23.019531 13.625 C 23.050781 13.507812 23.085938 13.390625 23.121094 13.269531 C 23.355469 12.636719 23.460938 12.492188 24.152344 12.492188 Z M 24.152344 12.492188 "/>
<path style=" stroke:none;fill-rule:nonzero;fill:rgb(98.823529%,64.313728%,86.666667%);fill-opacity:1;" d="M 24.402344 6.433594 C 24.859375 6.433594 25.316406 6.433594 25.785156 6.433594 C 25.707031 7.164062 25.578125 7.867188 25.410156 8.578125 C 24.433594 8.46875 24.433594 8.46875 24.152344 8.328125 C 24.125 7.628906 24.183594 7.097656 24.402344 6.433594 Z M 24.402344 6.433594 "/>
<path style=" stroke:none;fill-rule:nonzero;fill:rgb(98.823529%,77.254903%,21.960784%);fill-opacity:1;" d="M 15.472656 17.03125 C 15.511719 17.242188 15.554688 17.449219 15.597656 17.664062 C 15.53125 17.722656 15.464844 17.78125 15.394531 17.839844 C 15.304688 17.917969 15.21875 17.992188 15.125 18.074219 C 15.035156 18.152344 14.941406 18.234375 14.847656 18.316406 C 14.578125 18.550781 14.578125 18.550781 14.308594 18.855469 C 14.089844 19.050781 14.089844 19.050781 13.585938 19.050781 C 13.511719 18.644531 13.476562 18.433594 13.585938 18.042969 C 14.109375 17.449219 14.648438 16.949219 15.472656 17.03125 Z M 15.472656 17.03125 "/>
<path style=" stroke:none;fill-rule:nonzero;fill:rgb(97.254902%,75.686276%,37.64706%);fill-opacity:1;" d="M 21.761719 13.246094 C 21.886719 13.246094 22.011719 13.246094 22.136719 13.246094 C 22.207031 13.609375 22.238281 13.785156 22.136719 14.128906 C 21.796875 14.515625 21.414062 14.828125 21.007812 15.140625 C 20.921875 14.972656 20.839844 14.808594 20.753906 14.636719 C 20.214844 14.636719 19.675781 14.636719 19.121094 14.636719 C 19.121094 14.261719 19.121094 13.886719 19.121094 13.5 C 19.371094 13.753906 19.371094 13.753906 19.371094 14.128906 C 19.882812 14.261719 20.3125 14.355469 20.792969 14.105469 C 21.140625 13.839844 21.453125 13.558594 21.761719 13.246094 Z M 21.761719 13.246094 "/>
<path style=" stroke:none;fill-rule:nonzero;fill:rgb(90.980393%,63.529414%,9.803922%);fill-opacity:1;" d="M 20.25 15.644531 C 20.3125 15.894531 20.3125 15.894531 20.378906 16.148438 C 20.113281 16.355469 19.855469 16.539062 19.566406 16.710938 C 19.015625 17.046875 18.597656 17.421875 18.183594 17.914062 C 17.816406 18.347656 17.46875 18.636719 16.980469 18.925781 C 16.941406 18.96875 16.898438 19.007812 16.855469 19.050781 C 16.644531 19.054688 16.4375 19.058594 16.226562 19.050781 C 16.308594 19.011719 16.390625 18.96875 16.476562 18.925781 C 16.476562 18.84375 16.476562 18.757812 16.476562 18.671875 C 16.699219 18.5 16.921875 18.328125 17.148438 18.164062 C 17.558594 17.859375 17.960938 17.546875 18.363281 17.230469 C 18.441406 17.171875 18.515625 17.109375 18.59375 17.046875 C 19.164062 16.597656 19.714844 16.132812 20.25 15.644531 Z M 20.25 15.644531 "/>
<path style=" stroke:none;fill-rule:nonzero;fill:rgb(63.137257%,24.705882%,45.490196%);fill-opacity:1;" d="M 22.640625 10.976562 C 22.894531 11.230469 22.894531 11.230469 22.898438 11.464844 C 22.886719 11.554688 22.875 11.640625 22.863281 11.734375 C 22.851562 11.820312 22.839844 11.910156 22.828125 12 C 22.765625 12.238281 22.765625 12.238281 22.515625 12.492188 C 22.558594 12.074219 22.597656 11.65625 22.640625 11.230469 C 22.390625 11.269531 22.144531 11.3125 21.886719 11.355469 C 21.886719 11.4375 21.886719 11.523438 21.886719 11.609375 C 21.796875 11.617188 21.707031 11.625 21.613281 11.632812 C 21.148438 11.765625 20.960938 12.015625 20.628906 12.363281 C 20.378906 12.535156 20.125 12.703125 19.875 12.871094 C 19.832031 12.953125 19.792969 13.035156 19.75 13.121094 C 19.664062 13.078125 19.582031 13.039062 19.496094 12.996094 C 19.496094 12.746094 19.496094 12.496094 19.496094 12.238281 C 19.683594 12.363281 19.683594 12.363281 19.875 12.492188 C 19.933594 12.433594 19.996094 12.378906 20.058594 12.320312 C 21.714844 10.820312 21.714844 10.820312 22.640625 10.976562 Z M 22.640625 10.976562 "/>
<path style=" stroke:none;fill-rule:nonzero;fill:rgb(82.352942%,41.568628%,64.705884%);fill-opacity:1;" d="M 24.152344 12.492188 C 24.195312 13.105469 24.097656 13.480469 23.773438 14.003906 C 23.445312 14.3125 23.351562 14.382812 22.894531 14.382812 C 22.894531 14.214844 22.894531 14.050781 22.894531 13.878906 C 22.976562 13.878906 23.058594 13.878906 23.144531 13.878906 C 23.15625 13.71875 23.171875 13.5625 23.183594 13.398438 C 23.226562 13.070312 23.253906 12.894531 23.433594 12.617188 C 23.648438 12.492188 23.648438 12.492188 24.152344 12.492188 Z M 24.152344 12.492188 "/>
<path style=" stroke:none;fill-rule:nonzero;fill:rgb(89.019608%,54.11765%,75.294119%);fill-opacity:1;" d="M 24.527344 8.707031 C 24.695312 8.746094 24.859375 8.789062 25.03125 8.832031 C 24.953125 9.152344 24.875 9.472656 24.796875 9.792969 C 24.773438 9.882812 24.75 9.972656 24.730469 10.066406 C 24.601562 10.589844 24.453125 11.097656 24.277344 11.609375 C 24.195312 11.609375 24.109375 11.609375 24.023438 11.609375 C 24.035156 11.289062 24.050781 10.972656 24.066406 10.652344 C 24.066406 10.5625 24.070312 10.476562 24.074219 10.382812 C 24.105469 9.746094 24.246094 9.28125 24.527344 8.707031 Z M 24.527344 8.707031 "/>
<path style=" stroke:none;fill-rule:nonzero;fill:rgb(94.509804%,67.843139%,14.509805%);fill-opacity:1;" d="M 17.105469 15.140625 C 17.105469 15.222656 17.105469 15.308594 17.105469 15.390625 C 17.011719 15.46875 16.914062 15.542969 16.816406 15.621094 C 16.464844 15.875 16.464844 15.875 16.28125 16.226562 C 16.078125 16.566406 15.949219 16.625 15.597656 16.78125 C 15.535156 16.84375 15.472656 16.910156 15.410156 16.976562 C 15.21875 17.160156 15.21875 17.160156 14.984375 17.210938 C 14.660156 17.300781 14.507812 17.441406 14.261719 17.671875 C 13.863281 18.042969 13.863281 18.042969 13.585938 18.042969 C 13.726562 17.613281 13.808594 17.558594 14.160156 17.300781 C 14.566406 16.996094 14.964844 16.683594 15.355469 16.359375 C 15.445312 16.285156 15.535156 16.210938 15.628906 16.132812 C 15.8125 15.980469 15.992188 15.832031 16.175781 15.679688 C 16.257812 15.609375 16.34375 15.539062 16.429688 15.46875 C 16.507812 15.40625 16.582031 15.339844 16.660156 15.277344 C 16.855469 15.140625 16.855469 15.140625 17.105469 15.140625 Z M 17.105469 15.140625 "/>
<path style=" stroke:none;fill-rule:nonzero;fill:rgb(80.000001%,40.784314%,64.313728%);fill-opacity:1;" d="M 25.785156 6.433594 C 25.910156 6.433594 26.035156 6.433594 26.164062 6.433594 C 26.175781 6.71875 26.1875 7.003906 26.195312 7.285156 C 26.199219 7.445312 26.207031 7.601562 26.210938 7.765625 C 26.164062 8.199219 26.164062 8.199219 25.941406 8.511719 C 25.660156 8.707031 25.660156 8.707031 25.15625 8.707031 C 25.117188 8.832031 25.074219 8.957031 25.03125 9.085938 C 24.949219 8.917969 24.867188 8.75 24.78125 8.578125 C 24.988281 8.578125 25.195312 8.578125 25.410156 8.578125 C 25.425781 8.46875 25.441406 8.355469 25.460938 8.238281 C 25.480469 8.089844 25.503906 7.941406 25.527344 7.789062 C 25.546875 7.644531 25.570312 7.5 25.59375 7.347656 C 25.644531 7.035156 25.703125 6.738281 25.785156 6.433594 Z M 25.785156 6.433594 "/>
<path style=" stroke:none;fill-rule:nonzero;fill:rgb(62.352943%,27.843139%,46.666667%);fill-opacity:1;" d="M 23.773438 10.722656 C 23.816406 10.722656 23.855469 10.722656 23.898438 10.722656 C 23.914062 11.6875 23.914062 11.6875 23.773438 12.113281 C 23.980469 12.113281 24.1875 12.113281 24.402344 12.113281 C 24.390625 12.316406 24.378906 12.515625 24.363281 12.71875 C 24.355469 12.832031 24.347656 12.945312 24.339844 13.0625 C 24.277344 13.375 24.277344 13.375 23.898438 13.753906 C 23.980469 13.335938 24.066406 12.917969 24.152344 12.492188 C 23.902344 12.53125 23.652344 12.574219 23.394531 12.617188 C 23.355469 12.738281 23.320312 12.855469 23.277344 12.980469 C 23.144531 13.375 23.144531 13.375 23.019531 13.625 C 22.9375 13.585938 22.851562 13.542969 22.765625 13.5 C 22.824219 13.335938 22.882812 13.175781 22.941406 13.011719 C 22.972656 12.921875 23.003906 12.828125 23.039062 12.734375 C 23.144531 12.492188 23.144531 12.492188 23.394531 12.238281 C 23.472656 11.984375 23.539062 11.726562 23.601562 11.464844 C 23.648438 11.257812 23.648438 11.257812 23.699219 11.046875 C 23.722656 10.941406 23.75 10.832031 23.773438 10.722656 Z M 23.773438 10.722656 "/>
<path style=" stroke:none;fill-rule:nonzero;fill:rgb(95.686275%,77.64706%,28.627452%);fill-opacity:1;" d="M 23.019531 15.769531 C 23.058594 15.769531 23.101562 15.769531 23.144531 15.769531 C 23.144531 16.859375 22.734375 17.382812 22.011719 18.167969 C 21.929688 18.257812 21.847656 18.351562 21.761719 18.445312 C 21.34375 18.886719 21.34375 18.886719 21.132812 19.050781 C 21.007812 19.050781 20.882812 19.050781 20.753906 19.050781 C 20.753906 18.925781 20.753906 18.800781 20.753906 18.671875 C 20.851562 18.640625 20.953125 18.605469 21.054688 18.570312 C 21.453125 18.390625 21.566406 18.175781 21.761719 17.789062 C 21.886719 17.75 22.011719 17.707031 22.136719 17.664062 C 22.179688 17.457031 22.222656 17.246094 22.265625 17.03125 C 22.347656 17.03125 22.429688 17.03125 22.515625 17.03125 C 22.53125 16.957031 22.546875 16.882812 22.5625 16.804688 C 22.640625 16.527344 22.640625 16.527344 22.894531 16.148438 C 22.933594 16.023438 22.976562 15.898438 23.019531 15.769531 Z M 23.019531 15.769531 "/>
<path style=" stroke:none;fill-rule:nonzero;fill:rgb(97.647059%,71.764708%,30.588236%);fill-opacity:1;" d="M 19.621094 12.492188 C 19.613281 12.765625 19.613281 12.765625 19.496094 13.121094 C 19.222656 13.363281 18.925781 13.5625 18.617188 13.753906 C 18.617188 13.667969 18.617188 13.585938 18.617188 13.5 C 18.492188 13.582031 18.367188 13.667969 18.238281 13.753906 C 18.003906 13.808594 17.761719 13.855469 17.523438 13.894531 C 17.398438 13.914062 17.273438 13.9375 17.144531 13.957031 C 17.050781 13.972656 16.953125 13.988281 16.855469 14.003906 C 16.855469 13.667969 16.855469 13.332031 16.855469 12.996094 C 16.980469 13.160156 17.105469 13.328125 17.234375 13.5 C 18.074219 13.484375 18.433594 13.277344 19.023438 12.679688 C 19.246094 12.492188 19.246094 12.492188 19.621094 12.492188 Z M 19.621094 12.492188 "/>
<path style=" stroke:none;fill-rule:nonzero;fill:rgb(76.47059%,37.64706%,54.11765%);fill-opacity:1;" d="M 21.257812 11.609375 C 21.339844 11.648438 21.425781 11.691406 21.507812 11.734375 C 21.359375 12.191406 21.28125 12.164062 20.878906 12.363281 C 20.839844 12.488281 20.796875 12.613281 20.753906 12.742188 C 20.527344 12.894531 20.527344 12.894531 20.25 13.042969 C 19.824219 13.285156 19.824219 13.285156 19.621094 13.730469 C 19.621094 13.820312 19.621094 13.910156 19.621094 14.003906 C 19.707031 14.003906 19.789062 14.003906 19.875 14.003906 C 19.875 14.089844 19.875 14.171875 19.875 14.257812 C 20.039062 14.296875 20.207031 14.339844 20.378906 14.382812 C 19.910156 14.410156 19.777344 14.402344 19.371094 14.128906 C 19.285156 13.671875 19.285156 13.671875 19.246094 13.246094 C 19.324219 13.234375 19.40625 13.222656 19.488281 13.207031 C 19.617188 13.164062 19.617188 13.164062 19.75 13.121094 C 19.789062 12.996094 19.832031 12.871094 19.875 12.742188 C 20.210938 12.496094 20.539062 12.28125 20.917969 12.105469 C 21.175781 11.992188 21.175781 11.992188 21.257812 11.609375 Z M 21.257812 11.609375 "/>
<path style=" stroke:none;fill-rule:nonzero;fill:rgb(93.333334%,52.549022%,76.862746%);fill-opacity:1;" d="M 25.28125 6.433594 C 25.449219 6.433594 25.613281 6.433594 25.785156 6.433594 C 25.707031 7.164062 25.578125 7.867188 25.410156 8.578125 C 25.242188 8.578125 25.078125 8.578125 24.90625 8.578125 C 24.945312 8.269531 24.984375 7.960938 25.023438 7.648438 C 25.035156 7.5625 25.046875 7.472656 25.058594 7.382812 C 25.144531 6.714844 25.144531 6.714844 25.28125 6.433594 Z M 25.28125 6.433594 "/>
<path style=" stroke:none;fill-rule:nonzero;fill:rgb(82.352942%,52.941179%,9.019608%);fill-opacity:1;" d="M 15.976562 12.871094 C 16.058594 12.910156 16.140625 12.953125 16.226562 12.996094 C 15.714844 13.816406 15.285156 14.332031 14.339844 14.636719 C 14.296875 14.761719 14.257812 14.886719 14.214844 15.015625 C 14.007812 15.054688 13.796875 15.097656 13.585938 15.140625 C 13.761719 14.613281 14.140625 14.398438 14.566406 14.074219 C 15.066406 13.695312 15.546875 13.328125 15.976562 12.871094 Z M 15.976562 12.871094 "/>
<path style=" stroke:none;fill-rule:nonzero;fill:rgb(72.549021%,32.156864%,54.509807%);fill-opacity:1;" d="M 19.828125 10.3125 C 20.125 10.347656 20.125 10.347656 20.25 10.472656 C 20.246094 11.128906 20.171875 11.714844 19.75 12.238281 C 19.664062 12.238281 19.582031 12.238281 19.496094 12.238281 C 19.496094 12.320312 19.496094 12.40625 19.496094 12.492188 C 19.414062 12.492188 19.332031 12.492188 19.246094 12.492188 C 19.246094 12.367188 19.246094 12.242188 19.246094 12.113281 C 19.371094 12.113281 19.496094 12.113281 19.621094 12.113281 C 19.621094 12.035156 19.621094 11.957031 19.621094 11.878906 C 19.621094 11.449219 19.621094 11.023438 19.621094 10.597656 C 19.457031 10.640625 19.289062 10.679688 19.121094 10.722656 C 19.351562 10.429688 19.445312 10.351562 19.828125 10.3125 Z M 19.828125 10.3125 "/>
<path style=" stroke:none;fill-rule:nonzero;fill:rgb(99.607843%,76.47059%,21.176471%);fill-opacity:1;" d="M 16.476562 12.492188 C 16.5625 12.492188 16.644531 12.492188 16.730469 12.492188 C 16.769531 12.867188 16.8125 13.238281 16.855469 13.625 C 16.71875 13.640625 16.582031 13.652344 16.4375 13.664062 C 15.992188 13.75 15.859375 13.777344 15.597656 14.128906 C 15.515625 14.089844 15.429688 14.046875 15.347656 14.003906 C 15.417969 13.941406 15.492188 13.875 15.566406 13.808594 C 15.90625 13.4375 16.109375 13.058594 16.351562 12.617188 C 16.394531 12.574219 16.433594 12.535156 16.476562 12.492188 Z M 16.476562 12.492188 "/>
<path style=" stroke:none;fill-rule:nonzero;fill:rgb(76.078433%,37.64706%,52.941179%);fill-opacity:1;" d="M 22.136719 11.230469 C 22.304688 11.230469 22.46875 11.230469 22.640625 11.230469 C 22.691406 12.054688 22.5 12.523438 22.136719 13.246094 C 21.929688 13.375 21.71875 13.5 21.507812 13.625 C 21.296875 13.792969 21.085938 13.960938 20.878906 14.128906 C 20.796875 14.089844 20.714844 14.046875 20.628906 14.003906 C 20.730469 13.925781 20.832031 13.847656 20.933594 13.769531 C 21.261719 13.53125 21.261719 13.53125 21.382812 13.246094 C 21.464844 13.246094 21.550781 13.246094 21.636719 13.246094 C 21.636719 13.164062 21.636719 13.082031 21.636719 12.996094 C 21.757812 12.996094 21.882812 12.996094 22.011719 12.996094 C 22.054688 12.828125 22.09375 12.664062 22.136719 12.492188 C 22.222656 12.492188 22.304688 12.492188 22.390625 12.492188 C 22.390625 12.117188 22.390625 11.742188 22.390625 11.355469 C 22.308594 11.3125 22.222656 11.273438 22.136719 11.230469 Z M 22.136719 11.230469 "/>
<path style=" stroke:none;fill-rule:nonzero;fill:rgb(80.784315%,38.039216%,62.7451%);fill-opacity:1;" d="M 18.363281 11.355469 C 18.214844 11.761719 18.074219 11.886719 17.71875 12.160156 C 17.316406 12.457031 17.316406 12.457031 17.3125 12.910156 C 17.335938 13.078125 17.335938 13.078125 17.359375 13.246094 C 17.691406 13.246094 18.023438 13.246094 18.363281 13.246094 C 18.324219 13.332031 18.28125 13.414062 18.238281 13.5 C 17.90625 13.574219 17.574219 13.59375 17.234375 13.625 C 16.933594 12.894531 16.933594 12.894531 17.054688 12.503906 C 17.328125 12.003906 17.742188 11.355469 18.363281 11.355469 Z M 18.363281 11.355469 "/>
<path style=" stroke:none;fill-rule:nonzero;fill:rgb(98.823529%,74.901962%,20.784314%);fill-opacity:1;" d="M 17.734375 17.160156 C 17.820312 17.160156 17.902344 17.160156 17.988281 17.160156 C 18.027344 17.285156 18.070312 17.410156 18.113281 17.539062 C 17.886719 17.726562 17.664062 17.917969 17.4375 18.105469 C 17.3125 18.210938 17.1875 18.316406 17.058594 18.425781 C 16.730469 18.671875 16.730469 18.671875 16.476562 18.671875 C 16.476562 18.757812 16.476562 18.839844 16.476562 18.925781 C 16.351562 18.96875 16.230469 19.007812 16.101562 19.050781 C 16.132812 18.75 16.132812 18.75 16.226562 18.421875 C 16.546875 18.195312 16.707031 18.167969 17.105469 18.167969 C 17.105469 18 17.105469 17.835938 17.105469 17.664062 C 17.273438 17.664062 17.4375 17.664062 17.609375 17.664062 C 17.652344 17.496094 17.691406 17.332031 17.734375 17.160156 Z M 17.734375 17.160156 "/>
<path style=" stroke:none;fill-rule:nonzero;fill:rgb(49.803922%,21.960784%,39.215687%);fill-opacity:1;" d="M 26.039062 8.199219 C 26.078125 8.199219 26.121094 8.199219 26.164062 8.199219 C 26.164062 8.449219 26.164062 8.699219 26.164062 8.957031 C 25.914062 9 25.664062 9.042969 25.410156 9.085938 C 25.285156 9.5 25.160156 9.917969 25.03125 10.347656 C 24.988281 10.347656 24.949219 10.347656 24.90625 10.347656 C 24.921875 10.144531 24.941406 9.941406 24.960938 9.738281 C 24.972656 9.625 24.980469 9.511719 24.992188 9.398438 C 25.03125 9.085938 25.03125 9.085938 25.15625 8.707031 C 25.40625 8.664062 25.65625 8.621094 25.910156 8.578125 C 25.953125 8.453125 25.996094 8.328125 26.039062 8.199219 Z M 26.039062 8.199219 "/>
<path style=" stroke:none;fill-rule:nonzero;fill:rgb(86.666667%,58.823532%,6.27451%);fill-opacity:1;" d="M 15.847656 16.023438 C 15.847656 16.148438 15.847656 16.273438 15.847656 16.402344 C 15.429688 16.78125 15.429688 16.78125 15.09375 16.78125 C 15.09375 16.863281 15.09375 16.945312 15.09375 17.03125 C 14.828125 17.277344 14.828125 17.277344 14.480469 17.554688 C 14.367188 17.644531 14.253906 17.734375 14.136719 17.832031 C 13.835938 18.042969 13.835938 18.042969 13.585938 18.042969 C 13.730469 17.601562 13.855469 17.519531 14.222656 17.246094 C 14.375 17.132812 14.375 17.132812 14.527344 17.015625 C 14.632812 16.9375 14.734375 16.859375 14.84375 16.78125 C 15.035156 16.636719 15.226562 16.492188 15.417969 16.347656 C 15.5625 16.238281 15.703125 16.132812 15.847656 16.023438 Z M 15.847656 16.023438 "/>
<path style=" stroke:none;fill-rule:nonzero;fill:rgb(76.47059%,43.529412%,62.352943%);fill-opacity:1;" d="M 24.023438 9.714844 C 24.066406 9.714844 24.109375 9.714844 24.152344 9.714844 C 24.109375 10.339844 24.066406 10.964844 24.023438 11.609375 C 24.109375 11.609375 24.191406 11.609375 24.277344 11.609375 C 24.316406 11.523438 24.359375 11.441406 24.402344 11.355469 C 24.402344 11.605469 24.402344 11.855469 24.402344 12.113281 C 24.195312 12.113281 23.988281 12.113281 23.773438 12.113281 C 23.792969 11.785156 23.808594 11.453125 23.828125 11.125 C 23.835938 10.988281 23.835938 10.988281 23.84375 10.84375 C 23.867188 10.441406 23.898438 10.097656 24.023438 9.714844 Z M 24.023438 9.714844 "/>
<path style=" stroke:none;fill-rule:nonzero;fill:rgb(74.117649%,38.039216%,41.568628%);fill-opacity:1;" d="M 21.007812 15.140625 C 20.960938 15.230469 20.917969 15.324219 20.871094 15.417969 C 20.742188 15.808594 20.769531 16.007812 20.878906 16.402344 C 21.253906 16.464844 21.253906 16.464844 21.636719 16.527344 C 21.550781 16.609375 21.46875 16.695312 21.382812 16.78125 C 20.992188 16.734375 20.992188 16.734375 20.628906 16.652344 C 20.628906 16.53125 20.628906 16.40625 20.628906 16.277344 C 20.546875 16.277344 20.464844 16.277344 20.378906 16.277344 C 20.332031 15.582031 20.332031 15.582031 20.550781 15.28125 C 20.753906 15.140625 20.753906 15.140625 21.007812 15.140625 Z M 21.007812 15.140625 "/>
<path style=" stroke:none;fill-rule:nonzero;fill:rgb(65.882355%,26.274511%,42.352942%);fill-opacity:1;" d="M 20.878906 11.609375 C 20.921875 11.691406 20.964844 11.773438 21.007812 11.859375 C 20.394531 12.644531 20.394531 12.644531 19.875 12.871094 C 19.832031 12.953125 19.792969 13.035156 19.75 13.121094 C 19.664062 13.078125 19.582031 13.039062 19.496094 12.996094 C 19.496094 12.746094 19.496094 12.496094 19.496094 12.238281 C 19.683594 12.363281 19.683594 12.363281 19.875 12.492188 C 20.371094 12.054688 20.371094 12.054688 20.878906 11.609375 Z M 20.878906 11.609375 "/>
<path style=" stroke:none;fill-rule:nonzero;fill:rgb(94.509804%,66.666669%,12.54902%);fill-opacity:1;" d="M 17.609375 18.042969 C 17.734375 18.082031 17.859375 18.125 17.988281 18.167969 C 17.6875 18.5 17.363281 18.703125 16.980469 18.925781 C 16.941406 18.96875 16.898438 19.007812 16.855469 19.050781 C 16.644531 19.054688 16.4375 19.058594 16.226562 19.050781 C 16.308594 19.011719 16.390625 18.96875 16.476562 18.925781 C 16.476562 18.84375 16.476562 18.757812 16.476562 18.671875 C 16.550781 18.636719 16.621094 18.601562 16.695312 18.566406 C 16.785156 18.519531 16.878906 18.476562 16.972656 18.429688 C 17.109375 18.359375 17.109375 18.359375 17.25 18.289062 C 17.480469 18.183594 17.480469 18.183594 17.609375 18.042969 Z M 17.609375 18.042969 "/>
<path style=" stroke:none;fill-rule:nonzero;fill:rgb(96.078432%,60.784316%,82.352942%);fill-opacity:1;" d="M 24.402344 9.839844 C 24.445312 9.839844 24.484375 9.839844 24.527344 9.839844 C 24.550781 10.5 24.523438 10.984375 24.277344 11.609375 C 24.195312 11.609375 24.109375 11.609375 24.023438 11.609375 C 24.023438 11.273438 24.023438 10.941406 24.023438 10.597656 C 24.109375 10.597656 24.191406 10.597656 24.277344 10.597656 C 24.316406 10.347656 24.359375 10.097656 24.402344 9.839844 Z M 24.402344 9.839844 "/>
<path style=" stroke:none;fill-rule:nonzero;fill:rgb(87.843138%,47.058824%,71.372551%);fill-opacity:1;" d="M 25.535156 6.433594 C 25.617188 6.433594 25.699219 6.433594 25.785156 6.433594 C 25.707031 7.164062 25.578125 7.867188 25.410156 8.578125 C 25.242188 8.578125 25.078125 8.578125 24.90625 8.578125 C 24.90625 8.496094 24.90625 8.414062 24.90625 8.328125 C 25.03125 8.242188 25.15625 8.160156 25.28125 8.074219 C 25.382812 7.683594 25.382812 7.683594 25.433594 7.238281 C 25.453125 7.089844 25.472656 6.9375 25.492188 6.785156 C 25.507812 6.667969 25.519531 6.554688 25.535156 6.433594 Z M 25.535156 6.433594 "/>
<path style=" stroke:none;fill-rule:nonzero;fill:rgb(71.764708%,34.509805%,57.254905%);fill-opacity:1;" d="M 25.910156 6.9375 C 25.996094 6.9375 26.078125 6.9375 26.164062 6.9375 C 26.171875 7.140625 26.175781 7.34375 26.179688 7.546875 C 26.183594 7.660156 26.183594 7.773438 26.1875 7.886719 C 26.164062 8.199219 26.164062 8.199219 25.910156 8.578125 C 25.828125 8.578125 25.746094 8.578125 25.660156 8.578125 C 25.742188 8.039062 25.828125 7.496094 25.910156 6.9375 Z M 25.910156 6.9375 "/>
<path style=" stroke:none;fill-rule:nonzero;fill:rgb(79.215688%,37.254903%,63.529414%);fill-opacity:1;" d="M 19.875 10.597656 C 19.875 10.679688 19.875 10.765625 19.875 10.851562 C 19.402344 10.992188 19.402344 10.992188 19.121094 10.851562 C 19.082031 10.929688 19.046875 11.011719 19.007812 11.09375 C 18.867188 11.355469 18.867188 11.355469 18.617188 11.480469 C 18.535156 11.398438 18.449219 11.316406 18.363281 11.230469 C 18.742188 10.789062 19.28125 10.300781 19.875 10.597656 Z M 19.875 10.597656 "/>
<path style=" stroke:none;fill-rule:nonzero;fill:rgb(91.764706%,75.686276%,24.313726%);fill-opacity:1;" d="M 21.636719 17.789062 C 21.84375 17.789062 22.050781 17.789062 22.265625 17.789062 C 22.144531 17.929688 22.027344 18.070312 21.910156 18.207031 C 21.8125 18.324219 21.8125 18.324219 21.710938 18.441406 C 21.644531 18.519531 21.578125 18.59375 21.507812 18.671875 C 21.445312 18.746094 21.382812 18.816406 21.320312 18.890625 C 21.132812 19.050781 21.132812 19.050781 20.753906 19.050781 C 20.753906 18.925781 20.753906 18.800781 20.753906 18.671875 C 20.851562 18.640625 20.953125 18.605469 21.054688 18.570312 C 21.417969 18.441406 21.417969 18.441406 21.636719 18.042969 C 21.636719 17.957031 21.636719 17.875 21.636719 17.789062 Z M 21.636719 17.789062 "/>
<path style=" stroke:none;fill-rule:nonzero;fill:rgb(98.823529%,74.509805%,18.82353%);fill-opacity:1;" d="M 15.09375 14.507812 C 15.09375 14.632812 15.09375 14.757812 15.09375 14.886719 C 15.011719 14.886719 14.929688 14.886719 14.84375 14.886719 C 14.84375 14.804688 14.84375 14.722656 14.84375 14.636719 C 14.53125 14.824219 14.53125 14.824219 14.214844 15.015625 C 14.253906 14.769531 14.253906 14.769531 14.339844 14.507812 C 14.71875 14.382812 14.71875 14.382812 15.09375 14.507812 Z M 13.960938 15.015625 C 14.046875 15.054688 14.128906 15.097656 14.214844 15.140625 C 14.046875 15.308594 13.882812 15.472656 13.710938 15.644531 C 13.710938 15.476562 13.710938 15.3125 13.710938 15.140625 C 13.792969 15.097656 13.875 15.058594 13.960938 15.015625 Z M 13.960938 15.015625 "/>
<path style=" stroke:none;fill-rule:nonzero;fill:rgb(82.745099%,40.784314%,63.921571%);fill-opacity:1;" d="M 23.648438 12.492188 C 23.8125 12.492188 23.980469 12.492188 24.152344 12.492188 C 24.195312 13.105469 24.078125 13.472656 23.773438 14.003906 C 23.730469 14.003906 23.691406 14.003906 23.648438 14.003906 C 23.640625 13.6875 23.636719 13.414062 23.71875 13.105469 C 23.800781 12.84375 23.800781 12.84375 23.648438 12.492188 Z M 23.648438 12.492188 "/>
<path style=" stroke:none;fill-rule:nonzero;fill:rgb(64.705884%,34.901962%,53.725493%);fill-opacity:1;" d="M 23.773438 8.199219 C 24.332031 8.324219 24.332031 8.324219 24.90625 8.453125 C 24.863281 8.535156 24.824219 8.621094 24.78125 8.707031 C 24.695312 8.707031 24.613281 8.707031 24.527344 8.707031 C 24.511719 8.78125 24.496094 8.855469 24.480469 8.933594 C 24.402344 9.210938 24.402344 9.210938 24.152344 9.589844 C 24.191406 9.253906 24.234375 8.921875 24.277344 8.578125 C 24.109375 8.496094 23.945312 8.414062 23.773438 8.328125 C 23.773438 8.285156 23.773438 8.242188 23.773438 8.199219 Z M 23.773438 8.199219 "/>
<path style=" stroke:none;fill-rule:nonzero;fill:rgb(98.823529%,77.254903%,33.725491%);fill-opacity:1;" d="M 20.25 16.148438 C 20.375 16.191406 20.5 16.234375 20.628906 16.277344 C 20.628906 16.402344 20.628906 16.527344 20.628906 16.652344 C 20.710938 16.652344 20.796875 16.652344 20.878906 16.652344 C 20.878906 16.820312 20.878906 16.988281 20.878906 17.160156 C 20.632812 17.242188 20.382812 17.324219 20.125 17.410156 C 20.164062 17.335938 20.203125 17.261719 20.242188 17.183594 C 20.390625 16.894531 20.390625 16.894531 20.503906 16.527344 C 20.421875 16.527344 20.335938 16.527344 20.25 16.527344 C 20.25 16.402344 20.25 16.277344 20.25 16.148438 Z M 20.25 16.148438 "/>
<path style=" stroke:none;fill-rule:nonzero;fill:rgb(95.686275%,71.372551%,32.941177%);fill-opacity:1;" d="M 19.121094 13.5 C 19.371094 13.753906 19.371094 13.753906 19.371094 14.128906 C 19.871094 14.253906 19.871094 14.253906 20.378906 14.382812 C 20.378906 14.425781 20.378906 14.464844 20.378906 14.507812 C 19.960938 14.550781 19.546875 14.59375 19.121094 14.636719 C 19.121094 14.261719 19.121094 13.886719 19.121094 13.5 Z M 19.121094 13.5 "/>
<path style=" stroke:none;fill-rule:nonzero;fill:rgb(58.039218%,20.784314%,39.607844%);fill-opacity:1;" d="M 23.394531 12.238281 C 23.523438 12.617188 23.523438 12.617188 23.425781 12.875 C 23.375 12.964844 23.328125 13.054688 23.277344 13.144531 C 23.230469 13.234375 23.183594 13.324219 23.132812 13.417969 C 23.078125 13.519531 23.078125 13.519531 23.019531 13.625 C 22.9375 13.585938 22.851562 13.542969 22.765625 13.5 C 22.824219 13.335938 22.882812 13.175781 22.941406 13.011719 C 22.972656 12.921875 23.003906 12.828125 23.039062 12.734375 C 23.144531 12.492188 23.144531 12.492188 23.394531 12.238281 Z M 23.394531 12.238281 "/>
<path style=" stroke:none;fill-rule:nonzero;fill:rgb(99.607843%,77.254903%,24.705882%);fill-opacity:1;" d="M 17.734375 17.160156 C 17.820312 17.160156 17.902344 17.160156 17.988281 17.160156 C 18.027344 17.285156 18.070312 17.410156 18.113281 17.539062 C 17.824219 17.796875 17.824219 17.796875 17.484375 18.042969 C 17.359375 18 17.234375 17.957031 17.105469 17.914062 C 17.105469 17.832031 17.105469 17.75 17.105469 17.664062 C 17.273438 17.664062 17.4375 17.664062 17.609375 17.664062 C 17.652344 17.496094 17.691406 17.332031 17.734375 17.160156 Z M 17.734375 17.160156 "/>
<path style=" stroke:none;fill-rule:nonzero;fill:rgb(94.901961%,69.803923%,38.039216%);fill-opacity:1;" d="M 16.730469 12.996094 C 16.792969 13.078125 16.859375 13.160156 16.925781 13.246094 C 17.332031 13.582031 17.601562 13.539062 18.113281 13.5 C 18.070312 13.582031 18.03125 13.667969 17.988281 13.753906 C 17.726562 13.832031 17.726562 13.832031 17.414062 13.894531 C 17.308594 13.914062 17.207031 13.9375 17.097656 13.957031 C 17.019531 13.972656 16.9375 13.988281 16.855469 14.003906 C 16.859375 13.910156 16.859375 13.8125 16.863281 13.714844 C 16.871094 13.359375 16.871094 13.359375 16.730469 12.996094 Z M 16.730469 12.996094 "/>
<path style=" stroke:none;fill-rule:nonzero;fill:rgb(68.627453%,29.803923%,43.137255%);fill-opacity:1;" d="M 16.980469 12.113281 C 17.105469 12.152344 17.230469 12.195312 17.359375 12.238281 C 17.121094 12.964844 17.121094 12.964844 16.980469 13.246094 C 16.683594 12.949219 16.667969 12.769531 16.605469 12.363281 C 16.726562 12.28125 16.851562 12.199219 16.980469 12.113281 Z M 16.980469 12.113281 "/>
<path style=" stroke:none;fill-rule:nonzero;fill:rgb(78.823531%,41.176471%,61.56863%);fill-opacity:1;" d="M 23.898438 6.433594 C 23.980469 6.433594 24.066406 6.433594 24.152344 6.433594 C 24.0625 7.515625 24.0625 7.515625 23.648438 7.949219 C 23.621094 7.386719 23.699219 6.960938 23.898438 6.433594 Z M 23.898438 6.433594 "/>
<path style=" stroke:none;fill-rule:nonzero;fill:rgb(98.823529%,74.509805%,21.176471%);fill-opacity:1;" d="M 14.464844 16.78125 C 14.589844 16.820312 14.714844 16.863281 14.84375 16.90625 C 14.511719 17.15625 14.179688 17.40625 13.835938 17.664062 C 13.960938 17.160156 13.960938 17.160156 14.199219 16.929688 C 14.285156 16.878906 14.375 16.832031 14.464844 16.78125 Z M 14.464844 16.78125 "/>
<path style=" stroke:none;fill-rule:nonzero;fill:rgb(76.862746%,36.470589%,60.392159%);fill-opacity:1;" d="M 22.765625 13.878906 C 22.605469 14.238281 22.457031 14.527344 22.136719 14.761719 C 21.875 14.707031 21.875 14.707031 21.636719 14.636719 C 21.777344 14.507812 21.917969 14.382812 22.058594 14.257812 C 22.179688 14.152344 22.179688 14.152344 22.296875 14.042969 C 22.515625 13.878906 22.515625 13.878906 22.765625 13.878906 Z M 22.765625 13.878906 "/>
<path style=" stroke:none;fill-rule:nonzero;fill:rgb(77.64706%,40.784314%,56.470591%);fill-opacity:1;" d="M 22.136719 16.277344 C 21.886719 16.527344 21.886719 16.527344 21.640625 16.550781 C 21.386719 16.542969 21.132812 16.535156 20.878906 16.527344 C 20.839844 16.445312 20.796875 16.363281 20.753906 16.277344 C 21.6875 16.113281 21.6875 16.113281 22.136719 16.277344 Z M 22.136719 16.277344 "/>
<path style=" stroke:none;fill-rule:nonzero;fill:rgb(79.607844%,41.176471%,61.56863%);fill-opacity:1;" d="M 20.265625 13.871094 C 20.386719 13.914062 20.507812 13.960938 20.628906 14.003906 C 20.585938 14.128906 20.546875 14.253906 20.503906 14.382812 C 20.296875 14.339844 20.089844 14.300781 19.875 14.257812 C 19.875 14.171875 19.875 14.089844 19.875 14.003906 C 19.792969 13.964844 19.707031 13.921875 19.621094 13.878906 C 19.875 13.753906 19.875 13.753906 20.265625 13.871094 Z M 20.265625 13.871094 "/>
<path style=" stroke:none;fill-rule:nonzero;fill:rgb(75.686276%,38.431373%,49.019608%);fill-opacity:1;" d="M 17.105469 13.121094 C 17.242188 13.152344 17.242188 13.152344 17.382812 13.183594 C 17.71875 13.246094 18.023438 13.257812 18.363281 13.246094 C 18.324219 13.332031 18.28125 13.414062 18.238281 13.5 C 17.90625 13.574219 17.574219 13.59375 17.234375 13.625 C 17.191406 13.460938 17.148438 13.292969 17.105469 13.121094 Z M 17.105469 13.121094 "/>
<path style=" stroke:none;fill-rule:nonzero;fill:rgb(94.117647%,63.529414%,14.509805%);fill-opacity:1;" d="M 20.25 15.644531 C 20.292969 15.8125 20.335938 15.976562 20.378906 16.148438 C 20.210938 16.273438 20.046875 16.398438 19.875 16.527344 C 19.792969 16.488281 19.707031 16.445312 19.621094 16.402344 C 19.765625 15.972656 19.890625 15.890625 20.25 15.644531 Z M 20.25 15.644531 "/>
<path style=" stroke:none;fill-rule:nonzero;fill:rgb(78.039217%,45.490196%,41.176471%);fill-opacity:1;" d="M 22.894531 15.390625 C 22.976562 15.390625 23.058594 15.390625 23.144531 15.390625 C 23.144531 15.515625 23.144531 15.640625 23.144531 15.769531 C 22.8125 15.90625 22.480469 16.035156 22.136719 16.148438 C 22.136719 16.023438 22.136719 15.898438 22.136719 15.769531 C 22.386719 15.730469 22.636719 15.6875 22.894531 15.644531 C 22.894531 15.5625 22.894531 15.476562 22.894531 15.390625 Z M 22.894531 15.390625 "/>
<path style=" stroke:none;fill-rule:nonzero;fill:rgb(98.431373%,74.117649%,16.078432%);fill-opacity:1;" d="M 18.992188 13.625 C 19.035156 13.792969 19.078125 13.960938 19.121094 14.128906 C 19.027344 14.167969 18.933594 14.203125 18.835938 14.242188 C 18.546875 14.359375 18.265625 14.488281 17.988281 14.636719 C 18.292969 14.234375 18.574219 13.910156 18.992188 13.625 Z M 18.992188 13.625 "/>
<path style=" stroke:none;fill-rule:nonzero;fill:rgb(90.980393%,48.235294%,71.764708%);fill-opacity:1;" d="M 23.648438 12.617188 C 23.730469 12.699219 23.8125 12.785156 23.898438 12.871094 C 23.855469 13.15625 23.777344 13.367188 23.648438 13.625 C 23.523438 13.625 23.398438 13.625 23.269531 13.625 C 23.3125 13.460938 23.351562 13.292969 23.394531 13.121094 C 23.480469 13.121094 23.5625 13.121094 23.648438 13.121094 C 23.648438 12.953125 23.648438 12.789062 23.648438 12.617188 Z M 23.648438 12.617188 "/>
<path style=" stroke:none;fill-rule:nonzero;fill:rgb(96.470588%,60.392159%,82.352942%);fill-opacity:1;" d="M 24.527344 8.707031 C 24.695312 8.746094 24.859375 8.789062 25.03125 8.832031 C 24.988281 9 24.949219 9.164062 24.90625 9.335938 C 24.824219 9.335938 24.738281 9.335938 24.652344 9.335938 C 24.613281 9.417969 24.570312 9.503906 24.527344 9.589844 C 24.527344 9.296875 24.527344 9.007812 24.527344 8.707031 Z M 24.527344 8.707031 "/>
<path style=" stroke:none;fill-rule:nonzero;fill:rgb(82.745099%,53.333336%,11.764706%);fill-opacity:1;" d="M 14.214844 14.382812 C 14.296875 14.425781 14.378906 14.464844 14.464844 14.507812 C 14.378906 14.753906 14.378906 14.753906 14.214844 15.015625 C 13.882812 15.109375 13.882812 15.109375 13.585938 15.140625 C 13.726562 14.710938 13.851562 14.628906 14.214844 14.382812 Z M 14.214844 14.382812 "/>
<path style=" stroke:none;fill-rule:nonzero;fill:rgb(89.411765%,57.647061%,15.294118%);fill-opacity:1;" d="M 16.476562 12.492188 C 16.5625 12.492188 16.644531 12.492188 16.730469 12.492188 C 16.730469 12.65625 16.730469 12.824219 16.730469 12.996094 C 16.480469 13.078125 16.230469 13.160156 15.976562 13.246094 C 16.136719 12.992188 16.304688 12.738281 16.476562 12.492188 Z M 16.476562 12.492188 "/>
</g>
</svg>
