<?xml version="1.0" encoding="UTF-8"?>
<svg xmlns="http://www.w3.org/2000/svg" xmlns:xlink="http://www.w3.org/1999/xlink" width="40px" height="40px" viewBox="0 0 40 23" version="1.1">
<g id="surface1">
<path style=" stroke:none;fill-rule:nonzero;fill:rgb(1.960784%,71.372551%,83.137256%);fill-opacity:1;" d="M 11.011719 11.519531 C 11.023438 11.519531 11.035156 11.519531 11.046875 11.523438 C 12.21875 11.609375 13.375 11.828125 15.761719 12.847656 C 15.777344 12.859375 15.777344 12.859375 15.796875 12.867188 C 16.199219 13.097656 16.589844 13.351562 16.960938 13.628906 C 16.976562 13.640625 16.992188 13.652344 17.007812 13.664062 C 17.15625 13.773438 17.300781 13.890625 17.445312 14.007812 C 17.460938 14.019531 17.476562 14.03125 17.488281 14.042969 C 17.585938 14.121094 17.675781 14.199219 17.769531 14.277344 C 17.792969 14.300781 17.820312 14.324219 17.851562 14.347656 C 17.96875 14.445312 18.078125 14.546875 18.1875 14.652344 C 18.210938 14.675781 18.234375 14.695312 18.257812 14.714844 C 18.339844 14.78125 18.414062 14.855469 18.492188 14.929688 C 18.507812 14.945312 18.523438 14.960938 18.542969 14.976562 C 18.578125 15.011719 18.613281 15.046875 18.652344 15.082031 C 18.710938 15.140625 18.765625 15.195312 18.824219 15.25 C 18.957031 15.378906 19.089844 15.507812 19.226562 15.632812 C 19.347656 15.75 19.46875 15.867188 19.589844 15.984375 C 19.648438 16.042969 19.707031 16.097656 19.761719 16.152344 C 19.800781 16.1875 19.835938 16.21875 19.871094 16.253906 C 19.886719 16.269531 19.902344 16.285156 19.921875 16.300781 C 19.996094 16.375 20.070312 16.449219 20.152344 16.515625 C 20.179688 16.535156 20.203125 16.558594 20.226562 16.582031 C 20.269531 16.621094 20.3125 16.660156 20.359375 16.699219 C 20.390625 16.726562 20.425781 16.753906 20.457031 16.785156 C 20.515625 16.835938 20.578125 16.886719 20.640625 16.933594 C 20.667969 16.957031 20.695312 16.976562 20.722656 17 C 20.84375 17.101562 20.96875 17.195312 21.101562 17.289062 C 21.132812 17.308594 21.164062 17.332031 21.195312 17.355469 C 21.40625 17.503906 21.625 17.636719 21.851562 17.757812 C 21.863281 17.761719 21.871094 17.769531 21.878906 17.773438 C 22.640625 18.183594 23.546875 18.363281 24.414062 18.382812 C 24.425781 18.386719 24.4375 18.386719 24.449219 18.386719 C 25.808594 18.414062 27.097656 17.933594 28.429688 16.933594 C 28.453125 16.914062 28.476562 16.894531 28.496094 16.878906 C 28.6875 16.726562 28.859375 16.5625 29.035156 16.398438 C 29.046875 16.386719 29.046875 16.386719 29.054688 16.375 C 29.125 16.308594 29.195312 16.242188 29.261719 16.167969 C 29.289062 16.136719 29.320312 16.105469 29.351562 16.074219 C 29.410156 16.015625 29.460938 15.953125 29.515625 15.890625 C 29.542969 15.855469 29.574219 15.824219 29.601562 15.789062 C 29.6875 15.699219 29.761719 15.605469 29.839844 15.507812 C 29.886719 15.445312 29.9375 15.386719 29.988281 15.328125 C 30.007812 15.378906 29.992188 15.421875 29.976562 15.472656 C 29.976562 15.480469 29.972656 15.488281 29.96875 15.5 C 29.960938 15.527344 29.953125 15.558594 29.945312 15.589844 C 29.9375 15.609375 29.933594 15.632812 29.925781 15.652344 C 29.859375 15.886719 29.785156 16.121094 29.707031 16.351562 C 29.703125 16.359375 29.699219 16.371094 29.699219 16.378906 C 29.4375 17.164062 29.097656 17.929688 28.667969 18.640625 C 28.660156 18.652344 28.652344 18.664062 28.644531 18.675781 C 28.550781 18.832031 28.453125 18.988281 28.347656 19.140625 C 28.339844 19.148438 28.332031 19.160156 28.324219 19.171875 C 28.160156 19.402344 27.992188 19.628906 27.804688 19.84375 C 27.777344 19.875 27.753906 19.910156 27.726562 19.941406 C 27.535156 20.160156 27.332031 20.367188 27.121094 20.574219 C 27.113281 20.578125 27.105469 20.585938 27.097656 20.59375 C 27.019531 20.667969 26.9375 20.742188 26.851562 20.8125 C 26.832031 20.832031 26.808594 20.851562 26.789062 20.871094 C 26.667969 20.972656 26.539062 21.070312 26.410156 21.167969 C 26.394531 21.179688 26.378906 21.191406 26.363281 21.203125 C 26.085938 21.414062 25.777344 21.605469 25.464844 21.773438 C 25.457031 21.777344 25.445312 21.785156 25.433594 21.789062 C 24.433594 22.332031 23.335938 22.671875 20.09375 23.003906 C 20.039062 23.003906 19.984375 23.003906 19.929688 23.003906 C 18.757812 23.007812 17.582031 22.878906 16.132812 22.464844 C 16.125 22.460938 16.117188 22.457031 16.105469 22.453125 C 15.742188 22.339844 15.386719 22.203125 15.039062 22.046875 C 15 22.027344 14.957031 22.007812 14.917969 21.992188 C 14.234375 21.683594 13.597656 21.285156 13 20.839844 C 12.992188 20.832031 12.984375 20.828125 12.976562 20.820312 C 12.875 20.746094 12.777344 20.671875 12.679688 20.589844 C 12.644531 20.558594 12.605469 20.53125 12.5625 20.5 C 12.503906 20.453125 12.449219 20.40625 12.390625 20.355469 C 12.363281 20.332031 12.335938 20.308594 12.308594 20.285156 C 12.257812 20.242188 12.203125 20.195312 12.152344 20.152344 C 12.113281 20.117188 12.070312 20.078125 12.03125 20.042969 C 11.882812 19.917969 11.742188 19.789062 11.601562 19.652344 C 11.5625 19.613281 11.527344 19.578125 11.484375 19.546875 C 11.425781 19.496094 11.371094 19.445312 11.316406 19.390625 C 11.304688 19.382812 11.292969 19.371094 11.285156 19.359375 C 11.261719 19.339844 11.238281 19.320312 11.21875 19.300781 C 11.1875 19.269531 11.152344 19.234375 11.121094 19.203125 C 11.097656 19.183594 11.078125 19.164062 11.058594 19.144531 C 11.046875 19.136719 11.039062 19.125 11.027344 19.117188 C 10.984375 19.074219 10.945312 19.035156 10.90625 18.988281 C 10.832031 18.910156 10.75 18.835938 10.671875 18.757812 C 10.65625 18.742188 10.636719 18.726562 10.621094 18.710938 C 10.582031 18.675781 10.546875 18.640625 10.511719 18.605469 C 10.464844 18.558594 10.417969 18.515625 10.371094 18.46875 C 10.335938 18.433594 10.296875 18.398438 10.261719 18.367188 C 10.246094 18.347656 10.226562 18.332031 10.210938 18.316406 C 10.09375 18.203125 10.09375 18.203125 9.96875 18.09375 C 9.933594 18.066406 9.898438 18.035156 9.867188 18 C 9.816406 17.953125 9.765625 17.90625 9.710938 17.859375 C 9.675781 17.832031 9.644531 17.804688 9.613281 17.773438 C 9.539062 17.707031 9.464844 17.644531 9.382812 17.582031 C 9.347656 17.554688 9.316406 17.527344 9.28125 17.5 C 9.167969 17.40625 9.050781 17.320312 8.933594 17.234375 C 8.925781 17.226562 8.917969 17.222656 8.90625 17.214844 C 8.132812 16.65625 7.265625 16.308594 6.304688 16.175781 C 6.296875 16.175781 6.285156 16.171875 6.277344 16.171875 C 6.007812 16.132812 5.734375 16.117188 5.460938 16.117188 C 5.441406 16.117188 5.441406 16.117188 5.417969 16.117188 C 4.390625 16.121094 3.382812 16.402344 2.507812 16.914062 C 2.496094 16.921875 2.484375 16.925781 2.472656 16.933594 C 2.171875 17.109375 1.878906 17.3125 1.613281 17.535156 C 1.574219 17.566406 1.535156 17.597656 1.496094 17.628906 C 1.445312 17.664062 1.402344 17.703125 1.355469 17.75 C 1.332031 17.769531 1.308594 17.792969 1.285156 17.8125 C 1.226562 17.859375 1.171875 17.910156 1.117188 17.964844 C 1.109375 17.972656 1.097656 17.984375 1.085938 17.992188 C 1.066406 18.011719 1.046875 18.03125 1.023438 18.054688 C 0.992188 18.082031 0.960938 18.113281 0.929688 18.144531 C 0.910156 18.164062 0.886719 18.183594 0.867188 18.203125 C 0.859375 18.210938 0.847656 18.222656 0.839844 18.230469 C 0.785156 18.28125 0.734375 18.332031 0.6875 18.386719 C 0.660156 18.417969 0.632812 18.445312 0.609375 18.472656 C 0.554688 18.527344 0.507812 18.582031 0.457031 18.640625 C 0.429688 18.675781 0.402344 18.707031 0.371094 18.738281 C 0.300781 18.820312 0.230469 18.902344 0.164062 18.988281 C 0.132812 19.027344 0.101562 19.066406 0.0703125 19.105469 C 0.0585938 19.117188 0.0507812 19.132812 0.0390625 19.148438 C 0.03125 19.15625 0.0234375 19.167969 0.0117188 19.175781 C -0.00390625 19.128906 0.0078125 19.09375 0.0234375 19.046875 C 0.0273438 19.03125 0.0273438 19.03125 0.03125 19.019531 C 0.0390625 18.988281 0.046875 18.957031 0.0546875 18.925781 C 0.0585938 18.910156 0.0585938 18.910156 0.0664062 18.890625 C 0.355469 17.851562 0.753906 16.8125 1.464844 15.648438 C 1.472656 15.636719 1.484375 15.625 1.492188 15.609375 C 1.585938 15.460938 1.683594 15.316406 1.785156 15.175781 C 1.792969 15.167969 1.796875 15.160156 1.804688 15.152344 C 1.941406 14.964844 2.082031 14.785156 2.234375 14.609375 C 2.25 14.589844 2.269531 14.570312 2.285156 14.550781 C 2.34375 14.476562 2.410156 14.410156 2.472656 14.339844 C 2.507812 14.304688 2.542969 14.269531 2.574219 14.234375 C 2.625 14.179688 2.679688 14.128906 2.730469 14.078125 C 2.742188 14.066406 2.75 14.058594 2.761719 14.046875 C 2.78125 14.027344 2.800781 14.007812 2.820312 13.988281 C 2.851562 13.960938 2.882812 13.929688 2.914062 13.902344 C 2.933594 13.882812 2.953125 13.863281 2.972656 13.84375 C 2.984375 13.835938 2.992188 13.828125 3 13.816406 C 3.0625 13.761719 3.121094 13.707031 3.1875 13.652344 C 3.203125 13.640625 3.21875 13.628906 3.234375 13.613281 C 3.34375 13.519531 3.457031 13.433594 3.574219 13.347656 C 3.589844 13.335938 3.589844 13.335938 3.601562 13.324219 C 4.589844 12.605469 5.707031 12.117188 6.90625 11.824219 C 6.921875 11.820312 6.941406 11.816406 6.957031 11.8125 C 8.070312 11.542969 9.21875 11.480469 11.011719 11.519531 Z M 11.011719 11.519531 "/>
<path style=" stroke:none;fill-rule:nonzero;fill:rgb(1.960784%,71.372551%,83.137256%);fill-opacity:1;" d="M 19.90625 -0.00390625 C 19.960938 -0.00390625 20.015625 -0.00390625 20.070312 -0.00390625 C 21.242188 -0.0078125 22.417969 0.121094 23.867188 0.535156 C 23.875 0.539062 23.882812 0.542969 23.894531 0.546875 C 24.257812 0.660156 24.613281 0.796875 24.960938 0.953125 C 25 0.972656 25.042969 0.992188 25.082031 1.007812 C 25.515625 1.203125 25.925781 1.433594 26.320312 1.6875 C 26.328125 1.695312 26.339844 1.699219 26.351562 1.707031 C 26.574219 1.851562 26.789062 2.003906 27 2.160156 C 27.007812 2.167969 27.015625 2.171875 27.023438 2.179688 C 27.125 2.253906 27.222656 2.328125 27.320312 2.410156 C 27.355469 2.441406 27.394531 2.46875 27.4375 2.5 C 27.496094 2.546875 27.550781 2.59375 27.609375 2.644531 C 27.636719 2.667969 27.664062 2.691406 27.691406 2.714844 C 27.929688 2.914062 28.160156 3.117188 28.378906 3.332031 C 28.40625 3.355469 28.433594 3.378906 28.460938 3.402344 C 28.527344 3.457031 28.589844 3.515625 28.652344 3.578125 C 28.664062 3.589844 28.675781 3.601562 28.691406 3.613281 C 28.714844 3.636719 28.742188 3.664062 28.769531 3.6875 C 28.800781 3.71875 28.832031 3.75 28.867188 3.78125 C 28.898438 3.8125 28.929688 3.84375 28.960938 3.875 C 28.972656 3.886719 28.984375 3.898438 29 3.910156 C 29.046875 3.953125 29.09375 4 29.136719 4.050781 C 29.207031 4.128906 29.28125 4.199219 29.359375 4.269531 C 29.375 4.285156 29.390625 4.300781 29.410156 4.316406 C 29.441406 4.351562 29.476562 4.386719 29.511719 4.417969 C 29.558594 4.460938 29.601562 4.503906 29.644531 4.546875 C 29.679688 4.578125 29.714844 4.613281 29.75 4.644531 C 29.765625 4.660156 29.78125 4.675781 29.796875 4.691406 C 29.910156 4.800781 29.910156 4.800781 30.03125 4.90625 C 30.066406 4.933594 30.101562 4.964844 30.132812 5 C 30.183594 5.046875 30.234375 5.09375 30.289062 5.140625 C 30.324219 5.167969 30.355469 5.195312 30.386719 5.226562 C 30.460938 5.292969 30.535156 5.355469 30.617188 5.417969 C 30.652344 5.445312 30.683594 5.472656 30.71875 5.5 C 30.832031 5.59375 30.949219 5.679688 31.066406 5.765625 C 31.074219 5.773438 31.082031 5.777344 31.09375 5.785156 C 31.9375 6.394531 32.875 6.730469 33.921875 6.851562 C 33.933594 6.855469 33.949219 6.855469 33.960938 6.859375 C 35.199219 7.003906 36.480469 6.683594 37.535156 6.058594 C 37.546875 6.050781 37.558594 6.046875 37.570312 6.039062 C 37.726562 5.945312 37.875 5.851562 38.015625 5.746094 C 38.050781 5.71875 38.089844 5.691406 38.125 5.667969 C 38.199219 5.613281 38.273438 5.554688 38.347656 5.496094 C 38.355469 5.492188 38.359375 5.488281 38.367188 5.480469 C 38.453125 5.414062 38.539062 5.34375 38.621094 5.269531 C 38.640625 5.253906 38.660156 5.234375 38.679688 5.21875 C 38.785156 5.132812 38.882812 5.039062 38.980469 4.945312 C 39.007812 4.914062 39.039062 4.886719 39.070312 4.859375 C 39.085938 4.839844 39.105469 4.820312 39.125 4.804688 C 39.132812 4.792969 39.144531 4.785156 39.152344 4.777344 C 39.203125 4.726562 39.253906 4.675781 39.300781 4.625 C 39.328125 4.59375 39.355469 4.566406 39.386719 4.535156 C 39.445312 4.472656 39.5 4.40625 39.554688 4.34375 C 39.574219 4.320312 39.59375 4.296875 39.617188 4.273438 C 39.707031 4.167969 39.796875 4.058594 39.886719 3.949219 C 39.921875 3.902344 39.957031 3.863281 40 3.824219 C 39.980469 3.945312 39.949219 4.058594 39.914062 4.179688 C 39.910156 4.195312 39.910156 4.195312 39.90625 4.210938 C 39.839844 4.449219 39.761719 4.6875 39.679688 4.921875 C 39.675781 4.929688 39.671875 4.941406 39.671875 4.949219 C 39.515625 5.398438 39.34375 5.839844 39.132812 6.265625 C 39.125 6.28125 39.117188 6.292969 39.109375 6.308594 C 38.9375 6.667969 38.75 7.015625 38.535156 7.351562 C 38.523438 7.363281 38.515625 7.378906 38.507812 7.390625 C 38.394531 7.570312 38.273438 7.746094 38.148438 7.914062 C 38.140625 7.925781 38.132812 7.933594 38.121094 7.945312 C 37.988281 8.121094 37.851562 8.296875 37.703125 8.460938 C 37.671875 8.496094 37.640625 8.535156 37.609375 8.570312 C 37.460938 8.746094 37.289062 8.90625 37.121094 9.066406 C 37.109375 9.074219 37.101562 9.082031 37.09375 9.09375 C 36.910156 9.265625 36.910156 9.265625 36.8125 9.347656 C 36.796875 9.359375 36.78125 9.371094 36.765625 9.386719 C 36.664062 9.472656 36.558594 9.554688 36.453125 9.632812 C 36.433594 9.648438 36.417969 9.660156 36.398438 9.671875 C 36.09375 9.902344 35.765625 10.109375 35.425781 10.292969 C 35.414062 10.296875 35.402344 10.304688 35.390625 10.3125 C 34.941406 10.554688 34.472656 10.753906 33.988281 10.917969 C 33.972656 10.921875 33.957031 10.929688 33.941406 10.933594 C 32.996094 11.253906 31.996094 11.414062 31 11.480469 C 30.988281 11.480469 30.980469 11.480469 30.96875 11.484375 C 30.316406 11.523438 29.652344 11.523438 29 11.480469 C 28.980469 11.480469 28.960938 11.476562 28.941406 11.476562 C 27.917969 11.410156 26.910156 11.226562 25.945312 10.902344 C 25.921875 10.894531 25.898438 10.886719 25.878906 10.878906 C 25.523438 10.761719 25.179688 10.613281 24.839844 10.457031 C 24.820312 10.449219 24.820312 10.449219 24.800781 10.4375 C 24.609375 10.351562 24.421875 10.253906 24.238281 10.152344 C 24.230469 10.144531 24.21875 10.140625 24.207031 10.132812 C 23.984375 10.011719 23.769531 9.871094 23.558594 9.730469 C 23.523438 9.710938 23.492188 9.6875 23.457031 9.667969 C 23.324219 9.582031 23.195312 9.488281 23.066406 9.390625 C 23.042969 9.371094 23.015625 9.351562 22.988281 9.332031 C 22.839844 9.222656 22.699219 9.109375 22.554688 8.992188 C 22.539062 8.980469 22.523438 8.96875 22.511719 8.957031 C 22.414062 8.878906 22.324219 8.800781 22.230469 8.722656 C 22.207031 8.699219 22.179688 8.675781 22.148438 8.652344 C 22.03125 8.554688 21.921875 8.453125 21.8125 8.347656 C 21.789062 8.324219 21.765625 8.304688 21.742188 8.285156 C 21.660156 8.21875 21.585938 8.144531 21.507812 8.070312 C 21.492188 8.054688 21.472656 8.035156 21.457031 8.019531 C 21.417969 7.984375 21.382812 7.949219 21.347656 7.914062 C 21.289062 7.859375 21.230469 7.800781 21.171875 7.746094 C 21.035156 7.617188 20.902344 7.488281 20.769531 7.359375 C 20.644531 7.242188 20.523438 7.121094 20.398438 7.003906 C 20.339844 6.949219 20.285156 6.894531 20.226562 6.835938 C 20.191406 6.804688 20.152344 6.769531 20.117188 6.734375 C 20.101562 6.71875 20.085938 6.703125 20.066406 6.6875 C 19.953125 6.578125 19.953125 6.578125 19.835938 6.472656 C 19.8125 6.453125 19.789062 6.433594 19.765625 6.410156 C 19.726562 6.375 19.6875 6.335938 19.644531 6.300781 C 19.609375 6.273438 19.574219 6.246094 19.542969 6.214844 C 19.484375 6.164062 19.421875 6.113281 19.359375 6.066406 C 19.332031 6.042969 19.304688 6.023438 19.277344 6 C 19.15625 5.898438 19.03125 5.804688 18.898438 5.710938 C 18.867188 5.691406 18.835938 5.667969 18.804688 5.644531 C 18.589844 5.492188 18.359375 5.351562 18.121094 5.230469 C 18.09375 5.21875 18.070312 5.203125 18.046875 5.191406 C 17.320312 4.800781 16.425781 4.632812 15.601562 4.617188 C 15.589844 4.613281 15.578125 4.613281 15.5625 4.613281 C 14.304688 4.589844 13.0625 4.984375 12.054688 5.703125 C 12.042969 5.707031 12.035156 5.714844 12.023438 5.722656 C 11.917969 5.796875 11.8125 5.875 11.707031 5.957031 C 11.695312 5.96875 11.683594 5.976562 11.671875 5.984375 C 11.597656 6.042969 11.527344 6.101562 11.457031 6.160156 C 11.429688 6.183594 11.402344 6.207031 11.375 6.230469 C 11.242188 6.339844 11.117188 6.457031 10.992188 6.578125 C 10.96875 6.601562 10.945312 6.621094 10.921875 6.644531 C 10.855469 6.707031 10.789062 6.773438 10.726562 6.84375 C 10.695312 6.875 10.664062 6.90625 10.636719 6.941406 C 10.578125 7 10.523438 7.058594 10.46875 7.125 C 10.445312 7.15625 10.417969 7.1875 10.386719 7.21875 C 10.308594 7.304688 10.234375 7.398438 10.160156 7.492188 C 10.113281 7.550781 10.0625 7.613281 10.011719 7.671875 C 9.992188 7.621094 10.007812 7.578125 10.023438 7.527344 C 10.023438 7.519531 10.027344 7.507812 10.03125 7.5 C 10.039062 7.46875 10.046875 7.4375 10.058594 7.410156 C 10.0625 7.386719 10.070312 7.367188 10.074219 7.34375 C 10.351562 6.390625 10.707031 5.445312 11.332031 4.359375 C 11.339844 4.347656 11.347656 4.335938 11.355469 4.324219 C 11.449219 4.167969 11.546875 4.011719 11.652344 3.859375 C 11.660156 3.851562 11.667969 3.839844 11.675781 3.828125 C 11.839844 3.597656 12.007812 3.371094 12.195312 3.15625 C 12.222656 3.125 12.246094 3.089844 12.273438 3.058594 C 12.464844 2.839844 12.667969 2.632812 12.878906 2.425781 C 12.886719 2.421875 12.894531 2.414062 12.902344 2.40625 C 12.980469 2.332031 13.0625 2.257812 13.148438 2.1875 C 13.167969 2.167969 13.191406 2.148438 13.210938 2.128906 C 13.332031 2.027344 13.460938 1.929688 13.589844 1.832031 C 13.605469 1.820312 13.621094 1.808594 13.636719 1.796875 C 13.914062 1.585938 14.222656 1.394531 14.535156 1.226562 C 14.542969 1.222656 14.554688 1.214844 14.566406 1.210938 C 15.566406 0.667969 16.664062 0.328125 19.90625 -0.00390625 Z M 19.90625 -0.00390625 "/>
</g>
</svg>
