<?xml version="1.0" encoding="UTF-8"?>
<svg xmlns="http://www.w3.org/2000/svg" xmlns:xlink="http://www.w3.org/1999/xlink" width="40px" height="40px" viewBox="0 0 40 43" version="1.1">
<g id="surface1">
<path style=" stroke:none;fill-rule:nonzero;fill:rgb(92.941177%,55.29412%,14.117648%);fill-opacity:1;" d="M 25.234375 0.765625 C 25.527344 0.941406 25.820312 1.117188 26.121094 1.296875 C 26.453125 1.492188 26.785156 1.691406 27.128906 1.894531 C 27.480469 2.105469 27.832031 2.316406 28.195312 2.535156 C 28.9375 2.976562 29.683594 3.417969 30.425781 3.855469 C 30.988281 4.191406 30.988281 4.191406 31.5625 4.535156 C 33.320312 5.570312 35.09375 6.578125 36.871094 7.585938 C 37.183594 7.765625 37.5 7.945312 37.828125 8.128906 C 38.550781 8.539062 39.273438 8.953125 40 9.363281 C 40.511719 15.914062 40.511719 15.914062 39.363281 17.554688 C 38.546875 18.074219 37.78125 18.410156 36.871094 18.726562 C 36.40625 19.058594 36.40625 19.058594 35.933594 19.398438 C 34.820312 19.90625 34.230469 19.707031 33.042969 19.417969 C 32.234375 19.027344 31.480469 18.628906 30.710938 18.171875 C 30.496094 18.050781 30.28125 17.925781 30.0625 17.800781 C 29.386719 17.410156 28.714844 17.015625 28.042969 16.625 C 27.582031 16.359375 27.125 16.089844 26.664062 15.828125 C 25.542969 15.179688 24.421875 14.523438 23.304688 13.871094 C 23.191406 15.816406 23.074219 17.761719 22.957031 19.765625 C 23.644531 19.996094 24.332031 20.222656 25.042969 20.460938 C 26.652344 21.007812 27.773438 21.566406 28.871094 22.886719 C 29.628906 25.082031 29.714844 27.644531 28.871094 29.824219 C 27.527344 31.441406 25.589844 32.238281 23.652344 32.945312 C 23.421875 32.945312 23.191406 32.945312 22.957031 32.945312 C 22.957031 35.230469 22.957031 37.519531 22.957031 39.878906 C 22.074219 40.410156 21.191406 40.9375 20.28125 41.484375 C 20.007812 41.652344 19.734375 41.820312 19.449219 41.996094 C 19.230469 42.125 19.007812 42.253906 18.777344 42.386719 C 18.441406 42.585938 18.441406 42.585938 18.097656 42.792969 C 17.082031 43.089844 16.601562 42.753906 15.652344 42.304688 C 15.085938 42.140625 15.085938 42.140625 14.507812 41.972656 C 13.054688 41.378906 11.996094 40.875 11.128906 39.53125 C 10.28125 36.414062 10.59375 33.019531 10.675781 29.824219 C 10.679688 28.917969 10.683594 28.011719 10.683594 27.105469 C 10.695312 24.886719 10.730469 22.675781 10.78125 20.460938 C 10.472656 20.664062 10.160156 20.867188 9.84375 21.078125 C 9.429688 21.34375 9.019531 21.605469 8.609375 21.867188 C 8.40625 22.003906 8.199219 22.140625 7.992188 22.277344 C 6.460938 23.246094 6.460938 23.246094 5.492188 23.1875 C 4.414062 22.667969 3.378906 22.082031 2.347656 21.476562 C 2.007812 21.28125 2.007812 21.28125 1.664062 21.082031 C 1.109375 20.761719 0.554688 20.4375 0 20.113281 C -0.917969 14.101562 -0.917969 14.101562 0.433594 12.230469 C 1.757812 11.125 3.363281 10.492188 4.9375 9.8125 C 6.8125 8.945312 8.566406 7.851562 10.347656 6.804688 C 11.121094 6.359375 11.898438 5.917969 12.675781 5.476562 C 14.152344 4.628906 15.625 3.765625 17.085938 2.890625 C 17.417969 2.695312 17.75 2.5 18.089844 2.296875 C 18.710938 1.929688 19.328125 1.5625 19.941406 1.183594 C 20.214844 1.023438 20.492188 0.859375 20.777344 0.695312 C 21.015625 0.550781 21.253906 0.40625 21.496094 0.261719 C 22.859375 -0.203125 23.96875 0.167969 25.234375 0.765625 Z M 25.234375 0.765625 "/>
<path style=" stroke:none;fill-rule:nonzero;fill:rgb(96.862745%,74.509805%,23.137255%);fill-opacity:1;" d="M 25.234375 0.765625 C 25.527344 0.941406 25.820312 1.117188 26.121094 1.296875 C 26.453125 1.492188 26.785156 1.691406 27.128906 1.894531 C 27.480469 2.105469 27.832031 2.316406 28.195312 2.535156 C 28.9375 2.976562 29.683594 3.417969 30.425781 3.855469 C 30.988281 4.191406 30.988281 4.191406 31.5625 4.535156 C 33.320312 5.570312 35.09375 6.578125 36.871094 7.585938 C 37.183594 7.765625 37.5 7.945312 37.828125 8.128906 C 38.550781 8.539062 39.273438 8.953125 40 9.363281 C 40 9.589844 40 9.820312 40 10.054688 C 39.183594 10.648438 38.378906 11.179688 37.523438 11.703125 C 37.289062 11.855469 37.058594 12.007812 36.820312 12.164062 C 36.59375 12.304688 36.363281 12.441406 36.128906 12.585938 C 35.921875 12.714844 35.710938 12.847656 35.5 12.980469 C 34.082031 13.371094 32.882812 12.582031 31.644531 11.933594 C 31.285156 11.722656 30.921875 11.507812 30.550781 11.289062 C 30.355469 11.175781 30.160156 11.0625 29.957031 10.945312 C 29.339844 10.585938 28.726562 10.222656 28.109375 9.863281 C 27.292969 9.382812 26.476562 8.90625 25.660156 8.429688 C 25.300781 8.21875 24.9375 8.007812 24.566406 7.789062 C 23.65625 7.25 23.65625 7.25 22.609375 6.933594 C 21.730469 7.308594 21.730469 7.308594 20.785156 7.894531 C 20.417969 8.109375 20.050781 8.324219 19.671875 8.542969 C 19.277344 8.777344 18.882812 9.011719 18.476562 9.253906 C 18.070312 9.492188 17.664062 9.730469 17.257812 9.964844 C 15.652344 10.902344 14.050781 11.847656 12.453125 12.800781 C 11.457031 13.390625 10.457031 13.976562 9.457031 14.566406 C 9.15625 14.746094 8.859375 14.925781 8.550781 15.113281 C 8.273438 15.273438 7.996094 15.4375 7.710938 15.605469 C 7.472656 15.746094 7.230469 15.890625 6.984375 16.039062 C 6.03125 16.382812 5.484375 16.242188 4.523438 15.953125 C 3.707031 15.5 2.933594 15.046875 2.152344 14.542969 C 1.945312 14.410156 1.738281 14.28125 1.523438 14.148438 C 1.011719 13.824219 0.507812 13.503906 0 13.175781 C 0.835938 12.257812 1.726562 11.691406 2.804688 11.082031 C 3.164062 10.875 3.523438 10.671875 3.890625 10.460938 C 4.277344 10.242188 4.667969 10.023438 5.066406 9.796875 C 5.46875 9.566406 5.871094 9.335938 6.273438 9.105469 C 7.117188 8.625 7.957031 8.148438 8.800781 7.667969 C 10.066406 6.949219 11.328125 6.222656 12.585938 5.496094 C 12.789062 5.378906 12.992188 5.265625 13.199219 5.144531 C 14.164062 4.585938 15.132812 4.03125 16.097656 3.472656 C 16.789062 3.074219 17.484375 2.675781 18.179688 2.28125 C 18.792969 1.925781 19.40625 1.5625 20.011719 1.1875 C 20.414062 0.945312 20.414062 0.945312 20.824219 0.695312 C 21.054688 0.554688 21.28125 0.410156 21.519531 0.261719 C 22.863281 -0.210938 23.980469 0.175781 25.234375 0.765625 Z M 25.234375 0.765625 "/>
<path style=" stroke:none;fill-rule:nonzero;fill:rgb(89.803922%,35.686275%,17.647059%);fill-opacity:1;" d="M 17.042969 16.644531 C 17.042969 18.820312 17.042969 20.992188 17.042969 23.234375 C 17.730469 23.460938 18.421875 23.691406 19.128906 23.925781 C 20.726562 24.476562 21.859375 25.046875 22.957031 26.355469 C 23.601562 28.570312 23.3125 30.996094 23.195312 33.269531 C 23.175781 33.910156 23.160156 34.550781 23.144531 35.191406 C 23.101562 36.753906 23.035156 38.316406 22.957031 39.878906 C 22.070312 40.421875 21.179688 40.953125 20.28125 41.484375 C 20.03125 41.636719 19.78125 41.792969 19.523438 41.953125 C 17.632812 43.054688 17.632812 43.054688 16.488281 42.800781 C 16.074219 42.554688 16.074219 42.554688 15.652344 42.304688 C 15.273438 42.195312 14.898438 42.085938 14.511719 41.976562 C 13.050781 41.378906 12 40.875 11.128906 39.53125 C 10.371094 36.824219 10.539062 33.925781 10.617188 31.140625 C 10.652344 29.78125 10.644531 28.425781 10.632812 27.0625 C 10.640625 26.199219 10.652344 25.332031 10.664062 24.464844 C 10.664062 24.0625 10.660156 23.65625 10.660156 23.238281 C 10.761719 20.492188 10.761719 20.492188 11.808594 19.410156 C 12.605469 18.875 13.394531 18.445312 14.261719 18.03125 C 14.726562 17.761719 15.191406 17.484375 15.652344 17.207031 C 16.695312 16.644531 16.695312 16.644531 17.042969 16.644531 Z M 17.042969 16.644531 "/>
<path style=" stroke:none;fill-rule:nonzero;fill:rgb(89.803922%,35.686275%,17.254902%);fill-opacity:1;" d="M 22.957031 6.933594 C 24.441406 7.382812 25.695312 7.949219 27.023438 8.746094 C 27.386719 8.960938 27.75 9.175781 28.125 9.398438 C 28.5 9.621094 28.875 9.847656 29.261719 10.078125 C 30.007812 10.523438 30.753906 10.96875 31.503906 11.414062 C 31.832031 11.609375 32.160156 11.808594 32.5 12.011719 C 33.296875 12.433594 33.890625 12.734375 34.78125 12.832031 C 35.601562 12.40625 36.328125 11.976562 37.085938 11.464844 C 39.230469 10.054688 39.230469 10.054688 40 10.054688 C 40.476562 15.996094 40.476562 15.996094 39.363281 17.507812 C 38.550781 18.027344 37.773438 18.386719 36.871094 18.726562 C 36.5625 18.949219 36.253906 19.167969 35.933594 19.398438 C 34.820312 19.90625 34.230469 19.703125 33.042969 19.417969 C 31.917969 18.875 31.917969 18.875 30.722656 18.183594 C 30.507812 18.0625 30.296875 17.941406 30.078125 17.816406 C 29.40625 17.429688 28.734375 17.035156 28.066406 16.644531 C 27.609375 16.382812 27.152344 16.121094 26.695312 15.855469 C 23.375 13.941406 23.375 13.941406 22.957031 13.523438 C 22.925781 13.035156 22.917969 12.539062 22.921875 12.050781 C 22.921875 11.753906 22.925781 11.457031 22.925781 11.152344 C 22.929688 10.839844 22.933594 10.527344 22.933594 10.207031 C 22.9375 9.894531 22.9375 9.582031 22.941406 9.261719 C 22.945312 8.484375 22.949219 7.710938 22.957031 6.933594 Z M 22.957031 6.933594 "/>
<path style=" stroke:none;fill-rule:nonzero;fill:rgb(92.54902%,55.686277%,13.725491%);fill-opacity:1;" d="M 25.507812 20.511719 C 28.507812 21.945312 28.507812 21.945312 29.160156 23.648438 C 29.609375 25.707031 29.667969 27.84375 28.871094 29.824219 C 27.519531 31.4375 25.59375 32.238281 23.652344 32.945312 C 23.421875 32.945312 23.191406 32.945312 22.957031 32.945312 C 22.992188 32.503906 23.027344 32.066406 23.0625 31.613281 C 23.289062 28.484375 23.289062 28.484375 22.082031 25.738281 C 20.65625 24.621094 19.0625 23.902344 17.390625 23.234375 C 18.394531 22.15625 19.386719 21.414062 20.675781 20.699219 C 20.996094 20.511719 21.320312 20.328125 21.652344 20.136719 C 23.15625 19.554688 24.019531 20 25.507812 20.511719 Z M 25.507812 20.511719 "/>
<path style=" stroke:none;fill-rule:nonzero;fill:rgb(92.54902%,55.29412%,14.117648%);fill-opacity:1;" d="M 17.042969 29.824219 C 18.441406 30.171875 19.355469 30.652344 20.585938 31.382812 C 21.144531 31.710938 21.144531 31.710938 21.710938 32.042969 C 22.609375 32.597656 22.609375 32.597656 22.957031 32.945312 C 22.988281 33.460938 22.992188 33.976562 22.992188 34.496094 C 22.988281 34.804688 22.988281 35.117188 22.988281 35.4375 C 22.984375 35.765625 22.980469 36.09375 22.976562 36.433594 C 22.976562 36.761719 22.976562 37.089844 22.972656 37.429688 C 22.96875 38.246094 22.964844 39.0625 22.957031 39.878906 C 22.035156 40.398438 21.117188 40.921875 20.195312 41.441406 C 19.933594 41.589844 19.671875 41.738281 19.398438 41.890625 C 19.148438 42.03125 18.898438 42.171875 18.644531 42.316406 C 18.296875 42.511719 18.296875 42.511719 17.941406 42.714844 C 17.390625 43 17.390625 43 17.042969 43 C 17.042969 38.652344 17.042969 34.304688 17.042969 29.824219 Z M 17.042969 29.824219 "/>
<path style=" stroke:none;fill-rule:nonzero;fill:rgb(92.54902%,55.29412%,14.117648%);fill-opacity:1;" d="M 40 10.054688 C 40.476562 15.996094 40.476562 15.996094 39.363281 17.507812 C 38.550781 18.027344 37.773438 18.390625 36.871094 18.726562 C 36.539062 18.941406 36.210938 19.15625 35.871094 19.375 C 35.128906 19.765625 35.128906 19.765625 34.085938 19.765625 C 33.460938 15.21875 33.460938 15.21875 34.085938 13.175781 C 35.34375 11.628906 37.976562 10.054688 40 10.054688 Z M 40 10.054688 "/>
<path style=" stroke:none;fill-rule:nonzero;fill:rgb(96.862745%,74.509805%,23.137255%);fill-opacity:1;" d="M 24.347656 20.113281 C 25.09375 20.5 25.824219 20.914062 26.542969 21.347656 C 26.914062 21.570312 27.285156 21.792969 27.667969 22.023438 C 27.949219 22.191406 28.230469 22.363281 28.523438 22.539062 C 28.042969 23.96875 27.089844 24.359375 25.847656 25.074219 C 25.632812 25.210938 25.421875 25.34375 25.203125 25.480469 C 24.109375 26.113281 23.488281 26.386719 22.230469 26.167969 C 21.164062 25.632812 20.171875 25.058594 19.175781 24.402344 C 18.835938 24.183594 18.5 23.964844 18.15625 23.742188 C 17.902344 23.574219 17.652344 23.40625 17.390625 23.234375 C 18.394531 22.15625 19.386719 21.414062 20.675781 20.699219 C 20.996094 20.511719 21.320312 20.328125 21.652344 20.136719 C 22.789062 19.695312 23.207031 19.714844 24.347656 20.113281 Z M 24.347656 20.113281 "/>
<path style=" stroke:none;fill-rule:nonzero;fill:rgb(89.803922%,35.686275%,17.647059%);fill-opacity:1;" d="M 0 13.175781 C 2.820312 14.703125 2.820312 14.703125 3.824219 15.257812 C 4.152344 15.378906 4.480469 15.5 4.816406 15.625 C 5.566406 16.296875 5.566406 16.296875 5.699219 17.03125 C 5.738281 17.96875 5.714844 18.890625 5.675781 19.832031 C 5.667969 20.15625 5.660156 20.484375 5.648438 20.820312 C 5.628906 21.625 5.601562 22.429688 5.566406 23.234375 C 5.222656 23.039062 4.878906 22.839844 4.523438 22.640625 C 4.074219 22.382812 3.625 22.125 3.175781 21.867188 C 2.949219 21.738281 2.722656 21.609375 2.488281 21.476562 C 1.257812 20.769531 1.257812 20.769531 0 20.113281 C 0 17.824219 0 15.535156 0 13.175781 Z M 0 13.175781 "/>
</g>
</svg>
