<?xml version="1.0" encoding="UTF-8"?>
<svg version="1.1" xmlns="http://www.w3.org/2000/svg" width="115" height="124">
<path d="M0 0 C0.84038818 0.50490967 1.68077637 1.00981934 2.54663086 1.5300293 C3.50375977 2.0977002 4.46088867 2.66537109 5.44702148 3.25024414 C6.45829102 3.86206543 7.46956055 4.47388672 8.51147461 5.10424805 C10.64764715 6.37469816 12.78437786 7.64421016 14.92163086 8.9128418 C16.54222412 9.87939697 16.54222412 9.87939697 18.19555664 10.86547852 C23.24741714 13.85656206 28.34579379 16.76436652 33.44897461 19.66674805 C34.35655518 20.18406494 35.26413574 20.70138184 36.19921875 21.234375 C38.28186602 22.42123376 40.36508945 23.6070646 42.44897461 24.79174805 C43.92093723 43.6781607 43.92093723 43.6781607 40.62084961 48.41674805 C38.27072377 49.91086779 36.07451969 50.88256436 33.44897461 51.79174805 C32.11866211 52.75081055 32.11866211 52.75081055 30.76147461 53.72924805 C27.55899489 55.20065765 25.86098038 54.61613381 22.44897461 53.79174805 C20.12197171 52.65934785 17.95421546 51.50825052 15.73803711 50.1940918 C15.12503754 49.84037003 14.51203796 49.48664825 13.88046265 49.12220764 C11.93984693 47.99978148 10.00693525 46.86479619 8.07397461 45.72924805 C6.75284991 44.96212771 5.43123975 44.19584278 4.10913086 43.43041992 C0.88236701 41.56197385 -2.33365057 39.67669618 -5.55102539 37.79174805 C-5.88102539 43.40174805 -6.21102539 49.01174805 -6.55102539 54.79174805 C-4.57102539 55.45174805 -2.59102539 56.11174805 -0.55102539 56.79174805 C4.07527799 58.37411291 7.30118993 59.98014483 10.44897461 63.79174805 C12.62697037 70.12353413 12.87459306 77.50939625 10.44897461 83.79174805 C6.58779708 88.46113793 1.02318377 90.76248539 -4.55102539 92.79174805 C-5.21102539 92.79174805 -5.87102539 92.79174805 -6.55102539 92.79174805 C-6.55102539 99.39174805 -6.55102539 105.99174805 -6.55102539 112.79174805 C-9.08790039 114.31799805 -11.62477539 115.84424805 -14.23852539 117.41674805 C-15.02831787 117.90481934 -15.81811035 118.39289063 -16.63183594 118.89575195 C-17.26903564 119.26619629 -17.90623535 119.63664062 -18.56274414 120.01831055 C-19.52893677 120.59959717 -19.52893677 120.59959717 -20.51464844 121.19262695 C-23.44408931 122.05449578 -24.81942818 121.07940829 -27.55102539 119.79174805 C-29.17754028 119.31608398 -29.17754028 119.31608398 -30.83691406 118.83081055 C-35.02183787 117.11282354 -38.06380127 115.66518507 -40.55102539 111.79174805 C-42.98810402 102.80475228 -42.08920952 93.00727955 -41.86352539 83.79174805 C-41.8465268 81.17849865 -41.83539505 78.56520406 -41.83032227 75.9519043 C-41.80515095 69.56309826 -41.70649127 63.17864093 -41.55102539 56.79174805 C-42.44305664 57.38084961 -43.33508789 57.96995117 -44.25415039 58.5769043 C-45.43601918 59.33667709 -46.61833445 60.09575568 -47.80102539 60.85424805 C-48.38754883 61.24418945 -48.97407227 61.63413086 -49.57836914 62.03588867 C-53.97626839 64.82781348 -53.97626839 64.82781348 -56.75708008 64.65332031 C-59.86052335 63.16283973 -62.83634099 61.47371173 -65.80102539 59.72924805 C-66.77555664 59.16367188 -66.77555664 59.16367188 -67.76977539 58.58666992 C-69.3660763 57.65940689 -70.95890068 56.72616349 -72.55102539 55.79174805 C-75.19402812 38.46034737 -75.19402812 38.46034737 -71.30151367 33.05737305 C-67.49728393 29.86828073 -62.87795081 28.05173778 -58.35864258 26.0925293 C-52.96117204 23.59185773 -47.91856107 20.4384521 -42.80102539 17.41674805 C-40.57332385 16.13555132 -38.34415661 14.85689971 -36.11352539 13.58081055 C-31.85910654 11.13664942 -27.63246427 8.65346338 -23.42602539 6.12768555 C-22.474375 5.56355957 -21.52272461 4.99943359 -20.54223633 4.41821289 C-18.76144526 3.36160173 -16.98811963 2.29226844 -15.22387695 1.20825195 C-14.42949219 0.74080566 -13.63510742 0.27335938 -12.81665039 -0.20825195 C-12.13376953 -0.62075195 -11.45088867 -1.03325195 -10.74731445 -1.45825195 C-6.83238388 -2.79514243 -3.63994537 -1.72400131 0 0 Z " fill="#ED8D24" transform="translate(72.551025390625,2.208251953125)"/>
<path d="M0 0 C0.84038818 0.50490967 1.68077637 1.00981934 2.54663086 1.5300293 C3.50375977 2.0977002 4.46088867 2.66537109 5.44702148 3.25024414 C6.45829102 3.86206543 7.46956055 4.47388672 8.51147461 5.10424805 C10.64764715 6.37469816 12.78437786 7.64421016 14.92163086 8.9128418 C16.54222412 9.87939697 16.54222412 9.87939697 18.19555664 10.86547852 C23.24741714 13.85656206 28.34579379 16.76436652 33.44897461 19.66674805 C34.35655518 20.18406494 35.26413574 20.70138184 36.19921875 21.234375 C38.28186602 22.42123376 40.36508945 23.6070646 42.44897461 24.79174805 C42.44897461 25.45174805 42.44897461 26.11174805 42.44897461 26.79174805 C40.1044594 28.49793469 37.79001656 30.0316437 35.32397461 31.54174805 C34.65881836 31.97874023 33.99366211 32.41573242 33.30834961 32.8659668 C32.65092773 33.26944336 31.99350586 33.67291992 31.31616211 34.08862305 C30.71916504 34.46341797 30.12216797 34.83821289 29.50708008 35.22436523 C25.43600984 36.34668638 21.98867116 34.07553481 18.42871094 32.20361328 C17.38996826 31.59203369 16.35122559 30.9804541 15.28100586 30.3503418 C14.7195134 30.02260269 14.15802094 29.69486359 13.57951355 29.35719299 C11.80370308 28.31978022 10.03234475 27.27506791 8.26147461 26.22924805 C5.91586753 24.84938598 3.56768403 23.47413799 1.21850586 22.1003418 C0.18314697 21.48989014 -0.85221191 20.87943848 -1.91894531 20.25048828 C-4.53619968 18.69486685 -4.53619968 18.69486685 -7.55102539 17.79174805 C-10.07255031 18.86745065 -10.07255031 18.86745065 -12.79321289 20.5534668 C-13.85000244 21.17286133 -14.90679199 21.79225586 -15.99560547 22.43041992 C-17.12764404 23.1065332 -18.25968262 23.78264648 -19.42602539 24.47924805 C-20.59414832 25.16475709 -21.76301948 25.84899264 -22.93261719 26.53198242 C-27.55133441 29.23301312 -32.15505275 31.95876728 -36.74975586 34.70043945 C-39.61463414 36.40860631 -42.48851996 38.10070479 -45.36352539 39.79174805 C-46.22123535 40.31341553 -47.07894531 40.83508301 -47.96264648 41.37255859 C-48.76138184 41.84089111 -49.56011719 42.30922363 -50.38305664 42.79174805 C-51.07117432 43.20424805 -51.75929199 43.61674805 -52.46826172 44.04174805 C-55.21325992 45.03021769 -56.78506693 44.62848773 -59.55102539 43.79174805 C-61.89358167 42.49276901 -64.11999491 41.17741321 -66.36352539 39.72924805 C-66.96100586 39.35219727 -67.55848633 38.97514648 -68.17407227 38.58666992 C-69.63739116 37.66185238 -71.09482062 36.72772739 -72.55102539 35.79174805 C-70.15132858 33.13609017 -67.5865835 31.51176252 -64.48461914 29.74487305 C-63.45393311 29.15432129 -62.42324707 28.56376953 -61.36132812 27.95532227 C-60.24830322 27.32384277 -59.13527832 26.69236328 -57.98852539 26.04174805 C-56.82946888 25.37964683 -55.67070034 24.71704126 -54.51220703 24.05395508 C-52.09132522 22.66876227 -49.66919821 21.28578161 -47.24633789 19.90405273 C-43.61178335 17.82911613 -39.98632429 15.73869062 -36.36352539 13.64331055 C-35.78329117 13.30779175 -35.20305695 12.97227295 -34.60523987 12.62658691 C-31.82649444 11.01950978 -29.04804796 9.4119159 -26.26953125 7.80444336 C-24.27910384 6.65510188 -22.28569085 5.51090966 -20.28881836 4.37280273 C-18.51628215 3.34917651 -16.75862383 2.29915345 -15.02026367 1.21850586 C-13.86179932 0.51612793 -13.86179932 0.51612793 -12.67993164 -0.20043945 C-12.0219458 -0.61406738 -11.36395996 -1.02769531 -10.68603516 -1.45385742 C-6.81516914 -2.82160768 -3.60297183 -1.70648939 0 0 Z " fill="#F7BE3B" transform="translate(72.551025390625,2.208251953125)"/>
<path d="M0 0 C0 6.27 0 12.54 0 19 C1.98 19.66 3.96 20.32 6 21 C10.5934353 22.58731773 13.8502793 24.22880975 17 28 C18.85706629 34.39027763 18.02732866 41.37933154 17.6875 47.9375 C17.63228042 49.78436006 17.58209767 51.63137802 17.53710938 53.47851562 C17.41629061 57.9895912 17.22679022 62.49305974 17 67 C14.44921084 68.56464388 11.88746037 70.1010896 9.3125 71.625 C8.59126953 72.07101563 7.87003906 72.51703125 7.12695312 72.9765625 C1.6908897 76.15380505 1.6908897 76.15380505 -1.59912109 75.42138672 C-2.78755615 74.71780029 -2.78755615 74.71780029 -4 74 C-5.08361816 73.68434082 -6.16723633 73.36868164 -7.28369141 73.04345703 C-11.47493311 71.32618327 -14.50219593 69.8705731 -17 66 C-19.1876982 58.18780834 -18.69637398 49.83595773 -18.47509766 41.80029297 C-18.37505342 37.87709501 -18.39283043 33.96706696 -18.42578125 30.04296875 C-18.40281744 27.54680098 -18.3730992 25.05068427 -18.3359375 22.5546875 C-18.34160736 21.38582001 -18.34727722 20.21695251 -18.3531189 19.01266479 C-18.05459506 11.09482789 -18.05459506 11.09482789 -15.04815674 7.97369385 C-12.75661029 6.42467869 -10.49382754 5.18959783 -8 4 C-6.66231386 3.21571071 -5.32848833 2.42477037 -4 1.625 C-1 0 -1 0 0 0 Z " fill="#E55B2D" transform="translate(49,48)"/>
<path d="M0 0 C4.27368697 1.29078763 7.87181369 2.92641368 11.6953125 5.22265625 C12.74074219 5.84333984 13.78617188 6.46402344 14.86328125 7.10351562 C15.93964844 7.74998047 17.01601562 8.39644531 18.125 9.0625 C20.27068315 10.34965475 22.41901472 11.63240769 24.5703125 12.91015625 C25.51664551 13.47871338 26.46297852 14.04727051 27.43798828 14.63305664 C29.72494317 15.85324536 31.4335121 16.71880571 34 17 C36.35319092 15.77111141 38.43959448 14.53813654 40.625 13.0625 C46.7831803 9 46.7831803 9 49 9 C50.37358827 26.12745872 50.37358827 26.12745872 47.171875 30.4921875 C44.83134988 31.98795355 42.59457887 33.02265019 40 34 C39.113125 34.639375 38.22625 35.27875 37.3125 35.9375 C34.11133847 37.40830395 32.41056462 36.822301 29 36 C25.7644043 34.43359375 25.7644043 34.43359375 22.32421875 32.4375 C21.71359085 32.0861499 21.10296295 31.7347998 20.47383118 31.37280273 C18.53997113 30.25705885 16.61387906 29.12860032 14.6875 28 C13.3748153 27.24137999 12.06166838 26.48355918 10.74804688 25.7265625 C1.20760202 20.20760202 1.20760202 20.20760202 0 19 C-0.08651611 17.58429877 -0.10704904 16.164405 -0.09765625 14.74609375 C-0.09443359 13.89208984 -0.09121094 13.03808594 -0.08789062 12.15820312 C-0.07951172 11.26037109 -0.07113281 10.36253906 -0.0625 9.4375 C-0.05798828 8.53580078 -0.05347656 7.63410156 -0.04882812 6.70507812 C-0.03700225 4.46998686 -0.0205222 2.23502563 0 0 Z " fill="#E55B2C" transform="translate(66,20)"/>
<path d="M0 0 C8.63194818 4.13674733 8.63194818 4.13674733 10.50341797 9.04785156 C11.79110562 14.98976124 11.96729243 21.15151948 9.66796875 26.85546875 C5.78348348 31.51406378 0.25158778 33.82278048 -5.33203125 35.85546875 C-5.99203125 35.85546875 -6.65203125 35.85546875 -7.33203125 35.85546875 C-7.23019531 34.58832031 -7.12835938 33.32117188 -7.0234375 32.015625 C-6.37609833 22.99668298 -6.37609833 22.99668298 -9.8515625 15.07226562 C-13.94182206 11.85849026 -18.52658389 9.78111733 -23.33203125 7.85546875 C-20.45212539 4.74517042 -17.59183402 2.609561 -13.89453125 0.54296875 C-12.96769531 0.01058594 -12.04085937 -0.52179687 -11.0859375 -1.0703125 C-6.75716413 -2.75884112 -4.27459949 -1.46829736 0 0 Z " fill="#EC8E23" transform="translate(73.33203125,59.14453125)"/>
<path d="M0 0 C4.01956741 1.00489185 6.64762445 2.39590832 10.1875 4.5 C11.78658203 5.44359375 11.78658203 5.44359375 13.41796875 6.40625 C16 8 16 8 17 9 C17.08669432 10.4887186 17.10703494 11.981445 17.09765625 13.47265625 C17.09443359 14.37177734 17.09121094 15.27089844 17.08789062 16.19726562 C17.07951172 17.14279297 17.07113281 18.08832031 17.0625 19.0625 C17.05798828 20.01189453 17.05347656 20.96128906 17.04882812 21.93945312 C17.0370011 24.29303065 17.02052025 26.64648477 17 29 C14.35559624 30.50256989 11.70958148 32.0021612 9.0625 33.5 C8.30775391 33.92925781 7.55300781 34.35851562 6.77539062 34.80078125 C6.05673828 35.20683594 5.33808594 35.61289063 4.59765625 36.03125 C3.60004272 36.59682617 3.60004272 36.59682617 2.58227539 37.17382812 C1 38 1 38 0 38 C0 25.46 0 12.92 0 0 Z " fill="#EC8D24" transform="translate(49,86)"/>
<path d="M0 0 C1.37358827 17.12745872 1.37358827 17.12745872 -1.828125 21.4921875 C-4.17078946 22.98932075 -6.39964933 24.02978513 -9 25 C-9.94875 25.61875 -10.8975 26.2375 -11.875 26.875 C-14 28 -14 28 -17 28 C-18.80152552 14.88222529 -18.80152552 14.88222529 -17 9 C-13.39042123 4.52994857 -5.81197958 0 0 0 Z " fill="#EC8D24" transform="translate(115,29)"/>
<path d="M0 0 C2.14080772 1.12009639 4.24470821 2.31273573 6.3125 3.5625 C7.38113281 4.20316406 8.44976562 4.84382813 9.55078125 5.50390625 C10.35902344 5.99761719 11.16726562 6.49132812 12 7 C10.62787125 11.11638626 7.88774801 12.24607225 4.3125 14.3125 C3.69955078 14.69728516 3.08660156 15.08207031 2.45507812 15.47851562 C-0.68277934 17.30532766 -2.47030585 18.09308153 -6.08984375 17.45703125 C-9.15614787 15.92182127 -12.01076637 14.26120263 -14.875 12.375 C-15.84179688 11.74335937 -16.80859375 11.11171875 -17.8046875 10.4609375 C-18.52914062 9.97882813 -19.25359375 9.49671875 -20 9 C-17.12009414 5.88970167 -14.25980277 3.75409225 -10.5625 1.6875 C-9.63566406 1.15511719 -8.70882812 0.62273438 -7.75390625 0.07421875 C-4.48649975 -1.20030152 -3.2842195 -1.14846939 0 0 Z " fill="#F7BE3B" transform="translate(70,58)"/>
<path d="M0 0 C8.10546875 4.39453125 8.10546875 4.39453125 11 6 C11.9384375 6.350625 12.876875 6.70125 13.84375 7.0625 C16 9 16 9 16.38989258 11.11010742 C16.49412743 13.81995496 16.43469525 16.47852536 16.3125 19.1875 C16.28994141 20.12787109 16.26738281 21.06824219 16.24414062 22.03710938 C16.18519227 24.35967473 16.10297785 26.67903776 16 29 C15.01257812 28.43410156 14.02515625 27.86820313 13.0078125 27.28515625 C11.71355794 26.54424241 10.41928621 25.80335855 9.125 25.0625 C8.47402344 24.68931641 7.82304688 24.31613281 7.15234375 23.93164062 C3.61253166 21.89866922 3.61253166 21.89866922 0 20 C0 13.4 0 6.8 0 0 Z " fill="#E55B2D" transform="translate(0,38)"/>
</svg>
