<?xml version="1.0" encoding="UTF-8"?>
<svg xmlns="http://www.w3.org/2000/svg" xmlns:xlink="http://www.w3.org/1999/xlink" width="40px" height="40px" viewBox="0 0 40 30" version="1.1">
<g id="surface1">
<path style=" stroke:none;fill-rule:nonzero;fill:rgb(29.803923%,72.549021%,52.941179%);fill-opacity:1;" d="M 2.601562 0 C 4.335938 -0.0546875 6.070312 -0.0976562 7.808594 -0.125 C 8.613281 -0.136719 9.421875 -0.152344 10.226562 -0.179688 C 10.929688 -0.207031 11.632812 -0.21875 12.335938 -0.226562 C 12.707031 -0.230469 13.078125 -0.234375 13.453125 -0.253906 C 15.707031 -0.355469 15.707031 -0.355469 16.359375 0.234375 C 16.8125 0.8125 17.113281 1.441406 17.382812 2.117188 C 17.535156 2.484375 17.726562 2.8125 17.933594 3.148438 C 18.050781 3.351562 18.164062 3.554688 18.28125 3.757812 C 18.730469 4.539062 19.179688 5.316406 19.65625 6.082031 C 19.898438 6.480469 19.898438 6.480469 19.898438 6.699219 C 19.964844 6.699219 20.03125 6.699219 20.101562 6.699219 C 20.125 6.628906 20.152344 6.558594 20.179688 6.484375 C 20.308594 6.183594 20.457031 5.90625 20.621094 5.625 C 20.683594 5.511719 20.75 5.398438 20.816406 5.28125 C 20.886719 5.160156 20.957031 5.039062 21.023438 4.917969 C 21.097656 4.792969 21.167969 4.667969 21.242188 4.542969 C 21.921875 3.359375 22.605469 2.175781 23.300781 1 C 23.332031 0.917969 23.367188 0.839844 23.402344 0.757812 C 23.542969 0.460938 23.675781 0.238281 23.898438 0 C 24.335938 -0.144531 24.753906 -0.125 25.207031 -0.113281 C 25.339844 -0.113281 25.472656 -0.113281 25.605469 -0.113281 C 25.96875 -0.113281 26.328125 -0.109375 26.6875 -0.101562 C 27.0625 -0.09375 27.441406 -0.09375 27.816406 -0.09375 C 28.53125 -0.0898438 29.242188 -0.0820312 29.957031 -0.0703125 C 30.769531 -0.0625 31.578125 -0.0546875 32.390625 -0.0507812 C 34.0625 -0.0390625 35.730469 -0.0234375 37.398438 0 C 37.273438 0.238281 37.148438 0.476562 37.019531 0.714844 C 36.984375 0.78125 36.949219 0.847656 36.914062 0.914062 C 36.605469 1.496094 36.277344 2.066406 35.945312 2.632812 C 35.820312 2.839844 35.699219 3.046875 35.578125 3.257812 C 35.484375 3.414062 35.484375 3.414062 35.390625 3.578125 C 35.074219 4.113281 34.765625 4.648438 34.457031 5.1875 C 34.394531 5.296875 34.332031 5.402344 34.269531 5.515625 C 34.140625 5.734375 34.015625 5.953125 33.890625 6.171875 C 33.578125 6.714844 33.261719 7.257812 32.949219 7.800781 C 32.824219 8.015625 32.699219 8.234375 32.574219 8.449219 C 32.324219 8.882812 32.074219 9.316406 31.824219 9.75 C 31.761719 9.855469 31.703125 9.964844 31.636719 10.074219 C 31.511719 10.292969 31.386719 10.507812 31.261719 10.722656 C 30.949219 11.269531 30.636719 11.8125 30.320312 12.355469 C 29.71875 13.402344 29.117188 14.445312 28.507812 15.488281 C 28 16.355469 27.496094 17.226562 27 18.101562 C 26.445312 19.070312 25.886719 20.039062 25.320312 21.007812 C 24.707031 22.058594 24.097656 23.117188 23.488281 24.171875 C 23.113281 24.820312 22.738281 25.46875 22.367188 26.121094 C 22.070312 26.628906 21.777344 27.136719 21.484375 27.648438 C 21.347656 27.886719 21.207031 28.128906 21.070312 28.371094 C 20.972656 28.539062 20.871094 28.710938 20.773438 28.882812 C 20.6875 29.035156 20.6875 29.035156 20.59375 29.191406 C 20.542969 29.285156 20.492188 29.375 20.4375 29.46875 C 20.328125 29.648438 20.214844 29.824219 20.101562 30 C 19.722656 29.875 19.699219 29.769531 19.515625 29.425781 C 19.457031 29.328125 19.402344 29.226562 19.347656 29.125 C 19.289062 29.015625 19.230469 28.90625 19.167969 28.792969 C 19.042969 28.5625 18.914062 28.332031 18.789062 28.101562 C 18.738281 28.015625 18.738281 28.015625 18.691406 27.925781 C 18.371094 27.34375 18.039062 26.777344 17.707031 26.207031 C 17.589844 26.007812 17.472656 25.808594 17.355469 25.609375 C 17.296875 25.507812 17.238281 25.410156 17.179688 25.308594 C 16.871094 24.777344 16.5625 24.246094 16.257812 23.710938 C 16.195312 23.605469 16.132812 23.496094 16.066406 23.386719 C 15.941406 23.167969 15.816406 22.945312 15.6875 22.726562 C 15.375 22.183594 15.0625 21.644531 14.75 21.101562 C 14.625 20.882812 14.5 20.667969 14.375 20.449219 C 14.3125 20.34375 14.25 20.234375 14.1875 20.125 C 12.125 16.550781 12.125 16.550781 11.9375 16.226562 C 11.8125 16.007812 11.6875 15.792969 11.5625 15.574219 C 11.25 15.03125 10.933594 14.488281 10.621094 13.941406 C 10.019531 12.898438 9.414062 11.855469 8.804688 10.8125 C 8.265625 9.886719 7.730469 8.953125 7.199219 8.019531 C 6.679688 7.109375 6.152344 6.199219 5.621094 5.296875 C 5.125 4.441406 4.628906 3.585938 4.136719 2.726562 C 3.722656 2.007812 3.304688 1.292969 2.878906 0.582031 C 2.601562 0.109375 2.601562 0.109375 2.601562 0 Z M 2.601562 0 "/>
<path style=" stroke:none;fill-rule:nonzero;fill:rgb(26.274511%,32.941177%,40.000001%);fill-opacity:1;" d="M 9.601562 0 C 10.421875 -0.0546875 11.246094 -0.0976562 12.070312 -0.125 C 12.453125 -0.136719 12.835938 -0.152344 13.21875 -0.179688 C 15.671875 -0.351562 15.671875 -0.351562 16.367188 0.222656 C 16.832031 0.789062 17.117188 1.429688 17.382812 2.109375 C 17.535156 2.484375 17.722656 2.804688 17.933594 3.148438 C 18.050781 3.351562 18.164062 3.554688 18.28125 3.757812 C 18.730469 4.539062 19.179688 5.316406 19.65625 6.082031 C 19.898438 6.480469 19.898438 6.480469 19.898438 6.699219 C 19.964844 6.699219 20.03125 6.699219 20.101562 6.699219 C 20.125 6.628906 20.152344 6.558594 20.179688 6.484375 C 20.308594 6.183594 20.457031 5.90625 20.621094 5.625 C 20.683594 5.511719 20.75 5.398438 20.816406 5.28125 C 20.886719 5.160156 20.957031 5.039062 21.023438 4.917969 C 21.097656 4.792969 21.167969 4.667969 21.242188 4.542969 C 21.921875 3.359375 22.605469 2.175781 23.300781 1 C 23.351562 0.875 23.351562 0.875 23.402344 0.75 C 23.539062 0.445312 23.660156 0.234375 23.898438 0 C 24.390625 -0.140625 24.875 -0.117188 25.378906 -0.0976562 C 25.523438 -0.0976562 25.671875 -0.09375 25.816406 -0.09375 C 26.195312 -0.0898438 26.574219 -0.078125 26.953125 -0.0703125 C 27.34375 -0.0585938 27.730469 -0.0546875 28.117188 -0.046875 C 28.878906 -0.0390625 29.640625 -0.0195312 30.398438 0 C 29.554688 1.597656 29.554688 1.597656 29.144531 2.28125 C 28.71875 3 28.296875 3.71875 27.882812 4.445312 C 27.816406 4.554688 27.753906 4.664062 27.6875 4.777344 C 27.558594 5.007812 27.425781 5.234375 27.296875 5.460938 C 26.980469 6.007812 26.664062 6.554688 26.351562 7.101562 C 26.226562 7.316406 26.101562 7.535156 25.976562 7.75 C 24.851562 9.699219 24.851562 9.699219 23.726562 11.648438 C 23.664062 11.757812 23.601562 11.863281 23.539062 11.976562 C 23.414062 12.191406 23.289062 12.40625 23.164062 12.621094 C 22.84375 13.175781 22.527344 13.730469 22.207031 14.28125 C 21.894531 14.824219 21.582031 15.363281 21.269531 15.90625 C 21.109375 16.183594 20.949219 16.460938 20.789062 16.742188 C 20.699219 16.898438 20.609375 17.054688 20.519531 17.210938 C 20.457031 17.320312 20.457031 17.320312 20.398438 17.429688 C 20.304688 17.589844 20.203125 17.746094 20.101562 17.898438 C 20.035156 17.898438 19.96875 17.898438 19.898438 17.898438 C 13.523438 6.851562 13.523438 6.851562 13.335938 6.523438 C 13.210938 6.308594 13.085938 6.09375 12.964844 5.875 C 12.648438 5.328125 12.332031 4.78125 12.019531 4.234375 C 11.347656 3.070312 10.675781 1.910156 9.984375 0.757812 C 9.933594 0.671875 9.882812 0.585938 9.832031 0.5 C 9.785156 0.425781 9.742188 0.347656 9.695312 0.273438 C 9.601562 0.101562 9.601562 0.101562 9.601562 0 Z M 9.601562 0 "/>
</g>
</svg>
